%FSLAX45Y45*%
G04 Gerber Fmt 4.5, Leading zero omitted, Abs format (unit mm)*
G04 Created by KiCad (PCBNEW 4.0.7) date 09/25/17 13:32:10*
%MOMM*%
%LPD*%
G01*
G04 APERTURE LIST*
%ADD10C,0.127000*%
%ADD11C,0.200000*%
%ADD12C,0.300000*%
G04 APERTURE END LIST*
D10*
D11*
X17000000Y-4500000D02*
G75*
G03X16500000Y-4000000I-500000J0D01*
G01*
X16500000Y-12000000D02*
G75*
G03X17000000Y-11500000I0J500000D01*
G01*
X11000000Y-11500000D02*
G75*
G03X11500000Y-12000000I500000J0D01*
G01*
X11500000Y-4000000D02*
G75*
G03X11000000Y-4500000I0J-500000D01*
G01*
X17000000Y-11500000D02*
X17000000Y-4500000D01*
X11500000Y-12000000D02*
X16500000Y-12000000D01*
X11000000Y-4500000D02*
X11000000Y-11500000D01*
X16500000Y-4000000D02*
X11500000Y-4000000D01*
X13250000Y-10750000D02*
G75*
G03X13500000Y-11000000I250000J0D01*
G01*
X14500000Y-11000000D02*
G75*
G03X14750000Y-10750000I0J250000D01*
G01*
X14750000Y-5500000D02*
G75*
G03X14500000Y-5250000I-250000J0D01*
G01*
X13500000Y-5250000D02*
G75*
G03X13250000Y-5500000I0J-250000D01*
G01*
X13500000Y-5250000D02*
X14500000Y-5250000D01*
X13500000Y-11000000D02*
X14500000Y-11000000D01*
X14750000Y-5500000D02*
X14750000Y-10750000D01*
X13250000Y-5500000D02*
X13250000Y-10750000D01*
D11*
X13023800Y-6623800D02*
X13176200Y-6776200D01*
X13176200Y-6623800D02*
X13023800Y-6776200D01*
X13023800Y-6823800D02*
X13176200Y-6976200D01*
X13176200Y-6823800D02*
X13023800Y-6976200D01*
X13023800Y-7023800D02*
X13176200Y-7176200D01*
X13176200Y-7023800D02*
X13023800Y-7176200D01*
X13023800Y-7223800D02*
X13176200Y-7376200D01*
X13176200Y-7223800D02*
X13023800Y-7376200D01*
X13023800Y-7423800D02*
X13176200Y-7576200D01*
X13176200Y-7423800D02*
X13023800Y-7576200D01*
X13023800Y-7623800D02*
X13176200Y-7776200D01*
X13176200Y-7623800D02*
X13023800Y-7776200D01*
X13023800Y-7823800D02*
X13176200Y-7976200D01*
X13176200Y-7823800D02*
X13023800Y-7976200D01*
X13023800Y-8023800D02*
X13176200Y-8176200D01*
X13176200Y-8023800D02*
X13023800Y-8176200D01*
X13023800Y-8223800D02*
X13176200Y-8376200D01*
X13176200Y-8223800D02*
X13023800Y-8376200D01*
X13023800Y-8423800D02*
X13176200Y-8576200D01*
X13176200Y-8423800D02*
X13023800Y-8576200D01*
X14823800Y-6623800D02*
X14976200Y-6776200D01*
X14976200Y-6623800D02*
X14823800Y-6776200D01*
X14823800Y-6823800D02*
X14976200Y-6976200D01*
X14976200Y-6823800D02*
X14823800Y-6976200D01*
X14823800Y-7023800D02*
X14976200Y-7176200D01*
X14976200Y-7023800D02*
X14823800Y-7176200D01*
X14823800Y-7223800D02*
X14976200Y-7376200D01*
X14976200Y-7223800D02*
X14823800Y-7376200D01*
X14823800Y-7423800D02*
X14976200Y-7576200D01*
X14976200Y-7423800D02*
X14823800Y-7576200D01*
X14823800Y-7623800D02*
X14976200Y-7776200D01*
X14976200Y-7623800D02*
X14823800Y-7776200D01*
X14823800Y-7823800D02*
X14976200Y-7976200D01*
X14976200Y-7823800D02*
X14823800Y-7976200D01*
X14823800Y-8023800D02*
X14976200Y-8176200D01*
X14976200Y-8023800D02*
X14823800Y-8176200D01*
X14823800Y-8223800D02*
X14976200Y-8376200D01*
X14976200Y-8223800D02*
X14823800Y-8376200D01*
X14823800Y-8423800D02*
X14976200Y-8576200D01*
X14976200Y-8423800D02*
X14823800Y-8576200D01*
D12*
X11261428Y-12475714D02*
X11261428Y-12175714D01*
X11332857Y-12175714D01*
X11375714Y-12190000D01*
X11404286Y-12218571D01*
X11418571Y-12247143D01*
X11432857Y-12304286D01*
X11432857Y-12347143D01*
X11418571Y-12404286D01*
X11404286Y-12432857D01*
X11375714Y-12461429D01*
X11332857Y-12475714D01*
X11261428Y-12475714D01*
X11561428Y-12475714D02*
X11561428Y-12275714D01*
X11561428Y-12332857D02*
X11575714Y-12304286D01*
X11590000Y-12290000D01*
X11618571Y-12275714D01*
X11647143Y-12275714D01*
X11747143Y-12475714D02*
X11747143Y-12275714D01*
X11747143Y-12175714D02*
X11732857Y-12190000D01*
X11747143Y-12204286D01*
X11761428Y-12190000D01*
X11747143Y-12175714D01*
X11747143Y-12204286D01*
X11932857Y-12475714D02*
X11904286Y-12461429D01*
X11890000Y-12432857D01*
X11890000Y-12175714D01*
X12090000Y-12475714D02*
X12061428Y-12461429D01*
X12047143Y-12432857D01*
X12047143Y-12175714D01*
X12432857Y-12475714D02*
X12432857Y-12175714D01*
X12532857Y-12390000D01*
X12632857Y-12175714D01*
X12632857Y-12475714D01*
X12904286Y-12475714D02*
X12904286Y-12318571D01*
X12890000Y-12290000D01*
X12861428Y-12275714D01*
X12804286Y-12275714D01*
X12775714Y-12290000D01*
X12904286Y-12461429D02*
X12875714Y-12475714D01*
X12804286Y-12475714D01*
X12775714Y-12461429D01*
X12761428Y-12432857D01*
X12761428Y-12404286D01*
X12775714Y-12375714D01*
X12804286Y-12361429D01*
X12875714Y-12361429D01*
X12904286Y-12347143D01*
X13047143Y-12275714D02*
X13047143Y-12575714D01*
X13047143Y-12290000D02*
X13075714Y-12275714D01*
X13132857Y-12275714D01*
X13161428Y-12290000D01*
X13175714Y-12304286D01*
X13190000Y-12332857D01*
X13190000Y-12418571D01*
X13175714Y-12447143D01*
X13161428Y-12461429D01*
X13132857Y-12475714D01*
X13075714Y-12475714D01*
X13047143Y-12461429D01*
X13318571Y-12447143D02*
X13332857Y-12461429D01*
X13318571Y-12475714D01*
X13304286Y-12461429D01*
X13318571Y-12447143D01*
X13318571Y-12475714D01*
X13318571Y-12290000D02*
X13332857Y-12304286D01*
X13318571Y-12318571D01*
X13304286Y-12304286D01*
X13318571Y-12290000D01*
X13318571Y-12318571D01*
X10837600Y-12893800D02*
X10990000Y-13046200D01*
X10990000Y-12893800D02*
X10837600Y-13046200D01*
X11418571Y-13105714D02*
X11247143Y-13105714D01*
X11332857Y-13105714D02*
X11332857Y-12805714D01*
X11304286Y-12848571D01*
X11275714Y-12877143D01*
X11247143Y-12891429D01*
X11547143Y-13077143D02*
X11561428Y-13091429D01*
X11547143Y-13105714D01*
X11532857Y-13091429D01*
X11547143Y-13077143D01*
X11547143Y-13105714D01*
X11832857Y-12805714D02*
X11690000Y-12805714D01*
X11675714Y-12948571D01*
X11690000Y-12934286D01*
X11718571Y-12920000D01*
X11790000Y-12920000D01*
X11818571Y-12934286D01*
X11832857Y-12948571D01*
X11847143Y-12977143D01*
X11847143Y-13048571D01*
X11832857Y-13077143D01*
X11818571Y-13091429D01*
X11790000Y-13105714D01*
X11718571Y-13105714D01*
X11690000Y-13091429D01*
X11675714Y-13077143D01*
X11961428Y-12834286D02*
X11975714Y-12820000D01*
X12004286Y-12805714D01*
X12075714Y-12805714D01*
X12104286Y-12820000D01*
X12118571Y-12834286D01*
X12132857Y-12862857D01*
X12132857Y-12891429D01*
X12118571Y-12934286D01*
X11947143Y-13105714D01*
X12132857Y-13105714D01*
X12261428Y-13105714D02*
X12261428Y-12905714D01*
X12261428Y-12934286D02*
X12275714Y-12920000D01*
X12304286Y-12905714D01*
X12347143Y-12905714D01*
X12375714Y-12920000D01*
X12390000Y-12948571D01*
X12390000Y-13105714D01*
X12390000Y-12948571D02*
X12404286Y-12920000D01*
X12432857Y-12905714D01*
X12475714Y-12905714D01*
X12504286Y-12920000D01*
X12518571Y-12948571D01*
X12518571Y-13105714D01*
X12661428Y-13105714D02*
X12661428Y-12905714D01*
X12661428Y-12934286D02*
X12675714Y-12920000D01*
X12704286Y-12905714D01*
X12747143Y-12905714D01*
X12775714Y-12920000D01*
X12790000Y-12948571D01*
X12790000Y-13105714D01*
X12790000Y-12948571D02*
X12804286Y-12920000D01*
X12832857Y-12905714D01*
X12875714Y-12905714D01*
X12904286Y-12920000D01*
X12918571Y-12948571D01*
X12918571Y-13105714D01*
X13504286Y-12791429D02*
X13247143Y-13177143D01*
X13890000Y-12805714D02*
X13918571Y-12805714D01*
X13947143Y-12820000D01*
X13961428Y-12834286D01*
X13975714Y-12862857D01*
X13990000Y-12920000D01*
X13990000Y-12991429D01*
X13975714Y-13048571D01*
X13961428Y-13077143D01*
X13947143Y-13091429D01*
X13918571Y-13105714D01*
X13890000Y-13105714D01*
X13861428Y-13091429D01*
X13847143Y-13077143D01*
X13832857Y-13048571D01*
X13818571Y-12991429D01*
X13818571Y-12920000D01*
X13832857Y-12862857D01*
X13847143Y-12834286D01*
X13861428Y-12820000D01*
X13890000Y-12805714D01*
X14118571Y-13077143D02*
X14132857Y-13091429D01*
X14118571Y-13105714D01*
X14104286Y-13091429D01*
X14118571Y-13077143D01*
X14118571Y-13105714D01*
X14318571Y-12805714D02*
X14347143Y-12805714D01*
X14375714Y-12820000D01*
X14390000Y-12834286D01*
X14404285Y-12862857D01*
X14418571Y-12920000D01*
X14418571Y-12991429D01*
X14404285Y-13048571D01*
X14390000Y-13077143D01*
X14375714Y-13091429D01*
X14347143Y-13105714D01*
X14318571Y-13105714D01*
X14290000Y-13091429D01*
X14275714Y-13077143D01*
X14261428Y-13048571D01*
X14247143Y-12991429D01*
X14247143Y-12920000D01*
X14261428Y-12862857D01*
X14275714Y-12834286D01*
X14290000Y-12820000D01*
X14318571Y-12805714D01*
X14675714Y-12805714D02*
X14618571Y-12805714D01*
X14590000Y-12820000D01*
X14575714Y-12834286D01*
X14547143Y-12877143D01*
X14532857Y-12934286D01*
X14532857Y-13048571D01*
X14547143Y-13077143D01*
X14561428Y-13091429D01*
X14590000Y-13105714D01*
X14647143Y-13105714D01*
X14675714Y-13091429D01*
X14690000Y-13077143D01*
X14704285Y-13048571D01*
X14704285Y-12977143D01*
X14690000Y-12948571D01*
X14675714Y-12934286D01*
X14647143Y-12920000D01*
X14590000Y-12920000D01*
X14561428Y-12934286D01*
X14547143Y-12948571D01*
X14532857Y-12977143D01*
X14890000Y-12805714D02*
X14918571Y-12805714D01*
X14947143Y-12820000D01*
X14961428Y-12834286D01*
X14975714Y-12862857D01*
X14990000Y-12920000D01*
X14990000Y-12991429D01*
X14975714Y-13048571D01*
X14961428Y-13077143D01*
X14947143Y-13091429D01*
X14918571Y-13105714D01*
X14890000Y-13105714D01*
X14861428Y-13091429D01*
X14847143Y-13077143D01*
X14832857Y-13048571D01*
X14818571Y-12991429D01*
X14818571Y-12920000D01*
X14832857Y-12862857D01*
X14847143Y-12834286D01*
X14861428Y-12820000D01*
X14890000Y-12805714D01*
X15104286Y-12805714D02*
X15104286Y-12862857D01*
X15218571Y-12805714D02*
X15218571Y-12862857D01*
X15661428Y-13220000D02*
X15647143Y-13205714D01*
X15618571Y-13162857D01*
X15604285Y-13134286D01*
X15590000Y-13091429D01*
X15575714Y-13020000D01*
X15575714Y-12962857D01*
X15590000Y-12891429D01*
X15604285Y-12848571D01*
X15618571Y-12820000D01*
X15647143Y-12777143D01*
X15661428Y-12762857D01*
X15761428Y-12834286D02*
X15775714Y-12820000D01*
X15804285Y-12805714D01*
X15875714Y-12805714D01*
X15904285Y-12820000D01*
X15918571Y-12834286D01*
X15932857Y-12862857D01*
X15932857Y-12891429D01*
X15918571Y-12934286D01*
X15747143Y-13105714D01*
X15932857Y-13105714D01*
X16118571Y-12805714D02*
X16147143Y-12805714D01*
X16175714Y-12820000D01*
X16190000Y-12834286D01*
X16204285Y-12862857D01*
X16218571Y-12920000D01*
X16218571Y-12991429D01*
X16204285Y-13048571D01*
X16190000Y-13077143D01*
X16175714Y-13091429D01*
X16147143Y-13105714D01*
X16118571Y-13105714D01*
X16090000Y-13091429D01*
X16075714Y-13077143D01*
X16061428Y-13048571D01*
X16047143Y-12991429D01*
X16047143Y-12920000D01*
X16061428Y-12862857D01*
X16075714Y-12834286D01*
X16090000Y-12820000D01*
X16118571Y-12805714D01*
X16575714Y-13105714D02*
X16575714Y-12805714D01*
X16704285Y-13105714D02*
X16704285Y-12948571D01*
X16690000Y-12920000D01*
X16661428Y-12905714D01*
X16618571Y-12905714D01*
X16590000Y-12920000D01*
X16575714Y-12934286D01*
X16890000Y-13105714D02*
X16861428Y-13091429D01*
X16847143Y-13077143D01*
X16832857Y-13048571D01*
X16832857Y-12962857D01*
X16847143Y-12934286D01*
X16861428Y-12920000D01*
X16890000Y-12905714D01*
X16932857Y-12905714D01*
X16961428Y-12920000D01*
X16975714Y-12934286D01*
X16990000Y-12962857D01*
X16990000Y-13048571D01*
X16975714Y-13077143D01*
X16961428Y-13091429D01*
X16932857Y-13105714D01*
X16890000Y-13105714D01*
X17161428Y-13105714D02*
X17132857Y-13091429D01*
X17118571Y-13062857D01*
X17118571Y-12805714D01*
X17390000Y-13091429D02*
X17361429Y-13105714D01*
X17304286Y-13105714D01*
X17275714Y-13091429D01*
X17261429Y-13062857D01*
X17261429Y-12948571D01*
X17275714Y-12920000D01*
X17304286Y-12905714D01*
X17361429Y-12905714D01*
X17390000Y-12920000D01*
X17404286Y-12948571D01*
X17404286Y-12977143D01*
X17261429Y-13005714D01*
X17518571Y-13091429D02*
X17547143Y-13105714D01*
X17604286Y-13105714D01*
X17632857Y-13091429D01*
X17647143Y-13062857D01*
X17647143Y-13048571D01*
X17632857Y-13020000D01*
X17604286Y-13005714D01*
X17561429Y-13005714D01*
X17532857Y-12991429D01*
X17518571Y-12962857D01*
X17518571Y-12948571D01*
X17532857Y-12920000D01*
X17561429Y-12905714D01*
X17604286Y-12905714D01*
X17632857Y-12920000D01*
X17747143Y-13220000D02*
X17761429Y-13205714D01*
X17790000Y-13162857D01*
X17804286Y-13134286D01*
X17818571Y-13091429D01*
X17832857Y-13020000D01*
X17832857Y-12962857D01*
X17818571Y-12891429D01*
X17804286Y-12848571D01*
X17790000Y-12820000D01*
X17761429Y-12777143D01*
X17747143Y-12762857D01*
X18290000Y-13220000D02*
X18275714Y-13205714D01*
X18247143Y-13162857D01*
X18232857Y-13134286D01*
X18218571Y-13091429D01*
X18204286Y-13020000D01*
X18204286Y-12962857D01*
X18218571Y-12891429D01*
X18232857Y-12848571D01*
X18247143Y-12820000D01*
X18275714Y-12777143D01*
X18290000Y-12762857D01*
X18404286Y-12905714D02*
X18404286Y-13105714D01*
X18404286Y-12934286D02*
X18418571Y-12920000D01*
X18447143Y-12905714D01*
X18490000Y-12905714D01*
X18518571Y-12920000D01*
X18532857Y-12948571D01*
X18532857Y-13105714D01*
X18718571Y-13105714D02*
X18690000Y-13091429D01*
X18675714Y-13077143D01*
X18661429Y-13048571D01*
X18661429Y-12962857D01*
X18675714Y-12934286D01*
X18690000Y-12920000D01*
X18718571Y-12905714D01*
X18761429Y-12905714D01*
X18790000Y-12920000D01*
X18804286Y-12934286D01*
X18818571Y-12962857D01*
X18818571Y-13048571D01*
X18804286Y-13077143D01*
X18790000Y-13091429D01*
X18761429Y-13105714D01*
X18718571Y-13105714D01*
X18904286Y-12905714D02*
X19018571Y-12905714D01*
X18947143Y-12805714D02*
X18947143Y-13062857D01*
X18961429Y-13091429D01*
X18990000Y-13105714D01*
X19018571Y-13105714D01*
X19347143Y-12905714D02*
X19347143Y-13205714D01*
X19347143Y-12920000D02*
X19375714Y-12905714D01*
X19432857Y-12905714D01*
X19461429Y-12920000D01*
X19475714Y-12934286D01*
X19490000Y-12962857D01*
X19490000Y-13048571D01*
X19475714Y-13077143D01*
X19461429Y-13091429D01*
X19432857Y-13105714D01*
X19375714Y-13105714D01*
X19347143Y-13091429D01*
X19661429Y-13105714D02*
X19632857Y-13091429D01*
X19618571Y-13062857D01*
X19618571Y-12805714D01*
X19904286Y-13105714D02*
X19904286Y-12948571D01*
X19890000Y-12920000D01*
X19861429Y-12905714D01*
X19804286Y-12905714D01*
X19775714Y-12920000D01*
X19904286Y-13091429D02*
X19875714Y-13105714D01*
X19804286Y-13105714D01*
X19775714Y-13091429D01*
X19761429Y-13062857D01*
X19761429Y-13034286D01*
X19775714Y-13005714D01*
X19804286Y-12991429D01*
X19875714Y-12991429D01*
X19904286Y-12977143D01*
X20004286Y-12905714D02*
X20118571Y-12905714D01*
X20047143Y-12805714D02*
X20047143Y-13062857D01*
X20061429Y-13091429D01*
X20090000Y-13105714D01*
X20118571Y-13105714D01*
X20332857Y-13091429D02*
X20304286Y-13105714D01*
X20247143Y-13105714D01*
X20218572Y-13091429D01*
X20204286Y-13062857D01*
X20204286Y-12948571D01*
X20218572Y-12920000D01*
X20247143Y-12905714D01*
X20304286Y-12905714D01*
X20332857Y-12920000D01*
X20347143Y-12948571D01*
X20347143Y-12977143D01*
X20204286Y-13005714D01*
X20604286Y-13105714D02*
X20604286Y-12805714D01*
X20604286Y-13091429D02*
X20575714Y-13105714D01*
X20518572Y-13105714D01*
X20490000Y-13091429D01*
X20475714Y-13077143D01*
X20461429Y-13048571D01*
X20461429Y-12962857D01*
X20475714Y-12934286D01*
X20490000Y-12920000D01*
X20518572Y-12905714D01*
X20575714Y-12905714D01*
X20604286Y-12920000D01*
X20718572Y-13220000D02*
X20732857Y-13205714D01*
X20761429Y-13162857D01*
X20775714Y-13134286D01*
X20790000Y-13091429D01*
X20804286Y-13020000D01*
X20804286Y-12962857D01*
X20790000Y-12891429D01*
X20775714Y-12848571D01*
X20761429Y-12820000D01*
X20732857Y-12777143D01*
X20718572Y-12762857D01*
M02*
