M48
;DRILL file {KiCad 4.0.7} date 09/25/17 13:32:09
;FORMAT={-:-/ absolute / metric / decimal}
FMAT,2
METRIC,TZ
T1C1.524
%
G90
G05
M71
T1
X131.Y-67.
X131.Y-69.
X131.Y-71.
X131.Y-73.
X131.Y-75.
X131.Y-77.
X131.Y-79.
X131.Y-81.
X131.Y-83.
X131.Y-85.
X149.Y-67.
X149.Y-69.
X149.Y-71.
X149.Y-73.
X149.Y-75.
X149.Y-77.
X149.Y-79.
X149.Y-81.
X149.Y-83.
X149.Y-85.
T0
M30
