M48
;DRILL file {KiCad 4.0.7} date 09/25/17 13:32:09
;FORMAT={-:-/ absolute / metric / decimal}
FMAT,2
METRIC,TZ
T1C0.762
T2C0.800
T3C1.000
T4C1.400
T5C3.200
%
G90
G05
M71
T1
X127.Y-67.
X129.Y-67.
X151.Y-85.
X153.Y-85.
T2
X127.Y-69.
X127.Y-71.
X127.Y-73.
X127.Y-75.
X127.Y-77.
X127.Y-79.
X127.Y-81.
X127.Y-83.
X127.Y-85.
X129.Y-69.
X129.Y-71.
X129.Y-73.
X129.Y-75.
X129.Y-77.
X129.Y-79.
X129.Y-81.
X129.Y-83.
X129.Y-85.
X151.Y-67.
X151.Y-69.
X151.Y-71.
X151.Y-73.
X151.Y-75.
X151.Y-77.
X151.Y-79.
X151.Y-81.
X151.Y-83.
X153.Y-67.
X153.Y-69.
X153.Y-71.
X153.Y-73.
X153.Y-75.
X153.Y-77.
X153.Y-79.
X153.Y-81.
X153.Y-83.
T3
X122.5Y-64.55
X122.5Y-67.09
X122.5Y-69.63
X122.5Y-72.17
X122.5Y-74.71
X122.5Y-77.25
X122.5Y-79.79
X122.5Y-82.33
X122.5Y-84.87
X122.5Y-87.41
X157.5Y-64.55
X157.5Y-67.09
X157.5Y-69.63
X157.5Y-72.17
X157.5Y-74.71
X157.5Y-77.25
X157.5Y-79.79
X157.5Y-82.33
X157.5Y-84.87
X157.5Y-87.41
T4
X157.7Y-58.4
X163.2Y-58.4
T5
X115.Y-45.
X115.Y-115.
X165.Y-45.
X165.Y-115.
T0
M30
