%FSLAX45Y45*%
G04 Gerber Fmt 4.5, Leading zero omitted, Abs format (unit mm)*
G04 Created by KiCad (PCBNEW 4.0.7) date 09/25/17 13:32:10*
%MOMM*%
%LPD*%
G01*
G04 APERTURE LIST*
%ADD10C,0.127000*%
%ADD11C,0.200000*%
%ADD12C,0.300000*%
G04 APERTURE END LIST*
D10*
D11*
X17000000Y-4500000D02*
G75*
G03X16500000Y-4000000I-500000J0D01*
G01*
X16500000Y-12000000D02*
G75*
G03X17000000Y-11500000I0J500000D01*
G01*
X11000000Y-11500000D02*
G75*
G03X11500000Y-12000000I500000J0D01*
G01*
X11500000Y-4000000D02*
G75*
G03X11000000Y-4500000I0J-500000D01*
G01*
X17000000Y-11500000D02*
X17000000Y-4500000D01*
X11500000Y-12000000D02*
X16500000Y-12000000D01*
X11000000Y-4500000D02*
X11000000Y-11500000D01*
X16500000Y-4000000D02*
X11500000Y-4000000D01*
X13250000Y-10750000D02*
G75*
G03X13500000Y-11000000I250000J0D01*
G01*
X14500000Y-11000000D02*
G75*
G03X14750000Y-10750000I0J250000D01*
G01*
X14750000Y-5500000D02*
G75*
G03X14500000Y-5250000I-250000J0D01*
G01*
X13500000Y-5250000D02*
G75*
G03X13250000Y-5500000I0J-250000D01*
G01*
X13500000Y-5250000D02*
X14500000Y-5250000D01*
X13500000Y-11000000D02*
X14500000Y-11000000D01*
X14750000Y-5500000D02*
X14750000Y-10750000D01*
X13250000Y-5500000D02*
X13250000Y-10750000D01*
D11*
X12661900Y-6661900D02*
X12738100Y-6738100D01*
X12738100Y-6661900D02*
X12661900Y-6738100D01*
X12861900Y-6661900D02*
X12938100Y-6738100D01*
X12938100Y-6661900D02*
X12861900Y-6738100D01*
X15061900Y-8461900D02*
X15138100Y-8538100D01*
X15138100Y-8461900D02*
X15061900Y-8538100D01*
X15261900Y-8461900D02*
X15338100Y-8538100D01*
X15338100Y-8461900D02*
X15261900Y-8538100D01*
X12740000Y-6900000D02*
G75*
G03X12740000Y-6900000I-40000J0D01*
G01*
X12740000Y-7100000D02*
G75*
G03X12740000Y-7100000I-40000J0D01*
G01*
X12740000Y-7300000D02*
G75*
G03X12740000Y-7300000I-40000J0D01*
G01*
X12740000Y-7500000D02*
G75*
G03X12740000Y-7500000I-40000J0D01*
G01*
X12740000Y-7700000D02*
G75*
G03X12740000Y-7700000I-40000J0D01*
G01*
X12740000Y-7900000D02*
G75*
G03X12740000Y-7900000I-40000J0D01*
G01*
X12740000Y-8100000D02*
G75*
G03X12740000Y-8100000I-40000J0D01*
G01*
X12740000Y-8300000D02*
G75*
G03X12740000Y-8300000I-40000J0D01*
G01*
X12740000Y-8500000D02*
G75*
G03X12740000Y-8500000I-40000J0D01*
G01*
X12940000Y-6900000D02*
G75*
G03X12940000Y-6900000I-40000J0D01*
G01*
X12940000Y-7100000D02*
G75*
G03X12940000Y-7100000I-40000J0D01*
G01*
X12940000Y-7300000D02*
G75*
G03X12940000Y-7300000I-40000J0D01*
G01*
X12940000Y-7500000D02*
G75*
G03X12940000Y-7500000I-40000J0D01*
G01*
X12940000Y-7700000D02*
G75*
G03X12940000Y-7700000I-40000J0D01*
G01*
X12940000Y-7900000D02*
G75*
G03X12940000Y-7900000I-40000J0D01*
G01*
X12940000Y-8100000D02*
G75*
G03X12940000Y-8100000I-40000J0D01*
G01*
X12940000Y-8300000D02*
G75*
G03X12940000Y-8300000I-40000J0D01*
G01*
X12940000Y-8500000D02*
G75*
G03X12940000Y-8500000I-40000J0D01*
G01*
X15140000Y-6700000D02*
G75*
G03X15140000Y-6700000I-40000J0D01*
G01*
X15140000Y-6900000D02*
G75*
G03X15140000Y-6900000I-40000J0D01*
G01*
X15140000Y-7100000D02*
G75*
G03X15140000Y-7100000I-40000J0D01*
G01*
X15140000Y-7300000D02*
G75*
G03X15140000Y-7300000I-40000J0D01*
G01*
X15140000Y-7500000D02*
G75*
G03X15140000Y-7500000I-40000J0D01*
G01*
X15140000Y-7700000D02*
G75*
G03X15140000Y-7700000I-40000J0D01*
G01*
X15140000Y-7900000D02*
G75*
G03X15140000Y-7900000I-40000J0D01*
G01*
X15140000Y-8100000D02*
G75*
G03X15140000Y-8100000I-40000J0D01*
G01*
X15140000Y-8300000D02*
G75*
G03X15140000Y-8300000I-40000J0D01*
G01*
X15340000Y-6700000D02*
G75*
G03X15340000Y-6700000I-40000J0D01*
G01*
X15340000Y-6900000D02*
G75*
G03X15340000Y-6900000I-40000J0D01*
G01*
X15340000Y-7100000D02*
G75*
G03X15340000Y-7100000I-40000J0D01*
G01*
X15340000Y-7300000D02*
G75*
G03X15340000Y-7300000I-40000J0D01*
G01*
X15340000Y-7500000D02*
G75*
G03X15340000Y-7500000I-40000J0D01*
G01*
X15340000Y-7700000D02*
G75*
G03X15340000Y-7700000I-40000J0D01*
G01*
X15340000Y-7900000D02*
G75*
G03X15340000Y-7900000I-40000J0D01*
G01*
X15340000Y-8100000D02*
G75*
G03X15340000Y-8100000I-40000J0D01*
G01*
X15340000Y-8300000D02*
G75*
G03X15340000Y-8300000I-40000J0D01*
G01*
X12250000Y-6405000D02*
X12250000Y-6505000D01*
X12200000Y-6455000D02*
X12300000Y-6455000D01*
X12250000Y-6659000D02*
X12250000Y-6759000D01*
X12200000Y-6709000D02*
X12300000Y-6709000D01*
X12250000Y-6913000D02*
X12250000Y-7013000D01*
X12200000Y-6963000D02*
X12300000Y-6963000D01*
X12250000Y-7167000D02*
X12250000Y-7267000D01*
X12200000Y-7217000D02*
X12300000Y-7217000D01*
X12250000Y-7421000D02*
X12250000Y-7521000D01*
X12200000Y-7471000D02*
X12300000Y-7471000D01*
X12250000Y-7675000D02*
X12250000Y-7775000D01*
X12200000Y-7725000D02*
X12300000Y-7725000D01*
X12250000Y-7929000D02*
X12250000Y-8029000D01*
X12200000Y-7979000D02*
X12300000Y-7979000D01*
X12250000Y-8183000D02*
X12250000Y-8283000D01*
X12200000Y-8233000D02*
X12300000Y-8233000D01*
X12250000Y-8437000D02*
X12250000Y-8537000D01*
X12200000Y-8487000D02*
X12300000Y-8487000D01*
X12250000Y-8691000D02*
X12250000Y-8791000D01*
X12200000Y-8741000D02*
X12300000Y-8741000D01*
X15750000Y-6405000D02*
X15750000Y-6505000D01*
X15700000Y-6455000D02*
X15800000Y-6455000D01*
X15750000Y-6659000D02*
X15750000Y-6759000D01*
X15700000Y-6709000D02*
X15800000Y-6709000D01*
X15750000Y-6913000D02*
X15750000Y-7013000D01*
X15700000Y-6963000D02*
X15800000Y-6963000D01*
X15750000Y-7167000D02*
X15750000Y-7267000D01*
X15700000Y-7217000D02*
X15800000Y-7217000D01*
X15750000Y-7421000D02*
X15750000Y-7521000D01*
X15700000Y-7471000D02*
X15800000Y-7471000D01*
X15750000Y-7675000D02*
X15750000Y-7775000D01*
X15700000Y-7725000D02*
X15800000Y-7725000D01*
X15750000Y-7929000D02*
X15750000Y-8029000D01*
X15700000Y-7979000D02*
X15800000Y-7979000D01*
X15750000Y-8183000D02*
X15750000Y-8283000D01*
X15700000Y-8233000D02*
X15800000Y-8233000D01*
X15750000Y-8437000D02*
X15750000Y-8537000D01*
X15700000Y-8487000D02*
X15800000Y-8487000D01*
X15750000Y-8691000D02*
X15750000Y-8791000D01*
X15700000Y-8741000D02*
X15800000Y-8741000D01*
X15819498Y-5889498D02*
X15819498Y-5790502D01*
X15720502Y-5790502D01*
X15720502Y-5889498D01*
X15819498Y-5889498D01*
X16369498Y-5889498D02*
X16369498Y-5790502D01*
X16270502Y-5790502D01*
X16270502Y-5889498D01*
X16369498Y-5889498D01*
X11500000Y-4660000D02*
X11660000Y-4500000D01*
X11500000Y-4340000D01*
X11340000Y-4500000D01*
X11500000Y-4660000D01*
X11500000Y-11660000D02*
X11660000Y-11500000D01*
X11500000Y-11340000D01*
X11340000Y-11500000D01*
X11500000Y-11660000D01*
X16500000Y-4660000D02*
X16660000Y-4500000D01*
X16500000Y-4340000D01*
X16340000Y-4500000D01*
X16500000Y-4660000D01*
X16500000Y-11660000D02*
X16660000Y-11500000D01*
X16500000Y-11340000D01*
X16340000Y-11500000D01*
X16500000Y-11660000D01*
D12*
X11261428Y-12475714D02*
X11261428Y-12175714D01*
X11332857Y-12175714D01*
X11375714Y-12190000D01*
X11404286Y-12218571D01*
X11418571Y-12247143D01*
X11432857Y-12304286D01*
X11432857Y-12347143D01*
X11418571Y-12404286D01*
X11404286Y-12432857D01*
X11375714Y-12461429D01*
X11332857Y-12475714D01*
X11261428Y-12475714D01*
X11561428Y-12475714D02*
X11561428Y-12275714D01*
X11561428Y-12332857D02*
X11575714Y-12304286D01*
X11590000Y-12290000D01*
X11618571Y-12275714D01*
X11647143Y-12275714D01*
X11747143Y-12475714D02*
X11747143Y-12275714D01*
X11747143Y-12175714D02*
X11732857Y-12190000D01*
X11747143Y-12204286D01*
X11761428Y-12190000D01*
X11747143Y-12175714D01*
X11747143Y-12204286D01*
X11932857Y-12475714D02*
X11904286Y-12461429D01*
X11890000Y-12432857D01*
X11890000Y-12175714D01*
X12090000Y-12475714D02*
X12061428Y-12461429D01*
X12047143Y-12432857D01*
X12047143Y-12175714D01*
X12432857Y-12475714D02*
X12432857Y-12175714D01*
X12532857Y-12390000D01*
X12632857Y-12175714D01*
X12632857Y-12475714D01*
X12904286Y-12475714D02*
X12904286Y-12318571D01*
X12890000Y-12290000D01*
X12861428Y-12275714D01*
X12804286Y-12275714D01*
X12775714Y-12290000D01*
X12904286Y-12461429D02*
X12875714Y-12475714D01*
X12804286Y-12475714D01*
X12775714Y-12461429D01*
X12761428Y-12432857D01*
X12761428Y-12404286D01*
X12775714Y-12375714D01*
X12804286Y-12361429D01*
X12875714Y-12361429D01*
X12904286Y-12347143D01*
X13047143Y-12275714D02*
X13047143Y-12575714D01*
X13047143Y-12290000D02*
X13075714Y-12275714D01*
X13132857Y-12275714D01*
X13161428Y-12290000D01*
X13175714Y-12304286D01*
X13190000Y-12332857D01*
X13190000Y-12418571D01*
X13175714Y-12447143D01*
X13161428Y-12461429D01*
X13132857Y-12475714D01*
X13075714Y-12475714D01*
X13047143Y-12461429D01*
X13318571Y-12447143D02*
X13332857Y-12461429D01*
X13318571Y-12475714D01*
X13304286Y-12461429D01*
X13318571Y-12447143D01*
X13318571Y-12475714D01*
X13318571Y-12290000D02*
X13332857Y-12304286D01*
X13318571Y-12318571D01*
X13304286Y-12304286D01*
X13318571Y-12290000D01*
X13318571Y-12318571D01*
X10913800Y-12931900D02*
X10990000Y-13008100D01*
X10990000Y-12931900D02*
X10913800Y-13008100D01*
X11318571Y-12805714D02*
X11347143Y-12805714D01*
X11375714Y-12820000D01*
X11390000Y-12834286D01*
X11404286Y-12862857D01*
X11418571Y-12920000D01*
X11418571Y-12991429D01*
X11404286Y-13048571D01*
X11390000Y-13077143D01*
X11375714Y-13091429D01*
X11347143Y-13105714D01*
X11318571Y-13105714D01*
X11290000Y-13091429D01*
X11275714Y-13077143D01*
X11261428Y-13048571D01*
X11247143Y-12991429D01*
X11247143Y-12920000D01*
X11261428Y-12862857D01*
X11275714Y-12834286D01*
X11290000Y-12820000D01*
X11318571Y-12805714D01*
X11547143Y-13077143D02*
X11561428Y-13091429D01*
X11547143Y-13105714D01*
X11532857Y-13091429D01*
X11547143Y-13077143D01*
X11547143Y-13105714D01*
X11661428Y-12805714D02*
X11861428Y-12805714D01*
X11732857Y-13105714D01*
X12104286Y-12805714D02*
X12047143Y-12805714D01*
X12018571Y-12820000D01*
X12004286Y-12834286D01*
X11975714Y-12877143D01*
X11961428Y-12934286D01*
X11961428Y-13048571D01*
X11975714Y-13077143D01*
X11990000Y-13091429D01*
X12018571Y-13105714D01*
X12075714Y-13105714D01*
X12104286Y-13091429D01*
X12118571Y-13077143D01*
X12132857Y-13048571D01*
X12132857Y-12977143D01*
X12118571Y-12948571D01*
X12104286Y-12934286D01*
X12075714Y-12920000D01*
X12018571Y-12920000D01*
X11990000Y-12934286D01*
X11975714Y-12948571D01*
X11961428Y-12977143D01*
X12261428Y-13105714D02*
X12261428Y-12905714D01*
X12261428Y-12934286D02*
X12275714Y-12920000D01*
X12304286Y-12905714D01*
X12347143Y-12905714D01*
X12375714Y-12920000D01*
X12390000Y-12948571D01*
X12390000Y-13105714D01*
X12390000Y-12948571D02*
X12404286Y-12920000D01*
X12432857Y-12905714D01*
X12475714Y-12905714D01*
X12504286Y-12920000D01*
X12518571Y-12948571D01*
X12518571Y-13105714D01*
X12661428Y-13105714D02*
X12661428Y-12905714D01*
X12661428Y-12934286D02*
X12675714Y-12920000D01*
X12704286Y-12905714D01*
X12747143Y-12905714D01*
X12775714Y-12920000D01*
X12790000Y-12948571D01*
X12790000Y-13105714D01*
X12790000Y-12948571D02*
X12804286Y-12920000D01*
X12832857Y-12905714D01*
X12875714Y-12905714D01*
X12904286Y-12920000D01*
X12918571Y-12948571D01*
X12918571Y-13105714D01*
X13504286Y-12791429D02*
X13247143Y-13177143D01*
X13890000Y-12805714D02*
X13918571Y-12805714D01*
X13947143Y-12820000D01*
X13961428Y-12834286D01*
X13975714Y-12862857D01*
X13990000Y-12920000D01*
X13990000Y-12991429D01*
X13975714Y-13048571D01*
X13961428Y-13077143D01*
X13947143Y-13091429D01*
X13918571Y-13105714D01*
X13890000Y-13105714D01*
X13861428Y-13091429D01*
X13847143Y-13077143D01*
X13832857Y-13048571D01*
X13818571Y-12991429D01*
X13818571Y-12920000D01*
X13832857Y-12862857D01*
X13847143Y-12834286D01*
X13861428Y-12820000D01*
X13890000Y-12805714D01*
X14118571Y-13077143D02*
X14132857Y-13091429D01*
X14118571Y-13105714D01*
X14104286Y-13091429D01*
X14118571Y-13077143D01*
X14118571Y-13105714D01*
X14318571Y-12805714D02*
X14347143Y-12805714D01*
X14375714Y-12820000D01*
X14390000Y-12834286D01*
X14404285Y-12862857D01*
X14418571Y-12920000D01*
X14418571Y-12991429D01*
X14404285Y-13048571D01*
X14390000Y-13077143D01*
X14375714Y-13091429D01*
X14347143Y-13105714D01*
X14318571Y-13105714D01*
X14290000Y-13091429D01*
X14275714Y-13077143D01*
X14261428Y-13048571D01*
X14247143Y-12991429D01*
X14247143Y-12920000D01*
X14261428Y-12862857D01*
X14275714Y-12834286D01*
X14290000Y-12820000D01*
X14318571Y-12805714D01*
X14518571Y-12805714D02*
X14704285Y-12805714D01*
X14604285Y-12920000D01*
X14647143Y-12920000D01*
X14675714Y-12934286D01*
X14690000Y-12948571D01*
X14704285Y-12977143D01*
X14704285Y-13048571D01*
X14690000Y-13077143D01*
X14675714Y-13091429D01*
X14647143Y-13105714D01*
X14561428Y-13105714D01*
X14532857Y-13091429D01*
X14518571Y-13077143D01*
X14890000Y-12805714D02*
X14918571Y-12805714D01*
X14947143Y-12820000D01*
X14961428Y-12834286D01*
X14975714Y-12862857D01*
X14990000Y-12920000D01*
X14990000Y-12991429D01*
X14975714Y-13048571D01*
X14961428Y-13077143D01*
X14947143Y-13091429D01*
X14918571Y-13105714D01*
X14890000Y-13105714D01*
X14861428Y-13091429D01*
X14847143Y-13077143D01*
X14832857Y-13048571D01*
X14818571Y-12991429D01*
X14818571Y-12920000D01*
X14832857Y-12862857D01*
X14847143Y-12834286D01*
X14861428Y-12820000D01*
X14890000Y-12805714D01*
X15104286Y-12805714D02*
X15104286Y-12862857D01*
X15218571Y-12805714D02*
X15218571Y-12862857D01*
X15661428Y-13220000D02*
X15647143Y-13205714D01*
X15618571Y-13162857D01*
X15604285Y-13134286D01*
X15590000Y-13091429D01*
X15575714Y-13020000D01*
X15575714Y-12962857D01*
X15590000Y-12891429D01*
X15604285Y-12848571D01*
X15618571Y-12820000D01*
X15647143Y-12777143D01*
X15661428Y-12762857D01*
X15904285Y-12905714D02*
X15904285Y-13105714D01*
X15832857Y-12791429D02*
X15761428Y-13005714D01*
X15947143Y-13005714D01*
X16290000Y-13105714D02*
X16290000Y-12805714D01*
X16418571Y-13105714D02*
X16418571Y-12948571D01*
X16404285Y-12920000D01*
X16375714Y-12905714D01*
X16332857Y-12905714D01*
X16304285Y-12920000D01*
X16290000Y-12934286D01*
X16604285Y-13105714D02*
X16575714Y-13091429D01*
X16561428Y-13077143D01*
X16547143Y-13048571D01*
X16547143Y-12962857D01*
X16561428Y-12934286D01*
X16575714Y-12920000D01*
X16604285Y-12905714D01*
X16647143Y-12905714D01*
X16675714Y-12920000D01*
X16690000Y-12934286D01*
X16704285Y-12962857D01*
X16704285Y-13048571D01*
X16690000Y-13077143D01*
X16675714Y-13091429D01*
X16647143Y-13105714D01*
X16604285Y-13105714D01*
X16875714Y-13105714D02*
X16847143Y-13091429D01*
X16832857Y-13062857D01*
X16832857Y-12805714D01*
X17104286Y-13091429D02*
X17075714Y-13105714D01*
X17018571Y-13105714D01*
X16990000Y-13091429D01*
X16975714Y-13062857D01*
X16975714Y-12948571D01*
X16990000Y-12920000D01*
X17018571Y-12905714D01*
X17075714Y-12905714D01*
X17104286Y-12920000D01*
X17118571Y-12948571D01*
X17118571Y-12977143D01*
X16975714Y-13005714D01*
X17232857Y-13091429D02*
X17261429Y-13105714D01*
X17318571Y-13105714D01*
X17347143Y-13091429D01*
X17361429Y-13062857D01*
X17361429Y-13048571D01*
X17347143Y-13020000D01*
X17318571Y-13005714D01*
X17275714Y-13005714D01*
X17247143Y-12991429D01*
X17232857Y-12962857D01*
X17232857Y-12948571D01*
X17247143Y-12920000D01*
X17275714Y-12905714D01*
X17318571Y-12905714D01*
X17347143Y-12920000D01*
X17461428Y-13220000D02*
X17475714Y-13205714D01*
X17504286Y-13162857D01*
X17518571Y-13134286D01*
X17532857Y-13091429D01*
X17547143Y-13020000D01*
X17547143Y-12962857D01*
X17532857Y-12891429D01*
X17518571Y-12848571D01*
X17504286Y-12820000D01*
X17475714Y-12777143D01*
X17461428Y-12762857D01*
X10990000Y-13366000D02*
G75*
G03X10990000Y-13366000I-40000J0D01*
G01*
X11318571Y-13201714D02*
X11347143Y-13201714D01*
X11375714Y-13216000D01*
X11390000Y-13230286D01*
X11404286Y-13258857D01*
X11418571Y-13316000D01*
X11418571Y-13387429D01*
X11404286Y-13444571D01*
X11390000Y-13473143D01*
X11375714Y-13487429D01*
X11347143Y-13501714D01*
X11318571Y-13501714D01*
X11290000Y-13487429D01*
X11275714Y-13473143D01*
X11261428Y-13444571D01*
X11247143Y-13387429D01*
X11247143Y-13316000D01*
X11261428Y-13258857D01*
X11275714Y-13230286D01*
X11290000Y-13216000D01*
X11318571Y-13201714D01*
X11547143Y-13473143D02*
X11561428Y-13487429D01*
X11547143Y-13501714D01*
X11532857Y-13487429D01*
X11547143Y-13473143D01*
X11547143Y-13501714D01*
X11732857Y-13330286D02*
X11704286Y-13316000D01*
X11690000Y-13301714D01*
X11675714Y-13273143D01*
X11675714Y-13258857D01*
X11690000Y-13230286D01*
X11704286Y-13216000D01*
X11732857Y-13201714D01*
X11790000Y-13201714D01*
X11818571Y-13216000D01*
X11832857Y-13230286D01*
X11847143Y-13258857D01*
X11847143Y-13273143D01*
X11832857Y-13301714D01*
X11818571Y-13316000D01*
X11790000Y-13330286D01*
X11732857Y-13330286D01*
X11704286Y-13344571D01*
X11690000Y-13358857D01*
X11675714Y-13387429D01*
X11675714Y-13444571D01*
X11690000Y-13473143D01*
X11704286Y-13487429D01*
X11732857Y-13501714D01*
X11790000Y-13501714D01*
X11818571Y-13487429D01*
X11832857Y-13473143D01*
X11847143Y-13444571D01*
X11847143Y-13387429D01*
X11832857Y-13358857D01*
X11818571Y-13344571D01*
X11790000Y-13330286D01*
X12032857Y-13201714D02*
X12061428Y-13201714D01*
X12090000Y-13216000D01*
X12104286Y-13230286D01*
X12118571Y-13258857D01*
X12132857Y-13316000D01*
X12132857Y-13387429D01*
X12118571Y-13444571D01*
X12104286Y-13473143D01*
X12090000Y-13487429D01*
X12061428Y-13501714D01*
X12032857Y-13501714D01*
X12004286Y-13487429D01*
X11990000Y-13473143D01*
X11975714Y-13444571D01*
X11961428Y-13387429D01*
X11961428Y-13316000D01*
X11975714Y-13258857D01*
X11990000Y-13230286D01*
X12004286Y-13216000D01*
X12032857Y-13201714D01*
X12261428Y-13501714D02*
X12261428Y-13301714D01*
X12261428Y-13330286D02*
X12275714Y-13316000D01*
X12304286Y-13301714D01*
X12347143Y-13301714D01*
X12375714Y-13316000D01*
X12390000Y-13344571D01*
X12390000Y-13501714D01*
X12390000Y-13344571D02*
X12404286Y-13316000D01*
X12432857Y-13301714D01*
X12475714Y-13301714D01*
X12504286Y-13316000D01*
X12518571Y-13344571D01*
X12518571Y-13501714D01*
X12661428Y-13501714D02*
X12661428Y-13301714D01*
X12661428Y-13330286D02*
X12675714Y-13316000D01*
X12704286Y-13301714D01*
X12747143Y-13301714D01*
X12775714Y-13316000D01*
X12790000Y-13344571D01*
X12790000Y-13501714D01*
X12790000Y-13344571D02*
X12804286Y-13316000D01*
X12832857Y-13301714D01*
X12875714Y-13301714D01*
X12904286Y-13316000D01*
X12918571Y-13344571D01*
X12918571Y-13501714D01*
X13504286Y-13187429D02*
X13247143Y-13573143D01*
X13890000Y-13201714D02*
X13918571Y-13201714D01*
X13947143Y-13216000D01*
X13961428Y-13230286D01*
X13975714Y-13258857D01*
X13990000Y-13316000D01*
X13990000Y-13387429D01*
X13975714Y-13444571D01*
X13961428Y-13473143D01*
X13947143Y-13487429D01*
X13918571Y-13501714D01*
X13890000Y-13501714D01*
X13861428Y-13487429D01*
X13847143Y-13473143D01*
X13832857Y-13444571D01*
X13818571Y-13387429D01*
X13818571Y-13316000D01*
X13832857Y-13258857D01*
X13847143Y-13230286D01*
X13861428Y-13216000D01*
X13890000Y-13201714D01*
X14118571Y-13473143D02*
X14132857Y-13487429D01*
X14118571Y-13501714D01*
X14104286Y-13487429D01*
X14118571Y-13473143D01*
X14118571Y-13501714D01*
X14318571Y-13201714D02*
X14347143Y-13201714D01*
X14375714Y-13216000D01*
X14390000Y-13230286D01*
X14404285Y-13258857D01*
X14418571Y-13316000D01*
X14418571Y-13387429D01*
X14404285Y-13444571D01*
X14390000Y-13473143D01*
X14375714Y-13487429D01*
X14347143Y-13501714D01*
X14318571Y-13501714D01*
X14290000Y-13487429D01*
X14275714Y-13473143D01*
X14261428Y-13444571D01*
X14247143Y-13387429D01*
X14247143Y-13316000D01*
X14261428Y-13258857D01*
X14275714Y-13230286D01*
X14290000Y-13216000D01*
X14318571Y-13201714D01*
X14518571Y-13201714D02*
X14704285Y-13201714D01*
X14604285Y-13316000D01*
X14647143Y-13316000D01*
X14675714Y-13330286D01*
X14690000Y-13344571D01*
X14704285Y-13373143D01*
X14704285Y-13444571D01*
X14690000Y-13473143D01*
X14675714Y-13487429D01*
X14647143Y-13501714D01*
X14561428Y-13501714D01*
X14532857Y-13487429D01*
X14518571Y-13473143D01*
X14990000Y-13501714D02*
X14818571Y-13501714D01*
X14904285Y-13501714D02*
X14904285Y-13201714D01*
X14875714Y-13244571D01*
X14847143Y-13273143D01*
X14818571Y-13287429D01*
X15104286Y-13201714D02*
X15104286Y-13258857D01*
X15218571Y-13201714D02*
X15218571Y-13258857D01*
X15661428Y-13616000D02*
X15647143Y-13601714D01*
X15618571Y-13558857D01*
X15604285Y-13530286D01*
X15590000Y-13487429D01*
X15575714Y-13416000D01*
X15575714Y-13358857D01*
X15590000Y-13287429D01*
X15604285Y-13244571D01*
X15618571Y-13216000D01*
X15647143Y-13173143D01*
X15661428Y-13158857D01*
X15747143Y-13201714D02*
X15932857Y-13201714D01*
X15832857Y-13316000D01*
X15875714Y-13316000D01*
X15904285Y-13330286D01*
X15918571Y-13344571D01*
X15932857Y-13373143D01*
X15932857Y-13444571D01*
X15918571Y-13473143D01*
X15904285Y-13487429D01*
X15875714Y-13501714D01*
X15790000Y-13501714D01*
X15761428Y-13487429D01*
X15747143Y-13473143D01*
X16190000Y-13201714D02*
X16132857Y-13201714D01*
X16104285Y-13216000D01*
X16090000Y-13230286D01*
X16061428Y-13273143D01*
X16047143Y-13330286D01*
X16047143Y-13444571D01*
X16061428Y-13473143D01*
X16075714Y-13487429D01*
X16104285Y-13501714D01*
X16161428Y-13501714D01*
X16190000Y-13487429D01*
X16204285Y-13473143D01*
X16218571Y-13444571D01*
X16218571Y-13373143D01*
X16204285Y-13344571D01*
X16190000Y-13330286D01*
X16161428Y-13316000D01*
X16104285Y-13316000D01*
X16075714Y-13330286D01*
X16061428Y-13344571D01*
X16047143Y-13373143D01*
X16575714Y-13501714D02*
X16575714Y-13201714D01*
X16704285Y-13501714D02*
X16704285Y-13344571D01*
X16690000Y-13316000D01*
X16661428Y-13301714D01*
X16618571Y-13301714D01*
X16590000Y-13316000D01*
X16575714Y-13330286D01*
X16890000Y-13501714D02*
X16861428Y-13487429D01*
X16847143Y-13473143D01*
X16832857Y-13444571D01*
X16832857Y-13358857D01*
X16847143Y-13330286D01*
X16861428Y-13316000D01*
X16890000Y-13301714D01*
X16932857Y-13301714D01*
X16961428Y-13316000D01*
X16975714Y-13330286D01*
X16990000Y-13358857D01*
X16990000Y-13444571D01*
X16975714Y-13473143D01*
X16961428Y-13487429D01*
X16932857Y-13501714D01*
X16890000Y-13501714D01*
X17161428Y-13501714D02*
X17132857Y-13487429D01*
X17118571Y-13458857D01*
X17118571Y-13201714D01*
X17390000Y-13487429D02*
X17361429Y-13501714D01*
X17304286Y-13501714D01*
X17275714Y-13487429D01*
X17261429Y-13458857D01*
X17261429Y-13344571D01*
X17275714Y-13316000D01*
X17304286Y-13301714D01*
X17361429Y-13301714D01*
X17390000Y-13316000D01*
X17404286Y-13344571D01*
X17404286Y-13373143D01*
X17261429Y-13401714D01*
X17518571Y-13487429D02*
X17547143Y-13501714D01*
X17604286Y-13501714D01*
X17632857Y-13487429D01*
X17647143Y-13458857D01*
X17647143Y-13444571D01*
X17632857Y-13416000D01*
X17604286Y-13401714D01*
X17561429Y-13401714D01*
X17532857Y-13387429D01*
X17518571Y-13358857D01*
X17518571Y-13344571D01*
X17532857Y-13316000D01*
X17561429Y-13301714D01*
X17604286Y-13301714D01*
X17632857Y-13316000D01*
X17747143Y-13616000D02*
X17761429Y-13601714D01*
X17790000Y-13558857D01*
X17804286Y-13530286D01*
X17818571Y-13487429D01*
X17832857Y-13416000D01*
X17832857Y-13358857D01*
X17818571Y-13287429D01*
X17804286Y-13244571D01*
X17790000Y-13216000D01*
X17761429Y-13173143D01*
X17747143Y-13158857D01*
X10940000Y-13712000D02*
X10940000Y-13812000D01*
X10890000Y-13762000D02*
X10990000Y-13762000D01*
X11418571Y-13897714D02*
X11247143Y-13897714D01*
X11332857Y-13897714D02*
X11332857Y-13597714D01*
X11304286Y-13640571D01*
X11275714Y-13669143D01*
X11247143Y-13683429D01*
X11547143Y-13869143D02*
X11561428Y-13883429D01*
X11547143Y-13897714D01*
X11532857Y-13883429D01*
X11547143Y-13869143D01*
X11547143Y-13897714D01*
X11747143Y-13597714D02*
X11775714Y-13597714D01*
X11804286Y-13612000D01*
X11818571Y-13626286D01*
X11832857Y-13654857D01*
X11847143Y-13712000D01*
X11847143Y-13783429D01*
X11832857Y-13840571D01*
X11818571Y-13869143D01*
X11804286Y-13883429D01*
X11775714Y-13897714D01*
X11747143Y-13897714D01*
X11718571Y-13883429D01*
X11704286Y-13869143D01*
X11690000Y-13840571D01*
X11675714Y-13783429D01*
X11675714Y-13712000D01*
X11690000Y-13654857D01*
X11704286Y-13626286D01*
X11718571Y-13612000D01*
X11747143Y-13597714D01*
X12032857Y-13597714D02*
X12061428Y-13597714D01*
X12090000Y-13612000D01*
X12104286Y-13626286D01*
X12118571Y-13654857D01*
X12132857Y-13712000D01*
X12132857Y-13783429D01*
X12118571Y-13840571D01*
X12104286Y-13869143D01*
X12090000Y-13883429D01*
X12061428Y-13897714D01*
X12032857Y-13897714D01*
X12004286Y-13883429D01*
X11990000Y-13869143D01*
X11975714Y-13840571D01*
X11961428Y-13783429D01*
X11961428Y-13712000D01*
X11975714Y-13654857D01*
X11990000Y-13626286D01*
X12004286Y-13612000D01*
X12032857Y-13597714D01*
X12261428Y-13897714D02*
X12261428Y-13697714D01*
X12261428Y-13726286D02*
X12275714Y-13712000D01*
X12304286Y-13697714D01*
X12347143Y-13697714D01*
X12375714Y-13712000D01*
X12390000Y-13740571D01*
X12390000Y-13897714D01*
X12390000Y-13740571D02*
X12404286Y-13712000D01*
X12432857Y-13697714D01*
X12475714Y-13697714D01*
X12504286Y-13712000D01*
X12518571Y-13740571D01*
X12518571Y-13897714D01*
X12661428Y-13897714D02*
X12661428Y-13697714D01*
X12661428Y-13726286D02*
X12675714Y-13712000D01*
X12704286Y-13697714D01*
X12747143Y-13697714D01*
X12775714Y-13712000D01*
X12790000Y-13740571D01*
X12790000Y-13897714D01*
X12790000Y-13740571D02*
X12804286Y-13712000D01*
X12832857Y-13697714D01*
X12875714Y-13697714D01*
X12904286Y-13712000D01*
X12918571Y-13740571D01*
X12918571Y-13897714D01*
X13504286Y-13583429D02*
X13247143Y-13969143D01*
X13890000Y-13597714D02*
X13918571Y-13597714D01*
X13947143Y-13612000D01*
X13961428Y-13626286D01*
X13975714Y-13654857D01*
X13990000Y-13712000D01*
X13990000Y-13783429D01*
X13975714Y-13840571D01*
X13961428Y-13869143D01*
X13947143Y-13883429D01*
X13918571Y-13897714D01*
X13890000Y-13897714D01*
X13861428Y-13883429D01*
X13847143Y-13869143D01*
X13832857Y-13840571D01*
X13818571Y-13783429D01*
X13818571Y-13712000D01*
X13832857Y-13654857D01*
X13847143Y-13626286D01*
X13861428Y-13612000D01*
X13890000Y-13597714D01*
X14118571Y-13869143D02*
X14132857Y-13883429D01*
X14118571Y-13897714D01*
X14104286Y-13883429D01*
X14118571Y-13869143D01*
X14118571Y-13897714D01*
X14318571Y-13597714D02*
X14347143Y-13597714D01*
X14375714Y-13612000D01*
X14390000Y-13626286D01*
X14404285Y-13654857D01*
X14418571Y-13712000D01*
X14418571Y-13783429D01*
X14404285Y-13840571D01*
X14390000Y-13869143D01*
X14375714Y-13883429D01*
X14347143Y-13897714D01*
X14318571Y-13897714D01*
X14290000Y-13883429D01*
X14275714Y-13869143D01*
X14261428Y-13840571D01*
X14247143Y-13783429D01*
X14247143Y-13712000D01*
X14261428Y-13654857D01*
X14275714Y-13626286D01*
X14290000Y-13612000D01*
X14318571Y-13597714D01*
X14518571Y-13597714D02*
X14704285Y-13597714D01*
X14604285Y-13712000D01*
X14647143Y-13712000D01*
X14675714Y-13726286D01*
X14690000Y-13740571D01*
X14704285Y-13769143D01*
X14704285Y-13840571D01*
X14690000Y-13869143D01*
X14675714Y-13883429D01*
X14647143Y-13897714D01*
X14561428Y-13897714D01*
X14532857Y-13883429D01*
X14518571Y-13869143D01*
X14847143Y-13897714D02*
X14904285Y-13897714D01*
X14932857Y-13883429D01*
X14947143Y-13869143D01*
X14975714Y-13826286D01*
X14990000Y-13769143D01*
X14990000Y-13654857D01*
X14975714Y-13626286D01*
X14961428Y-13612000D01*
X14932857Y-13597714D01*
X14875714Y-13597714D01*
X14847143Y-13612000D01*
X14832857Y-13626286D01*
X14818571Y-13654857D01*
X14818571Y-13726286D01*
X14832857Y-13754857D01*
X14847143Y-13769143D01*
X14875714Y-13783429D01*
X14932857Y-13783429D01*
X14961428Y-13769143D01*
X14975714Y-13754857D01*
X14990000Y-13726286D01*
X15104286Y-13597714D02*
X15104286Y-13654857D01*
X15218571Y-13597714D02*
X15218571Y-13654857D01*
X15661428Y-14012000D02*
X15647143Y-13997714D01*
X15618571Y-13954857D01*
X15604285Y-13926286D01*
X15590000Y-13883429D01*
X15575714Y-13812000D01*
X15575714Y-13754857D01*
X15590000Y-13683429D01*
X15604285Y-13640571D01*
X15618571Y-13612000D01*
X15647143Y-13569143D01*
X15661428Y-13554857D01*
X15761428Y-13626286D02*
X15775714Y-13612000D01*
X15804285Y-13597714D01*
X15875714Y-13597714D01*
X15904285Y-13612000D01*
X15918571Y-13626286D01*
X15932857Y-13654857D01*
X15932857Y-13683429D01*
X15918571Y-13726286D01*
X15747143Y-13897714D01*
X15932857Y-13897714D01*
X16118571Y-13597714D02*
X16147143Y-13597714D01*
X16175714Y-13612000D01*
X16190000Y-13626286D01*
X16204285Y-13654857D01*
X16218571Y-13712000D01*
X16218571Y-13783429D01*
X16204285Y-13840571D01*
X16190000Y-13869143D01*
X16175714Y-13883429D01*
X16147143Y-13897714D01*
X16118571Y-13897714D01*
X16090000Y-13883429D01*
X16075714Y-13869143D01*
X16061428Y-13840571D01*
X16047143Y-13783429D01*
X16047143Y-13712000D01*
X16061428Y-13654857D01*
X16075714Y-13626286D01*
X16090000Y-13612000D01*
X16118571Y-13597714D01*
X16575714Y-13897714D02*
X16575714Y-13597714D01*
X16704285Y-13897714D02*
X16704285Y-13740571D01*
X16690000Y-13712000D01*
X16661428Y-13697714D01*
X16618571Y-13697714D01*
X16590000Y-13712000D01*
X16575714Y-13726286D01*
X16890000Y-13897714D02*
X16861428Y-13883429D01*
X16847143Y-13869143D01*
X16832857Y-13840571D01*
X16832857Y-13754857D01*
X16847143Y-13726286D01*
X16861428Y-13712000D01*
X16890000Y-13697714D01*
X16932857Y-13697714D01*
X16961428Y-13712000D01*
X16975714Y-13726286D01*
X16990000Y-13754857D01*
X16990000Y-13840571D01*
X16975714Y-13869143D01*
X16961428Y-13883429D01*
X16932857Y-13897714D01*
X16890000Y-13897714D01*
X17161428Y-13897714D02*
X17132857Y-13883429D01*
X17118571Y-13854857D01*
X17118571Y-13597714D01*
X17390000Y-13883429D02*
X17361429Y-13897714D01*
X17304286Y-13897714D01*
X17275714Y-13883429D01*
X17261429Y-13854857D01*
X17261429Y-13740571D01*
X17275714Y-13712000D01*
X17304286Y-13697714D01*
X17361429Y-13697714D01*
X17390000Y-13712000D01*
X17404286Y-13740571D01*
X17404286Y-13769143D01*
X17261429Y-13797714D01*
X17518571Y-13883429D02*
X17547143Y-13897714D01*
X17604286Y-13897714D01*
X17632857Y-13883429D01*
X17647143Y-13854857D01*
X17647143Y-13840571D01*
X17632857Y-13812000D01*
X17604286Y-13797714D01*
X17561429Y-13797714D01*
X17532857Y-13783429D01*
X17518571Y-13754857D01*
X17518571Y-13740571D01*
X17532857Y-13712000D01*
X17561429Y-13697714D01*
X17604286Y-13697714D01*
X17632857Y-13712000D01*
X17747143Y-14012000D02*
X17761429Y-13997714D01*
X17790000Y-13954857D01*
X17804286Y-13926286D01*
X17818571Y-13883429D01*
X17832857Y-13812000D01*
X17832857Y-13754857D01*
X17818571Y-13683429D01*
X17804286Y-13640571D01*
X17790000Y-13612000D01*
X17761429Y-13569143D01*
X17747143Y-13554857D01*
X10969498Y-14207498D02*
X10969498Y-14108502D01*
X10870502Y-14108502D01*
X10870502Y-14207498D01*
X10969498Y-14207498D01*
X11418571Y-14293714D02*
X11247143Y-14293714D01*
X11332857Y-14293714D02*
X11332857Y-13993714D01*
X11304286Y-14036571D01*
X11275714Y-14065143D01*
X11247143Y-14079429D01*
X11547143Y-14265143D02*
X11561428Y-14279429D01*
X11547143Y-14293714D01*
X11532857Y-14279429D01*
X11547143Y-14265143D01*
X11547143Y-14293714D01*
X11818571Y-14093714D02*
X11818571Y-14293714D01*
X11747143Y-13979429D02*
X11675714Y-14193714D01*
X11861428Y-14193714D01*
X12032857Y-13993714D02*
X12061428Y-13993714D01*
X12090000Y-14008000D01*
X12104286Y-14022286D01*
X12118571Y-14050857D01*
X12132857Y-14108000D01*
X12132857Y-14179429D01*
X12118571Y-14236571D01*
X12104286Y-14265143D01*
X12090000Y-14279429D01*
X12061428Y-14293714D01*
X12032857Y-14293714D01*
X12004286Y-14279429D01*
X11990000Y-14265143D01*
X11975714Y-14236571D01*
X11961428Y-14179429D01*
X11961428Y-14108000D01*
X11975714Y-14050857D01*
X11990000Y-14022286D01*
X12004286Y-14008000D01*
X12032857Y-13993714D01*
X12261428Y-14293714D02*
X12261428Y-14093714D01*
X12261428Y-14122286D02*
X12275714Y-14108000D01*
X12304286Y-14093714D01*
X12347143Y-14093714D01*
X12375714Y-14108000D01*
X12390000Y-14136571D01*
X12390000Y-14293714D01*
X12390000Y-14136571D02*
X12404286Y-14108000D01*
X12432857Y-14093714D01*
X12475714Y-14093714D01*
X12504286Y-14108000D01*
X12518571Y-14136571D01*
X12518571Y-14293714D01*
X12661428Y-14293714D02*
X12661428Y-14093714D01*
X12661428Y-14122286D02*
X12675714Y-14108000D01*
X12704286Y-14093714D01*
X12747143Y-14093714D01*
X12775714Y-14108000D01*
X12790000Y-14136571D01*
X12790000Y-14293714D01*
X12790000Y-14136571D02*
X12804286Y-14108000D01*
X12832857Y-14093714D01*
X12875714Y-14093714D01*
X12904286Y-14108000D01*
X12918571Y-14136571D01*
X12918571Y-14293714D01*
X13504286Y-13979429D02*
X13247143Y-14365143D01*
X13890000Y-13993714D02*
X13918571Y-13993714D01*
X13947143Y-14008000D01*
X13961428Y-14022286D01*
X13975714Y-14050857D01*
X13990000Y-14108000D01*
X13990000Y-14179429D01*
X13975714Y-14236571D01*
X13961428Y-14265143D01*
X13947143Y-14279429D01*
X13918571Y-14293714D01*
X13890000Y-14293714D01*
X13861428Y-14279429D01*
X13847143Y-14265143D01*
X13832857Y-14236571D01*
X13818571Y-14179429D01*
X13818571Y-14108000D01*
X13832857Y-14050857D01*
X13847143Y-14022286D01*
X13861428Y-14008000D01*
X13890000Y-13993714D01*
X14118571Y-14265143D02*
X14132857Y-14279429D01*
X14118571Y-14293714D01*
X14104286Y-14279429D01*
X14118571Y-14265143D01*
X14118571Y-14293714D01*
X14318571Y-13993714D02*
X14347143Y-13993714D01*
X14375714Y-14008000D01*
X14390000Y-14022286D01*
X14404285Y-14050857D01*
X14418571Y-14108000D01*
X14418571Y-14179429D01*
X14404285Y-14236571D01*
X14390000Y-14265143D01*
X14375714Y-14279429D01*
X14347143Y-14293714D01*
X14318571Y-14293714D01*
X14290000Y-14279429D01*
X14275714Y-14265143D01*
X14261428Y-14236571D01*
X14247143Y-14179429D01*
X14247143Y-14108000D01*
X14261428Y-14050857D01*
X14275714Y-14022286D01*
X14290000Y-14008000D01*
X14318571Y-13993714D01*
X14690000Y-13993714D02*
X14547143Y-13993714D01*
X14532857Y-14136571D01*
X14547143Y-14122286D01*
X14575714Y-14108000D01*
X14647143Y-14108000D01*
X14675714Y-14122286D01*
X14690000Y-14136571D01*
X14704285Y-14165143D01*
X14704285Y-14236571D01*
X14690000Y-14265143D01*
X14675714Y-14279429D01*
X14647143Y-14293714D01*
X14575714Y-14293714D01*
X14547143Y-14279429D01*
X14532857Y-14265143D01*
X14975714Y-13993714D02*
X14832857Y-13993714D01*
X14818571Y-14136571D01*
X14832857Y-14122286D01*
X14861428Y-14108000D01*
X14932857Y-14108000D01*
X14961428Y-14122286D01*
X14975714Y-14136571D01*
X14990000Y-14165143D01*
X14990000Y-14236571D01*
X14975714Y-14265143D01*
X14961428Y-14279429D01*
X14932857Y-14293714D01*
X14861428Y-14293714D01*
X14832857Y-14279429D01*
X14818571Y-14265143D01*
X15104286Y-13993714D02*
X15104286Y-14050857D01*
X15218571Y-13993714D02*
X15218571Y-14050857D01*
X15661428Y-14408000D02*
X15647143Y-14393714D01*
X15618571Y-14350857D01*
X15604285Y-14322286D01*
X15590000Y-14279429D01*
X15575714Y-14208000D01*
X15575714Y-14150857D01*
X15590000Y-14079429D01*
X15604285Y-14036571D01*
X15618571Y-14008000D01*
X15647143Y-13965143D01*
X15661428Y-13950857D01*
X15761428Y-14022286D02*
X15775714Y-14008000D01*
X15804285Y-13993714D01*
X15875714Y-13993714D01*
X15904285Y-14008000D01*
X15918571Y-14022286D01*
X15932857Y-14050857D01*
X15932857Y-14079429D01*
X15918571Y-14122286D01*
X15747143Y-14293714D01*
X15932857Y-14293714D01*
X16290000Y-14293714D02*
X16290000Y-13993714D01*
X16418571Y-14293714D02*
X16418571Y-14136571D01*
X16404285Y-14108000D01*
X16375714Y-14093714D01*
X16332857Y-14093714D01*
X16304285Y-14108000D01*
X16290000Y-14122286D01*
X16604285Y-14293714D02*
X16575714Y-14279429D01*
X16561428Y-14265143D01*
X16547143Y-14236571D01*
X16547143Y-14150857D01*
X16561428Y-14122286D01*
X16575714Y-14108000D01*
X16604285Y-14093714D01*
X16647143Y-14093714D01*
X16675714Y-14108000D01*
X16690000Y-14122286D01*
X16704285Y-14150857D01*
X16704285Y-14236571D01*
X16690000Y-14265143D01*
X16675714Y-14279429D01*
X16647143Y-14293714D01*
X16604285Y-14293714D01*
X16875714Y-14293714D02*
X16847143Y-14279429D01*
X16832857Y-14250857D01*
X16832857Y-13993714D01*
X17104286Y-14279429D02*
X17075714Y-14293714D01*
X17018571Y-14293714D01*
X16990000Y-14279429D01*
X16975714Y-14250857D01*
X16975714Y-14136571D01*
X16990000Y-14108000D01*
X17018571Y-14093714D01*
X17075714Y-14093714D01*
X17104286Y-14108000D01*
X17118571Y-14136571D01*
X17118571Y-14165143D01*
X16975714Y-14193714D01*
X17232857Y-14279429D02*
X17261429Y-14293714D01*
X17318571Y-14293714D01*
X17347143Y-14279429D01*
X17361429Y-14250857D01*
X17361429Y-14236571D01*
X17347143Y-14208000D01*
X17318571Y-14193714D01*
X17275714Y-14193714D01*
X17247143Y-14179429D01*
X17232857Y-14150857D01*
X17232857Y-14136571D01*
X17247143Y-14108000D01*
X17275714Y-14093714D01*
X17318571Y-14093714D01*
X17347143Y-14108000D01*
X17461428Y-14408000D02*
X17475714Y-14393714D01*
X17504286Y-14350857D01*
X17518571Y-14322286D01*
X17532857Y-14279429D01*
X17547143Y-14208000D01*
X17547143Y-14150857D01*
X17532857Y-14079429D01*
X17518571Y-14036571D01*
X17504286Y-14008000D01*
X17475714Y-13965143D01*
X17461428Y-13950857D01*
X10830000Y-14714000D02*
X10990000Y-14554000D01*
X10830000Y-14394000D01*
X10670000Y-14554000D01*
X10830000Y-14714000D01*
X11232857Y-14389714D02*
X11418571Y-14389714D01*
X11318571Y-14504000D01*
X11361428Y-14504000D01*
X11390000Y-14518286D01*
X11404286Y-14532571D01*
X11418571Y-14561143D01*
X11418571Y-14632571D01*
X11404286Y-14661143D01*
X11390000Y-14675429D01*
X11361428Y-14689714D01*
X11275714Y-14689714D01*
X11247143Y-14675429D01*
X11232857Y-14661143D01*
X11547143Y-14661143D02*
X11561428Y-14675429D01*
X11547143Y-14689714D01*
X11532857Y-14675429D01*
X11547143Y-14661143D01*
X11547143Y-14689714D01*
X11675714Y-14418286D02*
X11690000Y-14404000D01*
X11718571Y-14389714D01*
X11790000Y-14389714D01*
X11818571Y-14404000D01*
X11832857Y-14418286D01*
X11847143Y-14446857D01*
X11847143Y-14475429D01*
X11832857Y-14518286D01*
X11661428Y-14689714D01*
X11847143Y-14689714D01*
X12032857Y-14389714D02*
X12061428Y-14389714D01*
X12090000Y-14404000D01*
X12104286Y-14418286D01*
X12118571Y-14446857D01*
X12132857Y-14504000D01*
X12132857Y-14575429D01*
X12118571Y-14632571D01*
X12104286Y-14661143D01*
X12090000Y-14675429D01*
X12061428Y-14689714D01*
X12032857Y-14689714D01*
X12004286Y-14675429D01*
X11990000Y-14661143D01*
X11975714Y-14632571D01*
X11961428Y-14575429D01*
X11961428Y-14504000D01*
X11975714Y-14446857D01*
X11990000Y-14418286D01*
X12004286Y-14404000D01*
X12032857Y-14389714D01*
X12261428Y-14689714D02*
X12261428Y-14489714D01*
X12261428Y-14518286D02*
X12275714Y-14504000D01*
X12304286Y-14489714D01*
X12347143Y-14489714D01*
X12375714Y-14504000D01*
X12390000Y-14532571D01*
X12390000Y-14689714D01*
X12390000Y-14532571D02*
X12404286Y-14504000D01*
X12432857Y-14489714D01*
X12475714Y-14489714D01*
X12504286Y-14504000D01*
X12518571Y-14532571D01*
X12518571Y-14689714D01*
X12661428Y-14689714D02*
X12661428Y-14489714D01*
X12661428Y-14518286D02*
X12675714Y-14504000D01*
X12704286Y-14489714D01*
X12747143Y-14489714D01*
X12775714Y-14504000D01*
X12790000Y-14532571D01*
X12790000Y-14689714D01*
X12790000Y-14532571D02*
X12804286Y-14504000D01*
X12832857Y-14489714D01*
X12875714Y-14489714D01*
X12904286Y-14504000D01*
X12918571Y-14532571D01*
X12918571Y-14689714D01*
X13504286Y-14375429D02*
X13247143Y-14761143D01*
X13890000Y-14389714D02*
X13918571Y-14389714D01*
X13947143Y-14404000D01*
X13961428Y-14418286D01*
X13975714Y-14446857D01*
X13990000Y-14504000D01*
X13990000Y-14575429D01*
X13975714Y-14632571D01*
X13961428Y-14661143D01*
X13947143Y-14675429D01*
X13918571Y-14689714D01*
X13890000Y-14689714D01*
X13861428Y-14675429D01*
X13847143Y-14661143D01*
X13832857Y-14632571D01*
X13818571Y-14575429D01*
X13818571Y-14504000D01*
X13832857Y-14446857D01*
X13847143Y-14418286D01*
X13861428Y-14404000D01*
X13890000Y-14389714D01*
X14118571Y-14661143D02*
X14132857Y-14675429D01*
X14118571Y-14689714D01*
X14104286Y-14675429D01*
X14118571Y-14661143D01*
X14118571Y-14689714D01*
X14418571Y-14689714D02*
X14247143Y-14689714D01*
X14332857Y-14689714D02*
X14332857Y-14389714D01*
X14304285Y-14432571D01*
X14275714Y-14461143D01*
X14247143Y-14475429D01*
X14532857Y-14418286D02*
X14547143Y-14404000D01*
X14575714Y-14389714D01*
X14647143Y-14389714D01*
X14675714Y-14404000D01*
X14690000Y-14418286D01*
X14704285Y-14446857D01*
X14704285Y-14475429D01*
X14690000Y-14518286D01*
X14518571Y-14689714D01*
X14704285Y-14689714D01*
X14961428Y-14389714D02*
X14904285Y-14389714D01*
X14875714Y-14404000D01*
X14861428Y-14418286D01*
X14832857Y-14461143D01*
X14818571Y-14518286D01*
X14818571Y-14632571D01*
X14832857Y-14661143D01*
X14847143Y-14675429D01*
X14875714Y-14689714D01*
X14932857Y-14689714D01*
X14961428Y-14675429D01*
X14975714Y-14661143D01*
X14990000Y-14632571D01*
X14990000Y-14561143D01*
X14975714Y-14532571D01*
X14961428Y-14518286D01*
X14932857Y-14504000D01*
X14875714Y-14504000D01*
X14847143Y-14518286D01*
X14832857Y-14532571D01*
X14818571Y-14561143D01*
X15104286Y-14389714D02*
X15104286Y-14446857D01*
X15218571Y-14389714D02*
X15218571Y-14446857D01*
X15661428Y-14804000D02*
X15647143Y-14789714D01*
X15618571Y-14746857D01*
X15604285Y-14718286D01*
X15590000Y-14675429D01*
X15575714Y-14604000D01*
X15575714Y-14546857D01*
X15590000Y-14475429D01*
X15604285Y-14432571D01*
X15618571Y-14404000D01*
X15647143Y-14361143D01*
X15661428Y-14346857D01*
X15904285Y-14489714D02*
X15904285Y-14689714D01*
X15832857Y-14375429D02*
X15761428Y-14589714D01*
X15947143Y-14589714D01*
X16290000Y-14689714D02*
X16290000Y-14389714D01*
X16418571Y-14689714D02*
X16418571Y-14532571D01*
X16404285Y-14504000D01*
X16375714Y-14489714D01*
X16332857Y-14489714D01*
X16304285Y-14504000D01*
X16290000Y-14518286D01*
X16604285Y-14689714D02*
X16575714Y-14675429D01*
X16561428Y-14661143D01*
X16547143Y-14632571D01*
X16547143Y-14546857D01*
X16561428Y-14518286D01*
X16575714Y-14504000D01*
X16604285Y-14489714D01*
X16647143Y-14489714D01*
X16675714Y-14504000D01*
X16690000Y-14518286D01*
X16704285Y-14546857D01*
X16704285Y-14632571D01*
X16690000Y-14661143D01*
X16675714Y-14675429D01*
X16647143Y-14689714D01*
X16604285Y-14689714D01*
X16875714Y-14689714D02*
X16847143Y-14675429D01*
X16832857Y-14646857D01*
X16832857Y-14389714D01*
X17104286Y-14675429D02*
X17075714Y-14689714D01*
X17018571Y-14689714D01*
X16990000Y-14675429D01*
X16975714Y-14646857D01*
X16975714Y-14532571D01*
X16990000Y-14504000D01*
X17018571Y-14489714D01*
X17075714Y-14489714D01*
X17104286Y-14504000D01*
X17118571Y-14532571D01*
X17118571Y-14561143D01*
X16975714Y-14589714D01*
X17232857Y-14675429D02*
X17261429Y-14689714D01*
X17318571Y-14689714D01*
X17347143Y-14675429D01*
X17361429Y-14646857D01*
X17361429Y-14632571D01*
X17347143Y-14604000D01*
X17318571Y-14589714D01*
X17275714Y-14589714D01*
X17247143Y-14575429D01*
X17232857Y-14546857D01*
X17232857Y-14532571D01*
X17247143Y-14504000D01*
X17275714Y-14489714D01*
X17318571Y-14489714D01*
X17347143Y-14504000D01*
X17461428Y-14804000D02*
X17475714Y-14789714D01*
X17504286Y-14746857D01*
X17518571Y-14718286D01*
X17532857Y-14675429D01*
X17547143Y-14604000D01*
X17547143Y-14546857D01*
X17532857Y-14475429D01*
X17518571Y-14432571D01*
X17504286Y-14404000D01*
X17475714Y-14361143D01*
X17461428Y-14346857D01*
M02*
