G04 #@! TF.FileFunction,Soldermask,Top*
%FSLAX46Y46*%
G04 Gerber Fmt 4.6, Leading zero omitted, Abs format (unit mm)*
G04 Created by KiCad (PCBNEW 4.0.7) date 09/25/17 13:32:06*
%MOMM*%
%LPD*%
G01*
G04 APERTURE LIST*
%ADD10C,0.100000*%
G04 APERTURE END LIST*
D10*
G36*
X115344112Y-111725981D02*
X115973488Y-111855173D01*
X116565781Y-112104151D01*
X117098430Y-112463426D01*
X117551162Y-112919330D01*
X117906710Y-113454473D01*
X118151548Y-114048494D01*
X118276290Y-114678487D01*
X118276290Y-114678499D01*
X118276340Y-114678752D01*
X118266093Y-115412604D01*
X118266035Y-115412859D01*
X118266035Y-115412866D01*
X118123751Y-116039132D01*
X117862423Y-116626084D01*
X117492070Y-117151093D01*
X117026789Y-117594175D01*
X116484315Y-117938439D01*
X115885295Y-118170783D01*
X115252566Y-118282351D01*
X114610204Y-118268895D01*
X113982699Y-118130929D01*
X113393942Y-117873708D01*
X112866357Y-117507025D01*
X112420039Y-117044851D01*
X112071993Y-116504788D01*
X111835476Y-115907414D01*
X111719492Y-115275470D01*
X111728463Y-114633037D01*
X111862045Y-114004584D01*
X112115151Y-113414041D01*
X112478142Y-112883907D01*
X112937185Y-112434380D01*
X113474804Y-112082571D01*
X114070520Y-111841886D01*
X114701632Y-111721495D01*
X115344112Y-111725981D01*
X115344112Y-111725981D01*
G37*
G36*
X165344112Y-111725981D02*
X165973488Y-111855173D01*
X166565781Y-112104151D01*
X167098430Y-112463426D01*
X167551162Y-112919330D01*
X167906710Y-113454473D01*
X168151548Y-114048494D01*
X168276290Y-114678487D01*
X168276290Y-114678499D01*
X168276340Y-114678752D01*
X168266093Y-115412604D01*
X168266035Y-115412859D01*
X168266035Y-115412866D01*
X168123751Y-116039132D01*
X167862423Y-116626084D01*
X167492070Y-117151093D01*
X167026789Y-117594175D01*
X166484315Y-117938439D01*
X165885295Y-118170783D01*
X165252566Y-118282351D01*
X164610204Y-118268895D01*
X163982699Y-118130929D01*
X163393942Y-117873708D01*
X162866357Y-117507025D01*
X162420039Y-117044851D01*
X162071993Y-116504788D01*
X161835476Y-115907414D01*
X161719492Y-115275470D01*
X161728463Y-114633037D01*
X161862045Y-114004584D01*
X162115151Y-113414041D01*
X162478142Y-112883907D01*
X162937185Y-112434380D01*
X163474804Y-112082571D01*
X164070520Y-111841886D01*
X164701632Y-111721495D01*
X165344112Y-111725981D01*
X165344112Y-111725981D01*
G37*
G36*
X167513700Y-98276200D02*
X165561300Y-98276200D01*
X165561300Y-96923800D01*
X167513700Y-96923800D01*
X167513700Y-98276200D01*
X167513700Y-98276200D01*
G37*
G36*
X163513700Y-96676200D02*
X161811300Y-96676200D01*
X161811300Y-95923800D01*
X163513700Y-95923800D01*
X163513700Y-96676200D01*
X163513700Y-96676200D01*
G37*
G36*
X163513700Y-95676200D02*
X161811300Y-95676200D01*
X161811300Y-94923800D01*
X163513700Y-94923800D01*
X163513700Y-95676200D01*
X163513700Y-95676200D01*
G37*
G36*
X163513700Y-94676200D02*
X161811300Y-94676200D01*
X161811300Y-93923800D01*
X163513700Y-93923800D01*
X163513700Y-94676200D01*
X163513700Y-94676200D01*
G37*
G36*
X163513700Y-93676200D02*
X161811300Y-93676200D01*
X161811300Y-92923800D01*
X163513700Y-92923800D01*
X163513700Y-93676200D01*
X163513700Y-93676200D01*
G37*
G36*
X163513700Y-92676200D02*
X161811300Y-92676200D01*
X161811300Y-91923800D01*
X163513700Y-91923800D01*
X163513700Y-92676200D01*
X163513700Y-92676200D01*
G37*
G36*
X163513700Y-91676200D02*
X161811300Y-91676200D01*
X161811300Y-90923800D01*
X163513700Y-90923800D01*
X163513700Y-91676200D01*
X163513700Y-91676200D01*
G37*
G36*
X167513700Y-90676200D02*
X165561300Y-90676200D01*
X165561300Y-89323800D01*
X167513700Y-89323800D01*
X167513700Y-90676200D01*
X167513700Y-90676200D01*
G37*
G36*
X158426200Y-88336200D02*
X156573800Y-88336200D01*
X156573800Y-86483800D01*
X158426200Y-86483800D01*
X158426200Y-88336200D01*
X158426200Y-88336200D01*
G37*
G36*
X123426200Y-88336200D02*
X121573800Y-88336200D01*
X121573800Y-86483800D01*
X123426200Y-86483800D01*
X123426200Y-88336200D01*
X123426200Y-88336200D01*
G37*
G36*
X153088038Y-84162357D02*
X153249064Y-84195410D01*
X153400599Y-84259110D01*
X153536871Y-84351026D01*
X153652706Y-84467673D01*
X153743669Y-84604583D01*
X153806310Y-84756563D01*
X153838186Y-84917545D01*
X153838186Y-84917557D01*
X153838236Y-84917810D01*
X153835615Y-85105563D01*
X153835557Y-85105818D01*
X153835557Y-85105824D01*
X153799198Y-85265857D01*
X153732338Y-85416028D01*
X153637586Y-85550346D01*
X153518544Y-85663709D01*
X153379757Y-85751786D01*
X153226497Y-85811231D01*
X153064620Y-85839775D01*
X152900271Y-85836332D01*
X152739727Y-85801034D01*
X152589099Y-85735227D01*
X152454116Y-85641410D01*
X152339928Y-85523165D01*
X152250884Y-85384998D01*
X152190370Y-85232156D01*
X152160696Y-85070477D01*
X152162992Y-84906113D01*
X152197167Y-84745328D01*
X152261924Y-84594240D01*
X152354795Y-84458606D01*
X152472236Y-84343599D01*
X152609786Y-84253588D01*
X152762197Y-84192011D01*
X152923663Y-84161209D01*
X153088038Y-84162357D01*
X153088038Y-84162357D01*
G37*
G36*
X127088038Y-84162357D02*
X127249064Y-84195410D01*
X127400599Y-84259110D01*
X127536871Y-84351026D01*
X127652706Y-84467673D01*
X127743669Y-84604583D01*
X127806310Y-84756563D01*
X127838186Y-84917545D01*
X127838186Y-84917557D01*
X127838236Y-84917810D01*
X127835615Y-85105563D01*
X127835557Y-85105818D01*
X127835557Y-85105824D01*
X127799198Y-85265857D01*
X127732338Y-85416028D01*
X127637586Y-85550346D01*
X127518544Y-85663709D01*
X127379757Y-85751786D01*
X127226497Y-85811231D01*
X127064620Y-85839775D01*
X126900271Y-85836332D01*
X126739727Y-85801034D01*
X126589099Y-85735227D01*
X126454116Y-85641410D01*
X126339928Y-85523165D01*
X126250884Y-85384998D01*
X126190370Y-85232156D01*
X126160696Y-85070477D01*
X126162992Y-84906113D01*
X126197167Y-84745328D01*
X126261924Y-84594240D01*
X126354795Y-84458606D01*
X126472236Y-84343599D01*
X126609786Y-84253588D01*
X126762197Y-84192011D01*
X126923663Y-84161209D01*
X127088038Y-84162357D01*
X127088038Y-84162357D01*
G37*
G36*
X129088038Y-84162357D02*
X129249064Y-84195410D01*
X129400599Y-84259110D01*
X129536871Y-84351026D01*
X129652706Y-84467673D01*
X129743669Y-84604583D01*
X129806310Y-84756563D01*
X129838186Y-84917545D01*
X129838186Y-84917557D01*
X129838236Y-84917810D01*
X129835615Y-85105563D01*
X129835557Y-85105818D01*
X129835557Y-85105824D01*
X129799198Y-85265857D01*
X129732338Y-85416028D01*
X129637586Y-85550346D01*
X129518544Y-85663709D01*
X129379757Y-85751786D01*
X129226497Y-85811231D01*
X129064620Y-85839775D01*
X128900271Y-85836332D01*
X128739727Y-85801034D01*
X128589099Y-85735227D01*
X128454116Y-85641410D01*
X128339928Y-85523165D01*
X128250884Y-85384998D01*
X128190370Y-85232156D01*
X128160696Y-85070477D01*
X128162992Y-84906113D01*
X128197167Y-84745328D01*
X128261924Y-84594240D01*
X128354795Y-84458606D01*
X128472236Y-84343599D01*
X128609786Y-84253588D01*
X128762197Y-84192011D01*
X128923663Y-84161209D01*
X129088038Y-84162357D01*
X129088038Y-84162357D01*
G37*
G36*
X131088038Y-84162357D02*
X131249064Y-84195410D01*
X131400599Y-84259110D01*
X131536871Y-84351026D01*
X131652706Y-84467673D01*
X131743669Y-84604583D01*
X131806310Y-84756563D01*
X131838186Y-84917545D01*
X131838186Y-84917557D01*
X131838236Y-84917810D01*
X131835615Y-85105563D01*
X131835557Y-85105818D01*
X131835557Y-85105824D01*
X131799198Y-85265857D01*
X131732338Y-85416028D01*
X131637586Y-85550346D01*
X131518544Y-85663709D01*
X131379757Y-85751786D01*
X131226497Y-85811231D01*
X131064620Y-85839775D01*
X130900271Y-85836332D01*
X130739727Y-85801034D01*
X130589099Y-85735227D01*
X130454116Y-85641410D01*
X130339928Y-85523165D01*
X130250884Y-85384998D01*
X130190370Y-85232156D01*
X130160696Y-85070477D01*
X130162992Y-84906113D01*
X130197167Y-84745328D01*
X130261924Y-84594240D01*
X130354795Y-84458606D01*
X130472236Y-84343599D01*
X130609786Y-84253588D01*
X130762197Y-84192011D01*
X130923663Y-84161209D01*
X131088038Y-84162357D01*
X131088038Y-84162357D01*
G37*
G36*
X149088038Y-84162357D02*
X149249064Y-84195410D01*
X149400599Y-84259110D01*
X149536871Y-84351026D01*
X149652706Y-84467673D01*
X149743669Y-84604583D01*
X149806310Y-84756563D01*
X149838186Y-84917545D01*
X149838186Y-84917557D01*
X149838236Y-84917810D01*
X149835615Y-85105563D01*
X149835557Y-85105818D01*
X149835557Y-85105824D01*
X149799198Y-85265857D01*
X149732338Y-85416028D01*
X149637586Y-85550346D01*
X149518544Y-85663709D01*
X149379757Y-85751786D01*
X149226497Y-85811231D01*
X149064620Y-85839775D01*
X148900271Y-85836332D01*
X148739727Y-85801034D01*
X148589099Y-85735227D01*
X148454116Y-85641410D01*
X148339928Y-85523165D01*
X148250884Y-85384998D01*
X148190370Y-85232156D01*
X148160696Y-85070477D01*
X148162992Y-84906113D01*
X148197167Y-84745328D01*
X148261924Y-84594240D01*
X148354795Y-84458606D01*
X148472236Y-84343599D01*
X148609786Y-84253588D01*
X148762197Y-84192011D01*
X148923663Y-84161209D01*
X149088038Y-84162357D01*
X149088038Y-84162357D01*
G37*
G36*
X151088038Y-84162357D02*
X151249064Y-84195410D01*
X151400599Y-84259110D01*
X151536871Y-84351026D01*
X151652706Y-84467673D01*
X151743669Y-84604583D01*
X151806310Y-84756563D01*
X151838186Y-84917545D01*
X151838186Y-84917557D01*
X151838236Y-84917810D01*
X151835615Y-85105563D01*
X151835557Y-85105818D01*
X151835557Y-85105824D01*
X151799198Y-85265857D01*
X151732338Y-85416028D01*
X151637586Y-85550346D01*
X151518544Y-85663709D01*
X151379757Y-85751786D01*
X151226497Y-85811231D01*
X151064620Y-85839775D01*
X150900271Y-85836332D01*
X150739727Y-85801034D01*
X150589099Y-85735227D01*
X150454116Y-85641410D01*
X150339928Y-85523165D01*
X150250884Y-85384998D01*
X150190370Y-85232156D01*
X150160696Y-85070477D01*
X150162992Y-84906113D01*
X150197167Y-84745328D01*
X150261924Y-84594240D01*
X150354795Y-84458606D01*
X150472236Y-84343599D01*
X150609786Y-84253588D01*
X150762197Y-84192011D01*
X150923663Y-84161209D01*
X151088038Y-84162357D01*
X151088038Y-84162357D01*
G37*
G36*
X157515862Y-83943879D02*
X157515864Y-83943879D01*
X157517413Y-83943890D01*
X157697049Y-83964040D01*
X157869350Y-84018697D01*
X158027753Y-84105780D01*
X158166226Y-84221972D01*
X158279492Y-84362847D01*
X158363239Y-84523039D01*
X158414275Y-84696447D01*
X158414277Y-84696465D01*
X158414282Y-84696483D01*
X158430661Y-84876465D01*
X158411769Y-85056201D01*
X158411767Y-85056206D01*
X158411764Y-85056238D01*
X158358311Y-85228917D01*
X158272336Y-85387924D01*
X158157113Y-85527204D01*
X158017032Y-85641452D01*
X157857428Y-85726315D01*
X157684381Y-85778561D01*
X157504481Y-85796200D01*
X157495457Y-85796200D01*
X157484138Y-85796121D01*
X157484136Y-85796121D01*
X157482587Y-85796110D01*
X157302951Y-85775960D01*
X157130650Y-85721303D01*
X156972247Y-85634220D01*
X156833774Y-85518028D01*
X156720508Y-85377153D01*
X156636761Y-85216961D01*
X156585725Y-85043553D01*
X156585723Y-85043535D01*
X156585718Y-85043517D01*
X156569339Y-84863535D01*
X156588231Y-84683799D01*
X156588233Y-84683794D01*
X156588236Y-84683762D01*
X156641689Y-84511083D01*
X156727664Y-84352076D01*
X156842887Y-84212796D01*
X156982968Y-84098548D01*
X157142572Y-84013685D01*
X157315619Y-83961439D01*
X157495519Y-83943800D01*
X157504543Y-83943800D01*
X157515862Y-83943879D01*
X157515862Y-83943879D01*
G37*
G36*
X122515862Y-83943879D02*
X122515864Y-83943879D01*
X122517413Y-83943890D01*
X122697049Y-83964040D01*
X122869350Y-84018697D01*
X123027753Y-84105780D01*
X123166226Y-84221972D01*
X123279492Y-84362847D01*
X123363239Y-84523039D01*
X123414275Y-84696447D01*
X123414277Y-84696465D01*
X123414282Y-84696483D01*
X123430661Y-84876465D01*
X123411769Y-85056201D01*
X123411767Y-85056206D01*
X123411764Y-85056238D01*
X123358311Y-85228917D01*
X123272336Y-85387924D01*
X123157113Y-85527204D01*
X123017032Y-85641452D01*
X122857428Y-85726315D01*
X122684381Y-85778561D01*
X122504481Y-85796200D01*
X122495457Y-85796200D01*
X122484138Y-85796121D01*
X122484136Y-85796121D01*
X122482587Y-85796110D01*
X122302951Y-85775960D01*
X122130650Y-85721303D01*
X121972247Y-85634220D01*
X121833774Y-85518028D01*
X121720508Y-85377153D01*
X121636761Y-85216961D01*
X121585725Y-85043553D01*
X121585723Y-85043535D01*
X121585718Y-85043517D01*
X121569339Y-84863535D01*
X121588231Y-84683799D01*
X121588233Y-84683794D01*
X121588236Y-84683762D01*
X121641689Y-84511083D01*
X121727664Y-84352076D01*
X121842887Y-84212796D01*
X121982968Y-84098548D01*
X122142572Y-84013685D01*
X122315619Y-83961439D01*
X122495519Y-83943800D01*
X122504543Y-83943800D01*
X122515862Y-83943879D01*
X122515862Y-83943879D01*
G37*
G36*
X153088038Y-82162357D02*
X153249064Y-82195410D01*
X153400599Y-82259110D01*
X153536871Y-82351026D01*
X153652706Y-82467673D01*
X153743669Y-82604583D01*
X153806310Y-82756563D01*
X153838186Y-82917545D01*
X153838186Y-82917557D01*
X153838236Y-82917810D01*
X153835615Y-83105563D01*
X153835557Y-83105818D01*
X153835557Y-83105824D01*
X153799198Y-83265857D01*
X153732338Y-83416028D01*
X153637586Y-83550346D01*
X153518544Y-83663709D01*
X153379757Y-83751786D01*
X153226497Y-83811231D01*
X153064620Y-83839775D01*
X152900271Y-83836332D01*
X152739727Y-83801034D01*
X152589099Y-83735227D01*
X152454116Y-83641410D01*
X152339928Y-83523165D01*
X152250884Y-83384998D01*
X152190370Y-83232156D01*
X152160696Y-83070477D01*
X152162992Y-82906113D01*
X152197167Y-82745328D01*
X152261924Y-82594240D01*
X152354795Y-82458606D01*
X152472236Y-82343599D01*
X152609786Y-82253588D01*
X152762197Y-82192011D01*
X152923663Y-82161209D01*
X153088038Y-82162357D01*
X153088038Y-82162357D01*
G37*
G36*
X151088038Y-82162357D02*
X151249064Y-82195410D01*
X151400599Y-82259110D01*
X151536871Y-82351026D01*
X151652706Y-82467673D01*
X151743669Y-82604583D01*
X151806310Y-82756563D01*
X151838186Y-82917545D01*
X151838186Y-82917557D01*
X151838236Y-82917810D01*
X151835615Y-83105563D01*
X151835557Y-83105818D01*
X151835557Y-83105824D01*
X151799198Y-83265857D01*
X151732338Y-83416028D01*
X151637586Y-83550346D01*
X151518544Y-83663709D01*
X151379757Y-83751786D01*
X151226497Y-83811231D01*
X151064620Y-83839775D01*
X150900271Y-83836332D01*
X150739727Y-83801034D01*
X150589099Y-83735227D01*
X150454116Y-83641410D01*
X150339928Y-83523165D01*
X150250884Y-83384998D01*
X150190370Y-83232156D01*
X150160696Y-83070477D01*
X150162992Y-82906113D01*
X150197167Y-82745328D01*
X150261924Y-82594240D01*
X150354795Y-82458606D01*
X150472236Y-82343599D01*
X150609786Y-82253588D01*
X150762197Y-82192011D01*
X150923663Y-82161209D01*
X151088038Y-82162357D01*
X151088038Y-82162357D01*
G37*
G36*
X149088038Y-82162357D02*
X149249064Y-82195410D01*
X149400599Y-82259110D01*
X149536871Y-82351026D01*
X149652706Y-82467673D01*
X149743669Y-82604583D01*
X149806310Y-82756563D01*
X149838186Y-82917545D01*
X149838186Y-82917557D01*
X149838236Y-82917810D01*
X149835615Y-83105563D01*
X149835557Y-83105818D01*
X149835557Y-83105824D01*
X149799198Y-83265857D01*
X149732338Y-83416028D01*
X149637586Y-83550346D01*
X149518544Y-83663709D01*
X149379757Y-83751786D01*
X149226497Y-83811231D01*
X149064620Y-83839775D01*
X148900271Y-83836332D01*
X148739727Y-83801034D01*
X148589099Y-83735227D01*
X148454116Y-83641410D01*
X148339928Y-83523165D01*
X148250884Y-83384998D01*
X148190370Y-83232156D01*
X148160696Y-83070477D01*
X148162992Y-82906113D01*
X148197167Y-82745328D01*
X148261924Y-82594240D01*
X148354795Y-82458606D01*
X148472236Y-82343599D01*
X148609786Y-82253588D01*
X148762197Y-82192011D01*
X148923663Y-82161209D01*
X149088038Y-82162357D01*
X149088038Y-82162357D01*
G37*
G36*
X129088038Y-82162357D02*
X129249064Y-82195410D01*
X129400599Y-82259110D01*
X129536871Y-82351026D01*
X129652706Y-82467673D01*
X129743669Y-82604583D01*
X129806310Y-82756563D01*
X129838186Y-82917545D01*
X129838186Y-82917557D01*
X129838236Y-82917810D01*
X129835615Y-83105563D01*
X129835557Y-83105818D01*
X129835557Y-83105824D01*
X129799198Y-83265857D01*
X129732338Y-83416028D01*
X129637586Y-83550346D01*
X129518544Y-83663709D01*
X129379757Y-83751786D01*
X129226497Y-83811231D01*
X129064620Y-83839775D01*
X128900271Y-83836332D01*
X128739727Y-83801034D01*
X128589099Y-83735227D01*
X128454116Y-83641410D01*
X128339928Y-83523165D01*
X128250884Y-83384998D01*
X128190370Y-83232156D01*
X128160696Y-83070477D01*
X128162992Y-82906113D01*
X128197167Y-82745328D01*
X128261924Y-82594240D01*
X128354795Y-82458606D01*
X128472236Y-82343599D01*
X128609786Y-82253588D01*
X128762197Y-82192011D01*
X128923663Y-82161209D01*
X129088038Y-82162357D01*
X129088038Y-82162357D01*
G37*
G36*
X127088038Y-82162357D02*
X127249064Y-82195410D01*
X127400599Y-82259110D01*
X127536871Y-82351026D01*
X127652706Y-82467673D01*
X127743669Y-82604583D01*
X127806310Y-82756563D01*
X127838186Y-82917545D01*
X127838186Y-82917557D01*
X127838236Y-82917810D01*
X127835615Y-83105563D01*
X127835557Y-83105818D01*
X127835557Y-83105824D01*
X127799198Y-83265857D01*
X127732338Y-83416028D01*
X127637586Y-83550346D01*
X127518544Y-83663709D01*
X127379757Y-83751786D01*
X127226497Y-83811231D01*
X127064620Y-83839775D01*
X126900271Y-83836332D01*
X126739727Y-83801034D01*
X126589099Y-83735227D01*
X126454116Y-83641410D01*
X126339928Y-83523165D01*
X126250884Y-83384998D01*
X126190370Y-83232156D01*
X126160696Y-83070477D01*
X126162992Y-82906113D01*
X126197167Y-82745328D01*
X126261924Y-82594240D01*
X126354795Y-82458606D01*
X126472236Y-82343599D01*
X126609786Y-82253588D01*
X126762197Y-82192011D01*
X126923663Y-82161209D01*
X127088038Y-82162357D01*
X127088038Y-82162357D01*
G37*
G36*
X131088038Y-82162357D02*
X131249064Y-82195410D01*
X131400599Y-82259110D01*
X131536871Y-82351026D01*
X131652706Y-82467673D01*
X131743669Y-82604583D01*
X131806310Y-82756563D01*
X131838186Y-82917545D01*
X131838186Y-82917557D01*
X131838236Y-82917810D01*
X131835615Y-83105563D01*
X131835557Y-83105818D01*
X131835557Y-83105824D01*
X131799198Y-83265857D01*
X131732338Y-83416028D01*
X131637586Y-83550346D01*
X131518544Y-83663709D01*
X131379757Y-83751786D01*
X131226497Y-83811231D01*
X131064620Y-83839775D01*
X130900271Y-83836332D01*
X130739727Y-83801034D01*
X130589099Y-83735227D01*
X130454116Y-83641410D01*
X130339928Y-83523165D01*
X130250884Y-83384998D01*
X130190370Y-83232156D01*
X130160696Y-83070477D01*
X130162992Y-82906113D01*
X130197167Y-82745328D01*
X130261924Y-82594240D01*
X130354795Y-82458606D01*
X130472236Y-82343599D01*
X130609786Y-82253588D01*
X130762197Y-82192011D01*
X130923663Y-82161209D01*
X131088038Y-82162357D01*
X131088038Y-82162357D01*
G37*
G36*
X157515862Y-81403879D02*
X157515864Y-81403879D01*
X157517413Y-81403890D01*
X157697049Y-81424040D01*
X157869350Y-81478697D01*
X158027753Y-81565780D01*
X158166226Y-81681972D01*
X158279492Y-81822847D01*
X158363239Y-81983039D01*
X158414275Y-82156447D01*
X158414277Y-82156465D01*
X158414282Y-82156483D01*
X158430661Y-82336465D01*
X158411769Y-82516201D01*
X158411767Y-82516206D01*
X158411764Y-82516238D01*
X158358311Y-82688917D01*
X158272336Y-82847924D01*
X158157113Y-82987204D01*
X158017032Y-83101452D01*
X157857428Y-83186315D01*
X157684381Y-83238561D01*
X157504481Y-83256200D01*
X157495457Y-83256200D01*
X157484138Y-83256121D01*
X157484136Y-83256121D01*
X157482587Y-83256110D01*
X157302951Y-83235960D01*
X157130650Y-83181303D01*
X156972247Y-83094220D01*
X156833774Y-82978028D01*
X156720508Y-82837153D01*
X156636761Y-82676961D01*
X156585725Y-82503553D01*
X156585723Y-82503535D01*
X156585718Y-82503517D01*
X156569339Y-82323535D01*
X156588231Y-82143799D01*
X156588233Y-82143794D01*
X156588236Y-82143762D01*
X156641689Y-81971083D01*
X156727664Y-81812076D01*
X156842887Y-81672796D01*
X156982968Y-81558548D01*
X157142572Y-81473685D01*
X157315619Y-81421439D01*
X157495519Y-81403800D01*
X157504543Y-81403800D01*
X157515862Y-81403879D01*
X157515862Y-81403879D01*
G37*
G36*
X122515862Y-81403879D02*
X122515864Y-81403879D01*
X122517413Y-81403890D01*
X122697049Y-81424040D01*
X122869350Y-81478697D01*
X123027753Y-81565780D01*
X123166226Y-81681972D01*
X123279492Y-81822847D01*
X123363239Y-81983039D01*
X123414275Y-82156447D01*
X123414277Y-82156465D01*
X123414282Y-82156483D01*
X123430661Y-82336465D01*
X123411769Y-82516201D01*
X123411767Y-82516206D01*
X123411764Y-82516238D01*
X123358311Y-82688917D01*
X123272336Y-82847924D01*
X123157113Y-82987204D01*
X123017032Y-83101452D01*
X122857428Y-83186315D01*
X122684381Y-83238561D01*
X122504481Y-83256200D01*
X122495457Y-83256200D01*
X122484138Y-83256121D01*
X122484136Y-83256121D01*
X122482587Y-83256110D01*
X122302951Y-83235960D01*
X122130650Y-83181303D01*
X121972247Y-83094220D01*
X121833774Y-82978028D01*
X121720508Y-82837153D01*
X121636761Y-82676961D01*
X121585725Y-82503553D01*
X121585723Y-82503535D01*
X121585718Y-82503517D01*
X121569339Y-82323535D01*
X121588231Y-82143799D01*
X121588233Y-82143794D01*
X121588236Y-82143762D01*
X121641689Y-81971083D01*
X121727664Y-81812076D01*
X121842887Y-81672796D01*
X121982968Y-81558548D01*
X122142572Y-81473685D01*
X122315619Y-81421439D01*
X122495519Y-81403800D01*
X122504543Y-81403800D01*
X122515862Y-81403879D01*
X122515862Y-81403879D01*
G37*
G36*
X131088038Y-80162357D02*
X131249064Y-80195410D01*
X131400599Y-80259110D01*
X131536871Y-80351026D01*
X131652706Y-80467673D01*
X131743669Y-80604583D01*
X131806310Y-80756563D01*
X131838186Y-80917545D01*
X131838186Y-80917557D01*
X131838236Y-80917810D01*
X131835615Y-81105563D01*
X131835557Y-81105818D01*
X131835557Y-81105824D01*
X131799198Y-81265857D01*
X131732338Y-81416028D01*
X131637586Y-81550346D01*
X131518544Y-81663709D01*
X131379757Y-81751786D01*
X131226497Y-81811231D01*
X131064620Y-81839775D01*
X130900271Y-81836332D01*
X130739727Y-81801034D01*
X130589099Y-81735227D01*
X130454116Y-81641410D01*
X130339928Y-81523165D01*
X130250884Y-81384998D01*
X130190370Y-81232156D01*
X130160696Y-81070477D01*
X130162992Y-80906113D01*
X130197167Y-80745328D01*
X130261924Y-80594240D01*
X130354795Y-80458606D01*
X130472236Y-80343599D01*
X130609786Y-80253588D01*
X130762197Y-80192011D01*
X130923663Y-80161209D01*
X131088038Y-80162357D01*
X131088038Y-80162357D01*
G37*
G36*
X153088038Y-80162357D02*
X153249064Y-80195410D01*
X153400599Y-80259110D01*
X153536871Y-80351026D01*
X153652706Y-80467673D01*
X153743669Y-80604583D01*
X153806310Y-80756563D01*
X153838186Y-80917545D01*
X153838186Y-80917557D01*
X153838236Y-80917810D01*
X153835615Y-81105563D01*
X153835557Y-81105818D01*
X153835557Y-81105824D01*
X153799198Y-81265857D01*
X153732338Y-81416028D01*
X153637586Y-81550346D01*
X153518544Y-81663709D01*
X153379757Y-81751786D01*
X153226497Y-81811231D01*
X153064620Y-81839775D01*
X152900271Y-81836332D01*
X152739727Y-81801034D01*
X152589099Y-81735227D01*
X152454116Y-81641410D01*
X152339928Y-81523165D01*
X152250884Y-81384998D01*
X152190370Y-81232156D01*
X152160696Y-81070477D01*
X152162992Y-80906113D01*
X152197167Y-80745328D01*
X152261924Y-80594240D01*
X152354795Y-80458606D01*
X152472236Y-80343599D01*
X152609786Y-80253588D01*
X152762197Y-80192011D01*
X152923663Y-80161209D01*
X153088038Y-80162357D01*
X153088038Y-80162357D01*
G37*
G36*
X127088038Y-80162357D02*
X127249064Y-80195410D01*
X127400599Y-80259110D01*
X127536871Y-80351026D01*
X127652706Y-80467673D01*
X127743669Y-80604583D01*
X127806310Y-80756563D01*
X127838186Y-80917545D01*
X127838186Y-80917557D01*
X127838236Y-80917810D01*
X127835615Y-81105563D01*
X127835557Y-81105818D01*
X127835557Y-81105824D01*
X127799198Y-81265857D01*
X127732338Y-81416028D01*
X127637586Y-81550346D01*
X127518544Y-81663709D01*
X127379757Y-81751786D01*
X127226497Y-81811231D01*
X127064620Y-81839775D01*
X126900271Y-81836332D01*
X126739727Y-81801034D01*
X126589099Y-81735227D01*
X126454116Y-81641410D01*
X126339928Y-81523165D01*
X126250884Y-81384998D01*
X126190370Y-81232156D01*
X126160696Y-81070477D01*
X126162992Y-80906113D01*
X126197167Y-80745328D01*
X126261924Y-80594240D01*
X126354795Y-80458606D01*
X126472236Y-80343599D01*
X126609786Y-80253588D01*
X126762197Y-80192011D01*
X126923663Y-80161209D01*
X127088038Y-80162357D01*
X127088038Y-80162357D01*
G37*
G36*
X151088038Y-80162357D02*
X151249064Y-80195410D01*
X151400599Y-80259110D01*
X151536871Y-80351026D01*
X151652706Y-80467673D01*
X151743669Y-80604583D01*
X151806310Y-80756563D01*
X151838186Y-80917545D01*
X151838186Y-80917557D01*
X151838236Y-80917810D01*
X151835615Y-81105563D01*
X151835557Y-81105818D01*
X151835557Y-81105824D01*
X151799198Y-81265857D01*
X151732338Y-81416028D01*
X151637586Y-81550346D01*
X151518544Y-81663709D01*
X151379757Y-81751786D01*
X151226497Y-81811231D01*
X151064620Y-81839775D01*
X150900271Y-81836332D01*
X150739727Y-81801034D01*
X150589099Y-81735227D01*
X150454116Y-81641410D01*
X150339928Y-81523165D01*
X150250884Y-81384998D01*
X150190370Y-81232156D01*
X150160696Y-81070477D01*
X150162992Y-80906113D01*
X150197167Y-80745328D01*
X150261924Y-80594240D01*
X150354795Y-80458606D01*
X150472236Y-80343599D01*
X150609786Y-80253588D01*
X150762197Y-80192011D01*
X150923663Y-80161209D01*
X151088038Y-80162357D01*
X151088038Y-80162357D01*
G37*
G36*
X149088038Y-80162357D02*
X149249064Y-80195410D01*
X149400599Y-80259110D01*
X149536871Y-80351026D01*
X149652706Y-80467673D01*
X149743669Y-80604583D01*
X149806310Y-80756563D01*
X149838186Y-80917545D01*
X149838186Y-80917557D01*
X149838236Y-80917810D01*
X149835615Y-81105563D01*
X149835557Y-81105818D01*
X149835557Y-81105824D01*
X149799198Y-81265857D01*
X149732338Y-81416028D01*
X149637586Y-81550346D01*
X149518544Y-81663709D01*
X149379757Y-81751786D01*
X149226497Y-81811231D01*
X149064620Y-81839775D01*
X148900271Y-81836332D01*
X148739727Y-81801034D01*
X148589099Y-81735227D01*
X148454116Y-81641410D01*
X148339928Y-81523165D01*
X148250884Y-81384998D01*
X148190370Y-81232156D01*
X148160696Y-81070477D01*
X148162992Y-80906113D01*
X148197167Y-80745328D01*
X148261924Y-80594240D01*
X148354795Y-80458606D01*
X148472236Y-80343599D01*
X148609786Y-80253588D01*
X148762197Y-80192011D01*
X148923663Y-80161209D01*
X149088038Y-80162357D01*
X149088038Y-80162357D01*
G37*
G36*
X129088038Y-80162357D02*
X129249064Y-80195410D01*
X129400599Y-80259110D01*
X129536871Y-80351026D01*
X129652706Y-80467673D01*
X129743669Y-80604583D01*
X129806310Y-80756563D01*
X129838186Y-80917545D01*
X129838186Y-80917557D01*
X129838236Y-80917810D01*
X129835615Y-81105563D01*
X129835557Y-81105818D01*
X129835557Y-81105824D01*
X129799198Y-81265857D01*
X129732338Y-81416028D01*
X129637586Y-81550346D01*
X129518544Y-81663709D01*
X129379757Y-81751786D01*
X129226497Y-81811231D01*
X129064620Y-81839775D01*
X128900271Y-81836332D01*
X128739727Y-81801034D01*
X128589099Y-81735227D01*
X128454116Y-81641410D01*
X128339928Y-81523165D01*
X128250884Y-81384998D01*
X128190370Y-81232156D01*
X128160696Y-81070477D01*
X128162992Y-80906113D01*
X128197167Y-80745328D01*
X128261924Y-80594240D01*
X128354795Y-80458606D01*
X128472236Y-80343599D01*
X128609786Y-80253588D01*
X128762197Y-80192011D01*
X128923663Y-80161209D01*
X129088038Y-80162357D01*
X129088038Y-80162357D01*
G37*
G36*
X122515862Y-78863879D02*
X122515864Y-78863879D01*
X122517413Y-78863890D01*
X122697049Y-78884040D01*
X122869350Y-78938697D01*
X123027753Y-79025780D01*
X123166226Y-79141972D01*
X123279492Y-79282847D01*
X123363239Y-79443039D01*
X123414275Y-79616447D01*
X123414277Y-79616465D01*
X123414282Y-79616483D01*
X123430661Y-79796465D01*
X123411769Y-79976201D01*
X123411767Y-79976206D01*
X123411764Y-79976238D01*
X123358311Y-80148917D01*
X123272336Y-80307924D01*
X123157113Y-80447204D01*
X123017032Y-80561452D01*
X122857428Y-80646315D01*
X122684381Y-80698561D01*
X122504481Y-80716200D01*
X122495457Y-80716200D01*
X122484138Y-80716121D01*
X122484136Y-80716121D01*
X122482587Y-80716110D01*
X122302951Y-80695960D01*
X122130650Y-80641303D01*
X121972247Y-80554220D01*
X121833774Y-80438028D01*
X121720508Y-80297153D01*
X121636761Y-80136961D01*
X121585725Y-79963553D01*
X121585723Y-79963535D01*
X121585718Y-79963517D01*
X121569339Y-79783535D01*
X121588231Y-79603799D01*
X121588233Y-79603794D01*
X121588236Y-79603762D01*
X121641689Y-79431083D01*
X121727664Y-79272076D01*
X121842887Y-79132796D01*
X121982968Y-79018548D01*
X122142572Y-78933685D01*
X122315619Y-78881439D01*
X122495519Y-78863800D01*
X122504543Y-78863800D01*
X122515862Y-78863879D01*
X122515862Y-78863879D01*
G37*
G36*
X157515862Y-78863879D02*
X157515864Y-78863879D01*
X157517413Y-78863890D01*
X157697049Y-78884040D01*
X157869350Y-78938697D01*
X158027753Y-79025780D01*
X158166226Y-79141972D01*
X158279492Y-79282847D01*
X158363239Y-79443039D01*
X158414275Y-79616447D01*
X158414277Y-79616465D01*
X158414282Y-79616483D01*
X158430661Y-79796465D01*
X158411769Y-79976201D01*
X158411767Y-79976206D01*
X158411764Y-79976238D01*
X158358311Y-80148917D01*
X158272336Y-80307924D01*
X158157113Y-80447204D01*
X158017032Y-80561452D01*
X157857428Y-80646315D01*
X157684381Y-80698561D01*
X157504481Y-80716200D01*
X157495457Y-80716200D01*
X157484138Y-80716121D01*
X157484136Y-80716121D01*
X157482587Y-80716110D01*
X157302951Y-80695960D01*
X157130650Y-80641303D01*
X156972247Y-80554220D01*
X156833774Y-80438028D01*
X156720508Y-80297153D01*
X156636761Y-80136961D01*
X156585725Y-79963553D01*
X156585723Y-79963535D01*
X156585718Y-79963517D01*
X156569339Y-79783535D01*
X156588231Y-79603799D01*
X156588233Y-79603794D01*
X156588236Y-79603762D01*
X156641689Y-79431083D01*
X156727664Y-79272076D01*
X156842887Y-79132796D01*
X156982968Y-79018548D01*
X157142572Y-78933685D01*
X157315619Y-78881439D01*
X157495519Y-78863800D01*
X157504543Y-78863800D01*
X157515862Y-78863879D01*
X157515862Y-78863879D01*
G37*
G36*
X127088038Y-78162357D02*
X127249064Y-78195410D01*
X127400599Y-78259110D01*
X127536871Y-78351026D01*
X127652706Y-78467673D01*
X127743669Y-78604583D01*
X127806310Y-78756563D01*
X127838186Y-78917545D01*
X127838186Y-78917557D01*
X127838236Y-78917810D01*
X127835615Y-79105563D01*
X127835557Y-79105818D01*
X127835557Y-79105824D01*
X127799198Y-79265857D01*
X127732338Y-79416028D01*
X127637586Y-79550346D01*
X127518544Y-79663709D01*
X127379757Y-79751786D01*
X127226497Y-79811231D01*
X127064620Y-79839775D01*
X126900271Y-79836332D01*
X126739727Y-79801034D01*
X126589099Y-79735227D01*
X126454116Y-79641410D01*
X126339928Y-79523165D01*
X126250884Y-79384998D01*
X126190370Y-79232156D01*
X126160696Y-79070477D01*
X126162992Y-78906113D01*
X126197167Y-78745328D01*
X126261924Y-78594240D01*
X126354795Y-78458606D01*
X126472236Y-78343599D01*
X126609786Y-78253588D01*
X126762197Y-78192011D01*
X126923663Y-78161209D01*
X127088038Y-78162357D01*
X127088038Y-78162357D01*
G37*
G36*
X129088038Y-78162357D02*
X129249064Y-78195410D01*
X129400599Y-78259110D01*
X129536871Y-78351026D01*
X129652706Y-78467673D01*
X129743669Y-78604583D01*
X129806310Y-78756563D01*
X129838186Y-78917545D01*
X129838186Y-78917557D01*
X129838236Y-78917810D01*
X129835615Y-79105563D01*
X129835557Y-79105818D01*
X129835557Y-79105824D01*
X129799198Y-79265857D01*
X129732338Y-79416028D01*
X129637586Y-79550346D01*
X129518544Y-79663709D01*
X129379757Y-79751786D01*
X129226497Y-79811231D01*
X129064620Y-79839775D01*
X128900271Y-79836332D01*
X128739727Y-79801034D01*
X128589099Y-79735227D01*
X128454116Y-79641410D01*
X128339928Y-79523165D01*
X128250884Y-79384998D01*
X128190370Y-79232156D01*
X128160696Y-79070477D01*
X128162992Y-78906113D01*
X128197167Y-78745328D01*
X128261924Y-78594240D01*
X128354795Y-78458606D01*
X128472236Y-78343599D01*
X128609786Y-78253588D01*
X128762197Y-78192011D01*
X128923663Y-78161209D01*
X129088038Y-78162357D01*
X129088038Y-78162357D01*
G37*
G36*
X153088038Y-78162357D02*
X153249064Y-78195410D01*
X153400599Y-78259110D01*
X153536871Y-78351026D01*
X153652706Y-78467673D01*
X153743669Y-78604583D01*
X153806310Y-78756563D01*
X153838186Y-78917545D01*
X153838186Y-78917557D01*
X153838236Y-78917810D01*
X153835615Y-79105563D01*
X153835557Y-79105818D01*
X153835557Y-79105824D01*
X153799198Y-79265857D01*
X153732338Y-79416028D01*
X153637586Y-79550346D01*
X153518544Y-79663709D01*
X153379757Y-79751786D01*
X153226497Y-79811231D01*
X153064620Y-79839775D01*
X152900271Y-79836332D01*
X152739727Y-79801034D01*
X152589099Y-79735227D01*
X152454116Y-79641410D01*
X152339928Y-79523165D01*
X152250884Y-79384998D01*
X152190370Y-79232156D01*
X152160696Y-79070477D01*
X152162992Y-78906113D01*
X152197167Y-78745328D01*
X152261924Y-78594240D01*
X152354795Y-78458606D01*
X152472236Y-78343599D01*
X152609786Y-78253588D01*
X152762197Y-78192011D01*
X152923663Y-78161209D01*
X153088038Y-78162357D01*
X153088038Y-78162357D01*
G37*
G36*
X131088038Y-78162357D02*
X131249064Y-78195410D01*
X131400599Y-78259110D01*
X131536871Y-78351026D01*
X131652706Y-78467673D01*
X131743669Y-78604583D01*
X131806310Y-78756563D01*
X131838186Y-78917545D01*
X131838186Y-78917557D01*
X131838236Y-78917810D01*
X131835615Y-79105563D01*
X131835557Y-79105818D01*
X131835557Y-79105824D01*
X131799198Y-79265857D01*
X131732338Y-79416028D01*
X131637586Y-79550346D01*
X131518544Y-79663709D01*
X131379757Y-79751786D01*
X131226497Y-79811231D01*
X131064620Y-79839775D01*
X130900271Y-79836332D01*
X130739727Y-79801034D01*
X130589099Y-79735227D01*
X130454116Y-79641410D01*
X130339928Y-79523165D01*
X130250884Y-79384998D01*
X130190370Y-79232156D01*
X130160696Y-79070477D01*
X130162992Y-78906113D01*
X130197167Y-78745328D01*
X130261924Y-78594240D01*
X130354795Y-78458606D01*
X130472236Y-78343599D01*
X130609786Y-78253588D01*
X130762197Y-78192011D01*
X130923663Y-78161209D01*
X131088038Y-78162357D01*
X131088038Y-78162357D01*
G37*
G36*
X149088038Y-78162357D02*
X149249064Y-78195410D01*
X149400599Y-78259110D01*
X149536871Y-78351026D01*
X149652706Y-78467673D01*
X149743669Y-78604583D01*
X149806310Y-78756563D01*
X149838186Y-78917545D01*
X149838186Y-78917557D01*
X149838236Y-78917810D01*
X149835615Y-79105563D01*
X149835557Y-79105818D01*
X149835557Y-79105824D01*
X149799198Y-79265857D01*
X149732338Y-79416028D01*
X149637586Y-79550346D01*
X149518544Y-79663709D01*
X149379757Y-79751786D01*
X149226497Y-79811231D01*
X149064620Y-79839775D01*
X148900271Y-79836332D01*
X148739727Y-79801034D01*
X148589099Y-79735227D01*
X148454116Y-79641410D01*
X148339928Y-79523165D01*
X148250884Y-79384998D01*
X148190370Y-79232156D01*
X148160696Y-79070477D01*
X148162992Y-78906113D01*
X148197167Y-78745328D01*
X148261924Y-78594240D01*
X148354795Y-78458606D01*
X148472236Y-78343599D01*
X148609786Y-78253588D01*
X148762197Y-78192011D01*
X148923663Y-78161209D01*
X149088038Y-78162357D01*
X149088038Y-78162357D01*
G37*
G36*
X151088038Y-78162357D02*
X151249064Y-78195410D01*
X151400599Y-78259110D01*
X151536871Y-78351026D01*
X151652706Y-78467673D01*
X151743669Y-78604583D01*
X151806310Y-78756563D01*
X151838186Y-78917545D01*
X151838186Y-78917557D01*
X151838236Y-78917810D01*
X151835615Y-79105563D01*
X151835557Y-79105818D01*
X151835557Y-79105824D01*
X151799198Y-79265857D01*
X151732338Y-79416028D01*
X151637586Y-79550346D01*
X151518544Y-79663709D01*
X151379757Y-79751786D01*
X151226497Y-79811231D01*
X151064620Y-79839775D01*
X150900271Y-79836332D01*
X150739727Y-79801034D01*
X150589099Y-79735227D01*
X150454116Y-79641410D01*
X150339928Y-79523165D01*
X150250884Y-79384998D01*
X150190370Y-79232156D01*
X150160696Y-79070477D01*
X150162992Y-78906113D01*
X150197167Y-78745328D01*
X150261924Y-78594240D01*
X150354795Y-78458606D01*
X150472236Y-78343599D01*
X150609786Y-78253588D01*
X150762197Y-78192011D01*
X150923663Y-78161209D01*
X151088038Y-78162357D01*
X151088038Y-78162357D01*
G37*
G36*
X157515862Y-76323879D02*
X157515864Y-76323879D01*
X157517413Y-76323890D01*
X157697049Y-76344040D01*
X157869350Y-76398697D01*
X158027753Y-76485780D01*
X158166226Y-76601972D01*
X158279492Y-76742847D01*
X158363239Y-76903039D01*
X158414275Y-77076447D01*
X158414277Y-77076465D01*
X158414282Y-77076483D01*
X158430661Y-77256465D01*
X158411769Y-77436201D01*
X158411767Y-77436206D01*
X158411764Y-77436238D01*
X158358311Y-77608917D01*
X158272336Y-77767924D01*
X158157113Y-77907204D01*
X158017032Y-78021452D01*
X157857428Y-78106315D01*
X157684381Y-78158561D01*
X157504481Y-78176200D01*
X157495457Y-78176200D01*
X157484138Y-78176121D01*
X157484136Y-78176121D01*
X157482587Y-78176110D01*
X157302951Y-78155960D01*
X157130650Y-78101303D01*
X156972247Y-78014220D01*
X156833774Y-77898028D01*
X156720508Y-77757153D01*
X156636761Y-77596961D01*
X156585725Y-77423553D01*
X156585723Y-77423535D01*
X156585718Y-77423517D01*
X156569339Y-77243535D01*
X156588231Y-77063799D01*
X156588233Y-77063794D01*
X156588236Y-77063762D01*
X156641689Y-76891083D01*
X156727664Y-76732076D01*
X156842887Y-76592796D01*
X156982968Y-76478548D01*
X157142572Y-76393685D01*
X157315619Y-76341439D01*
X157495519Y-76323800D01*
X157504543Y-76323800D01*
X157515862Y-76323879D01*
X157515862Y-76323879D01*
G37*
G36*
X122515862Y-76323879D02*
X122515864Y-76323879D01*
X122517413Y-76323890D01*
X122697049Y-76344040D01*
X122869350Y-76398697D01*
X123027753Y-76485780D01*
X123166226Y-76601972D01*
X123279492Y-76742847D01*
X123363239Y-76903039D01*
X123414275Y-77076447D01*
X123414277Y-77076465D01*
X123414282Y-77076483D01*
X123430661Y-77256465D01*
X123411769Y-77436201D01*
X123411767Y-77436206D01*
X123411764Y-77436238D01*
X123358311Y-77608917D01*
X123272336Y-77767924D01*
X123157113Y-77907204D01*
X123017032Y-78021452D01*
X122857428Y-78106315D01*
X122684381Y-78158561D01*
X122504481Y-78176200D01*
X122495457Y-78176200D01*
X122484138Y-78176121D01*
X122484136Y-78176121D01*
X122482587Y-78176110D01*
X122302951Y-78155960D01*
X122130650Y-78101303D01*
X121972247Y-78014220D01*
X121833774Y-77898028D01*
X121720508Y-77757153D01*
X121636761Y-77596961D01*
X121585725Y-77423553D01*
X121585723Y-77423535D01*
X121585718Y-77423517D01*
X121569339Y-77243535D01*
X121588231Y-77063799D01*
X121588233Y-77063794D01*
X121588236Y-77063762D01*
X121641689Y-76891083D01*
X121727664Y-76732076D01*
X121842887Y-76592796D01*
X121982968Y-76478548D01*
X122142572Y-76393685D01*
X122315619Y-76341439D01*
X122495519Y-76323800D01*
X122504543Y-76323800D01*
X122515862Y-76323879D01*
X122515862Y-76323879D01*
G37*
G36*
X127088038Y-76162357D02*
X127249064Y-76195410D01*
X127400599Y-76259110D01*
X127536871Y-76351026D01*
X127652706Y-76467673D01*
X127743669Y-76604583D01*
X127806310Y-76756563D01*
X127838186Y-76917545D01*
X127838186Y-76917557D01*
X127838236Y-76917810D01*
X127835615Y-77105563D01*
X127835557Y-77105818D01*
X127835557Y-77105824D01*
X127799198Y-77265857D01*
X127732338Y-77416028D01*
X127637586Y-77550346D01*
X127518544Y-77663709D01*
X127379757Y-77751786D01*
X127226497Y-77811231D01*
X127064620Y-77839775D01*
X126900271Y-77836332D01*
X126739727Y-77801034D01*
X126589099Y-77735227D01*
X126454116Y-77641410D01*
X126339928Y-77523165D01*
X126250884Y-77384998D01*
X126190370Y-77232156D01*
X126160696Y-77070477D01*
X126162992Y-76906113D01*
X126197167Y-76745328D01*
X126261924Y-76594240D01*
X126354795Y-76458606D01*
X126472236Y-76343599D01*
X126609786Y-76253588D01*
X126762197Y-76192011D01*
X126923663Y-76161209D01*
X127088038Y-76162357D01*
X127088038Y-76162357D01*
G37*
G36*
X153088038Y-76162357D02*
X153249064Y-76195410D01*
X153400599Y-76259110D01*
X153536871Y-76351026D01*
X153652706Y-76467673D01*
X153743669Y-76604583D01*
X153806310Y-76756563D01*
X153838186Y-76917545D01*
X153838186Y-76917557D01*
X153838236Y-76917810D01*
X153835615Y-77105563D01*
X153835557Y-77105818D01*
X153835557Y-77105824D01*
X153799198Y-77265857D01*
X153732338Y-77416028D01*
X153637586Y-77550346D01*
X153518544Y-77663709D01*
X153379757Y-77751786D01*
X153226497Y-77811231D01*
X153064620Y-77839775D01*
X152900271Y-77836332D01*
X152739727Y-77801034D01*
X152589099Y-77735227D01*
X152454116Y-77641410D01*
X152339928Y-77523165D01*
X152250884Y-77384998D01*
X152190370Y-77232156D01*
X152160696Y-77070477D01*
X152162992Y-76906113D01*
X152197167Y-76745328D01*
X152261924Y-76594240D01*
X152354795Y-76458606D01*
X152472236Y-76343599D01*
X152609786Y-76253588D01*
X152762197Y-76192011D01*
X152923663Y-76161209D01*
X153088038Y-76162357D01*
X153088038Y-76162357D01*
G37*
G36*
X151088038Y-76162357D02*
X151249064Y-76195410D01*
X151400599Y-76259110D01*
X151536871Y-76351026D01*
X151652706Y-76467673D01*
X151743669Y-76604583D01*
X151806310Y-76756563D01*
X151838186Y-76917545D01*
X151838186Y-76917557D01*
X151838236Y-76917810D01*
X151835615Y-77105563D01*
X151835557Y-77105818D01*
X151835557Y-77105824D01*
X151799198Y-77265857D01*
X151732338Y-77416028D01*
X151637586Y-77550346D01*
X151518544Y-77663709D01*
X151379757Y-77751786D01*
X151226497Y-77811231D01*
X151064620Y-77839775D01*
X150900271Y-77836332D01*
X150739727Y-77801034D01*
X150589099Y-77735227D01*
X150454116Y-77641410D01*
X150339928Y-77523165D01*
X150250884Y-77384998D01*
X150190370Y-77232156D01*
X150160696Y-77070477D01*
X150162992Y-76906113D01*
X150197167Y-76745328D01*
X150261924Y-76594240D01*
X150354795Y-76458606D01*
X150472236Y-76343599D01*
X150609786Y-76253588D01*
X150762197Y-76192011D01*
X150923663Y-76161209D01*
X151088038Y-76162357D01*
X151088038Y-76162357D01*
G37*
G36*
X131088038Y-76162357D02*
X131249064Y-76195410D01*
X131400599Y-76259110D01*
X131536871Y-76351026D01*
X131652706Y-76467673D01*
X131743669Y-76604583D01*
X131806310Y-76756563D01*
X131838186Y-76917545D01*
X131838186Y-76917557D01*
X131838236Y-76917810D01*
X131835615Y-77105563D01*
X131835557Y-77105818D01*
X131835557Y-77105824D01*
X131799198Y-77265857D01*
X131732338Y-77416028D01*
X131637586Y-77550346D01*
X131518544Y-77663709D01*
X131379757Y-77751786D01*
X131226497Y-77811231D01*
X131064620Y-77839775D01*
X130900271Y-77836332D01*
X130739727Y-77801034D01*
X130589099Y-77735227D01*
X130454116Y-77641410D01*
X130339928Y-77523165D01*
X130250884Y-77384998D01*
X130190370Y-77232156D01*
X130160696Y-77070477D01*
X130162992Y-76906113D01*
X130197167Y-76745328D01*
X130261924Y-76594240D01*
X130354795Y-76458606D01*
X130472236Y-76343599D01*
X130609786Y-76253588D01*
X130762197Y-76192011D01*
X130923663Y-76161209D01*
X131088038Y-76162357D01*
X131088038Y-76162357D01*
G37*
G36*
X129088038Y-76162357D02*
X129249064Y-76195410D01*
X129400599Y-76259110D01*
X129536871Y-76351026D01*
X129652706Y-76467673D01*
X129743669Y-76604583D01*
X129806310Y-76756563D01*
X129838186Y-76917545D01*
X129838186Y-76917557D01*
X129838236Y-76917810D01*
X129835615Y-77105563D01*
X129835557Y-77105818D01*
X129835557Y-77105824D01*
X129799198Y-77265857D01*
X129732338Y-77416028D01*
X129637586Y-77550346D01*
X129518544Y-77663709D01*
X129379757Y-77751786D01*
X129226497Y-77811231D01*
X129064620Y-77839775D01*
X128900271Y-77836332D01*
X128739727Y-77801034D01*
X128589099Y-77735227D01*
X128454116Y-77641410D01*
X128339928Y-77523165D01*
X128250884Y-77384998D01*
X128190370Y-77232156D01*
X128160696Y-77070477D01*
X128162992Y-76906113D01*
X128197167Y-76745328D01*
X128261924Y-76594240D01*
X128354795Y-76458606D01*
X128472236Y-76343599D01*
X128609786Y-76253588D01*
X128762197Y-76192011D01*
X128923663Y-76161209D01*
X129088038Y-76162357D01*
X129088038Y-76162357D01*
G37*
G36*
X149088038Y-76162357D02*
X149249064Y-76195410D01*
X149400599Y-76259110D01*
X149536871Y-76351026D01*
X149652706Y-76467673D01*
X149743669Y-76604583D01*
X149806310Y-76756563D01*
X149838186Y-76917545D01*
X149838186Y-76917557D01*
X149838236Y-76917810D01*
X149835615Y-77105563D01*
X149835557Y-77105818D01*
X149835557Y-77105824D01*
X149799198Y-77265857D01*
X149732338Y-77416028D01*
X149637586Y-77550346D01*
X149518544Y-77663709D01*
X149379757Y-77751786D01*
X149226497Y-77811231D01*
X149064620Y-77839775D01*
X148900271Y-77836332D01*
X148739727Y-77801034D01*
X148589099Y-77735227D01*
X148454116Y-77641410D01*
X148339928Y-77523165D01*
X148250884Y-77384998D01*
X148190370Y-77232156D01*
X148160696Y-77070477D01*
X148162992Y-76906113D01*
X148197167Y-76745328D01*
X148261924Y-76594240D01*
X148354795Y-76458606D01*
X148472236Y-76343599D01*
X148609786Y-76253588D01*
X148762197Y-76192011D01*
X148923663Y-76161209D01*
X149088038Y-76162357D01*
X149088038Y-76162357D01*
G37*
G36*
X127088038Y-74162357D02*
X127249064Y-74195410D01*
X127400599Y-74259110D01*
X127536871Y-74351026D01*
X127652706Y-74467673D01*
X127743669Y-74604583D01*
X127806310Y-74756563D01*
X127838186Y-74917545D01*
X127838186Y-74917557D01*
X127838236Y-74917810D01*
X127835615Y-75105563D01*
X127835557Y-75105818D01*
X127835557Y-75105824D01*
X127799198Y-75265857D01*
X127732338Y-75416028D01*
X127637586Y-75550346D01*
X127518544Y-75663709D01*
X127379757Y-75751786D01*
X127226497Y-75811231D01*
X127064620Y-75839775D01*
X126900271Y-75836332D01*
X126739727Y-75801034D01*
X126589099Y-75735227D01*
X126454116Y-75641410D01*
X126339928Y-75523165D01*
X126250884Y-75384998D01*
X126190370Y-75232156D01*
X126160696Y-75070477D01*
X126162992Y-74906113D01*
X126197167Y-74745328D01*
X126261924Y-74594240D01*
X126354795Y-74458606D01*
X126472236Y-74343599D01*
X126609786Y-74253588D01*
X126762197Y-74192011D01*
X126923663Y-74161209D01*
X127088038Y-74162357D01*
X127088038Y-74162357D01*
G37*
G36*
X129088038Y-74162357D02*
X129249064Y-74195410D01*
X129400599Y-74259110D01*
X129536871Y-74351026D01*
X129652706Y-74467673D01*
X129743669Y-74604583D01*
X129806310Y-74756563D01*
X129838186Y-74917545D01*
X129838186Y-74917557D01*
X129838236Y-74917810D01*
X129835615Y-75105563D01*
X129835557Y-75105818D01*
X129835557Y-75105824D01*
X129799198Y-75265857D01*
X129732338Y-75416028D01*
X129637586Y-75550346D01*
X129518544Y-75663709D01*
X129379757Y-75751786D01*
X129226497Y-75811231D01*
X129064620Y-75839775D01*
X128900271Y-75836332D01*
X128739727Y-75801034D01*
X128589099Y-75735227D01*
X128454116Y-75641410D01*
X128339928Y-75523165D01*
X128250884Y-75384998D01*
X128190370Y-75232156D01*
X128160696Y-75070477D01*
X128162992Y-74906113D01*
X128197167Y-74745328D01*
X128261924Y-74594240D01*
X128354795Y-74458606D01*
X128472236Y-74343599D01*
X128609786Y-74253588D01*
X128762197Y-74192011D01*
X128923663Y-74161209D01*
X129088038Y-74162357D01*
X129088038Y-74162357D01*
G37*
G36*
X153088038Y-74162357D02*
X153249064Y-74195410D01*
X153400599Y-74259110D01*
X153536871Y-74351026D01*
X153652706Y-74467673D01*
X153743669Y-74604583D01*
X153806310Y-74756563D01*
X153838186Y-74917545D01*
X153838186Y-74917557D01*
X153838236Y-74917810D01*
X153835615Y-75105563D01*
X153835557Y-75105818D01*
X153835557Y-75105824D01*
X153799198Y-75265857D01*
X153732338Y-75416028D01*
X153637586Y-75550346D01*
X153518544Y-75663709D01*
X153379757Y-75751786D01*
X153226497Y-75811231D01*
X153064620Y-75839775D01*
X152900271Y-75836332D01*
X152739727Y-75801034D01*
X152589099Y-75735227D01*
X152454116Y-75641410D01*
X152339928Y-75523165D01*
X152250884Y-75384998D01*
X152190370Y-75232156D01*
X152160696Y-75070477D01*
X152162992Y-74906113D01*
X152197167Y-74745328D01*
X152261924Y-74594240D01*
X152354795Y-74458606D01*
X152472236Y-74343599D01*
X152609786Y-74253588D01*
X152762197Y-74192011D01*
X152923663Y-74161209D01*
X153088038Y-74162357D01*
X153088038Y-74162357D01*
G37*
G36*
X151088038Y-74162357D02*
X151249064Y-74195410D01*
X151400599Y-74259110D01*
X151536871Y-74351026D01*
X151652706Y-74467673D01*
X151743669Y-74604583D01*
X151806310Y-74756563D01*
X151838186Y-74917545D01*
X151838186Y-74917557D01*
X151838236Y-74917810D01*
X151835615Y-75105563D01*
X151835557Y-75105818D01*
X151835557Y-75105824D01*
X151799198Y-75265857D01*
X151732338Y-75416028D01*
X151637586Y-75550346D01*
X151518544Y-75663709D01*
X151379757Y-75751786D01*
X151226497Y-75811231D01*
X151064620Y-75839775D01*
X150900271Y-75836332D01*
X150739727Y-75801034D01*
X150589099Y-75735227D01*
X150454116Y-75641410D01*
X150339928Y-75523165D01*
X150250884Y-75384998D01*
X150190370Y-75232156D01*
X150160696Y-75070477D01*
X150162992Y-74906113D01*
X150197167Y-74745328D01*
X150261924Y-74594240D01*
X150354795Y-74458606D01*
X150472236Y-74343599D01*
X150609786Y-74253588D01*
X150762197Y-74192011D01*
X150923663Y-74161209D01*
X151088038Y-74162357D01*
X151088038Y-74162357D01*
G37*
G36*
X149088038Y-74162357D02*
X149249064Y-74195410D01*
X149400599Y-74259110D01*
X149536871Y-74351026D01*
X149652706Y-74467673D01*
X149743669Y-74604583D01*
X149806310Y-74756563D01*
X149838186Y-74917545D01*
X149838186Y-74917557D01*
X149838236Y-74917810D01*
X149835615Y-75105563D01*
X149835557Y-75105818D01*
X149835557Y-75105824D01*
X149799198Y-75265857D01*
X149732338Y-75416028D01*
X149637586Y-75550346D01*
X149518544Y-75663709D01*
X149379757Y-75751786D01*
X149226497Y-75811231D01*
X149064620Y-75839775D01*
X148900271Y-75836332D01*
X148739727Y-75801034D01*
X148589099Y-75735227D01*
X148454116Y-75641410D01*
X148339928Y-75523165D01*
X148250884Y-75384998D01*
X148190370Y-75232156D01*
X148160696Y-75070477D01*
X148162992Y-74906113D01*
X148197167Y-74745328D01*
X148261924Y-74594240D01*
X148354795Y-74458606D01*
X148472236Y-74343599D01*
X148609786Y-74253588D01*
X148762197Y-74192011D01*
X148923663Y-74161209D01*
X149088038Y-74162357D01*
X149088038Y-74162357D01*
G37*
G36*
X131088038Y-74162357D02*
X131249064Y-74195410D01*
X131400599Y-74259110D01*
X131536871Y-74351026D01*
X131652706Y-74467673D01*
X131743669Y-74604583D01*
X131806310Y-74756563D01*
X131838186Y-74917545D01*
X131838186Y-74917557D01*
X131838236Y-74917810D01*
X131835615Y-75105563D01*
X131835557Y-75105818D01*
X131835557Y-75105824D01*
X131799198Y-75265857D01*
X131732338Y-75416028D01*
X131637586Y-75550346D01*
X131518544Y-75663709D01*
X131379757Y-75751786D01*
X131226497Y-75811231D01*
X131064620Y-75839775D01*
X130900271Y-75836332D01*
X130739727Y-75801034D01*
X130589099Y-75735227D01*
X130454116Y-75641410D01*
X130339928Y-75523165D01*
X130250884Y-75384998D01*
X130190370Y-75232156D01*
X130160696Y-75070477D01*
X130162992Y-74906113D01*
X130197167Y-74745328D01*
X130261924Y-74594240D01*
X130354795Y-74458606D01*
X130472236Y-74343599D01*
X130609786Y-74253588D01*
X130762197Y-74192011D01*
X130923663Y-74161209D01*
X131088038Y-74162357D01*
X131088038Y-74162357D01*
G37*
G36*
X122515862Y-73783879D02*
X122515864Y-73783879D01*
X122517413Y-73783890D01*
X122697049Y-73804040D01*
X122869350Y-73858697D01*
X123027753Y-73945780D01*
X123166226Y-74061972D01*
X123279492Y-74202847D01*
X123363239Y-74363039D01*
X123414275Y-74536447D01*
X123414277Y-74536465D01*
X123414282Y-74536483D01*
X123430661Y-74716465D01*
X123411769Y-74896201D01*
X123411767Y-74896206D01*
X123411764Y-74896238D01*
X123358311Y-75068917D01*
X123272336Y-75227924D01*
X123157113Y-75367204D01*
X123017032Y-75481452D01*
X122857428Y-75566315D01*
X122684381Y-75618561D01*
X122504481Y-75636200D01*
X122495457Y-75636200D01*
X122484138Y-75636121D01*
X122484136Y-75636121D01*
X122482587Y-75636110D01*
X122302951Y-75615960D01*
X122130650Y-75561303D01*
X121972247Y-75474220D01*
X121833774Y-75358028D01*
X121720508Y-75217153D01*
X121636761Y-75056961D01*
X121585725Y-74883553D01*
X121585723Y-74883535D01*
X121585718Y-74883517D01*
X121569339Y-74703535D01*
X121588231Y-74523799D01*
X121588233Y-74523794D01*
X121588236Y-74523762D01*
X121641689Y-74351083D01*
X121727664Y-74192076D01*
X121842887Y-74052796D01*
X121982968Y-73938548D01*
X122142572Y-73853685D01*
X122315619Y-73801439D01*
X122495519Y-73783800D01*
X122504543Y-73783800D01*
X122515862Y-73783879D01*
X122515862Y-73783879D01*
G37*
G36*
X157515862Y-73783879D02*
X157515864Y-73783879D01*
X157517413Y-73783890D01*
X157697049Y-73804040D01*
X157869350Y-73858697D01*
X158027753Y-73945780D01*
X158166226Y-74061972D01*
X158279492Y-74202847D01*
X158363239Y-74363039D01*
X158414275Y-74536447D01*
X158414277Y-74536465D01*
X158414282Y-74536483D01*
X158430661Y-74716465D01*
X158411769Y-74896201D01*
X158411767Y-74896206D01*
X158411764Y-74896238D01*
X158358311Y-75068917D01*
X158272336Y-75227924D01*
X158157113Y-75367204D01*
X158017032Y-75481452D01*
X157857428Y-75566315D01*
X157684381Y-75618561D01*
X157504481Y-75636200D01*
X157495457Y-75636200D01*
X157484138Y-75636121D01*
X157484136Y-75636121D01*
X157482587Y-75636110D01*
X157302951Y-75615960D01*
X157130650Y-75561303D01*
X156972247Y-75474220D01*
X156833774Y-75358028D01*
X156720508Y-75217153D01*
X156636761Y-75056961D01*
X156585725Y-74883553D01*
X156585723Y-74883535D01*
X156585718Y-74883517D01*
X156569339Y-74703535D01*
X156588231Y-74523799D01*
X156588233Y-74523794D01*
X156588236Y-74523762D01*
X156641689Y-74351083D01*
X156727664Y-74192076D01*
X156842887Y-74052796D01*
X156982968Y-73938548D01*
X157142572Y-73853685D01*
X157315619Y-73801439D01*
X157495519Y-73783800D01*
X157504543Y-73783800D01*
X157515862Y-73783879D01*
X157515862Y-73783879D01*
G37*
G36*
X153088038Y-72162357D02*
X153249064Y-72195410D01*
X153400599Y-72259110D01*
X153536871Y-72351026D01*
X153652706Y-72467673D01*
X153743669Y-72604583D01*
X153806310Y-72756563D01*
X153838186Y-72917545D01*
X153838186Y-72917557D01*
X153838236Y-72917810D01*
X153835615Y-73105563D01*
X153835557Y-73105818D01*
X153835557Y-73105824D01*
X153799198Y-73265857D01*
X153732338Y-73416028D01*
X153637586Y-73550346D01*
X153518544Y-73663709D01*
X153379757Y-73751786D01*
X153226497Y-73811231D01*
X153064620Y-73839775D01*
X152900271Y-73836332D01*
X152739727Y-73801034D01*
X152589099Y-73735227D01*
X152454116Y-73641410D01*
X152339928Y-73523165D01*
X152250884Y-73384998D01*
X152190370Y-73232156D01*
X152160696Y-73070477D01*
X152162992Y-72906113D01*
X152197167Y-72745328D01*
X152261924Y-72594240D01*
X152354795Y-72458606D01*
X152472236Y-72343599D01*
X152609786Y-72253588D01*
X152762197Y-72192011D01*
X152923663Y-72161209D01*
X153088038Y-72162357D01*
X153088038Y-72162357D01*
G37*
G36*
X131088038Y-72162357D02*
X131249064Y-72195410D01*
X131400599Y-72259110D01*
X131536871Y-72351026D01*
X131652706Y-72467673D01*
X131743669Y-72604583D01*
X131806310Y-72756563D01*
X131838186Y-72917545D01*
X131838186Y-72917557D01*
X131838236Y-72917810D01*
X131835615Y-73105563D01*
X131835557Y-73105818D01*
X131835557Y-73105824D01*
X131799198Y-73265857D01*
X131732338Y-73416028D01*
X131637586Y-73550346D01*
X131518544Y-73663709D01*
X131379757Y-73751786D01*
X131226497Y-73811231D01*
X131064620Y-73839775D01*
X130900271Y-73836332D01*
X130739727Y-73801034D01*
X130589099Y-73735227D01*
X130454116Y-73641410D01*
X130339928Y-73523165D01*
X130250884Y-73384998D01*
X130190370Y-73232156D01*
X130160696Y-73070477D01*
X130162992Y-72906113D01*
X130197167Y-72745328D01*
X130261924Y-72594240D01*
X130354795Y-72458606D01*
X130472236Y-72343599D01*
X130609786Y-72253588D01*
X130762197Y-72192011D01*
X130923663Y-72161209D01*
X131088038Y-72162357D01*
X131088038Y-72162357D01*
G37*
G36*
X149088038Y-72162357D02*
X149249064Y-72195410D01*
X149400599Y-72259110D01*
X149536871Y-72351026D01*
X149652706Y-72467673D01*
X149743669Y-72604583D01*
X149806310Y-72756563D01*
X149838186Y-72917545D01*
X149838186Y-72917557D01*
X149838236Y-72917810D01*
X149835615Y-73105563D01*
X149835557Y-73105818D01*
X149835557Y-73105824D01*
X149799198Y-73265857D01*
X149732338Y-73416028D01*
X149637586Y-73550346D01*
X149518544Y-73663709D01*
X149379757Y-73751786D01*
X149226497Y-73811231D01*
X149064620Y-73839775D01*
X148900271Y-73836332D01*
X148739727Y-73801034D01*
X148589099Y-73735227D01*
X148454116Y-73641410D01*
X148339928Y-73523165D01*
X148250884Y-73384998D01*
X148190370Y-73232156D01*
X148160696Y-73070477D01*
X148162992Y-72906113D01*
X148197167Y-72745328D01*
X148261924Y-72594240D01*
X148354795Y-72458606D01*
X148472236Y-72343599D01*
X148609786Y-72253588D01*
X148762197Y-72192011D01*
X148923663Y-72161209D01*
X149088038Y-72162357D01*
X149088038Y-72162357D01*
G37*
G36*
X151088038Y-72162357D02*
X151249064Y-72195410D01*
X151400599Y-72259110D01*
X151536871Y-72351026D01*
X151652706Y-72467673D01*
X151743669Y-72604583D01*
X151806310Y-72756563D01*
X151838186Y-72917545D01*
X151838186Y-72917557D01*
X151838236Y-72917810D01*
X151835615Y-73105563D01*
X151835557Y-73105818D01*
X151835557Y-73105824D01*
X151799198Y-73265857D01*
X151732338Y-73416028D01*
X151637586Y-73550346D01*
X151518544Y-73663709D01*
X151379757Y-73751786D01*
X151226497Y-73811231D01*
X151064620Y-73839775D01*
X150900271Y-73836332D01*
X150739727Y-73801034D01*
X150589099Y-73735227D01*
X150454116Y-73641410D01*
X150339928Y-73523165D01*
X150250884Y-73384998D01*
X150190370Y-73232156D01*
X150160696Y-73070477D01*
X150162992Y-72906113D01*
X150197167Y-72745328D01*
X150261924Y-72594240D01*
X150354795Y-72458606D01*
X150472236Y-72343599D01*
X150609786Y-72253588D01*
X150762197Y-72192011D01*
X150923663Y-72161209D01*
X151088038Y-72162357D01*
X151088038Y-72162357D01*
G37*
G36*
X129088038Y-72162357D02*
X129249064Y-72195410D01*
X129400599Y-72259110D01*
X129536871Y-72351026D01*
X129652706Y-72467673D01*
X129743669Y-72604583D01*
X129806310Y-72756563D01*
X129838186Y-72917545D01*
X129838186Y-72917557D01*
X129838236Y-72917810D01*
X129835615Y-73105563D01*
X129835557Y-73105818D01*
X129835557Y-73105824D01*
X129799198Y-73265857D01*
X129732338Y-73416028D01*
X129637586Y-73550346D01*
X129518544Y-73663709D01*
X129379757Y-73751786D01*
X129226497Y-73811231D01*
X129064620Y-73839775D01*
X128900271Y-73836332D01*
X128739727Y-73801034D01*
X128589099Y-73735227D01*
X128454116Y-73641410D01*
X128339928Y-73523165D01*
X128250884Y-73384998D01*
X128190370Y-73232156D01*
X128160696Y-73070477D01*
X128162992Y-72906113D01*
X128197167Y-72745328D01*
X128261924Y-72594240D01*
X128354795Y-72458606D01*
X128472236Y-72343599D01*
X128609786Y-72253588D01*
X128762197Y-72192011D01*
X128923663Y-72161209D01*
X129088038Y-72162357D01*
X129088038Y-72162357D01*
G37*
G36*
X127088038Y-72162357D02*
X127249064Y-72195410D01*
X127400599Y-72259110D01*
X127536871Y-72351026D01*
X127652706Y-72467673D01*
X127743669Y-72604583D01*
X127806310Y-72756563D01*
X127838186Y-72917545D01*
X127838186Y-72917557D01*
X127838236Y-72917810D01*
X127835615Y-73105563D01*
X127835557Y-73105818D01*
X127835557Y-73105824D01*
X127799198Y-73265857D01*
X127732338Y-73416028D01*
X127637586Y-73550346D01*
X127518544Y-73663709D01*
X127379757Y-73751786D01*
X127226497Y-73811231D01*
X127064620Y-73839775D01*
X126900271Y-73836332D01*
X126739727Y-73801034D01*
X126589099Y-73735227D01*
X126454116Y-73641410D01*
X126339928Y-73523165D01*
X126250884Y-73384998D01*
X126190370Y-73232156D01*
X126160696Y-73070477D01*
X126162992Y-72906113D01*
X126197167Y-72745328D01*
X126261924Y-72594240D01*
X126354795Y-72458606D01*
X126472236Y-72343599D01*
X126609786Y-72253588D01*
X126762197Y-72192011D01*
X126923663Y-72161209D01*
X127088038Y-72162357D01*
X127088038Y-72162357D01*
G37*
G36*
X157515862Y-71243879D02*
X157515864Y-71243879D01*
X157517413Y-71243890D01*
X157697049Y-71264040D01*
X157869350Y-71318697D01*
X158027753Y-71405780D01*
X158166226Y-71521972D01*
X158279492Y-71662847D01*
X158363239Y-71823039D01*
X158414275Y-71996447D01*
X158414277Y-71996465D01*
X158414282Y-71996483D01*
X158430661Y-72176465D01*
X158411769Y-72356201D01*
X158411767Y-72356206D01*
X158411764Y-72356238D01*
X158358311Y-72528917D01*
X158272336Y-72687924D01*
X158157113Y-72827204D01*
X158017032Y-72941452D01*
X157857428Y-73026315D01*
X157684381Y-73078561D01*
X157504481Y-73096200D01*
X157495457Y-73096200D01*
X157484138Y-73096121D01*
X157484136Y-73096121D01*
X157482587Y-73096110D01*
X157302951Y-73075960D01*
X157130650Y-73021303D01*
X156972247Y-72934220D01*
X156833774Y-72818028D01*
X156720508Y-72677153D01*
X156636761Y-72516961D01*
X156585725Y-72343553D01*
X156585723Y-72343535D01*
X156585718Y-72343517D01*
X156569339Y-72163535D01*
X156588231Y-71983799D01*
X156588233Y-71983794D01*
X156588236Y-71983762D01*
X156641689Y-71811083D01*
X156727664Y-71652076D01*
X156842887Y-71512796D01*
X156982968Y-71398548D01*
X157142572Y-71313685D01*
X157315619Y-71261439D01*
X157495519Y-71243800D01*
X157504543Y-71243800D01*
X157515862Y-71243879D01*
X157515862Y-71243879D01*
G37*
G36*
X122515862Y-71243879D02*
X122515864Y-71243879D01*
X122517413Y-71243890D01*
X122697049Y-71264040D01*
X122869350Y-71318697D01*
X123027753Y-71405780D01*
X123166226Y-71521972D01*
X123279492Y-71662847D01*
X123363239Y-71823039D01*
X123414275Y-71996447D01*
X123414277Y-71996465D01*
X123414282Y-71996483D01*
X123430661Y-72176465D01*
X123411769Y-72356201D01*
X123411767Y-72356206D01*
X123411764Y-72356238D01*
X123358311Y-72528917D01*
X123272336Y-72687924D01*
X123157113Y-72827204D01*
X123017032Y-72941452D01*
X122857428Y-73026315D01*
X122684381Y-73078561D01*
X122504481Y-73096200D01*
X122495457Y-73096200D01*
X122484138Y-73096121D01*
X122484136Y-73096121D01*
X122482587Y-73096110D01*
X122302951Y-73075960D01*
X122130650Y-73021303D01*
X121972247Y-72934220D01*
X121833774Y-72818028D01*
X121720508Y-72677153D01*
X121636761Y-72516961D01*
X121585725Y-72343553D01*
X121585723Y-72343535D01*
X121585718Y-72343517D01*
X121569339Y-72163535D01*
X121588231Y-71983799D01*
X121588233Y-71983794D01*
X121588236Y-71983762D01*
X121641689Y-71811083D01*
X121727664Y-71652076D01*
X121842887Y-71512796D01*
X121982968Y-71398548D01*
X122142572Y-71313685D01*
X122315619Y-71261439D01*
X122495519Y-71243800D01*
X122504543Y-71243800D01*
X122515862Y-71243879D01*
X122515862Y-71243879D01*
G37*
G36*
X153088038Y-70162357D02*
X153249064Y-70195410D01*
X153400599Y-70259110D01*
X153536871Y-70351026D01*
X153652706Y-70467673D01*
X153743669Y-70604583D01*
X153806310Y-70756563D01*
X153838186Y-70917545D01*
X153838186Y-70917557D01*
X153838236Y-70917810D01*
X153835615Y-71105563D01*
X153835557Y-71105818D01*
X153835557Y-71105824D01*
X153799198Y-71265857D01*
X153732338Y-71416028D01*
X153637586Y-71550346D01*
X153518544Y-71663709D01*
X153379757Y-71751786D01*
X153226497Y-71811231D01*
X153064620Y-71839775D01*
X152900271Y-71836332D01*
X152739727Y-71801034D01*
X152589099Y-71735227D01*
X152454116Y-71641410D01*
X152339928Y-71523165D01*
X152250884Y-71384998D01*
X152190370Y-71232156D01*
X152160696Y-71070477D01*
X152162992Y-70906113D01*
X152197167Y-70745328D01*
X152261924Y-70594240D01*
X152354795Y-70458606D01*
X152472236Y-70343599D01*
X152609786Y-70253588D01*
X152762197Y-70192011D01*
X152923663Y-70161209D01*
X153088038Y-70162357D01*
X153088038Y-70162357D01*
G37*
G36*
X151088038Y-70162357D02*
X151249064Y-70195410D01*
X151400599Y-70259110D01*
X151536871Y-70351026D01*
X151652706Y-70467673D01*
X151743669Y-70604583D01*
X151806310Y-70756563D01*
X151838186Y-70917545D01*
X151838186Y-70917557D01*
X151838236Y-70917810D01*
X151835615Y-71105563D01*
X151835557Y-71105818D01*
X151835557Y-71105824D01*
X151799198Y-71265857D01*
X151732338Y-71416028D01*
X151637586Y-71550346D01*
X151518544Y-71663709D01*
X151379757Y-71751786D01*
X151226497Y-71811231D01*
X151064620Y-71839775D01*
X150900271Y-71836332D01*
X150739727Y-71801034D01*
X150589099Y-71735227D01*
X150454116Y-71641410D01*
X150339928Y-71523165D01*
X150250884Y-71384998D01*
X150190370Y-71232156D01*
X150160696Y-71070477D01*
X150162992Y-70906113D01*
X150197167Y-70745328D01*
X150261924Y-70594240D01*
X150354795Y-70458606D01*
X150472236Y-70343599D01*
X150609786Y-70253588D01*
X150762197Y-70192011D01*
X150923663Y-70161209D01*
X151088038Y-70162357D01*
X151088038Y-70162357D01*
G37*
G36*
X131088038Y-70162357D02*
X131249064Y-70195410D01*
X131400599Y-70259110D01*
X131536871Y-70351026D01*
X131652706Y-70467673D01*
X131743669Y-70604583D01*
X131806310Y-70756563D01*
X131838186Y-70917545D01*
X131838186Y-70917557D01*
X131838236Y-70917810D01*
X131835615Y-71105563D01*
X131835557Y-71105818D01*
X131835557Y-71105824D01*
X131799198Y-71265857D01*
X131732338Y-71416028D01*
X131637586Y-71550346D01*
X131518544Y-71663709D01*
X131379757Y-71751786D01*
X131226497Y-71811231D01*
X131064620Y-71839775D01*
X130900271Y-71836332D01*
X130739727Y-71801034D01*
X130589099Y-71735227D01*
X130454116Y-71641410D01*
X130339928Y-71523165D01*
X130250884Y-71384998D01*
X130190370Y-71232156D01*
X130160696Y-71070477D01*
X130162992Y-70906113D01*
X130197167Y-70745328D01*
X130261924Y-70594240D01*
X130354795Y-70458606D01*
X130472236Y-70343599D01*
X130609786Y-70253588D01*
X130762197Y-70192011D01*
X130923663Y-70161209D01*
X131088038Y-70162357D01*
X131088038Y-70162357D01*
G37*
G36*
X127088038Y-70162357D02*
X127249064Y-70195410D01*
X127400599Y-70259110D01*
X127536871Y-70351026D01*
X127652706Y-70467673D01*
X127743669Y-70604583D01*
X127806310Y-70756563D01*
X127838186Y-70917545D01*
X127838186Y-70917557D01*
X127838236Y-70917810D01*
X127835615Y-71105563D01*
X127835557Y-71105818D01*
X127835557Y-71105824D01*
X127799198Y-71265857D01*
X127732338Y-71416028D01*
X127637586Y-71550346D01*
X127518544Y-71663709D01*
X127379757Y-71751786D01*
X127226497Y-71811231D01*
X127064620Y-71839775D01*
X126900271Y-71836332D01*
X126739727Y-71801034D01*
X126589099Y-71735227D01*
X126454116Y-71641410D01*
X126339928Y-71523165D01*
X126250884Y-71384998D01*
X126190370Y-71232156D01*
X126160696Y-71070477D01*
X126162992Y-70906113D01*
X126197167Y-70745328D01*
X126261924Y-70594240D01*
X126354795Y-70458606D01*
X126472236Y-70343599D01*
X126609786Y-70253588D01*
X126762197Y-70192011D01*
X126923663Y-70161209D01*
X127088038Y-70162357D01*
X127088038Y-70162357D01*
G37*
G36*
X149088038Y-70162357D02*
X149249064Y-70195410D01*
X149400599Y-70259110D01*
X149536871Y-70351026D01*
X149652706Y-70467673D01*
X149743669Y-70604583D01*
X149806310Y-70756563D01*
X149838186Y-70917545D01*
X149838186Y-70917557D01*
X149838236Y-70917810D01*
X149835615Y-71105563D01*
X149835557Y-71105818D01*
X149835557Y-71105824D01*
X149799198Y-71265857D01*
X149732338Y-71416028D01*
X149637586Y-71550346D01*
X149518544Y-71663709D01*
X149379757Y-71751786D01*
X149226497Y-71811231D01*
X149064620Y-71839775D01*
X148900271Y-71836332D01*
X148739727Y-71801034D01*
X148589099Y-71735227D01*
X148454116Y-71641410D01*
X148339928Y-71523165D01*
X148250884Y-71384998D01*
X148190370Y-71232156D01*
X148160696Y-71070477D01*
X148162992Y-70906113D01*
X148197167Y-70745328D01*
X148261924Y-70594240D01*
X148354795Y-70458606D01*
X148472236Y-70343599D01*
X148609786Y-70253588D01*
X148762197Y-70192011D01*
X148923663Y-70161209D01*
X149088038Y-70162357D01*
X149088038Y-70162357D01*
G37*
G36*
X129088038Y-70162357D02*
X129249064Y-70195410D01*
X129400599Y-70259110D01*
X129536871Y-70351026D01*
X129652706Y-70467673D01*
X129743669Y-70604583D01*
X129806310Y-70756563D01*
X129838186Y-70917545D01*
X129838186Y-70917557D01*
X129838236Y-70917810D01*
X129835615Y-71105563D01*
X129835557Y-71105818D01*
X129835557Y-71105824D01*
X129799198Y-71265857D01*
X129732338Y-71416028D01*
X129637586Y-71550346D01*
X129518544Y-71663709D01*
X129379757Y-71751786D01*
X129226497Y-71811231D01*
X129064620Y-71839775D01*
X128900271Y-71836332D01*
X128739727Y-71801034D01*
X128589099Y-71735227D01*
X128454116Y-71641410D01*
X128339928Y-71523165D01*
X128250884Y-71384998D01*
X128190370Y-71232156D01*
X128160696Y-71070477D01*
X128162992Y-70906113D01*
X128197167Y-70745328D01*
X128261924Y-70594240D01*
X128354795Y-70458606D01*
X128472236Y-70343599D01*
X128609786Y-70253588D01*
X128762197Y-70192011D01*
X128923663Y-70161209D01*
X129088038Y-70162357D01*
X129088038Y-70162357D01*
G37*
G36*
X157515862Y-68703879D02*
X157515864Y-68703879D01*
X157517413Y-68703890D01*
X157697049Y-68724040D01*
X157869350Y-68778697D01*
X158027753Y-68865780D01*
X158166226Y-68981972D01*
X158279492Y-69122847D01*
X158363239Y-69283039D01*
X158414275Y-69456447D01*
X158414277Y-69456465D01*
X158414282Y-69456483D01*
X158430661Y-69636465D01*
X158411769Y-69816201D01*
X158411767Y-69816206D01*
X158411764Y-69816238D01*
X158358311Y-69988917D01*
X158272336Y-70147924D01*
X158157113Y-70287204D01*
X158017032Y-70401452D01*
X157857428Y-70486315D01*
X157684381Y-70538561D01*
X157504481Y-70556200D01*
X157495457Y-70556200D01*
X157484138Y-70556121D01*
X157484136Y-70556121D01*
X157482587Y-70556110D01*
X157302951Y-70535960D01*
X157130650Y-70481303D01*
X156972247Y-70394220D01*
X156833774Y-70278028D01*
X156720508Y-70137153D01*
X156636761Y-69976961D01*
X156585725Y-69803553D01*
X156585723Y-69803535D01*
X156585718Y-69803517D01*
X156569339Y-69623535D01*
X156588231Y-69443799D01*
X156588233Y-69443794D01*
X156588236Y-69443762D01*
X156641689Y-69271083D01*
X156727664Y-69112076D01*
X156842887Y-68972796D01*
X156982968Y-68858548D01*
X157142572Y-68773685D01*
X157315619Y-68721439D01*
X157495519Y-68703800D01*
X157504543Y-68703800D01*
X157515862Y-68703879D01*
X157515862Y-68703879D01*
G37*
G36*
X122515862Y-68703879D02*
X122515864Y-68703879D01*
X122517413Y-68703890D01*
X122697049Y-68724040D01*
X122869350Y-68778697D01*
X123027753Y-68865780D01*
X123166226Y-68981972D01*
X123279492Y-69122847D01*
X123363239Y-69283039D01*
X123414275Y-69456447D01*
X123414277Y-69456465D01*
X123414282Y-69456483D01*
X123430661Y-69636465D01*
X123411769Y-69816201D01*
X123411767Y-69816206D01*
X123411764Y-69816238D01*
X123358311Y-69988917D01*
X123272336Y-70147924D01*
X123157113Y-70287204D01*
X123017032Y-70401452D01*
X122857428Y-70486315D01*
X122684381Y-70538561D01*
X122504481Y-70556200D01*
X122495457Y-70556200D01*
X122484138Y-70556121D01*
X122484136Y-70556121D01*
X122482587Y-70556110D01*
X122302951Y-70535960D01*
X122130650Y-70481303D01*
X121972247Y-70394220D01*
X121833774Y-70278028D01*
X121720508Y-70137153D01*
X121636761Y-69976961D01*
X121585725Y-69803553D01*
X121585723Y-69803535D01*
X121585718Y-69803517D01*
X121569339Y-69623535D01*
X121588231Y-69443799D01*
X121588233Y-69443794D01*
X121588236Y-69443762D01*
X121641689Y-69271083D01*
X121727664Y-69112076D01*
X121842887Y-68972796D01*
X121982968Y-68858548D01*
X122142572Y-68773685D01*
X122315619Y-68721439D01*
X122495519Y-68703800D01*
X122504543Y-68703800D01*
X122515862Y-68703879D01*
X122515862Y-68703879D01*
G37*
G36*
X127088038Y-68162357D02*
X127249064Y-68195410D01*
X127400599Y-68259110D01*
X127536871Y-68351026D01*
X127652706Y-68467673D01*
X127743669Y-68604583D01*
X127806310Y-68756563D01*
X127838186Y-68917545D01*
X127838186Y-68917557D01*
X127838236Y-68917810D01*
X127835615Y-69105563D01*
X127835557Y-69105818D01*
X127835557Y-69105824D01*
X127799198Y-69265857D01*
X127732338Y-69416028D01*
X127637586Y-69550346D01*
X127518544Y-69663709D01*
X127379757Y-69751786D01*
X127226497Y-69811231D01*
X127064620Y-69839775D01*
X126900271Y-69836332D01*
X126739727Y-69801034D01*
X126589099Y-69735227D01*
X126454116Y-69641410D01*
X126339928Y-69523165D01*
X126250884Y-69384998D01*
X126190370Y-69232156D01*
X126160696Y-69070477D01*
X126162992Y-68906113D01*
X126197167Y-68745328D01*
X126261924Y-68594240D01*
X126354795Y-68458606D01*
X126472236Y-68343599D01*
X126609786Y-68253588D01*
X126762197Y-68192011D01*
X126923663Y-68161209D01*
X127088038Y-68162357D01*
X127088038Y-68162357D01*
G37*
G36*
X129088038Y-68162357D02*
X129249064Y-68195410D01*
X129400599Y-68259110D01*
X129536871Y-68351026D01*
X129652706Y-68467673D01*
X129743669Y-68604583D01*
X129806310Y-68756563D01*
X129838186Y-68917545D01*
X129838186Y-68917557D01*
X129838236Y-68917810D01*
X129835615Y-69105563D01*
X129835557Y-69105818D01*
X129835557Y-69105824D01*
X129799198Y-69265857D01*
X129732338Y-69416028D01*
X129637586Y-69550346D01*
X129518544Y-69663709D01*
X129379757Y-69751786D01*
X129226497Y-69811231D01*
X129064620Y-69839775D01*
X128900271Y-69836332D01*
X128739727Y-69801034D01*
X128589099Y-69735227D01*
X128454116Y-69641410D01*
X128339928Y-69523165D01*
X128250884Y-69384998D01*
X128190370Y-69232156D01*
X128160696Y-69070477D01*
X128162992Y-68906113D01*
X128197167Y-68745328D01*
X128261924Y-68594240D01*
X128354795Y-68458606D01*
X128472236Y-68343599D01*
X128609786Y-68253588D01*
X128762197Y-68192011D01*
X128923663Y-68161209D01*
X129088038Y-68162357D01*
X129088038Y-68162357D01*
G37*
G36*
X131088038Y-68162357D02*
X131249064Y-68195410D01*
X131400599Y-68259110D01*
X131536871Y-68351026D01*
X131652706Y-68467673D01*
X131743669Y-68604583D01*
X131806310Y-68756563D01*
X131838186Y-68917545D01*
X131838186Y-68917557D01*
X131838236Y-68917810D01*
X131835615Y-69105563D01*
X131835557Y-69105818D01*
X131835557Y-69105824D01*
X131799198Y-69265857D01*
X131732338Y-69416028D01*
X131637586Y-69550346D01*
X131518544Y-69663709D01*
X131379757Y-69751786D01*
X131226497Y-69811231D01*
X131064620Y-69839775D01*
X130900271Y-69836332D01*
X130739727Y-69801034D01*
X130589099Y-69735227D01*
X130454116Y-69641410D01*
X130339928Y-69523165D01*
X130250884Y-69384998D01*
X130190370Y-69232156D01*
X130160696Y-69070477D01*
X130162992Y-68906113D01*
X130197167Y-68745328D01*
X130261924Y-68594240D01*
X130354795Y-68458606D01*
X130472236Y-68343599D01*
X130609786Y-68253588D01*
X130762197Y-68192011D01*
X130923663Y-68161209D01*
X131088038Y-68162357D01*
X131088038Y-68162357D01*
G37*
G36*
X149088038Y-68162357D02*
X149249064Y-68195410D01*
X149400599Y-68259110D01*
X149536871Y-68351026D01*
X149652706Y-68467673D01*
X149743669Y-68604583D01*
X149806310Y-68756563D01*
X149838186Y-68917545D01*
X149838186Y-68917557D01*
X149838236Y-68917810D01*
X149835615Y-69105563D01*
X149835557Y-69105818D01*
X149835557Y-69105824D01*
X149799198Y-69265857D01*
X149732338Y-69416028D01*
X149637586Y-69550346D01*
X149518544Y-69663709D01*
X149379757Y-69751786D01*
X149226497Y-69811231D01*
X149064620Y-69839775D01*
X148900271Y-69836332D01*
X148739727Y-69801034D01*
X148589099Y-69735227D01*
X148454116Y-69641410D01*
X148339928Y-69523165D01*
X148250884Y-69384998D01*
X148190370Y-69232156D01*
X148160696Y-69070477D01*
X148162992Y-68906113D01*
X148197167Y-68745328D01*
X148261924Y-68594240D01*
X148354795Y-68458606D01*
X148472236Y-68343599D01*
X148609786Y-68253588D01*
X148762197Y-68192011D01*
X148923663Y-68161209D01*
X149088038Y-68162357D01*
X149088038Y-68162357D01*
G37*
G36*
X153088038Y-68162357D02*
X153249064Y-68195410D01*
X153400599Y-68259110D01*
X153536871Y-68351026D01*
X153652706Y-68467673D01*
X153743669Y-68604583D01*
X153806310Y-68756563D01*
X153838186Y-68917545D01*
X153838186Y-68917557D01*
X153838236Y-68917810D01*
X153835615Y-69105563D01*
X153835557Y-69105818D01*
X153835557Y-69105824D01*
X153799198Y-69265857D01*
X153732338Y-69416028D01*
X153637586Y-69550346D01*
X153518544Y-69663709D01*
X153379757Y-69751786D01*
X153226497Y-69811231D01*
X153064620Y-69839775D01*
X152900271Y-69836332D01*
X152739727Y-69801034D01*
X152589099Y-69735227D01*
X152454116Y-69641410D01*
X152339928Y-69523165D01*
X152250884Y-69384998D01*
X152190370Y-69232156D01*
X152160696Y-69070477D01*
X152162992Y-68906113D01*
X152197167Y-68745328D01*
X152261924Y-68594240D01*
X152354795Y-68458606D01*
X152472236Y-68343599D01*
X152609786Y-68253588D01*
X152762197Y-68192011D01*
X152923663Y-68161209D01*
X153088038Y-68162357D01*
X153088038Y-68162357D01*
G37*
G36*
X151088038Y-68162357D02*
X151249064Y-68195410D01*
X151400599Y-68259110D01*
X151536871Y-68351026D01*
X151652706Y-68467673D01*
X151743669Y-68604583D01*
X151806310Y-68756563D01*
X151838186Y-68917545D01*
X151838186Y-68917557D01*
X151838236Y-68917810D01*
X151835615Y-69105563D01*
X151835557Y-69105818D01*
X151835557Y-69105824D01*
X151799198Y-69265857D01*
X151732338Y-69416028D01*
X151637586Y-69550346D01*
X151518544Y-69663709D01*
X151379757Y-69751786D01*
X151226497Y-69811231D01*
X151064620Y-69839775D01*
X150900271Y-69836332D01*
X150739727Y-69801034D01*
X150589099Y-69735227D01*
X150454116Y-69641410D01*
X150339928Y-69523165D01*
X150250884Y-69384998D01*
X150190370Y-69232156D01*
X150160696Y-69070477D01*
X150162992Y-68906113D01*
X150197167Y-68745328D01*
X150261924Y-68594240D01*
X150354795Y-68458606D01*
X150472236Y-68343599D01*
X150609786Y-68253588D01*
X150762197Y-68192011D01*
X150923663Y-68161209D01*
X151088038Y-68162357D01*
X151088038Y-68162357D01*
G37*
G36*
X122515862Y-66163879D02*
X122515864Y-66163879D01*
X122517413Y-66163890D01*
X122697049Y-66184040D01*
X122869350Y-66238697D01*
X123027753Y-66325780D01*
X123166226Y-66441972D01*
X123279492Y-66582847D01*
X123363239Y-66743039D01*
X123414275Y-66916447D01*
X123414277Y-66916465D01*
X123414282Y-66916483D01*
X123430661Y-67096465D01*
X123411769Y-67276201D01*
X123411767Y-67276206D01*
X123411764Y-67276238D01*
X123358311Y-67448917D01*
X123272336Y-67607924D01*
X123157113Y-67747204D01*
X123017032Y-67861452D01*
X122857428Y-67946315D01*
X122684381Y-67998561D01*
X122504481Y-68016200D01*
X122495457Y-68016200D01*
X122484138Y-68016121D01*
X122484136Y-68016121D01*
X122482587Y-68016110D01*
X122302951Y-67995960D01*
X122130650Y-67941303D01*
X121972247Y-67854220D01*
X121833774Y-67738028D01*
X121720508Y-67597153D01*
X121636761Y-67436961D01*
X121585725Y-67263553D01*
X121585723Y-67263535D01*
X121585718Y-67263517D01*
X121569339Y-67083535D01*
X121588231Y-66903799D01*
X121588233Y-66903794D01*
X121588236Y-66903762D01*
X121641689Y-66731083D01*
X121727664Y-66572076D01*
X121842887Y-66432796D01*
X121982968Y-66318548D01*
X122142572Y-66233685D01*
X122315619Y-66181439D01*
X122495519Y-66163800D01*
X122504543Y-66163800D01*
X122515862Y-66163879D01*
X122515862Y-66163879D01*
G37*
G36*
X157515862Y-66163879D02*
X157515864Y-66163879D01*
X157517413Y-66163890D01*
X157697049Y-66184040D01*
X157869350Y-66238697D01*
X158027753Y-66325780D01*
X158166226Y-66441972D01*
X158279492Y-66582847D01*
X158363239Y-66743039D01*
X158414275Y-66916447D01*
X158414277Y-66916465D01*
X158414282Y-66916483D01*
X158430661Y-67096465D01*
X158411769Y-67276201D01*
X158411767Y-67276206D01*
X158411764Y-67276238D01*
X158358311Y-67448917D01*
X158272336Y-67607924D01*
X158157113Y-67747204D01*
X158017032Y-67861452D01*
X157857428Y-67946315D01*
X157684381Y-67998561D01*
X157504481Y-68016200D01*
X157495457Y-68016200D01*
X157484138Y-68016121D01*
X157484136Y-68016121D01*
X157482587Y-68016110D01*
X157302951Y-67995960D01*
X157130650Y-67941303D01*
X156972247Y-67854220D01*
X156833774Y-67738028D01*
X156720508Y-67597153D01*
X156636761Y-67436961D01*
X156585725Y-67263553D01*
X156585723Y-67263535D01*
X156585718Y-67263517D01*
X156569339Y-67083535D01*
X156588231Y-66903799D01*
X156588233Y-66903794D01*
X156588236Y-66903762D01*
X156641689Y-66731083D01*
X156727664Y-66572076D01*
X156842887Y-66432796D01*
X156982968Y-66318548D01*
X157142572Y-66233685D01*
X157315619Y-66181439D01*
X157495519Y-66163800D01*
X157504543Y-66163800D01*
X157515862Y-66163879D01*
X157515862Y-66163879D01*
G37*
G36*
X149088038Y-66162357D02*
X149249064Y-66195410D01*
X149400599Y-66259110D01*
X149536871Y-66351026D01*
X149652706Y-66467673D01*
X149743669Y-66604583D01*
X149806310Y-66756563D01*
X149838186Y-66917545D01*
X149838186Y-66917557D01*
X149838236Y-66917810D01*
X149835615Y-67105563D01*
X149835557Y-67105818D01*
X149835557Y-67105824D01*
X149799198Y-67265857D01*
X149732338Y-67416028D01*
X149637586Y-67550346D01*
X149518544Y-67663709D01*
X149379757Y-67751786D01*
X149226497Y-67811231D01*
X149064620Y-67839775D01*
X148900271Y-67836332D01*
X148739727Y-67801034D01*
X148589099Y-67735227D01*
X148454116Y-67641410D01*
X148339928Y-67523165D01*
X148250884Y-67384998D01*
X148190370Y-67232156D01*
X148160696Y-67070477D01*
X148162992Y-66906113D01*
X148197167Y-66745328D01*
X148261924Y-66594240D01*
X148354795Y-66458606D01*
X148472236Y-66343599D01*
X148609786Y-66253588D01*
X148762197Y-66192011D01*
X148923663Y-66161209D01*
X149088038Y-66162357D01*
X149088038Y-66162357D01*
G37*
G36*
X131088038Y-66162357D02*
X131249064Y-66195410D01*
X131400599Y-66259110D01*
X131536871Y-66351026D01*
X131652706Y-66467673D01*
X131743669Y-66604583D01*
X131806310Y-66756563D01*
X131838186Y-66917545D01*
X131838186Y-66917557D01*
X131838236Y-66917810D01*
X131835615Y-67105563D01*
X131835557Y-67105818D01*
X131835557Y-67105824D01*
X131799198Y-67265857D01*
X131732338Y-67416028D01*
X131637586Y-67550346D01*
X131518544Y-67663709D01*
X131379757Y-67751786D01*
X131226497Y-67811231D01*
X131064620Y-67839775D01*
X130900271Y-67836332D01*
X130739727Y-67801034D01*
X130589099Y-67735227D01*
X130454116Y-67641410D01*
X130339928Y-67523165D01*
X130250884Y-67384998D01*
X130190370Y-67232156D01*
X130160696Y-67070477D01*
X130162992Y-66906113D01*
X130197167Y-66745328D01*
X130261924Y-66594240D01*
X130354795Y-66458606D01*
X130472236Y-66343599D01*
X130609786Y-66253588D01*
X130762197Y-66192011D01*
X130923663Y-66161209D01*
X131088038Y-66162357D01*
X131088038Y-66162357D01*
G37*
G36*
X151088038Y-66162357D02*
X151249064Y-66195410D01*
X151400599Y-66259110D01*
X151536871Y-66351026D01*
X151652706Y-66467673D01*
X151743669Y-66604583D01*
X151806310Y-66756563D01*
X151838186Y-66917545D01*
X151838186Y-66917557D01*
X151838236Y-66917810D01*
X151835615Y-67105563D01*
X151835557Y-67105818D01*
X151835557Y-67105824D01*
X151799198Y-67265857D01*
X151732338Y-67416028D01*
X151637586Y-67550346D01*
X151518544Y-67663709D01*
X151379757Y-67751786D01*
X151226497Y-67811231D01*
X151064620Y-67839775D01*
X150900271Y-67836332D01*
X150739727Y-67801034D01*
X150589099Y-67735227D01*
X150454116Y-67641410D01*
X150339928Y-67523165D01*
X150250884Y-67384998D01*
X150190370Y-67232156D01*
X150160696Y-67070477D01*
X150162992Y-66906113D01*
X150197167Y-66745328D01*
X150261924Y-66594240D01*
X150354795Y-66458606D01*
X150472236Y-66343599D01*
X150609786Y-66253588D01*
X150762197Y-66192011D01*
X150923663Y-66161209D01*
X151088038Y-66162357D01*
X151088038Y-66162357D01*
G37*
G36*
X127088038Y-66162357D02*
X127249064Y-66195410D01*
X127400599Y-66259110D01*
X127536871Y-66351026D01*
X127652706Y-66467673D01*
X127743669Y-66604583D01*
X127806310Y-66756563D01*
X127838186Y-66917545D01*
X127838186Y-66917557D01*
X127838236Y-66917810D01*
X127835615Y-67105563D01*
X127835557Y-67105818D01*
X127835557Y-67105824D01*
X127799198Y-67265857D01*
X127732338Y-67416028D01*
X127637586Y-67550346D01*
X127518544Y-67663709D01*
X127379757Y-67751786D01*
X127226497Y-67811231D01*
X127064620Y-67839775D01*
X126900271Y-67836332D01*
X126739727Y-67801034D01*
X126589099Y-67735227D01*
X126454116Y-67641410D01*
X126339928Y-67523165D01*
X126250884Y-67384998D01*
X126190370Y-67232156D01*
X126160696Y-67070477D01*
X126162992Y-66906113D01*
X126197167Y-66745328D01*
X126261924Y-66594240D01*
X126354795Y-66458606D01*
X126472236Y-66343599D01*
X126609786Y-66253588D01*
X126762197Y-66192011D01*
X126923663Y-66161209D01*
X127088038Y-66162357D01*
X127088038Y-66162357D01*
G37*
G36*
X129088038Y-66162357D02*
X129249064Y-66195410D01*
X129400599Y-66259110D01*
X129536871Y-66351026D01*
X129652706Y-66467673D01*
X129743669Y-66604583D01*
X129806310Y-66756563D01*
X129838186Y-66917545D01*
X129838186Y-66917557D01*
X129838236Y-66917810D01*
X129835615Y-67105563D01*
X129835557Y-67105818D01*
X129835557Y-67105824D01*
X129799198Y-67265857D01*
X129732338Y-67416028D01*
X129637586Y-67550346D01*
X129518544Y-67663709D01*
X129379757Y-67751786D01*
X129226497Y-67811231D01*
X129064620Y-67839775D01*
X128900271Y-67836332D01*
X128739727Y-67801034D01*
X128589099Y-67735227D01*
X128454116Y-67641410D01*
X128339928Y-67523165D01*
X128250884Y-67384998D01*
X128190370Y-67232156D01*
X128160696Y-67070477D01*
X128162992Y-66906113D01*
X128197167Y-66745328D01*
X128261924Y-66594240D01*
X128354795Y-66458606D01*
X128472236Y-66343599D01*
X128609786Y-66253588D01*
X128762197Y-66192011D01*
X128923663Y-66161209D01*
X129088038Y-66162357D01*
X129088038Y-66162357D01*
G37*
G36*
X153088038Y-66162357D02*
X153249064Y-66195410D01*
X153400599Y-66259110D01*
X153536871Y-66351026D01*
X153652706Y-66467673D01*
X153743669Y-66604583D01*
X153806310Y-66756563D01*
X153838186Y-66917545D01*
X153838186Y-66917557D01*
X153838236Y-66917810D01*
X153835615Y-67105563D01*
X153835557Y-67105818D01*
X153835557Y-67105824D01*
X153799198Y-67265857D01*
X153732338Y-67416028D01*
X153637586Y-67550346D01*
X153518544Y-67663709D01*
X153379757Y-67751786D01*
X153226497Y-67811231D01*
X153064620Y-67839775D01*
X152900271Y-67836332D01*
X152739727Y-67801034D01*
X152589099Y-67735227D01*
X152454116Y-67641410D01*
X152339928Y-67523165D01*
X152250884Y-67384998D01*
X152190370Y-67232156D01*
X152160696Y-67070477D01*
X152162992Y-66906113D01*
X152197167Y-66745328D01*
X152261924Y-66594240D01*
X152354795Y-66458606D01*
X152472236Y-66343599D01*
X152609786Y-66253588D01*
X152762197Y-66192011D01*
X152923663Y-66161209D01*
X153088038Y-66162357D01*
X153088038Y-66162357D01*
G37*
G36*
X122515862Y-63623879D02*
X122515864Y-63623879D01*
X122517413Y-63623890D01*
X122697049Y-63644040D01*
X122869350Y-63698697D01*
X123027753Y-63785780D01*
X123166226Y-63901972D01*
X123279492Y-64042847D01*
X123363239Y-64203039D01*
X123414275Y-64376447D01*
X123414277Y-64376465D01*
X123414282Y-64376483D01*
X123430661Y-64556465D01*
X123411769Y-64736201D01*
X123411767Y-64736206D01*
X123411764Y-64736238D01*
X123358311Y-64908917D01*
X123272336Y-65067924D01*
X123157113Y-65207204D01*
X123017032Y-65321452D01*
X122857428Y-65406315D01*
X122684381Y-65458561D01*
X122504481Y-65476200D01*
X122495457Y-65476200D01*
X122484138Y-65476121D01*
X122484136Y-65476121D01*
X122482587Y-65476110D01*
X122302951Y-65455960D01*
X122130650Y-65401303D01*
X121972247Y-65314220D01*
X121833774Y-65198028D01*
X121720508Y-65057153D01*
X121636761Y-64896961D01*
X121585725Y-64723553D01*
X121585723Y-64723535D01*
X121585718Y-64723517D01*
X121569339Y-64543535D01*
X121588231Y-64363799D01*
X121588233Y-64363794D01*
X121588236Y-64363762D01*
X121641689Y-64191083D01*
X121727664Y-64032076D01*
X121842887Y-63892796D01*
X121982968Y-63778548D01*
X122142572Y-63693685D01*
X122315619Y-63641439D01*
X122495519Y-63623800D01*
X122504543Y-63623800D01*
X122515862Y-63623879D01*
X122515862Y-63623879D01*
G37*
G36*
X157515862Y-63623879D02*
X157515864Y-63623879D01*
X157517413Y-63623890D01*
X157697049Y-63644040D01*
X157869350Y-63698697D01*
X158027753Y-63785780D01*
X158166226Y-63901972D01*
X158279492Y-64042847D01*
X158363239Y-64203039D01*
X158414275Y-64376447D01*
X158414277Y-64376465D01*
X158414282Y-64376483D01*
X158430661Y-64556465D01*
X158411769Y-64736201D01*
X158411767Y-64736206D01*
X158411764Y-64736238D01*
X158358311Y-64908917D01*
X158272336Y-65067924D01*
X158157113Y-65207204D01*
X158017032Y-65321452D01*
X157857428Y-65406315D01*
X157684381Y-65458561D01*
X157504481Y-65476200D01*
X157495457Y-65476200D01*
X157484138Y-65476121D01*
X157484136Y-65476121D01*
X157482587Y-65476110D01*
X157302951Y-65455960D01*
X157130650Y-65401303D01*
X156972247Y-65314220D01*
X156833774Y-65198028D01*
X156720508Y-65057153D01*
X156636761Y-64896961D01*
X156585725Y-64723553D01*
X156585723Y-64723535D01*
X156585718Y-64723517D01*
X156569339Y-64543535D01*
X156588231Y-64363799D01*
X156588233Y-64363794D01*
X156588236Y-64363762D01*
X156641689Y-64191083D01*
X156727664Y-64032076D01*
X156842887Y-63892796D01*
X156982968Y-63778548D01*
X157142572Y-63693685D01*
X157315619Y-63641439D01*
X157495519Y-63623800D01*
X157504543Y-63623800D01*
X157515862Y-63623879D01*
X157515862Y-63623879D01*
G37*
G36*
X163355050Y-56924782D02*
X163638638Y-56982994D01*
X163905516Y-57095179D01*
X164145519Y-57257062D01*
X164349510Y-57462484D01*
X164509715Y-57703610D01*
X164620035Y-57971268D01*
X164676213Y-58254986D01*
X164676213Y-58254993D01*
X164676264Y-58255251D01*
X164671646Y-58585912D01*
X164671589Y-58586162D01*
X164671589Y-58586173D01*
X164607510Y-58868215D01*
X164489760Y-59132687D01*
X164322886Y-59369245D01*
X164113236Y-59568892D01*
X163868808Y-59724011D01*
X163598898Y-59828702D01*
X163313804Y-59878972D01*
X163024362Y-59872909D01*
X162741620Y-59810744D01*
X162476339Y-59694846D01*
X162238614Y-59529622D01*
X162037515Y-59321378D01*
X161880688Y-59078031D01*
X161774118Y-58808866D01*
X161721858Y-58524121D01*
X161725900Y-58234652D01*
X161786089Y-57951483D01*
X161900135Y-57685394D01*
X162063693Y-57446523D01*
X162270529Y-57243975D01*
X162512771Y-57085456D01*
X162781194Y-56977006D01*
X163065560Y-56922760D01*
X163355050Y-56924782D01*
X163355050Y-56924782D01*
G37*
G36*
X159176200Y-59876200D02*
X156223800Y-59876200D01*
X156223800Y-56923800D01*
X159176200Y-56923800D01*
X159176200Y-59876200D01*
X159176200Y-59876200D01*
G37*
G36*
X115344112Y-41725981D02*
X115973488Y-41855173D01*
X116565781Y-42104151D01*
X117098430Y-42463426D01*
X117551162Y-42919330D01*
X117906710Y-43454473D01*
X118151548Y-44048494D01*
X118276290Y-44678487D01*
X118276290Y-44678499D01*
X118276340Y-44678752D01*
X118266093Y-45412604D01*
X118266035Y-45412859D01*
X118266035Y-45412866D01*
X118123751Y-46039132D01*
X117862423Y-46626084D01*
X117492070Y-47151093D01*
X117026789Y-47594175D01*
X116484315Y-47938439D01*
X115885295Y-48170783D01*
X115252566Y-48282351D01*
X114610204Y-48268895D01*
X113982699Y-48130929D01*
X113393942Y-47873708D01*
X112866357Y-47507025D01*
X112420039Y-47044851D01*
X112071993Y-46504788D01*
X111835476Y-45907414D01*
X111719492Y-45275470D01*
X111728463Y-44633037D01*
X111862045Y-44004584D01*
X112115151Y-43414041D01*
X112478142Y-42883907D01*
X112937185Y-42434380D01*
X113474804Y-42082571D01*
X114070520Y-41841886D01*
X114701632Y-41721495D01*
X115344112Y-41725981D01*
X115344112Y-41725981D01*
G37*
G36*
X165344112Y-41725981D02*
X165973488Y-41855173D01*
X166565781Y-42104151D01*
X167098430Y-42463426D01*
X167551162Y-42919330D01*
X167906710Y-43454473D01*
X168151548Y-44048494D01*
X168276290Y-44678487D01*
X168276290Y-44678499D01*
X168276340Y-44678752D01*
X168266093Y-45412604D01*
X168266035Y-45412859D01*
X168266035Y-45412866D01*
X168123751Y-46039132D01*
X167862423Y-46626084D01*
X167492070Y-47151093D01*
X167026789Y-47594175D01*
X166484315Y-47938439D01*
X165885295Y-48170783D01*
X165252566Y-48282351D01*
X164610204Y-48268895D01*
X163982699Y-48130929D01*
X163393942Y-47873708D01*
X162866357Y-47507025D01*
X162420039Y-47044851D01*
X162071993Y-46504788D01*
X161835476Y-45907414D01*
X161719492Y-45275470D01*
X161728463Y-44633037D01*
X161862045Y-44004584D01*
X162115151Y-43414041D01*
X162478142Y-42883907D01*
X162937185Y-42434380D01*
X163474804Y-42082571D01*
X164070520Y-41841886D01*
X164701632Y-41721495D01*
X165344112Y-41725981D01*
X165344112Y-41725981D01*
G37*
M02*
