G04 #@! TF.FileFunction,Copper,L2,Bot,Signal*
%FSLAX46Y46*%
G04 Gerber Fmt 4.6, Leading zero omitted, Abs format (unit mm)*
G04 Created by KiCad (PCBNEW 4.0.7) date 09/25/17 13:32:06*
%MOMM*%
%LPD*%
G01*
G04 APERTURE LIST*
%ADD10C,0.100000*%
%ADD11C,6.400000*%
%ADD12C,1.524000*%
%ADD13R,1.700000X1.700000*%
%ADD14O,1.700000X1.700000*%
%ADD15R,2.800000X2.800000*%
%ADD16C,2.800000*%
G04 APERTURE END LIST*
D10*
D11*
X115000000Y-115000000D03*
X165000000Y-115000000D03*
X165000000Y-45000000D03*
D12*
X129000000Y-67000000D03*
X129000000Y-69000000D03*
X129000000Y-71000000D03*
X129000000Y-73000000D03*
X129000000Y-75000000D03*
X129000000Y-77000000D03*
X129000000Y-79000000D03*
X129000000Y-81000000D03*
X129000000Y-83000000D03*
X129000000Y-85000000D03*
X127000000Y-73000000D03*
X127000000Y-75000000D03*
X127000000Y-69000000D03*
X127000000Y-71000000D03*
X127000000Y-67000000D03*
X127000000Y-83000000D03*
X127000000Y-77000000D03*
X127000000Y-79000000D03*
X127000000Y-81000000D03*
X127000000Y-85000000D03*
X151000000Y-85000000D03*
X151000000Y-83000000D03*
X151000000Y-81000000D03*
X151000000Y-79000000D03*
X151000000Y-77000000D03*
X151000000Y-75000000D03*
X151000000Y-73000000D03*
X151000000Y-71000000D03*
X151000000Y-69000000D03*
X151000000Y-67000000D03*
X153000000Y-79000000D03*
X153000000Y-77000000D03*
X153000000Y-83000000D03*
X153000000Y-81000000D03*
X153000000Y-85000000D03*
X153000000Y-69000000D03*
X153000000Y-75000000D03*
X153000000Y-73000000D03*
X153000000Y-71000000D03*
X153000000Y-67000000D03*
D13*
X157500000Y-87410000D03*
D14*
X157500000Y-84870000D03*
X157500000Y-82330000D03*
X157500000Y-79790000D03*
X157500000Y-77250000D03*
X157500000Y-74710000D03*
X157500000Y-72170000D03*
X157500000Y-69630000D03*
X157500000Y-67090000D03*
X157500000Y-64550000D03*
D13*
X122500000Y-87410000D03*
D14*
X122500000Y-84870000D03*
X122500000Y-82330000D03*
X122500000Y-79790000D03*
X122500000Y-77250000D03*
X122500000Y-74710000D03*
X122500000Y-72170000D03*
X122500000Y-69630000D03*
X122500000Y-67090000D03*
X122500000Y-64550000D03*
D15*
X157700000Y-58400000D03*
D16*
X163200000Y-58400000D03*
D11*
X115000000Y-45000000D03*
M02*
