G04 #@! TF.GenerationSoftware,KiCad,Pcbnew,(5.1.5)-2*
G04 #@! TF.CreationDate,2020-02-06T19:09:09-08:00*
G04 #@! TF.ProjectId,USB2RoMeLa_Boosted,55534232-526f-44d6-954c-615f426f6f73,rev?*
G04 #@! TF.SameCoordinates,Original*
G04 #@! TF.FileFunction,Copper,L3,Inr*
G04 #@! TF.FilePolarity,Positive*
%FSLAX46Y46*%
G04 Gerber Fmt 4.6, Leading zero omitted, Abs format (unit mm)*
G04 Created by KiCad (PCBNEW (5.1.5)-2) date 2020-02-06 19:09:09*
%MOMM*%
%LPD*%
G04 APERTURE LIST*
%ADD10C,1.600000*%
%ADD11R,1.600000X1.600000*%
%ADD12C,3.200000*%
%ADD13R,1.200000X1.700000*%
%ADD14R,1.524000X1.524000*%
%ADD15C,0.609600*%
%ADD16C,0.762000*%
%ADD17C,0.508000*%
%ADD18C,0.152400*%
%ADD19C,0.203200*%
G04 APERTURE END LIST*
D10*
X136250000Y-66500000D03*
X138750000Y-66500000D03*
X141250000Y-66500000D03*
D11*
X143750000Y-66500000D03*
D12*
X145700000Y-90000000D03*
X134300000Y-90000000D03*
D13*
X143500000Y-87900000D03*
X141000000Y-87900000D03*
X139000000Y-87900000D03*
X136500000Y-87900000D03*
D14*
X131000000Y-67000000D03*
X131000000Y-69000000D03*
X131000000Y-71000000D03*
X131000000Y-73000000D03*
X131000000Y-75000000D03*
X131000000Y-77000000D03*
X131000000Y-79000000D03*
X131000000Y-81000000D03*
X131000000Y-83000000D03*
X131000000Y-85000000D03*
X149000000Y-67000000D03*
X149000000Y-69000000D03*
X149000000Y-71000000D03*
X149000000Y-73000000D03*
X149000000Y-75000000D03*
X149000000Y-77000000D03*
X149000000Y-79000000D03*
X149000000Y-81000000D03*
X149000000Y-83000000D03*
X149000000Y-85000000D03*
D15*
X137142500Y-76167500D03*
X137142500Y-74861600D03*
X138882400Y-74861600D03*
X138867500Y-76167500D03*
X142476500Y-80411500D03*
X143708400Y-80449600D03*
X144551200Y-61983800D03*
X145186200Y-62618800D03*
X143916200Y-62618800D03*
X146604000Y-63774500D03*
X144000500Y-79141500D03*
X136761500Y-82062500D03*
X138069600Y-84488200D03*
X146073194Y-80773194D03*
X132761000Y-64346000D03*
X134208800Y-67343200D03*
X143683000Y-76157000D03*
X139009400Y-86317000D03*
X144902194Y-84742200D03*
X146350000Y-84767600D03*
X141295400Y-83726200D03*
X139669800Y-81922800D03*
X134183400Y-84132600D03*
X135707400Y-84462800D03*
X146547990Y-77998624D03*
X146451600Y-71813600D03*
X133299200Y-71170800D03*
X142946400Y-85351800D03*
X144343400Y-74810800D03*
X134742200Y-82532408D03*
X137180600Y-84005600D03*
X145740400Y-79382800D03*
X145500000Y-81750000D03*
X146604000Y-76080800D03*
X143556000Y-83167400D03*
X146400000Y-65600000D03*
X145435600Y-69324400D03*
X145465800Y-70535800D03*
X144648200Y-76461800D03*
X138349000Y-79560600D03*
X144254500Y-77236500D03*
X143733800Y-77833400D03*
X142235836Y-81379854D03*
X140762000Y-79586000D03*
X141422400Y-76614200D03*
X133324600Y-79908400D03*
X141422400Y-74277400D03*
X134416800Y-73177400D03*
X132938800Y-75166400D03*
X146324600Y-83192800D03*
X141448771Y-78532971D03*
X146858000Y-68968800D03*
X135128000Y-72847200D03*
X147594596Y-75090200D03*
X147315200Y-73540800D03*
X141193800Y-75623600D03*
X136525000Y-70231000D03*
X135432800Y-78841600D03*
X133116600Y-75928400D03*
X137007600Y-69596000D03*
X135275600Y-68918000D03*
X132608600Y-76538000D03*
X138679200Y-71127800D03*
X135585200Y-77520800D03*
X135936000Y-78252500D03*
X142921000Y-72169200D03*
X140355600Y-77647800D03*
X139670450Y-71077390D03*
X133091200Y-77147600D03*
D16*
X144343400Y-74810800D02*
X145588000Y-76055400D01*
X145588000Y-76055400D02*
X145588000Y-78900948D01*
X145689600Y-79002548D02*
X145588000Y-78900948D01*
X145689600Y-79002548D02*
X146120652Y-79433600D01*
X146701538Y-85656600D02*
X143251199Y-85656599D01*
X147416800Y-84941338D02*
X146701538Y-85656600D01*
X143251199Y-85656599D02*
X142946400Y-85351800D01*
X146120652Y-79433600D02*
X147416800Y-80729748D01*
X147416800Y-80729748D02*
X147416800Y-84941338D01*
X137692662Y-85351800D02*
X137180600Y-84839738D01*
X137180600Y-84436652D02*
X137180600Y-84005600D01*
X137180600Y-84839738D02*
X137180600Y-84436652D01*
X142946400Y-85351800D02*
X137692662Y-85351800D01*
X135707408Y-82532408D02*
X137180600Y-84005600D01*
X134742200Y-82532408D02*
X135707408Y-82532408D01*
X146120652Y-79433600D02*
X145740400Y-79382800D01*
X145740400Y-79382800D02*
X145689600Y-79002548D01*
X146324600Y-73185200D02*
X146324600Y-74531400D01*
X147289800Y-72220000D02*
X146324600Y-73185200D01*
X146604000Y-74810800D02*
X146604000Y-76080800D01*
X147289800Y-70226078D02*
X147289800Y-72220000D01*
X149000000Y-69000000D02*
X148515878Y-69000000D01*
X148515878Y-69000000D02*
X147289800Y-70226078D01*
X146324600Y-74531400D02*
X146604000Y-74810800D01*
D17*
X134894600Y-79738400D02*
X136469400Y-79738400D01*
X134170701Y-79014501D02*
X134894600Y-79738400D01*
X135148599Y-76411001D02*
X134170701Y-77388899D01*
X134170701Y-77388899D02*
X134170701Y-79014501D01*
X132938800Y-75166400D02*
X133369852Y-75166400D01*
X133369852Y-75166400D02*
X135148600Y-75166400D01*
X135148600Y-75166400D02*
X135148599Y-76411001D01*
D16*
X145893548Y-83192800D02*
X146324600Y-83192800D01*
X145655146Y-83192800D02*
X145893548Y-83192800D01*
X137460000Y-80729000D02*
X139720600Y-80729000D01*
X141320799Y-82329199D02*
X144791545Y-82329199D01*
X139720600Y-80729000D02*
X141320799Y-82329199D01*
X136469400Y-79738400D02*
X137460000Y-80729000D01*
X144791545Y-82329199D02*
X145655146Y-83192800D01*
X136469400Y-79738400D02*
X137674829Y-78532971D01*
X137674829Y-78532971D02*
X141448771Y-78532971D01*
X142260601Y-77721141D02*
X142260601Y-74706199D01*
X141448771Y-78532971D02*
X142260601Y-77721141D01*
X142260601Y-74706199D02*
X144500600Y-72466200D01*
X146553201Y-68664001D02*
X146858000Y-68968800D01*
X145033263Y-68486199D02*
X146375399Y-68486199D01*
X144500600Y-69018862D02*
X145033263Y-68486199D01*
X146375399Y-68486199D02*
X146553201Y-68664001D01*
X144500600Y-72466200D02*
X144500600Y-69018862D01*
D17*
X135128000Y-72847200D02*
X135148599Y-72905799D01*
X135148599Y-72905799D02*
X135148600Y-75166400D01*
D18*
X135769000Y-70231000D02*
X136525000Y-70231000D01*
X131000000Y-75000000D02*
X135769000Y-70231000D01*
X135763000Y-73431400D02*
X138066600Y-71127800D01*
X138066600Y-71127800D02*
X138679200Y-71127800D01*
X135585200Y-77520800D02*
X135763000Y-77244400D01*
X135763000Y-77244400D02*
X135763000Y-73431400D01*
X142740200Y-72169200D02*
X142921000Y-72169200D01*
X140487400Y-74422000D02*
X142740200Y-72169200D01*
X140355600Y-77647800D02*
X140487400Y-77516000D01*
X140487400Y-77516000D02*
X140487400Y-74422000D01*
X139670450Y-71077390D02*
X143053641Y-67694199D01*
X143053641Y-67694199D02*
X147391401Y-67694199D01*
X147391401Y-67694199D02*
X148085600Y-67000000D01*
X148085600Y-67000000D02*
X149000000Y-67000000D01*
D19*
G36*
X132068379Y-76826754D02*
G01*
X132135092Y-76926598D01*
X132220002Y-77011508D01*
X132319846Y-77078221D01*
X132430786Y-77124174D01*
X132481600Y-77134281D01*
X132481600Y-77207640D01*
X132505026Y-77325414D01*
X132550979Y-77436354D01*
X132617692Y-77536198D01*
X132702602Y-77621108D01*
X132802446Y-77687821D01*
X132913386Y-77733774D01*
X133031160Y-77757200D01*
X133151240Y-77757200D01*
X133269014Y-77733774D01*
X133379954Y-77687821D01*
X133479798Y-77621108D01*
X133564708Y-77536198D01*
X133611901Y-77465568D01*
X133611902Y-78987049D01*
X133609198Y-79014501D01*
X133619988Y-79124045D01*
X133651940Y-79229378D01*
X133697764Y-79315108D01*
X133703829Y-79326455D01*
X133773659Y-79411544D01*
X133794977Y-79429039D01*
X134480062Y-80114124D01*
X134497557Y-80135443D01*
X134523541Y-80156767D01*
X134582645Y-80205273D01*
X134679722Y-80257161D01*
X134785055Y-80289114D01*
X134894600Y-80299903D01*
X134922044Y-80297200D01*
X136058333Y-80297200D01*
X136951244Y-81190112D01*
X136972720Y-81216280D01*
X136998885Y-81237753D01*
X136998887Y-81237755D01*
X137003207Y-81241300D01*
X137077147Y-81301981D01*
X137132604Y-81331623D01*
X137196285Y-81365662D01*
X137235500Y-81377557D01*
X137325560Y-81404877D01*
X137426311Y-81414800D01*
X137426314Y-81414800D01*
X137460000Y-81418118D01*
X137493686Y-81414800D01*
X139436533Y-81414800D01*
X140812043Y-82790311D01*
X140833519Y-82816479D01*
X140937946Y-82902180D01*
X141057085Y-82965861D01*
X141186359Y-83005076D01*
X141287110Y-83014999D01*
X141287119Y-83014999D01*
X141320798Y-83018316D01*
X141354477Y-83014999D01*
X142964771Y-83014999D01*
X142946400Y-83107360D01*
X142946400Y-83227440D01*
X142969826Y-83345214D01*
X143015779Y-83456154D01*
X143082492Y-83555998D01*
X143167402Y-83640908D01*
X143267246Y-83707621D01*
X143378186Y-83753574D01*
X143495960Y-83777000D01*
X143616040Y-83777000D01*
X143733814Y-83753574D01*
X143844754Y-83707621D01*
X143944598Y-83640908D01*
X144029508Y-83555998D01*
X144096221Y-83456154D01*
X144142174Y-83345214D01*
X144165600Y-83227440D01*
X144165600Y-83107360D01*
X144147229Y-83014999D01*
X144507478Y-83014999D01*
X145146392Y-83653914D01*
X145167866Y-83680080D01*
X145194031Y-83701553D01*
X145194033Y-83701555D01*
X145232375Y-83733021D01*
X145272293Y-83765781D01*
X145391432Y-83829462D01*
X145520706Y-83868677D01*
X145621457Y-83878600D01*
X145621466Y-83878600D01*
X145655145Y-83881917D01*
X145688824Y-83878600D01*
X146358289Y-83878600D01*
X146459040Y-83868677D01*
X146588314Y-83829462D01*
X146707453Y-83765781D01*
X146731001Y-83746456D01*
X146731001Y-84657269D01*
X146417470Y-84970801D01*
X143535266Y-84970799D01*
X143455158Y-84890691D01*
X143433680Y-84864520D01*
X143329253Y-84778819D01*
X143210114Y-84715138D01*
X143080840Y-84675923D01*
X142980089Y-84666000D01*
X142980079Y-84666000D01*
X142946400Y-84662683D01*
X142912721Y-84666000D01*
X137976730Y-84666000D01*
X137866400Y-84555671D01*
X137866400Y-84039278D01*
X137869717Y-84005599D01*
X137866400Y-83971920D01*
X137866400Y-83971912D01*
X137856477Y-83871160D01*
X137817262Y-83741886D01*
X137753581Y-83622747D01*
X137667880Y-83518320D01*
X137641715Y-83496847D01*
X136216166Y-82071299D01*
X136194688Y-82045128D01*
X136090261Y-81959427D01*
X135971122Y-81895746D01*
X135841848Y-81856531D01*
X135741097Y-81846608D01*
X135741087Y-81846608D01*
X135707408Y-81843291D01*
X135673729Y-81846608D01*
X134708511Y-81846608D01*
X134607760Y-81856531D01*
X134478486Y-81895746D01*
X134359347Y-81959427D01*
X134254920Y-82045128D01*
X134169219Y-82149555D01*
X134105538Y-82268694D01*
X134066323Y-82397968D01*
X134053082Y-82532408D01*
X134066323Y-82666848D01*
X134105538Y-82796122D01*
X134169219Y-82915261D01*
X134254920Y-83019688D01*
X134359347Y-83105389D01*
X134478486Y-83169070D01*
X134607760Y-83208285D01*
X134708511Y-83218208D01*
X135423341Y-83218208D01*
X136494800Y-84289668D01*
X136494800Y-84806059D01*
X136491483Y-84839738D01*
X136494800Y-84873417D01*
X136494800Y-84873426D01*
X136504723Y-84974177D01*
X136543938Y-85103451D01*
X136604823Y-85217359D01*
X136607620Y-85222591D01*
X136649602Y-85273746D01*
X136693320Y-85327017D01*
X136719486Y-85348491D01*
X137183906Y-85812912D01*
X137205382Y-85839080D01*
X137231547Y-85860553D01*
X137231549Y-85860555D01*
X137269891Y-85892021D01*
X137309809Y-85924781D01*
X137428948Y-85988462D01*
X137558222Y-86027677D01*
X137658973Y-86037600D01*
X137658982Y-86037600D01*
X137692661Y-86040917D01*
X137726340Y-86037600D01*
X142662333Y-86037600D01*
X142742446Y-86117713D01*
X142763919Y-86143878D01*
X142790084Y-86165351D01*
X142790087Y-86165354D01*
X142868346Y-86229579D01*
X142987485Y-86293261D01*
X143116758Y-86332475D01*
X143251199Y-86345717D01*
X143284895Y-86342398D01*
X146667859Y-86342400D01*
X146701538Y-86345717D01*
X146735217Y-86342400D01*
X146735226Y-86342400D01*
X146835977Y-86332477D01*
X146965251Y-86293262D01*
X147084390Y-86229581D01*
X147188817Y-86143880D01*
X147210290Y-86117715D01*
X147877914Y-85450092D01*
X147904080Y-85428618D01*
X147931726Y-85394931D01*
X147931726Y-85762000D01*
X147937611Y-85821751D01*
X147955040Y-85879206D01*
X147983342Y-85932157D01*
X148021432Y-85978568D01*
X148067843Y-86016658D01*
X148120794Y-86044960D01*
X148178249Y-86062389D01*
X148238000Y-86068274D01*
X148595201Y-86068274D01*
X148595201Y-89780193D01*
X148543870Y-90303700D01*
X148397587Y-90788215D01*
X148159981Y-91235087D01*
X147840101Y-91627299D01*
X147450132Y-91949910D01*
X147004931Y-92190628D01*
X146521443Y-92340293D01*
X145999039Y-92395200D01*
X134019797Y-92395200D01*
X133496300Y-92343870D01*
X133011785Y-92197587D01*
X132564913Y-91959981D01*
X132172701Y-91640101D01*
X131850090Y-91250132D01*
X131609372Y-90804931D01*
X131459707Y-90321443D01*
X131406204Y-89812394D01*
X132395200Y-89812394D01*
X132395200Y-90187606D01*
X132468400Y-90555610D01*
X132611988Y-90902261D01*
X132820445Y-91214240D01*
X133085760Y-91479555D01*
X133397739Y-91688012D01*
X133744390Y-91831600D01*
X134112394Y-91904800D01*
X134487606Y-91904800D01*
X134855610Y-91831600D01*
X135202261Y-91688012D01*
X135514240Y-91479555D01*
X135779555Y-91214240D01*
X135988012Y-90902261D01*
X136131600Y-90555610D01*
X136204800Y-90187606D01*
X136204800Y-89910885D01*
X136845200Y-89910885D01*
X136845200Y-90089115D01*
X136879971Y-90263920D01*
X136948177Y-90428584D01*
X137047196Y-90576776D01*
X137173224Y-90702804D01*
X137321416Y-90801823D01*
X137486080Y-90870029D01*
X137660885Y-90904800D01*
X137839115Y-90904800D01*
X138013920Y-90870029D01*
X138178584Y-90801823D01*
X138326776Y-90702804D01*
X138452804Y-90576776D01*
X138551823Y-90428584D01*
X138620029Y-90263920D01*
X138654800Y-90089115D01*
X138654800Y-89910885D01*
X141345200Y-89910885D01*
X141345200Y-90089115D01*
X141379971Y-90263920D01*
X141448177Y-90428584D01*
X141547196Y-90576776D01*
X141673224Y-90702804D01*
X141821416Y-90801823D01*
X141986080Y-90870029D01*
X142160885Y-90904800D01*
X142339115Y-90904800D01*
X142513920Y-90870029D01*
X142678584Y-90801823D01*
X142826776Y-90702804D01*
X142952804Y-90576776D01*
X143051823Y-90428584D01*
X143120029Y-90263920D01*
X143154800Y-90089115D01*
X143154800Y-89910885D01*
X143120029Y-89736080D01*
X143051823Y-89571416D01*
X142952804Y-89423224D01*
X142826776Y-89297196D01*
X142678584Y-89198177D01*
X142513920Y-89129971D01*
X142339115Y-89095200D01*
X142160885Y-89095200D01*
X141986080Y-89129971D01*
X141821416Y-89198177D01*
X141673224Y-89297196D01*
X141547196Y-89423224D01*
X141448177Y-89571416D01*
X141379971Y-89736080D01*
X141345200Y-89910885D01*
X138654800Y-89910885D01*
X138620029Y-89736080D01*
X138551823Y-89571416D01*
X138452804Y-89423224D01*
X138326776Y-89297196D01*
X138178584Y-89198177D01*
X138013920Y-89129971D01*
X137839115Y-89095200D01*
X137660885Y-89095200D01*
X137486080Y-89129971D01*
X137321416Y-89198177D01*
X137173224Y-89297196D01*
X137047196Y-89423224D01*
X136948177Y-89571416D01*
X136879971Y-89736080D01*
X136845200Y-89910885D01*
X136204800Y-89910885D01*
X136204800Y-89812394D01*
X136131600Y-89444390D01*
X135991799Y-89106881D01*
X136258700Y-89105600D01*
X136347600Y-89016700D01*
X136347600Y-88052400D01*
X136652400Y-88052400D01*
X136652400Y-89016700D01*
X136741300Y-89105600D01*
X137100000Y-89107321D01*
X137169710Y-89100455D01*
X137236741Y-89080122D01*
X137298517Y-89047102D01*
X137352664Y-89002664D01*
X137397102Y-88948517D01*
X137430122Y-88886741D01*
X137450455Y-88819710D01*
X137457321Y-88750000D01*
X137455600Y-88141300D01*
X137366700Y-88052400D01*
X136652400Y-88052400D01*
X136347600Y-88052400D01*
X135633300Y-88052400D01*
X135544400Y-88141300D01*
X135543246Y-88549451D01*
X135514240Y-88520445D01*
X135202261Y-88311988D01*
X134855610Y-88168400D01*
X134487606Y-88095200D01*
X134112394Y-88095200D01*
X133744390Y-88168400D01*
X133397739Y-88311988D01*
X133085760Y-88520445D01*
X132820445Y-88785760D01*
X132611988Y-89097739D01*
X132468400Y-89444390D01*
X132395200Y-89812394D01*
X131406204Y-89812394D01*
X131404800Y-89799039D01*
X131404800Y-87050000D01*
X135542679Y-87050000D01*
X135544400Y-87658700D01*
X135633300Y-87747600D01*
X136347600Y-87747600D01*
X136347600Y-86783300D01*
X136652400Y-86783300D01*
X136652400Y-87747600D01*
X137366700Y-87747600D01*
X137455600Y-87658700D01*
X137457321Y-87050000D01*
X138093726Y-87050000D01*
X138093726Y-88750000D01*
X138099611Y-88809751D01*
X138117040Y-88867206D01*
X138145342Y-88920157D01*
X138183432Y-88966568D01*
X138229843Y-89004658D01*
X138282794Y-89032960D01*
X138340249Y-89050389D01*
X138400000Y-89056274D01*
X139600000Y-89056274D01*
X139659751Y-89050389D01*
X139717206Y-89032960D01*
X139770157Y-89004658D01*
X139816568Y-88966568D01*
X139854658Y-88920157D01*
X139882960Y-88867206D01*
X139900389Y-88809751D01*
X139906274Y-88750000D01*
X139906274Y-87050000D01*
X140093726Y-87050000D01*
X140093726Y-88750000D01*
X140099611Y-88809751D01*
X140117040Y-88867206D01*
X140145342Y-88920157D01*
X140183432Y-88966568D01*
X140229843Y-89004658D01*
X140282794Y-89032960D01*
X140340249Y-89050389D01*
X140400000Y-89056274D01*
X141600000Y-89056274D01*
X141659751Y-89050389D01*
X141717206Y-89032960D01*
X141770157Y-89004658D01*
X141816568Y-88966568D01*
X141854658Y-88920157D01*
X141882960Y-88867206D01*
X141900389Y-88809751D01*
X141906274Y-88750000D01*
X141906274Y-87050000D01*
X142593726Y-87050000D01*
X142593726Y-88750000D01*
X142599611Y-88809751D01*
X142617040Y-88867206D01*
X142645342Y-88920157D01*
X142683432Y-88966568D01*
X142729843Y-89004658D01*
X142782794Y-89032960D01*
X142840249Y-89050389D01*
X142900000Y-89056274D01*
X144039694Y-89056274D01*
X144011988Y-89097739D01*
X143868400Y-89444390D01*
X143795200Y-89812394D01*
X143795200Y-90187606D01*
X143868400Y-90555610D01*
X144011988Y-90902261D01*
X144220445Y-91214240D01*
X144485760Y-91479555D01*
X144797739Y-91688012D01*
X145144390Y-91831600D01*
X145512394Y-91904800D01*
X145887606Y-91904800D01*
X146255610Y-91831600D01*
X146602261Y-91688012D01*
X146914240Y-91479555D01*
X147179555Y-91214240D01*
X147388012Y-90902261D01*
X147531600Y-90555610D01*
X147604800Y-90187606D01*
X147604800Y-89812394D01*
X147531600Y-89444390D01*
X147388012Y-89097739D01*
X147179555Y-88785760D01*
X146914240Y-88520445D01*
X146602261Y-88311988D01*
X146255610Y-88168400D01*
X145887606Y-88095200D01*
X145512394Y-88095200D01*
X145144390Y-88168400D01*
X144797739Y-88311988D01*
X144485760Y-88520445D01*
X144406274Y-88599931D01*
X144406274Y-87050000D01*
X144400389Y-86990249D01*
X144382960Y-86932794D01*
X144354658Y-86879843D01*
X144316568Y-86833432D01*
X144270157Y-86795342D01*
X144217206Y-86767040D01*
X144159751Y-86749611D01*
X144100000Y-86743726D01*
X142900000Y-86743726D01*
X142840249Y-86749611D01*
X142782794Y-86767040D01*
X142729843Y-86795342D01*
X142683432Y-86833432D01*
X142645342Y-86879843D01*
X142617040Y-86932794D01*
X142599611Y-86990249D01*
X142593726Y-87050000D01*
X141906274Y-87050000D01*
X141900389Y-86990249D01*
X141882960Y-86932794D01*
X141854658Y-86879843D01*
X141816568Y-86833432D01*
X141770157Y-86795342D01*
X141717206Y-86767040D01*
X141659751Y-86749611D01*
X141600000Y-86743726D01*
X140400000Y-86743726D01*
X140340249Y-86749611D01*
X140282794Y-86767040D01*
X140229843Y-86795342D01*
X140183432Y-86833432D01*
X140145342Y-86879843D01*
X140117040Y-86932794D01*
X140099611Y-86990249D01*
X140093726Y-87050000D01*
X139906274Y-87050000D01*
X139900389Y-86990249D01*
X139882960Y-86932794D01*
X139854658Y-86879843D01*
X139816568Y-86833432D01*
X139770157Y-86795342D01*
X139717206Y-86767040D01*
X139659751Y-86749611D01*
X139600000Y-86743726D01*
X138400000Y-86743726D01*
X138340249Y-86749611D01*
X138282794Y-86767040D01*
X138229843Y-86795342D01*
X138183432Y-86833432D01*
X138145342Y-86879843D01*
X138117040Y-86932794D01*
X138099611Y-86990249D01*
X138093726Y-87050000D01*
X137457321Y-87050000D01*
X137450455Y-86980290D01*
X137430122Y-86913259D01*
X137397102Y-86851483D01*
X137352664Y-86797336D01*
X137298517Y-86752898D01*
X137236741Y-86719878D01*
X137169710Y-86699545D01*
X137100000Y-86692679D01*
X136741300Y-86694400D01*
X136652400Y-86783300D01*
X136347600Y-86783300D01*
X136258700Y-86694400D01*
X135900000Y-86692679D01*
X135830290Y-86699545D01*
X135763259Y-86719878D01*
X135701483Y-86752898D01*
X135647336Y-86797336D01*
X135602898Y-86851483D01*
X135569878Y-86913259D01*
X135549545Y-86980290D01*
X135542679Y-87050000D01*
X131404800Y-87050000D01*
X131404800Y-86068274D01*
X131762000Y-86068274D01*
X131821751Y-86062389D01*
X131879206Y-86044960D01*
X131932157Y-86016658D01*
X131978568Y-85978568D01*
X132016658Y-85932157D01*
X132044960Y-85879206D01*
X132062389Y-85821751D01*
X132068274Y-85762000D01*
X132068274Y-84238000D01*
X132062389Y-84178249D01*
X132044960Y-84120794D01*
X132016658Y-84067843D01*
X131978568Y-84021432D01*
X131952454Y-84000000D01*
X131978568Y-83978568D01*
X132016658Y-83932157D01*
X132044960Y-83879206D01*
X132062389Y-83821751D01*
X132068274Y-83762000D01*
X132068274Y-82238000D01*
X132062389Y-82178249D01*
X132044960Y-82120794D01*
X132016658Y-82067843D01*
X131978568Y-82021432D01*
X131952454Y-82000000D01*
X131978568Y-81978568D01*
X132016658Y-81932157D01*
X132044960Y-81879206D01*
X132062389Y-81821751D01*
X132068274Y-81762000D01*
X132068274Y-80238000D01*
X132062389Y-80178249D01*
X132044960Y-80120794D01*
X132016658Y-80067843D01*
X131978568Y-80021432D01*
X131952454Y-80000000D01*
X131978568Y-79978568D01*
X132016658Y-79932157D01*
X132044960Y-79879206D01*
X132054317Y-79848360D01*
X132715000Y-79848360D01*
X132715000Y-79968440D01*
X132738426Y-80086214D01*
X132784379Y-80197154D01*
X132851092Y-80296998D01*
X132936002Y-80381908D01*
X133035846Y-80448621D01*
X133146786Y-80494574D01*
X133264560Y-80518000D01*
X133384640Y-80518000D01*
X133502414Y-80494574D01*
X133613354Y-80448621D01*
X133713198Y-80381908D01*
X133798108Y-80296998D01*
X133864821Y-80197154D01*
X133910774Y-80086214D01*
X133934200Y-79968440D01*
X133934200Y-79848360D01*
X133910774Y-79730586D01*
X133864821Y-79619646D01*
X133798108Y-79519802D01*
X133713198Y-79434892D01*
X133613354Y-79368179D01*
X133502414Y-79322226D01*
X133384640Y-79298800D01*
X133264560Y-79298800D01*
X133146786Y-79322226D01*
X133035846Y-79368179D01*
X132936002Y-79434892D01*
X132851092Y-79519802D01*
X132784379Y-79619646D01*
X132738426Y-79730586D01*
X132715000Y-79848360D01*
X132054317Y-79848360D01*
X132062389Y-79821751D01*
X132068274Y-79762000D01*
X132068274Y-78238000D01*
X132062389Y-78178249D01*
X132044960Y-78120794D01*
X132016658Y-78067843D01*
X131978568Y-78021432D01*
X131952454Y-78000000D01*
X131978568Y-77978568D01*
X132016658Y-77932157D01*
X132044960Y-77879206D01*
X132062389Y-77821751D01*
X132068274Y-77762000D01*
X132068274Y-76826501D01*
X132068379Y-76826754D01*
G37*
X132068379Y-76826754D02*
X132135092Y-76926598D01*
X132220002Y-77011508D01*
X132319846Y-77078221D01*
X132430786Y-77124174D01*
X132481600Y-77134281D01*
X132481600Y-77207640D01*
X132505026Y-77325414D01*
X132550979Y-77436354D01*
X132617692Y-77536198D01*
X132702602Y-77621108D01*
X132802446Y-77687821D01*
X132913386Y-77733774D01*
X133031160Y-77757200D01*
X133151240Y-77757200D01*
X133269014Y-77733774D01*
X133379954Y-77687821D01*
X133479798Y-77621108D01*
X133564708Y-77536198D01*
X133611901Y-77465568D01*
X133611902Y-78987049D01*
X133609198Y-79014501D01*
X133619988Y-79124045D01*
X133651940Y-79229378D01*
X133697764Y-79315108D01*
X133703829Y-79326455D01*
X133773659Y-79411544D01*
X133794977Y-79429039D01*
X134480062Y-80114124D01*
X134497557Y-80135443D01*
X134523541Y-80156767D01*
X134582645Y-80205273D01*
X134679722Y-80257161D01*
X134785055Y-80289114D01*
X134894600Y-80299903D01*
X134922044Y-80297200D01*
X136058333Y-80297200D01*
X136951244Y-81190112D01*
X136972720Y-81216280D01*
X136998885Y-81237753D01*
X136998887Y-81237755D01*
X137003207Y-81241300D01*
X137077147Y-81301981D01*
X137132604Y-81331623D01*
X137196285Y-81365662D01*
X137235500Y-81377557D01*
X137325560Y-81404877D01*
X137426311Y-81414800D01*
X137426314Y-81414800D01*
X137460000Y-81418118D01*
X137493686Y-81414800D01*
X139436533Y-81414800D01*
X140812043Y-82790311D01*
X140833519Y-82816479D01*
X140937946Y-82902180D01*
X141057085Y-82965861D01*
X141186359Y-83005076D01*
X141287110Y-83014999D01*
X141287119Y-83014999D01*
X141320798Y-83018316D01*
X141354477Y-83014999D01*
X142964771Y-83014999D01*
X142946400Y-83107360D01*
X142946400Y-83227440D01*
X142969826Y-83345214D01*
X143015779Y-83456154D01*
X143082492Y-83555998D01*
X143167402Y-83640908D01*
X143267246Y-83707621D01*
X143378186Y-83753574D01*
X143495960Y-83777000D01*
X143616040Y-83777000D01*
X143733814Y-83753574D01*
X143844754Y-83707621D01*
X143944598Y-83640908D01*
X144029508Y-83555998D01*
X144096221Y-83456154D01*
X144142174Y-83345214D01*
X144165600Y-83227440D01*
X144165600Y-83107360D01*
X144147229Y-83014999D01*
X144507478Y-83014999D01*
X145146392Y-83653914D01*
X145167866Y-83680080D01*
X145194031Y-83701553D01*
X145194033Y-83701555D01*
X145232375Y-83733021D01*
X145272293Y-83765781D01*
X145391432Y-83829462D01*
X145520706Y-83868677D01*
X145621457Y-83878600D01*
X145621466Y-83878600D01*
X145655145Y-83881917D01*
X145688824Y-83878600D01*
X146358289Y-83878600D01*
X146459040Y-83868677D01*
X146588314Y-83829462D01*
X146707453Y-83765781D01*
X146731001Y-83746456D01*
X146731001Y-84657269D01*
X146417470Y-84970801D01*
X143535266Y-84970799D01*
X143455158Y-84890691D01*
X143433680Y-84864520D01*
X143329253Y-84778819D01*
X143210114Y-84715138D01*
X143080840Y-84675923D01*
X142980089Y-84666000D01*
X142980079Y-84666000D01*
X142946400Y-84662683D01*
X142912721Y-84666000D01*
X137976730Y-84666000D01*
X137866400Y-84555671D01*
X137866400Y-84039278D01*
X137869717Y-84005599D01*
X137866400Y-83971920D01*
X137866400Y-83971912D01*
X137856477Y-83871160D01*
X137817262Y-83741886D01*
X137753581Y-83622747D01*
X137667880Y-83518320D01*
X137641715Y-83496847D01*
X136216166Y-82071299D01*
X136194688Y-82045128D01*
X136090261Y-81959427D01*
X135971122Y-81895746D01*
X135841848Y-81856531D01*
X135741097Y-81846608D01*
X135741087Y-81846608D01*
X135707408Y-81843291D01*
X135673729Y-81846608D01*
X134708511Y-81846608D01*
X134607760Y-81856531D01*
X134478486Y-81895746D01*
X134359347Y-81959427D01*
X134254920Y-82045128D01*
X134169219Y-82149555D01*
X134105538Y-82268694D01*
X134066323Y-82397968D01*
X134053082Y-82532408D01*
X134066323Y-82666848D01*
X134105538Y-82796122D01*
X134169219Y-82915261D01*
X134254920Y-83019688D01*
X134359347Y-83105389D01*
X134478486Y-83169070D01*
X134607760Y-83208285D01*
X134708511Y-83218208D01*
X135423341Y-83218208D01*
X136494800Y-84289668D01*
X136494800Y-84806059D01*
X136491483Y-84839738D01*
X136494800Y-84873417D01*
X136494800Y-84873426D01*
X136504723Y-84974177D01*
X136543938Y-85103451D01*
X136604823Y-85217359D01*
X136607620Y-85222591D01*
X136649602Y-85273746D01*
X136693320Y-85327017D01*
X136719486Y-85348491D01*
X137183906Y-85812912D01*
X137205382Y-85839080D01*
X137231547Y-85860553D01*
X137231549Y-85860555D01*
X137269891Y-85892021D01*
X137309809Y-85924781D01*
X137428948Y-85988462D01*
X137558222Y-86027677D01*
X137658973Y-86037600D01*
X137658982Y-86037600D01*
X137692661Y-86040917D01*
X137726340Y-86037600D01*
X142662333Y-86037600D01*
X142742446Y-86117713D01*
X142763919Y-86143878D01*
X142790084Y-86165351D01*
X142790087Y-86165354D01*
X142868346Y-86229579D01*
X142987485Y-86293261D01*
X143116758Y-86332475D01*
X143251199Y-86345717D01*
X143284895Y-86342398D01*
X146667859Y-86342400D01*
X146701538Y-86345717D01*
X146735217Y-86342400D01*
X146735226Y-86342400D01*
X146835977Y-86332477D01*
X146965251Y-86293262D01*
X147084390Y-86229581D01*
X147188817Y-86143880D01*
X147210290Y-86117715D01*
X147877914Y-85450092D01*
X147904080Y-85428618D01*
X147931726Y-85394931D01*
X147931726Y-85762000D01*
X147937611Y-85821751D01*
X147955040Y-85879206D01*
X147983342Y-85932157D01*
X148021432Y-85978568D01*
X148067843Y-86016658D01*
X148120794Y-86044960D01*
X148178249Y-86062389D01*
X148238000Y-86068274D01*
X148595201Y-86068274D01*
X148595201Y-89780193D01*
X148543870Y-90303700D01*
X148397587Y-90788215D01*
X148159981Y-91235087D01*
X147840101Y-91627299D01*
X147450132Y-91949910D01*
X147004931Y-92190628D01*
X146521443Y-92340293D01*
X145999039Y-92395200D01*
X134019797Y-92395200D01*
X133496300Y-92343870D01*
X133011785Y-92197587D01*
X132564913Y-91959981D01*
X132172701Y-91640101D01*
X131850090Y-91250132D01*
X131609372Y-90804931D01*
X131459707Y-90321443D01*
X131406204Y-89812394D01*
X132395200Y-89812394D01*
X132395200Y-90187606D01*
X132468400Y-90555610D01*
X132611988Y-90902261D01*
X132820445Y-91214240D01*
X133085760Y-91479555D01*
X133397739Y-91688012D01*
X133744390Y-91831600D01*
X134112394Y-91904800D01*
X134487606Y-91904800D01*
X134855610Y-91831600D01*
X135202261Y-91688012D01*
X135514240Y-91479555D01*
X135779555Y-91214240D01*
X135988012Y-90902261D01*
X136131600Y-90555610D01*
X136204800Y-90187606D01*
X136204800Y-89910885D01*
X136845200Y-89910885D01*
X136845200Y-90089115D01*
X136879971Y-90263920D01*
X136948177Y-90428584D01*
X137047196Y-90576776D01*
X137173224Y-90702804D01*
X137321416Y-90801823D01*
X137486080Y-90870029D01*
X137660885Y-90904800D01*
X137839115Y-90904800D01*
X138013920Y-90870029D01*
X138178584Y-90801823D01*
X138326776Y-90702804D01*
X138452804Y-90576776D01*
X138551823Y-90428584D01*
X138620029Y-90263920D01*
X138654800Y-90089115D01*
X138654800Y-89910885D01*
X141345200Y-89910885D01*
X141345200Y-90089115D01*
X141379971Y-90263920D01*
X141448177Y-90428584D01*
X141547196Y-90576776D01*
X141673224Y-90702804D01*
X141821416Y-90801823D01*
X141986080Y-90870029D01*
X142160885Y-90904800D01*
X142339115Y-90904800D01*
X142513920Y-90870029D01*
X142678584Y-90801823D01*
X142826776Y-90702804D01*
X142952804Y-90576776D01*
X143051823Y-90428584D01*
X143120029Y-90263920D01*
X143154800Y-90089115D01*
X143154800Y-89910885D01*
X143120029Y-89736080D01*
X143051823Y-89571416D01*
X142952804Y-89423224D01*
X142826776Y-89297196D01*
X142678584Y-89198177D01*
X142513920Y-89129971D01*
X142339115Y-89095200D01*
X142160885Y-89095200D01*
X141986080Y-89129971D01*
X141821416Y-89198177D01*
X141673224Y-89297196D01*
X141547196Y-89423224D01*
X141448177Y-89571416D01*
X141379971Y-89736080D01*
X141345200Y-89910885D01*
X138654800Y-89910885D01*
X138620029Y-89736080D01*
X138551823Y-89571416D01*
X138452804Y-89423224D01*
X138326776Y-89297196D01*
X138178584Y-89198177D01*
X138013920Y-89129971D01*
X137839115Y-89095200D01*
X137660885Y-89095200D01*
X137486080Y-89129971D01*
X137321416Y-89198177D01*
X137173224Y-89297196D01*
X137047196Y-89423224D01*
X136948177Y-89571416D01*
X136879971Y-89736080D01*
X136845200Y-89910885D01*
X136204800Y-89910885D01*
X136204800Y-89812394D01*
X136131600Y-89444390D01*
X135991799Y-89106881D01*
X136258700Y-89105600D01*
X136347600Y-89016700D01*
X136347600Y-88052400D01*
X136652400Y-88052400D01*
X136652400Y-89016700D01*
X136741300Y-89105600D01*
X137100000Y-89107321D01*
X137169710Y-89100455D01*
X137236741Y-89080122D01*
X137298517Y-89047102D01*
X137352664Y-89002664D01*
X137397102Y-88948517D01*
X137430122Y-88886741D01*
X137450455Y-88819710D01*
X137457321Y-88750000D01*
X137455600Y-88141300D01*
X137366700Y-88052400D01*
X136652400Y-88052400D01*
X136347600Y-88052400D01*
X135633300Y-88052400D01*
X135544400Y-88141300D01*
X135543246Y-88549451D01*
X135514240Y-88520445D01*
X135202261Y-88311988D01*
X134855610Y-88168400D01*
X134487606Y-88095200D01*
X134112394Y-88095200D01*
X133744390Y-88168400D01*
X133397739Y-88311988D01*
X133085760Y-88520445D01*
X132820445Y-88785760D01*
X132611988Y-89097739D01*
X132468400Y-89444390D01*
X132395200Y-89812394D01*
X131406204Y-89812394D01*
X131404800Y-89799039D01*
X131404800Y-87050000D01*
X135542679Y-87050000D01*
X135544400Y-87658700D01*
X135633300Y-87747600D01*
X136347600Y-87747600D01*
X136347600Y-86783300D01*
X136652400Y-86783300D01*
X136652400Y-87747600D01*
X137366700Y-87747600D01*
X137455600Y-87658700D01*
X137457321Y-87050000D01*
X138093726Y-87050000D01*
X138093726Y-88750000D01*
X138099611Y-88809751D01*
X138117040Y-88867206D01*
X138145342Y-88920157D01*
X138183432Y-88966568D01*
X138229843Y-89004658D01*
X138282794Y-89032960D01*
X138340249Y-89050389D01*
X138400000Y-89056274D01*
X139600000Y-89056274D01*
X139659751Y-89050389D01*
X139717206Y-89032960D01*
X139770157Y-89004658D01*
X139816568Y-88966568D01*
X139854658Y-88920157D01*
X139882960Y-88867206D01*
X139900389Y-88809751D01*
X139906274Y-88750000D01*
X139906274Y-87050000D01*
X140093726Y-87050000D01*
X140093726Y-88750000D01*
X140099611Y-88809751D01*
X140117040Y-88867206D01*
X140145342Y-88920157D01*
X140183432Y-88966568D01*
X140229843Y-89004658D01*
X140282794Y-89032960D01*
X140340249Y-89050389D01*
X140400000Y-89056274D01*
X141600000Y-89056274D01*
X141659751Y-89050389D01*
X141717206Y-89032960D01*
X141770157Y-89004658D01*
X141816568Y-88966568D01*
X141854658Y-88920157D01*
X141882960Y-88867206D01*
X141900389Y-88809751D01*
X141906274Y-88750000D01*
X141906274Y-87050000D01*
X142593726Y-87050000D01*
X142593726Y-88750000D01*
X142599611Y-88809751D01*
X142617040Y-88867206D01*
X142645342Y-88920157D01*
X142683432Y-88966568D01*
X142729843Y-89004658D01*
X142782794Y-89032960D01*
X142840249Y-89050389D01*
X142900000Y-89056274D01*
X144039694Y-89056274D01*
X144011988Y-89097739D01*
X143868400Y-89444390D01*
X143795200Y-89812394D01*
X143795200Y-90187606D01*
X143868400Y-90555610D01*
X144011988Y-90902261D01*
X144220445Y-91214240D01*
X144485760Y-91479555D01*
X144797739Y-91688012D01*
X145144390Y-91831600D01*
X145512394Y-91904800D01*
X145887606Y-91904800D01*
X146255610Y-91831600D01*
X146602261Y-91688012D01*
X146914240Y-91479555D01*
X147179555Y-91214240D01*
X147388012Y-90902261D01*
X147531600Y-90555610D01*
X147604800Y-90187606D01*
X147604800Y-89812394D01*
X147531600Y-89444390D01*
X147388012Y-89097739D01*
X147179555Y-88785760D01*
X146914240Y-88520445D01*
X146602261Y-88311988D01*
X146255610Y-88168400D01*
X145887606Y-88095200D01*
X145512394Y-88095200D01*
X145144390Y-88168400D01*
X144797739Y-88311988D01*
X144485760Y-88520445D01*
X144406274Y-88599931D01*
X144406274Y-87050000D01*
X144400389Y-86990249D01*
X144382960Y-86932794D01*
X144354658Y-86879843D01*
X144316568Y-86833432D01*
X144270157Y-86795342D01*
X144217206Y-86767040D01*
X144159751Y-86749611D01*
X144100000Y-86743726D01*
X142900000Y-86743726D01*
X142840249Y-86749611D01*
X142782794Y-86767040D01*
X142729843Y-86795342D01*
X142683432Y-86833432D01*
X142645342Y-86879843D01*
X142617040Y-86932794D01*
X142599611Y-86990249D01*
X142593726Y-87050000D01*
X141906274Y-87050000D01*
X141900389Y-86990249D01*
X141882960Y-86932794D01*
X141854658Y-86879843D01*
X141816568Y-86833432D01*
X141770157Y-86795342D01*
X141717206Y-86767040D01*
X141659751Y-86749611D01*
X141600000Y-86743726D01*
X140400000Y-86743726D01*
X140340249Y-86749611D01*
X140282794Y-86767040D01*
X140229843Y-86795342D01*
X140183432Y-86833432D01*
X140145342Y-86879843D01*
X140117040Y-86932794D01*
X140099611Y-86990249D01*
X140093726Y-87050000D01*
X139906274Y-87050000D01*
X139900389Y-86990249D01*
X139882960Y-86932794D01*
X139854658Y-86879843D01*
X139816568Y-86833432D01*
X139770157Y-86795342D01*
X139717206Y-86767040D01*
X139659751Y-86749611D01*
X139600000Y-86743726D01*
X138400000Y-86743726D01*
X138340249Y-86749611D01*
X138282794Y-86767040D01*
X138229843Y-86795342D01*
X138183432Y-86833432D01*
X138145342Y-86879843D01*
X138117040Y-86932794D01*
X138099611Y-86990249D01*
X138093726Y-87050000D01*
X137457321Y-87050000D01*
X137450455Y-86980290D01*
X137430122Y-86913259D01*
X137397102Y-86851483D01*
X137352664Y-86797336D01*
X137298517Y-86752898D01*
X137236741Y-86719878D01*
X137169710Y-86699545D01*
X137100000Y-86692679D01*
X136741300Y-86694400D01*
X136652400Y-86783300D01*
X136347600Y-86783300D01*
X136258700Y-86694400D01*
X135900000Y-86692679D01*
X135830290Y-86699545D01*
X135763259Y-86719878D01*
X135701483Y-86752898D01*
X135647336Y-86797336D01*
X135602898Y-86851483D01*
X135569878Y-86913259D01*
X135549545Y-86980290D01*
X135542679Y-87050000D01*
X131404800Y-87050000D01*
X131404800Y-86068274D01*
X131762000Y-86068274D01*
X131821751Y-86062389D01*
X131879206Y-86044960D01*
X131932157Y-86016658D01*
X131978568Y-85978568D01*
X132016658Y-85932157D01*
X132044960Y-85879206D01*
X132062389Y-85821751D01*
X132068274Y-85762000D01*
X132068274Y-84238000D01*
X132062389Y-84178249D01*
X132044960Y-84120794D01*
X132016658Y-84067843D01*
X131978568Y-84021432D01*
X131952454Y-84000000D01*
X131978568Y-83978568D01*
X132016658Y-83932157D01*
X132044960Y-83879206D01*
X132062389Y-83821751D01*
X132068274Y-83762000D01*
X132068274Y-82238000D01*
X132062389Y-82178249D01*
X132044960Y-82120794D01*
X132016658Y-82067843D01*
X131978568Y-82021432D01*
X131952454Y-82000000D01*
X131978568Y-81978568D01*
X132016658Y-81932157D01*
X132044960Y-81879206D01*
X132062389Y-81821751D01*
X132068274Y-81762000D01*
X132068274Y-80238000D01*
X132062389Y-80178249D01*
X132044960Y-80120794D01*
X132016658Y-80067843D01*
X131978568Y-80021432D01*
X131952454Y-80000000D01*
X131978568Y-79978568D01*
X132016658Y-79932157D01*
X132044960Y-79879206D01*
X132054317Y-79848360D01*
X132715000Y-79848360D01*
X132715000Y-79968440D01*
X132738426Y-80086214D01*
X132784379Y-80197154D01*
X132851092Y-80296998D01*
X132936002Y-80381908D01*
X133035846Y-80448621D01*
X133146786Y-80494574D01*
X133264560Y-80518000D01*
X133384640Y-80518000D01*
X133502414Y-80494574D01*
X133613354Y-80448621D01*
X133713198Y-80381908D01*
X133798108Y-80296998D01*
X133864821Y-80197154D01*
X133910774Y-80086214D01*
X133934200Y-79968440D01*
X133934200Y-79848360D01*
X133910774Y-79730586D01*
X133864821Y-79619646D01*
X133798108Y-79519802D01*
X133713198Y-79434892D01*
X133613354Y-79368179D01*
X133502414Y-79322226D01*
X133384640Y-79298800D01*
X133264560Y-79298800D01*
X133146786Y-79322226D01*
X133035846Y-79368179D01*
X132936002Y-79434892D01*
X132851092Y-79519802D01*
X132784379Y-79619646D01*
X132738426Y-79730586D01*
X132715000Y-79848360D01*
X132054317Y-79848360D01*
X132062389Y-79821751D01*
X132068274Y-79762000D01*
X132068274Y-78238000D01*
X132062389Y-78178249D01*
X132044960Y-78120794D01*
X132016658Y-78067843D01*
X131978568Y-78021432D01*
X131952454Y-78000000D01*
X131978568Y-77978568D01*
X132016658Y-77932157D01*
X132044960Y-77879206D01*
X132062389Y-77821751D01*
X132068274Y-77762000D01*
X132068274Y-76826501D01*
X132068379Y-76826754D01*
G36*
X146396888Y-69477555D02*
G01*
X146475147Y-69541780D01*
X146594286Y-69605462D01*
X146723559Y-69644676D01*
X146858000Y-69657918D01*
X146891381Y-69654630D01*
X146828686Y-69717324D01*
X146802520Y-69738799D01*
X146781047Y-69764964D01*
X146781045Y-69764966D01*
X146740643Y-69814196D01*
X146716819Y-69843226D01*
X146653138Y-69962365D01*
X146613923Y-70091639D01*
X146604000Y-70192390D01*
X146604000Y-70192399D01*
X146600683Y-70226078D01*
X146604000Y-70259757D01*
X146604001Y-71935931D01*
X145863486Y-72676447D01*
X145837320Y-72697921D01*
X145815847Y-72724086D01*
X145815845Y-72724088D01*
X145787440Y-72758700D01*
X145751619Y-72802348D01*
X145687938Y-72921487D01*
X145648723Y-73050761D01*
X145638800Y-73151512D01*
X145638800Y-73151521D01*
X145635483Y-73185200D01*
X145638800Y-73218879D01*
X145638801Y-74497712D01*
X145635483Y-74531400D01*
X145648724Y-74665840D01*
X145687939Y-74795114D01*
X145751620Y-74914253D01*
X145782207Y-74951523D01*
X145837321Y-75018680D01*
X145863486Y-75040153D01*
X145918200Y-75094867D01*
X145918200Y-75415733D01*
X144804512Y-74302045D01*
X144726253Y-74237820D01*
X144607114Y-74174139D01*
X144477840Y-74134924D01*
X144343400Y-74121683D01*
X144208960Y-74134924D01*
X144079686Y-74174139D01*
X143960547Y-74237820D01*
X143856120Y-74323520D01*
X143770420Y-74427947D01*
X143706739Y-74547086D01*
X143667524Y-74676360D01*
X143654283Y-74810800D01*
X143667524Y-74945240D01*
X143706739Y-75074514D01*
X143770420Y-75193653D01*
X143834645Y-75271912D01*
X144447739Y-75885007D01*
X144359446Y-75921579D01*
X144259602Y-75988292D01*
X144174692Y-76073202D01*
X144107979Y-76173046D01*
X144062026Y-76283986D01*
X144038600Y-76401760D01*
X144038600Y-76521840D01*
X144062026Y-76639614D01*
X144067960Y-76653940D01*
X143965746Y-76696279D01*
X143865902Y-76762992D01*
X143780992Y-76847902D01*
X143714279Y-76947746D01*
X143668326Y-77058686D01*
X143644900Y-77176460D01*
X143644900Y-77229540D01*
X143555986Y-77247226D01*
X143445046Y-77293179D01*
X143345202Y-77359892D01*
X143260292Y-77444802D01*
X143193579Y-77544646D01*
X143147626Y-77655586D01*
X143124200Y-77773360D01*
X143124200Y-77893440D01*
X143147626Y-78011214D01*
X143193579Y-78122154D01*
X143260292Y-78221998D01*
X143345202Y-78306908D01*
X143445046Y-78373621D01*
X143555986Y-78419574D01*
X143673760Y-78443000D01*
X143793840Y-78443000D01*
X143911614Y-78419574D01*
X144022554Y-78373621D01*
X144122398Y-78306908D01*
X144207308Y-78221998D01*
X144274021Y-78122154D01*
X144319974Y-78011214D01*
X144343400Y-77893440D01*
X144343400Y-77840360D01*
X144432314Y-77822674D01*
X144543254Y-77776721D01*
X144643098Y-77710008D01*
X144728008Y-77625098D01*
X144794721Y-77525254D01*
X144840674Y-77414314D01*
X144864100Y-77296540D01*
X144864100Y-77176460D01*
X144840674Y-77058686D01*
X144834740Y-77044360D01*
X144902200Y-77016416D01*
X144902201Y-78867260D01*
X144898883Y-78900948D01*
X144912124Y-79035388D01*
X144951339Y-79164662D01*
X145015020Y-79283801D01*
X145039222Y-79313291D01*
X145053019Y-79416568D01*
X145052673Y-79426557D01*
X145061953Y-79483440D01*
X145065101Y-79507005D01*
X145067374Y-79516669D01*
X145074424Y-79559885D01*
X145082805Y-79582282D01*
X145088278Y-79605554D01*
X145106421Y-79645395D01*
X145121768Y-79686407D01*
X145134358Y-79706739D01*
X145144266Y-79728497D01*
X145169834Y-79764033D01*
X145192886Y-79801263D01*
X145209200Y-79818748D01*
X145223162Y-79838154D01*
X145255168Y-79868017D01*
X145285045Y-79900038D01*
X145304460Y-79914006D01*
X145321937Y-79930313D01*
X145359155Y-79953358D01*
X145394703Y-79978934D01*
X145416467Y-79988846D01*
X145436793Y-80001431D01*
X145477789Y-80016772D01*
X145517645Y-80034922D01*
X145540927Y-80040397D01*
X145563315Y-80048775D01*
X145606522Y-80055824D01*
X145616195Y-80058099D01*
X145639772Y-80061249D01*
X145696642Y-80070527D01*
X145706631Y-80070181D01*
X145799815Y-80082630D01*
X146731000Y-81013816D01*
X146731000Y-82639144D01*
X146707453Y-82619819D01*
X146588314Y-82556138D01*
X146459040Y-82516923D01*
X146358289Y-82507000D01*
X145939214Y-82507000D01*
X145741859Y-82309646D01*
X145788754Y-82290221D01*
X145888598Y-82223508D01*
X145973508Y-82138598D01*
X146040221Y-82038754D01*
X146086174Y-81927814D01*
X146109600Y-81810040D01*
X146109600Y-81689960D01*
X146086174Y-81572186D01*
X146040221Y-81461246D01*
X145973508Y-81361402D01*
X145888598Y-81276492D01*
X145788754Y-81209779D01*
X145677814Y-81163826D01*
X145560040Y-81140400D01*
X145439960Y-81140400D01*
X145322186Y-81163826D01*
X145211246Y-81209779D01*
X145111402Y-81276492D01*
X145026492Y-81361402D01*
X144959779Y-81461246D01*
X144913826Y-81572186D01*
X144898231Y-81650589D01*
X144825234Y-81643399D01*
X144825224Y-81643399D01*
X144791545Y-81640082D01*
X144757866Y-81643399D01*
X142786499Y-81643399D01*
X142822010Y-81557668D01*
X142845436Y-81439894D01*
X142845436Y-81319814D01*
X142822010Y-81202040D01*
X142776057Y-81091100D01*
X142709344Y-80991256D01*
X142624434Y-80906346D01*
X142524590Y-80839633D01*
X142413650Y-80793680D01*
X142295876Y-80770254D01*
X142175796Y-80770254D01*
X142058022Y-80793680D01*
X141947082Y-80839633D01*
X141847238Y-80906346D01*
X141762328Y-80991256D01*
X141695615Y-81091100D01*
X141649662Y-81202040D01*
X141626236Y-81319814D01*
X141626236Y-81439894D01*
X141649662Y-81557668D01*
X141685173Y-81643399D01*
X141604867Y-81643399D01*
X140229358Y-80267891D01*
X140207880Y-80241720D01*
X140103453Y-80156019D01*
X139984314Y-80092338D01*
X139855040Y-80053123D01*
X139754289Y-80043200D01*
X139754279Y-80043200D01*
X139720600Y-80039883D01*
X139686921Y-80043200D01*
X138723991Y-80043200D01*
X138737598Y-80034108D01*
X138822508Y-79949198D01*
X138889221Y-79849354D01*
X138935174Y-79738414D01*
X138958600Y-79620640D01*
X138958600Y-79500560D01*
X138935174Y-79382786D01*
X138889221Y-79271846D01*
X138853758Y-79218771D01*
X140274214Y-79218771D01*
X140221779Y-79297246D01*
X140175826Y-79408186D01*
X140152400Y-79525960D01*
X140152400Y-79646040D01*
X140175826Y-79763814D01*
X140221779Y-79874754D01*
X140288492Y-79974598D01*
X140373402Y-80059508D01*
X140473246Y-80126221D01*
X140584186Y-80172174D01*
X140701960Y-80195600D01*
X140822040Y-80195600D01*
X140939814Y-80172174D01*
X141050754Y-80126221D01*
X141150598Y-80059508D01*
X141235508Y-79974598D01*
X141302221Y-79874754D01*
X141348174Y-79763814D01*
X141371600Y-79646040D01*
X141371600Y-79525960D01*
X141348174Y-79408186D01*
X141302221Y-79297246D01*
X141249786Y-79218771D01*
X141415092Y-79218771D01*
X141448771Y-79222088D01*
X141482450Y-79218771D01*
X141482460Y-79218771D01*
X141583211Y-79208848D01*
X141712485Y-79169633D01*
X141831624Y-79105952D01*
X141936051Y-79020251D01*
X141957529Y-78994080D01*
X142721720Y-78229890D01*
X142747880Y-78208421D01*
X142769350Y-78182260D01*
X142769356Y-78182254D01*
X142833581Y-78103995D01*
X142833582Y-78103994D01*
X142897263Y-77984855D01*
X142936478Y-77855581D01*
X142946401Y-77754830D01*
X142946401Y-77754820D01*
X142949718Y-77721141D01*
X142946401Y-77687462D01*
X142946401Y-74990266D01*
X144961719Y-72974949D01*
X144987879Y-72953480D01*
X145009349Y-72927319D01*
X145009355Y-72927313D01*
X145073580Y-72849054D01*
X145073581Y-72849053D01*
X145137262Y-72729914D01*
X145176477Y-72600640D01*
X145186400Y-72499889D01*
X145186400Y-72499886D01*
X145189718Y-72466200D01*
X145186400Y-72432514D01*
X145186400Y-71079896D01*
X145287986Y-71121974D01*
X145405760Y-71145400D01*
X145525840Y-71145400D01*
X145643614Y-71121974D01*
X145754554Y-71076021D01*
X145854398Y-71009308D01*
X145939308Y-70924398D01*
X146006021Y-70824554D01*
X146051974Y-70713614D01*
X146075400Y-70595840D01*
X146075400Y-70475760D01*
X146051974Y-70357986D01*
X146006021Y-70247046D01*
X145939308Y-70147202D01*
X145854398Y-70062292D01*
X145754554Y-69995579D01*
X145643614Y-69949626D01*
X145530347Y-69927097D01*
X145613414Y-69910574D01*
X145724354Y-69864621D01*
X145824198Y-69797908D01*
X145909108Y-69712998D01*
X145975821Y-69613154D01*
X146021774Y-69502214D01*
X146045200Y-69384440D01*
X146045200Y-69264360D01*
X146026829Y-69171999D01*
X146091332Y-69171999D01*
X146396888Y-69477555D01*
G37*
X146396888Y-69477555D02*
X146475147Y-69541780D01*
X146594286Y-69605462D01*
X146723559Y-69644676D01*
X146858000Y-69657918D01*
X146891381Y-69654630D01*
X146828686Y-69717324D01*
X146802520Y-69738799D01*
X146781047Y-69764964D01*
X146781045Y-69764966D01*
X146740643Y-69814196D01*
X146716819Y-69843226D01*
X146653138Y-69962365D01*
X146613923Y-70091639D01*
X146604000Y-70192390D01*
X146604000Y-70192399D01*
X146600683Y-70226078D01*
X146604000Y-70259757D01*
X146604001Y-71935931D01*
X145863486Y-72676447D01*
X145837320Y-72697921D01*
X145815847Y-72724086D01*
X145815845Y-72724088D01*
X145787440Y-72758700D01*
X145751619Y-72802348D01*
X145687938Y-72921487D01*
X145648723Y-73050761D01*
X145638800Y-73151512D01*
X145638800Y-73151521D01*
X145635483Y-73185200D01*
X145638800Y-73218879D01*
X145638801Y-74497712D01*
X145635483Y-74531400D01*
X145648724Y-74665840D01*
X145687939Y-74795114D01*
X145751620Y-74914253D01*
X145782207Y-74951523D01*
X145837321Y-75018680D01*
X145863486Y-75040153D01*
X145918200Y-75094867D01*
X145918200Y-75415733D01*
X144804512Y-74302045D01*
X144726253Y-74237820D01*
X144607114Y-74174139D01*
X144477840Y-74134924D01*
X144343400Y-74121683D01*
X144208960Y-74134924D01*
X144079686Y-74174139D01*
X143960547Y-74237820D01*
X143856120Y-74323520D01*
X143770420Y-74427947D01*
X143706739Y-74547086D01*
X143667524Y-74676360D01*
X143654283Y-74810800D01*
X143667524Y-74945240D01*
X143706739Y-75074514D01*
X143770420Y-75193653D01*
X143834645Y-75271912D01*
X144447739Y-75885007D01*
X144359446Y-75921579D01*
X144259602Y-75988292D01*
X144174692Y-76073202D01*
X144107979Y-76173046D01*
X144062026Y-76283986D01*
X144038600Y-76401760D01*
X144038600Y-76521840D01*
X144062026Y-76639614D01*
X144067960Y-76653940D01*
X143965746Y-76696279D01*
X143865902Y-76762992D01*
X143780992Y-76847902D01*
X143714279Y-76947746D01*
X143668326Y-77058686D01*
X143644900Y-77176460D01*
X143644900Y-77229540D01*
X143555986Y-77247226D01*
X143445046Y-77293179D01*
X143345202Y-77359892D01*
X143260292Y-77444802D01*
X143193579Y-77544646D01*
X143147626Y-77655586D01*
X143124200Y-77773360D01*
X143124200Y-77893440D01*
X143147626Y-78011214D01*
X143193579Y-78122154D01*
X143260292Y-78221998D01*
X143345202Y-78306908D01*
X143445046Y-78373621D01*
X143555986Y-78419574D01*
X143673760Y-78443000D01*
X143793840Y-78443000D01*
X143911614Y-78419574D01*
X144022554Y-78373621D01*
X144122398Y-78306908D01*
X144207308Y-78221998D01*
X144274021Y-78122154D01*
X144319974Y-78011214D01*
X144343400Y-77893440D01*
X144343400Y-77840360D01*
X144432314Y-77822674D01*
X144543254Y-77776721D01*
X144643098Y-77710008D01*
X144728008Y-77625098D01*
X144794721Y-77525254D01*
X144840674Y-77414314D01*
X144864100Y-77296540D01*
X144864100Y-77176460D01*
X144840674Y-77058686D01*
X144834740Y-77044360D01*
X144902200Y-77016416D01*
X144902201Y-78867260D01*
X144898883Y-78900948D01*
X144912124Y-79035388D01*
X144951339Y-79164662D01*
X145015020Y-79283801D01*
X145039222Y-79313291D01*
X145053019Y-79416568D01*
X145052673Y-79426557D01*
X145061953Y-79483440D01*
X145065101Y-79507005D01*
X145067374Y-79516669D01*
X145074424Y-79559885D01*
X145082805Y-79582282D01*
X145088278Y-79605554D01*
X145106421Y-79645395D01*
X145121768Y-79686407D01*
X145134358Y-79706739D01*
X145144266Y-79728497D01*
X145169834Y-79764033D01*
X145192886Y-79801263D01*
X145209200Y-79818748D01*
X145223162Y-79838154D01*
X145255168Y-79868017D01*
X145285045Y-79900038D01*
X145304460Y-79914006D01*
X145321937Y-79930313D01*
X145359155Y-79953358D01*
X145394703Y-79978934D01*
X145416467Y-79988846D01*
X145436793Y-80001431D01*
X145477789Y-80016772D01*
X145517645Y-80034922D01*
X145540927Y-80040397D01*
X145563315Y-80048775D01*
X145606522Y-80055824D01*
X145616195Y-80058099D01*
X145639772Y-80061249D01*
X145696642Y-80070527D01*
X145706631Y-80070181D01*
X145799815Y-80082630D01*
X146731000Y-81013816D01*
X146731000Y-82639144D01*
X146707453Y-82619819D01*
X146588314Y-82556138D01*
X146459040Y-82516923D01*
X146358289Y-82507000D01*
X145939214Y-82507000D01*
X145741859Y-82309646D01*
X145788754Y-82290221D01*
X145888598Y-82223508D01*
X145973508Y-82138598D01*
X146040221Y-82038754D01*
X146086174Y-81927814D01*
X146109600Y-81810040D01*
X146109600Y-81689960D01*
X146086174Y-81572186D01*
X146040221Y-81461246D01*
X145973508Y-81361402D01*
X145888598Y-81276492D01*
X145788754Y-81209779D01*
X145677814Y-81163826D01*
X145560040Y-81140400D01*
X145439960Y-81140400D01*
X145322186Y-81163826D01*
X145211246Y-81209779D01*
X145111402Y-81276492D01*
X145026492Y-81361402D01*
X144959779Y-81461246D01*
X144913826Y-81572186D01*
X144898231Y-81650589D01*
X144825234Y-81643399D01*
X144825224Y-81643399D01*
X144791545Y-81640082D01*
X144757866Y-81643399D01*
X142786499Y-81643399D01*
X142822010Y-81557668D01*
X142845436Y-81439894D01*
X142845436Y-81319814D01*
X142822010Y-81202040D01*
X142776057Y-81091100D01*
X142709344Y-80991256D01*
X142624434Y-80906346D01*
X142524590Y-80839633D01*
X142413650Y-80793680D01*
X142295876Y-80770254D01*
X142175796Y-80770254D01*
X142058022Y-80793680D01*
X141947082Y-80839633D01*
X141847238Y-80906346D01*
X141762328Y-80991256D01*
X141695615Y-81091100D01*
X141649662Y-81202040D01*
X141626236Y-81319814D01*
X141626236Y-81439894D01*
X141649662Y-81557668D01*
X141685173Y-81643399D01*
X141604867Y-81643399D01*
X140229358Y-80267891D01*
X140207880Y-80241720D01*
X140103453Y-80156019D01*
X139984314Y-80092338D01*
X139855040Y-80053123D01*
X139754289Y-80043200D01*
X139754279Y-80043200D01*
X139720600Y-80039883D01*
X139686921Y-80043200D01*
X138723991Y-80043200D01*
X138737598Y-80034108D01*
X138822508Y-79949198D01*
X138889221Y-79849354D01*
X138935174Y-79738414D01*
X138958600Y-79620640D01*
X138958600Y-79500560D01*
X138935174Y-79382786D01*
X138889221Y-79271846D01*
X138853758Y-79218771D01*
X140274214Y-79218771D01*
X140221779Y-79297246D01*
X140175826Y-79408186D01*
X140152400Y-79525960D01*
X140152400Y-79646040D01*
X140175826Y-79763814D01*
X140221779Y-79874754D01*
X140288492Y-79974598D01*
X140373402Y-80059508D01*
X140473246Y-80126221D01*
X140584186Y-80172174D01*
X140701960Y-80195600D01*
X140822040Y-80195600D01*
X140939814Y-80172174D01*
X141050754Y-80126221D01*
X141150598Y-80059508D01*
X141235508Y-79974598D01*
X141302221Y-79874754D01*
X141348174Y-79763814D01*
X141371600Y-79646040D01*
X141371600Y-79525960D01*
X141348174Y-79408186D01*
X141302221Y-79297246D01*
X141249786Y-79218771D01*
X141415092Y-79218771D01*
X141448771Y-79222088D01*
X141482450Y-79218771D01*
X141482460Y-79218771D01*
X141583211Y-79208848D01*
X141712485Y-79169633D01*
X141831624Y-79105952D01*
X141936051Y-79020251D01*
X141957529Y-78994080D01*
X142721720Y-78229890D01*
X142747880Y-78208421D01*
X142769350Y-78182260D01*
X142769356Y-78182254D01*
X142833581Y-78103995D01*
X142833582Y-78103994D01*
X142897263Y-77984855D01*
X142936478Y-77855581D01*
X142946401Y-77754830D01*
X142946401Y-77754820D01*
X142949718Y-77721141D01*
X142946401Y-77687462D01*
X142946401Y-74990266D01*
X144961719Y-72974949D01*
X144987879Y-72953480D01*
X145009349Y-72927319D01*
X145009355Y-72927313D01*
X145073580Y-72849054D01*
X145073581Y-72849053D01*
X145137262Y-72729914D01*
X145176477Y-72600640D01*
X145186400Y-72499889D01*
X145186400Y-72499886D01*
X145189718Y-72466200D01*
X145186400Y-72432514D01*
X145186400Y-71079896D01*
X145287986Y-71121974D01*
X145405760Y-71145400D01*
X145525840Y-71145400D01*
X145643614Y-71121974D01*
X145754554Y-71076021D01*
X145854398Y-71009308D01*
X145939308Y-70924398D01*
X146006021Y-70824554D01*
X146051974Y-70713614D01*
X146075400Y-70595840D01*
X146075400Y-70475760D01*
X146051974Y-70357986D01*
X146006021Y-70247046D01*
X145939308Y-70147202D01*
X145854398Y-70062292D01*
X145754554Y-69995579D01*
X145643614Y-69949626D01*
X145530347Y-69927097D01*
X145613414Y-69910574D01*
X145724354Y-69864621D01*
X145824198Y-69797908D01*
X145909108Y-69712998D01*
X145975821Y-69613154D01*
X146021774Y-69502214D01*
X146045200Y-69384440D01*
X146045200Y-69264360D01*
X146026829Y-69171999D01*
X146091332Y-69171999D01*
X146396888Y-69477555D01*
G36*
X147931726Y-75762000D02*
G01*
X147937611Y-75821751D01*
X147955040Y-75879206D01*
X147983342Y-75932157D01*
X148021432Y-75978568D01*
X148047546Y-76000000D01*
X148021432Y-76021432D01*
X147983342Y-76067843D01*
X147955040Y-76120794D01*
X147937611Y-76178249D01*
X147931726Y-76238000D01*
X147931726Y-77762000D01*
X147937611Y-77821751D01*
X147955040Y-77879206D01*
X147983342Y-77932157D01*
X148021432Y-77978568D01*
X148047546Y-78000000D01*
X148021432Y-78021432D01*
X147983342Y-78067843D01*
X147955040Y-78120794D01*
X147937611Y-78178249D01*
X147931726Y-78238000D01*
X147931726Y-79762000D01*
X147937611Y-79821751D01*
X147955040Y-79879206D01*
X147983342Y-79932157D01*
X148010224Y-79964911D01*
X147985336Y-79985336D01*
X147940898Y-80039483D01*
X147907878Y-80101259D01*
X147887545Y-80168290D01*
X147882022Y-80224366D01*
X147877919Y-80220999D01*
X146613964Y-78957045D01*
X146576006Y-78916362D01*
X146566289Y-78909371D01*
X146273800Y-78616881D01*
X146273800Y-76681924D01*
X146340287Y-76717462D01*
X146469561Y-76756677D01*
X146604000Y-76769918D01*
X146738440Y-76756677D01*
X146867714Y-76717462D01*
X146986853Y-76653781D01*
X147091280Y-76568080D01*
X147176981Y-76463653D01*
X147240662Y-76344514D01*
X147279877Y-76215240D01*
X147289800Y-76114489D01*
X147289800Y-75619702D01*
X147305842Y-75630421D01*
X147416782Y-75676374D01*
X147534556Y-75699800D01*
X147654636Y-75699800D01*
X147772410Y-75676374D01*
X147883350Y-75630421D01*
X147931726Y-75598097D01*
X147931726Y-75762000D01*
G37*
X147931726Y-75762000D02*
X147937611Y-75821751D01*
X147955040Y-75879206D01*
X147983342Y-75932157D01*
X148021432Y-75978568D01*
X148047546Y-76000000D01*
X148021432Y-76021432D01*
X147983342Y-76067843D01*
X147955040Y-76120794D01*
X147937611Y-76178249D01*
X147931726Y-76238000D01*
X147931726Y-77762000D01*
X147937611Y-77821751D01*
X147955040Y-77879206D01*
X147983342Y-77932157D01*
X148021432Y-77978568D01*
X148047546Y-78000000D01*
X148021432Y-78021432D01*
X147983342Y-78067843D01*
X147955040Y-78120794D01*
X147937611Y-78178249D01*
X147931726Y-78238000D01*
X147931726Y-79762000D01*
X147937611Y-79821751D01*
X147955040Y-79879206D01*
X147983342Y-79932157D01*
X148010224Y-79964911D01*
X147985336Y-79985336D01*
X147940898Y-80039483D01*
X147907878Y-80101259D01*
X147887545Y-80168290D01*
X147882022Y-80224366D01*
X147877919Y-80220999D01*
X146613964Y-78957045D01*
X146576006Y-78916362D01*
X146566289Y-78909371D01*
X146273800Y-78616881D01*
X146273800Y-76681924D01*
X146340287Y-76717462D01*
X146469561Y-76756677D01*
X146604000Y-76769918D01*
X146738440Y-76756677D01*
X146867714Y-76717462D01*
X146986853Y-76653781D01*
X147091280Y-76568080D01*
X147176981Y-76463653D01*
X147240662Y-76344514D01*
X147279877Y-76215240D01*
X147289800Y-76114489D01*
X147289800Y-75619702D01*
X147305842Y-75630421D01*
X147416782Y-75676374D01*
X147534556Y-75699800D01*
X147654636Y-75699800D01*
X147772410Y-75676374D01*
X147883350Y-75630421D01*
X147931726Y-75598097D01*
X147931726Y-75762000D01*
G36*
X144039486Y-68510109D02*
G01*
X144013321Y-68531582D01*
X143991848Y-68557747D01*
X143991845Y-68557750D01*
X143927620Y-68636009D01*
X143863939Y-68755148D01*
X143824724Y-68884422D01*
X143811483Y-69018862D01*
X143814801Y-69052550D01*
X143814800Y-72182132D01*
X141975996Y-74020937D01*
X141962621Y-73988646D01*
X141895908Y-73888802D01*
X141810998Y-73803892D01*
X141711154Y-73737179D01*
X141711070Y-73737144D01*
X142707587Y-72740628D01*
X142743186Y-72755374D01*
X142860960Y-72778800D01*
X142981040Y-72778800D01*
X143098814Y-72755374D01*
X143209754Y-72709421D01*
X143309598Y-72642708D01*
X143394508Y-72557798D01*
X143461221Y-72457954D01*
X143507174Y-72347014D01*
X143530600Y-72229240D01*
X143530600Y-72109160D01*
X143507174Y-71991386D01*
X143461221Y-71880446D01*
X143394508Y-71780602D01*
X143309598Y-71695692D01*
X143209754Y-71628979D01*
X143098814Y-71583026D01*
X142981040Y-71559600D01*
X142860960Y-71559600D01*
X142743186Y-71583026D01*
X142632246Y-71628979D01*
X142532402Y-71695692D01*
X142447492Y-71780602D01*
X142380779Y-71880446D01*
X142334826Y-71991386D01*
X142323808Y-72046777D01*
X140231227Y-74139359D01*
X140216690Y-74151289D01*
X140204761Y-74165825D01*
X140169078Y-74209304D01*
X140133699Y-74275493D01*
X140111914Y-74347312D01*
X140104557Y-74422000D01*
X140106401Y-74440720D01*
X140106400Y-77091195D01*
X140066846Y-77107579D01*
X139967002Y-77174292D01*
X139882092Y-77259202D01*
X139815379Y-77359046D01*
X139769426Y-77469986D01*
X139746000Y-77587760D01*
X139746000Y-77707840D01*
X139769426Y-77825614D01*
X139778355Y-77847171D01*
X137708507Y-77847171D01*
X137674828Y-77843854D01*
X137641149Y-77847171D01*
X137641140Y-77847171D01*
X137540389Y-77857094D01*
X137411115Y-77896309D01*
X137291976Y-77959990D01*
X137262946Y-77983814D01*
X137214850Y-78023286D01*
X137187549Y-78045691D01*
X137166076Y-78071857D01*
X136058333Y-79179600D01*
X135940116Y-79179600D01*
X135973021Y-79130354D01*
X136018974Y-79019414D01*
X136042400Y-78901640D01*
X136042400Y-78852879D01*
X136113814Y-78838674D01*
X136224754Y-78792721D01*
X136324598Y-78726008D01*
X136409508Y-78641098D01*
X136476221Y-78541254D01*
X136522174Y-78430314D01*
X136545600Y-78312540D01*
X136545600Y-78192460D01*
X136522174Y-78074686D01*
X136476221Y-77963746D01*
X136409508Y-77863902D01*
X136324598Y-77778992D01*
X136224754Y-77712279D01*
X136172926Y-77690811D01*
X136194800Y-77580840D01*
X136194800Y-77460760D01*
X136171374Y-77342986D01*
X136142903Y-77274251D01*
X136144000Y-77263113D01*
X136144000Y-77259777D01*
X136145784Y-77237733D01*
X136144000Y-77222368D01*
X136144000Y-73589214D01*
X138211254Y-71521960D01*
X138290602Y-71601308D01*
X138390446Y-71668021D01*
X138501386Y-71713974D01*
X138619160Y-71737400D01*
X138739240Y-71737400D01*
X138857014Y-71713974D01*
X138967954Y-71668021D01*
X139067798Y-71601308D01*
X139152708Y-71516398D01*
X139191666Y-71458092D01*
X139196942Y-71465988D01*
X139281852Y-71550898D01*
X139381696Y-71617611D01*
X139492636Y-71663564D01*
X139610410Y-71686990D01*
X139730490Y-71686990D01*
X139848264Y-71663564D01*
X139959204Y-71617611D01*
X140059048Y-71550898D01*
X140143958Y-71465988D01*
X140210671Y-71366144D01*
X140256624Y-71255204D01*
X140280050Y-71137430D01*
X140280050Y-71017350D01*
X140278267Y-71008387D01*
X143211457Y-68075199D01*
X144474395Y-68075199D01*
X144039486Y-68510109D01*
G37*
X144039486Y-68510109D02*
X144013321Y-68531582D01*
X143991848Y-68557747D01*
X143991845Y-68557750D01*
X143927620Y-68636009D01*
X143863939Y-68755148D01*
X143824724Y-68884422D01*
X143811483Y-69018862D01*
X143814801Y-69052550D01*
X143814800Y-72182132D01*
X141975996Y-74020937D01*
X141962621Y-73988646D01*
X141895908Y-73888802D01*
X141810998Y-73803892D01*
X141711154Y-73737179D01*
X141711070Y-73737144D01*
X142707587Y-72740628D01*
X142743186Y-72755374D01*
X142860960Y-72778800D01*
X142981040Y-72778800D01*
X143098814Y-72755374D01*
X143209754Y-72709421D01*
X143309598Y-72642708D01*
X143394508Y-72557798D01*
X143461221Y-72457954D01*
X143507174Y-72347014D01*
X143530600Y-72229240D01*
X143530600Y-72109160D01*
X143507174Y-71991386D01*
X143461221Y-71880446D01*
X143394508Y-71780602D01*
X143309598Y-71695692D01*
X143209754Y-71628979D01*
X143098814Y-71583026D01*
X142981040Y-71559600D01*
X142860960Y-71559600D01*
X142743186Y-71583026D01*
X142632246Y-71628979D01*
X142532402Y-71695692D01*
X142447492Y-71780602D01*
X142380779Y-71880446D01*
X142334826Y-71991386D01*
X142323808Y-72046777D01*
X140231227Y-74139359D01*
X140216690Y-74151289D01*
X140204761Y-74165825D01*
X140169078Y-74209304D01*
X140133699Y-74275493D01*
X140111914Y-74347312D01*
X140104557Y-74422000D01*
X140106401Y-74440720D01*
X140106400Y-77091195D01*
X140066846Y-77107579D01*
X139967002Y-77174292D01*
X139882092Y-77259202D01*
X139815379Y-77359046D01*
X139769426Y-77469986D01*
X139746000Y-77587760D01*
X139746000Y-77707840D01*
X139769426Y-77825614D01*
X139778355Y-77847171D01*
X137708507Y-77847171D01*
X137674828Y-77843854D01*
X137641149Y-77847171D01*
X137641140Y-77847171D01*
X137540389Y-77857094D01*
X137411115Y-77896309D01*
X137291976Y-77959990D01*
X137262946Y-77983814D01*
X137214850Y-78023286D01*
X137187549Y-78045691D01*
X137166076Y-78071857D01*
X136058333Y-79179600D01*
X135940116Y-79179600D01*
X135973021Y-79130354D01*
X136018974Y-79019414D01*
X136042400Y-78901640D01*
X136042400Y-78852879D01*
X136113814Y-78838674D01*
X136224754Y-78792721D01*
X136324598Y-78726008D01*
X136409508Y-78641098D01*
X136476221Y-78541254D01*
X136522174Y-78430314D01*
X136545600Y-78312540D01*
X136545600Y-78192460D01*
X136522174Y-78074686D01*
X136476221Y-77963746D01*
X136409508Y-77863902D01*
X136324598Y-77778992D01*
X136224754Y-77712279D01*
X136172926Y-77690811D01*
X136194800Y-77580840D01*
X136194800Y-77460760D01*
X136171374Y-77342986D01*
X136142903Y-77274251D01*
X136144000Y-77263113D01*
X136144000Y-77259777D01*
X136145784Y-77237733D01*
X136144000Y-77222368D01*
X136144000Y-73589214D01*
X138211254Y-71521960D01*
X138290602Y-71601308D01*
X138390446Y-71668021D01*
X138501386Y-71713974D01*
X138619160Y-71737400D01*
X138739240Y-71737400D01*
X138857014Y-71713974D01*
X138967954Y-71668021D01*
X139067798Y-71601308D01*
X139152708Y-71516398D01*
X139191666Y-71458092D01*
X139196942Y-71465988D01*
X139281852Y-71550898D01*
X139381696Y-71617611D01*
X139492636Y-71663564D01*
X139610410Y-71686990D01*
X139730490Y-71686990D01*
X139848264Y-71663564D01*
X139959204Y-71617611D01*
X140059048Y-71550898D01*
X140143958Y-71465988D01*
X140210671Y-71366144D01*
X140256624Y-71255204D01*
X140280050Y-71137430D01*
X140280050Y-71017350D01*
X140278267Y-71008387D01*
X143211457Y-68075199D01*
X144474395Y-68075199D01*
X144039486Y-68510109D01*
G36*
X146503700Y-61456130D02*
G01*
X146988215Y-61602413D01*
X147435089Y-61840020D01*
X147827299Y-62159900D01*
X148149910Y-62549868D01*
X148390628Y-62995069D01*
X148540293Y-63478552D01*
X148595200Y-64000970D01*
X148595200Y-65931726D01*
X148238000Y-65931726D01*
X148178249Y-65937611D01*
X148120794Y-65955040D01*
X148067843Y-65983342D01*
X148021432Y-66021432D01*
X147983342Y-66067843D01*
X147955040Y-66120794D01*
X147937611Y-66178249D01*
X147931726Y-66238000D01*
X147931726Y-66650236D01*
X147872903Y-66681678D01*
X147829424Y-66717360D01*
X147829421Y-66717363D01*
X147814889Y-66729289D01*
X147802963Y-66743821D01*
X147233587Y-67313199D01*
X144854974Y-67313199D01*
X144856274Y-67300000D01*
X144856274Y-65700000D01*
X144850389Y-65640249D01*
X144832960Y-65582794D01*
X144810066Y-65539960D01*
X145790400Y-65539960D01*
X145790400Y-65660040D01*
X145813826Y-65777814D01*
X145859779Y-65888754D01*
X145926492Y-65988598D01*
X146011402Y-66073508D01*
X146111246Y-66140221D01*
X146222186Y-66186174D01*
X146339960Y-66209600D01*
X146460040Y-66209600D01*
X146577814Y-66186174D01*
X146688754Y-66140221D01*
X146788598Y-66073508D01*
X146873508Y-65988598D01*
X146940221Y-65888754D01*
X146986174Y-65777814D01*
X147009600Y-65660040D01*
X147009600Y-65539960D01*
X146986174Y-65422186D01*
X146940221Y-65311246D01*
X146873508Y-65211402D01*
X146788598Y-65126492D01*
X146688754Y-65059779D01*
X146577814Y-65013826D01*
X146460040Y-64990400D01*
X146339960Y-64990400D01*
X146222186Y-65013826D01*
X146111246Y-65059779D01*
X146011402Y-65126492D01*
X145926492Y-65211402D01*
X145859779Y-65311246D01*
X145813826Y-65422186D01*
X145790400Y-65539960D01*
X144810066Y-65539960D01*
X144804658Y-65529843D01*
X144766568Y-65483432D01*
X144720157Y-65445342D01*
X144667206Y-65417040D01*
X144609751Y-65399611D01*
X144550000Y-65393726D01*
X142950000Y-65393726D01*
X142890249Y-65399611D01*
X142832794Y-65417040D01*
X142779843Y-65445342D01*
X142733432Y-65483432D01*
X142695342Y-65529843D01*
X142667040Y-65582794D01*
X142649611Y-65640249D01*
X142643726Y-65700000D01*
X142643726Y-67300000D01*
X142649611Y-67359751D01*
X142667040Y-67417206D01*
X142695342Y-67470157D01*
X142714962Y-67494063D01*
X139739453Y-70469573D01*
X139730490Y-70467790D01*
X139610410Y-70467790D01*
X139492636Y-70491216D01*
X139381696Y-70537169D01*
X139281852Y-70603882D01*
X139196942Y-70688792D01*
X139157984Y-70747098D01*
X139152708Y-70739202D01*
X139067798Y-70654292D01*
X138967954Y-70587579D01*
X138857014Y-70541626D01*
X138739240Y-70518200D01*
X138619160Y-70518200D01*
X138501386Y-70541626D01*
X138390446Y-70587579D01*
X138290602Y-70654292D01*
X138205692Y-70739202D01*
X138200615Y-70746800D01*
X138085302Y-70746800D01*
X138066599Y-70744958D01*
X138047896Y-70746800D01*
X138047887Y-70746800D01*
X137991911Y-70752313D01*
X137920092Y-70774099D01*
X137892896Y-70788636D01*
X137853903Y-70809478D01*
X137824572Y-70833550D01*
X137795889Y-70857089D01*
X137783959Y-70871626D01*
X135734932Y-72920654D01*
X135737600Y-72907240D01*
X135737600Y-72787160D01*
X135714174Y-72669386D01*
X135668221Y-72558446D01*
X135601508Y-72458602D01*
X135516598Y-72373692D01*
X135416754Y-72306979D01*
X135305814Y-72261026D01*
X135188040Y-72237600D01*
X135067960Y-72237600D01*
X134950186Y-72261026D01*
X134839246Y-72306979D01*
X134739402Y-72373692D01*
X134654492Y-72458602D01*
X134587779Y-72558446D01*
X134575755Y-72587475D01*
X134476840Y-72567800D01*
X134356760Y-72567800D01*
X134238986Y-72591226D01*
X134128046Y-72637179D01*
X134028202Y-72703892D01*
X133943292Y-72788802D01*
X133876579Y-72888646D01*
X133830626Y-72999586D01*
X133807200Y-73117360D01*
X133807200Y-73237440D01*
X133830626Y-73355214D01*
X133876579Y-73466154D01*
X133943292Y-73565998D01*
X134028202Y-73650908D01*
X134128046Y-73717621D01*
X134238986Y-73763574D01*
X134356760Y-73787000D01*
X134476840Y-73787000D01*
X134589800Y-73764532D01*
X134589800Y-74607600D01*
X133182700Y-74607600D01*
X133116614Y-74580226D01*
X132998840Y-74556800D01*
X132878760Y-74556800D01*
X132760986Y-74580226D01*
X132650046Y-74626179D01*
X132550202Y-74692892D01*
X132465292Y-74777802D01*
X132398579Y-74877646D01*
X132352626Y-74988586D01*
X132329200Y-75106360D01*
X132329200Y-75226440D01*
X132352626Y-75344214D01*
X132398579Y-75455154D01*
X132465292Y-75554998D01*
X132550202Y-75639908D01*
X132570620Y-75653550D01*
X132530426Y-75750586D01*
X132507000Y-75868360D01*
X132507000Y-75936667D01*
X132430786Y-75951826D01*
X132319846Y-75997779D01*
X132220002Y-76064492D01*
X132135092Y-76149402D01*
X132068379Y-76249246D01*
X132068274Y-76249499D01*
X132068274Y-76238000D01*
X132062389Y-76178249D01*
X132044960Y-76120794D01*
X132016658Y-76067843D01*
X131978568Y-76021432D01*
X131952454Y-76000000D01*
X131978568Y-75978568D01*
X132016658Y-75932157D01*
X132044960Y-75879206D01*
X132062389Y-75821751D01*
X132068274Y-75762000D01*
X132068274Y-74470540D01*
X135926815Y-70612000D01*
X136046415Y-70612000D01*
X136051492Y-70619598D01*
X136136402Y-70704508D01*
X136236246Y-70771221D01*
X136347186Y-70817174D01*
X136464960Y-70840600D01*
X136585040Y-70840600D01*
X136702814Y-70817174D01*
X136813754Y-70771221D01*
X136913598Y-70704508D01*
X136998508Y-70619598D01*
X137065221Y-70519754D01*
X137111174Y-70408814D01*
X137134600Y-70291040D01*
X137134600Y-70192281D01*
X137185414Y-70182174D01*
X137296354Y-70136221D01*
X137396198Y-70069508D01*
X137481108Y-69984598D01*
X137547821Y-69884754D01*
X137593774Y-69773814D01*
X137617200Y-69656040D01*
X137617200Y-69535960D01*
X137593774Y-69418186D01*
X137547821Y-69307246D01*
X137481108Y-69207402D01*
X137396198Y-69122492D01*
X137296354Y-69055779D01*
X137185414Y-69009826D01*
X137067640Y-68986400D01*
X136947560Y-68986400D01*
X136829786Y-69009826D01*
X136718846Y-69055779D01*
X136619002Y-69122492D01*
X136534092Y-69207402D01*
X136467379Y-69307246D01*
X136421426Y-69418186D01*
X136398000Y-69535960D01*
X136398000Y-69634719D01*
X136347186Y-69644826D01*
X136236246Y-69690779D01*
X136136402Y-69757492D01*
X136051492Y-69842402D01*
X136046415Y-69850000D01*
X135787702Y-69850000D01*
X135768999Y-69848158D01*
X135750296Y-69850000D01*
X135750287Y-69850000D01*
X135694311Y-69855513D01*
X135622492Y-69877299D01*
X135579359Y-69900355D01*
X135556303Y-69912678D01*
X135532568Y-69932157D01*
X135498289Y-69960289D01*
X135486359Y-69974826D01*
X132068274Y-73392912D01*
X132068274Y-72238000D01*
X132062389Y-72178249D01*
X132044960Y-72120794D01*
X132016658Y-72067843D01*
X131978568Y-72021432D01*
X131952454Y-72000000D01*
X131978568Y-71978568D01*
X132016658Y-71932157D01*
X132044960Y-71879206D01*
X132062389Y-71821751D01*
X132068274Y-71762000D01*
X132068274Y-70238000D01*
X132062389Y-70178249D01*
X132044960Y-70120794D01*
X132016658Y-70067843D01*
X131978568Y-70021432D01*
X131952454Y-70000000D01*
X131978568Y-69978568D01*
X132016658Y-69932157D01*
X132044960Y-69879206D01*
X132062389Y-69821751D01*
X132068274Y-69762000D01*
X132068274Y-68857960D01*
X134666000Y-68857960D01*
X134666000Y-68978040D01*
X134689426Y-69095814D01*
X134735379Y-69206754D01*
X134802092Y-69306598D01*
X134887002Y-69391508D01*
X134986846Y-69458221D01*
X135097786Y-69504174D01*
X135215560Y-69527600D01*
X135335640Y-69527600D01*
X135453414Y-69504174D01*
X135564354Y-69458221D01*
X135664198Y-69391508D01*
X135749108Y-69306598D01*
X135815821Y-69206754D01*
X135861774Y-69095814D01*
X135885200Y-68978040D01*
X135885200Y-68857960D01*
X135861774Y-68740186D01*
X135815821Y-68629246D01*
X135749108Y-68529402D01*
X135664198Y-68444492D01*
X135564354Y-68377779D01*
X135453414Y-68331826D01*
X135335640Y-68308400D01*
X135215560Y-68308400D01*
X135097786Y-68331826D01*
X134986846Y-68377779D01*
X134887002Y-68444492D01*
X134802092Y-68529402D01*
X134735379Y-68629246D01*
X134689426Y-68740186D01*
X134666000Y-68857960D01*
X132068274Y-68857960D01*
X132068274Y-68238000D01*
X132062389Y-68178249D01*
X132044960Y-68120794D01*
X132016658Y-68067843D01*
X131978568Y-68021432D01*
X131952454Y-68000000D01*
X131978568Y-67978568D01*
X132016658Y-67932157D01*
X132044960Y-67879206D01*
X132062389Y-67821751D01*
X132068274Y-67762000D01*
X132068274Y-66391187D01*
X135145200Y-66391187D01*
X135145200Y-66608813D01*
X135187657Y-66822258D01*
X135270939Y-67023319D01*
X135391846Y-67204269D01*
X135545731Y-67358154D01*
X135726681Y-67479061D01*
X135927742Y-67562343D01*
X136141187Y-67604800D01*
X136358813Y-67604800D01*
X136572258Y-67562343D01*
X136773319Y-67479061D01*
X136954269Y-67358154D01*
X137108154Y-67204269D01*
X137229061Y-67023319D01*
X137312343Y-66822258D01*
X137354800Y-66608813D01*
X137354800Y-66391187D01*
X137645200Y-66391187D01*
X137645200Y-66608813D01*
X137687657Y-66822258D01*
X137770939Y-67023319D01*
X137891846Y-67204269D01*
X138045731Y-67358154D01*
X138226681Y-67479061D01*
X138427742Y-67562343D01*
X138641187Y-67604800D01*
X138858813Y-67604800D01*
X139072258Y-67562343D01*
X139273319Y-67479061D01*
X139454269Y-67358154D01*
X139608154Y-67204269D01*
X139729061Y-67023319D01*
X139812343Y-66822258D01*
X139854800Y-66608813D01*
X139854800Y-66391187D01*
X140145200Y-66391187D01*
X140145200Y-66608813D01*
X140187657Y-66822258D01*
X140270939Y-67023319D01*
X140391846Y-67204269D01*
X140545731Y-67358154D01*
X140726681Y-67479061D01*
X140927742Y-67562343D01*
X141141187Y-67604800D01*
X141358813Y-67604800D01*
X141572258Y-67562343D01*
X141773319Y-67479061D01*
X141954269Y-67358154D01*
X142108154Y-67204269D01*
X142229061Y-67023319D01*
X142312343Y-66822258D01*
X142354800Y-66608813D01*
X142354800Y-66391187D01*
X142312343Y-66177742D01*
X142229061Y-65976681D01*
X142108154Y-65795731D01*
X141954269Y-65641846D01*
X141773319Y-65520939D01*
X141572258Y-65437657D01*
X141358813Y-65395200D01*
X141141187Y-65395200D01*
X140927742Y-65437657D01*
X140726681Y-65520939D01*
X140545731Y-65641846D01*
X140391846Y-65795731D01*
X140270939Y-65976681D01*
X140187657Y-66177742D01*
X140145200Y-66391187D01*
X139854800Y-66391187D01*
X139812343Y-66177742D01*
X139729061Y-65976681D01*
X139608154Y-65795731D01*
X139454269Y-65641846D01*
X139273319Y-65520939D01*
X139072258Y-65437657D01*
X138858813Y-65395200D01*
X138641187Y-65395200D01*
X138427742Y-65437657D01*
X138226681Y-65520939D01*
X138045731Y-65641846D01*
X137891846Y-65795731D01*
X137770939Y-65976681D01*
X137687657Y-66177742D01*
X137645200Y-66391187D01*
X137354800Y-66391187D01*
X137312343Y-66177742D01*
X137229061Y-65976681D01*
X137108154Y-65795731D01*
X136954269Y-65641846D01*
X136773319Y-65520939D01*
X136572258Y-65437657D01*
X136358813Y-65395200D01*
X136141187Y-65395200D01*
X135927742Y-65437657D01*
X135726681Y-65520939D01*
X135545731Y-65641846D01*
X135391846Y-65795731D01*
X135270939Y-65976681D01*
X135187657Y-66177742D01*
X135145200Y-66391187D01*
X132068274Y-66391187D01*
X132068274Y-66238000D01*
X132062389Y-66178249D01*
X132044960Y-66120794D01*
X132016658Y-66067843D01*
X131978568Y-66021432D01*
X131932157Y-65983342D01*
X131879206Y-65955040D01*
X131821751Y-65937611D01*
X131762000Y-65931726D01*
X131404800Y-65931726D01*
X131404800Y-64019798D01*
X131456130Y-63496300D01*
X131602413Y-63011785D01*
X131840020Y-62564911D01*
X132159900Y-62172701D01*
X132549868Y-61850090D01*
X132995069Y-61609372D01*
X133478552Y-61459707D01*
X134000970Y-61404800D01*
X145980202Y-61404800D01*
X146503700Y-61456130D01*
G37*
X146503700Y-61456130D02*
X146988215Y-61602413D01*
X147435089Y-61840020D01*
X147827299Y-62159900D01*
X148149910Y-62549868D01*
X148390628Y-62995069D01*
X148540293Y-63478552D01*
X148595200Y-64000970D01*
X148595200Y-65931726D01*
X148238000Y-65931726D01*
X148178249Y-65937611D01*
X148120794Y-65955040D01*
X148067843Y-65983342D01*
X148021432Y-66021432D01*
X147983342Y-66067843D01*
X147955040Y-66120794D01*
X147937611Y-66178249D01*
X147931726Y-66238000D01*
X147931726Y-66650236D01*
X147872903Y-66681678D01*
X147829424Y-66717360D01*
X147829421Y-66717363D01*
X147814889Y-66729289D01*
X147802963Y-66743821D01*
X147233587Y-67313199D01*
X144854974Y-67313199D01*
X144856274Y-67300000D01*
X144856274Y-65700000D01*
X144850389Y-65640249D01*
X144832960Y-65582794D01*
X144810066Y-65539960D01*
X145790400Y-65539960D01*
X145790400Y-65660040D01*
X145813826Y-65777814D01*
X145859779Y-65888754D01*
X145926492Y-65988598D01*
X146011402Y-66073508D01*
X146111246Y-66140221D01*
X146222186Y-66186174D01*
X146339960Y-66209600D01*
X146460040Y-66209600D01*
X146577814Y-66186174D01*
X146688754Y-66140221D01*
X146788598Y-66073508D01*
X146873508Y-65988598D01*
X146940221Y-65888754D01*
X146986174Y-65777814D01*
X147009600Y-65660040D01*
X147009600Y-65539960D01*
X146986174Y-65422186D01*
X146940221Y-65311246D01*
X146873508Y-65211402D01*
X146788598Y-65126492D01*
X146688754Y-65059779D01*
X146577814Y-65013826D01*
X146460040Y-64990400D01*
X146339960Y-64990400D01*
X146222186Y-65013826D01*
X146111246Y-65059779D01*
X146011402Y-65126492D01*
X145926492Y-65211402D01*
X145859779Y-65311246D01*
X145813826Y-65422186D01*
X145790400Y-65539960D01*
X144810066Y-65539960D01*
X144804658Y-65529843D01*
X144766568Y-65483432D01*
X144720157Y-65445342D01*
X144667206Y-65417040D01*
X144609751Y-65399611D01*
X144550000Y-65393726D01*
X142950000Y-65393726D01*
X142890249Y-65399611D01*
X142832794Y-65417040D01*
X142779843Y-65445342D01*
X142733432Y-65483432D01*
X142695342Y-65529843D01*
X142667040Y-65582794D01*
X142649611Y-65640249D01*
X142643726Y-65700000D01*
X142643726Y-67300000D01*
X142649611Y-67359751D01*
X142667040Y-67417206D01*
X142695342Y-67470157D01*
X142714962Y-67494063D01*
X139739453Y-70469573D01*
X139730490Y-70467790D01*
X139610410Y-70467790D01*
X139492636Y-70491216D01*
X139381696Y-70537169D01*
X139281852Y-70603882D01*
X139196942Y-70688792D01*
X139157984Y-70747098D01*
X139152708Y-70739202D01*
X139067798Y-70654292D01*
X138967954Y-70587579D01*
X138857014Y-70541626D01*
X138739240Y-70518200D01*
X138619160Y-70518200D01*
X138501386Y-70541626D01*
X138390446Y-70587579D01*
X138290602Y-70654292D01*
X138205692Y-70739202D01*
X138200615Y-70746800D01*
X138085302Y-70746800D01*
X138066599Y-70744958D01*
X138047896Y-70746800D01*
X138047887Y-70746800D01*
X137991911Y-70752313D01*
X137920092Y-70774099D01*
X137892896Y-70788636D01*
X137853903Y-70809478D01*
X137824572Y-70833550D01*
X137795889Y-70857089D01*
X137783959Y-70871626D01*
X135734932Y-72920654D01*
X135737600Y-72907240D01*
X135737600Y-72787160D01*
X135714174Y-72669386D01*
X135668221Y-72558446D01*
X135601508Y-72458602D01*
X135516598Y-72373692D01*
X135416754Y-72306979D01*
X135305814Y-72261026D01*
X135188040Y-72237600D01*
X135067960Y-72237600D01*
X134950186Y-72261026D01*
X134839246Y-72306979D01*
X134739402Y-72373692D01*
X134654492Y-72458602D01*
X134587779Y-72558446D01*
X134575755Y-72587475D01*
X134476840Y-72567800D01*
X134356760Y-72567800D01*
X134238986Y-72591226D01*
X134128046Y-72637179D01*
X134028202Y-72703892D01*
X133943292Y-72788802D01*
X133876579Y-72888646D01*
X133830626Y-72999586D01*
X133807200Y-73117360D01*
X133807200Y-73237440D01*
X133830626Y-73355214D01*
X133876579Y-73466154D01*
X133943292Y-73565998D01*
X134028202Y-73650908D01*
X134128046Y-73717621D01*
X134238986Y-73763574D01*
X134356760Y-73787000D01*
X134476840Y-73787000D01*
X134589800Y-73764532D01*
X134589800Y-74607600D01*
X133182700Y-74607600D01*
X133116614Y-74580226D01*
X132998840Y-74556800D01*
X132878760Y-74556800D01*
X132760986Y-74580226D01*
X132650046Y-74626179D01*
X132550202Y-74692892D01*
X132465292Y-74777802D01*
X132398579Y-74877646D01*
X132352626Y-74988586D01*
X132329200Y-75106360D01*
X132329200Y-75226440D01*
X132352626Y-75344214D01*
X132398579Y-75455154D01*
X132465292Y-75554998D01*
X132550202Y-75639908D01*
X132570620Y-75653550D01*
X132530426Y-75750586D01*
X132507000Y-75868360D01*
X132507000Y-75936667D01*
X132430786Y-75951826D01*
X132319846Y-75997779D01*
X132220002Y-76064492D01*
X132135092Y-76149402D01*
X132068379Y-76249246D01*
X132068274Y-76249499D01*
X132068274Y-76238000D01*
X132062389Y-76178249D01*
X132044960Y-76120794D01*
X132016658Y-76067843D01*
X131978568Y-76021432D01*
X131952454Y-76000000D01*
X131978568Y-75978568D01*
X132016658Y-75932157D01*
X132044960Y-75879206D01*
X132062389Y-75821751D01*
X132068274Y-75762000D01*
X132068274Y-74470540D01*
X135926815Y-70612000D01*
X136046415Y-70612000D01*
X136051492Y-70619598D01*
X136136402Y-70704508D01*
X136236246Y-70771221D01*
X136347186Y-70817174D01*
X136464960Y-70840600D01*
X136585040Y-70840600D01*
X136702814Y-70817174D01*
X136813754Y-70771221D01*
X136913598Y-70704508D01*
X136998508Y-70619598D01*
X137065221Y-70519754D01*
X137111174Y-70408814D01*
X137134600Y-70291040D01*
X137134600Y-70192281D01*
X137185414Y-70182174D01*
X137296354Y-70136221D01*
X137396198Y-70069508D01*
X137481108Y-69984598D01*
X137547821Y-69884754D01*
X137593774Y-69773814D01*
X137617200Y-69656040D01*
X137617200Y-69535960D01*
X137593774Y-69418186D01*
X137547821Y-69307246D01*
X137481108Y-69207402D01*
X137396198Y-69122492D01*
X137296354Y-69055779D01*
X137185414Y-69009826D01*
X137067640Y-68986400D01*
X136947560Y-68986400D01*
X136829786Y-69009826D01*
X136718846Y-69055779D01*
X136619002Y-69122492D01*
X136534092Y-69207402D01*
X136467379Y-69307246D01*
X136421426Y-69418186D01*
X136398000Y-69535960D01*
X136398000Y-69634719D01*
X136347186Y-69644826D01*
X136236246Y-69690779D01*
X136136402Y-69757492D01*
X136051492Y-69842402D01*
X136046415Y-69850000D01*
X135787702Y-69850000D01*
X135768999Y-69848158D01*
X135750296Y-69850000D01*
X135750287Y-69850000D01*
X135694311Y-69855513D01*
X135622492Y-69877299D01*
X135579359Y-69900355D01*
X135556303Y-69912678D01*
X135532568Y-69932157D01*
X135498289Y-69960289D01*
X135486359Y-69974826D01*
X132068274Y-73392912D01*
X132068274Y-72238000D01*
X132062389Y-72178249D01*
X132044960Y-72120794D01*
X132016658Y-72067843D01*
X131978568Y-72021432D01*
X131952454Y-72000000D01*
X131978568Y-71978568D01*
X132016658Y-71932157D01*
X132044960Y-71879206D01*
X132062389Y-71821751D01*
X132068274Y-71762000D01*
X132068274Y-70238000D01*
X132062389Y-70178249D01*
X132044960Y-70120794D01*
X132016658Y-70067843D01*
X131978568Y-70021432D01*
X131952454Y-70000000D01*
X131978568Y-69978568D01*
X132016658Y-69932157D01*
X132044960Y-69879206D01*
X132062389Y-69821751D01*
X132068274Y-69762000D01*
X132068274Y-68857960D01*
X134666000Y-68857960D01*
X134666000Y-68978040D01*
X134689426Y-69095814D01*
X134735379Y-69206754D01*
X134802092Y-69306598D01*
X134887002Y-69391508D01*
X134986846Y-69458221D01*
X135097786Y-69504174D01*
X135215560Y-69527600D01*
X135335640Y-69527600D01*
X135453414Y-69504174D01*
X135564354Y-69458221D01*
X135664198Y-69391508D01*
X135749108Y-69306598D01*
X135815821Y-69206754D01*
X135861774Y-69095814D01*
X135885200Y-68978040D01*
X135885200Y-68857960D01*
X135861774Y-68740186D01*
X135815821Y-68629246D01*
X135749108Y-68529402D01*
X135664198Y-68444492D01*
X135564354Y-68377779D01*
X135453414Y-68331826D01*
X135335640Y-68308400D01*
X135215560Y-68308400D01*
X135097786Y-68331826D01*
X134986846Y-68377779D01*
X134887002Y-68444492D01*
X134802092Y-68529402D01*
X134735379Y-68629246D01*
X134689426Y-68740186D01*
X134666000Y-68857960D01*
X132068274Y-68857960D01*
X132068274Y-68238000D01*
X132062389Y-68178249D01*
X132044960Y-68120794D01*
X132016658Y-68067843D01*
X131978568Y-68021432D01*
X131952454Y-68000000D01*
X131978568Y-67978568D01*
X132016658Y-67932157D01*
X132044960Y-67879206D01*
X132062389Y-67821751D01*
X132068274Y-67762000D01*
X132068274Y-66391187D01*
X135145200Y-66391187D01*
X135145200Y-66608813D01*
X135187657Y-66822258D01*
X135270939Y-67023319D01*
X135391846Y-67204269D01*
X135545731Y-67358154D01*
X135726681Y-67479061D01*
X135927742Y-67562343D01*
X136141187Y-67604800D01*
X136358813Y-67604800D01*
X136572258Y-67562343D01*
X136773319Y-67479061D01*
X136954269Y-67358154D01*
X137108154Y-67204269D01*
X137229061Y-67023319D01*
X137312343Y-66822258D01*
X137354800Y-66608813D01*
X137354800Y-66391187D01*
X137645200Y-66391187D01*
X137645200Y-66608813D01*
X137687657Y-66822258D01*
X137770939Y-67023319D01*
X137891846Y-67204269D01*
X138045731Y-67358154D01*
X138226681Y-67479061D01*
X138427742Y-67562343D01*
X138641187Y-67604800D01*
X138858813Y-67604800D01*
X139072258Y-67562343D01*
X139273319Y-67479061D01*
X139454269Y-67358154D01*
X139608154Y-67204269D01*
X139729061Y-67023319D01*
X139812343Y-66822258D01*
X139854800Y-66608813D01*
X139854800Y-66391187D01*
X140145200Y-66391187D01*
X140145200Y-66608813D01*
X140187657Y-66822258D01*
X140270939Y-67023319D01*
X140391846Y-67204269D01*
X140545731Y-67358154D01*
X140726681Y-67479061D01*
X140927742Y-67562343D01*
X141141187Y-67604800D01*
X141358813Y-67604800D01*
X141572258Y-67562343D01*
X141773319Y-67479061D01*
X141954269Y-67358154D01*
X142108154Y-67204269D01*
X142229061Y-67023319D01*
X142312343Y-66822258D01*
X142354800Y-66608813D01*
X142354800Y-66391187D01*
X142312343Y-66177742D01*
X142229061Y-65976681D01*
X142108154Y-65795731D01*
X141954269Y-65641846D01*
X141773319Y-65520939D01*
X141572258Y-65437657D01*
X141358813Y-65395200D01*
X141141187Y-65395200D01*
X140927742Y-65437657D01*
X140726681Y-65520939D01*
X140545731Y-65641846D01*
X140391846Y-65795731D01*
X140270939Y-65976681D01*
X140187657Y-66177742D01*
X140145200Y-66391187D01*
X139854800Y-66391187D01*
X139812343Y-66177742D01*
X139729061Y-65976681D01*
X139608154Y-65795731D01*
X139454269Y-65641846D01*
X139273319Y-65520939D01*
X139072258Y-65437657D01*
X138858813Y-65395200D01*
X138641187Y-65395200D01*
X138427742Y-65437657D01*
X138226681Y-65520939D01*
X138045731Y-65641846D01*
X137891846Y-65795731D01*
X137770939Y-65976681D01*
X137687657Y-66177742D01*
X137645200Y-66391187D01*
X137354800Y-66391187D01*
X137312343Y-66177742D01*
X137229061Y-65976681D01*
X137108154Y-65795731D01*
X136954269Y-65641846D01*
X136773319Y-65520939D01*
X136572258Y-65437657D01*
X136358813Y-65395200D01*
X136141187Y-65395200D01*
X135927742Y-65437657D01*
X135726681Y-65520939D01*
X135545731Y-65641846D01*
X135391846Y-65795731D01*
X135270939Y-65976681D01*
X135187657Y-66177742D01*
X135145200Y-66391187D01*
X132068274Y-66391187D01*
X132068274Y-66238000D01*
X132062389Y-66178249D01*
X132044960Y-66120794D01*
X132016658Y-66067843D01*
X131978568Y-66021432D01*
X131932157Y-65983342D01*
X131879206Y-65955040D01*
X131821751Y-65937611D01*
X131762000Y-65931726D01*
X131404800Y-65931726D01*
X131404800Y-64019798D01*
X131456130Y-63496300D01*
X131602413Y-63011785D01*
X131840020Y-62564911D01*
X132159900Y-62172701D01*
X132549868Y-61850090D01*
X132995069Y-61609372D01*
X133478552Y-61459707D01*
X134000970Y-61404800D01*
X145980202Y-61404800D01*
X146503700Y-61456130D01*
M02*
