G04 #@! TF.GenerationSoftware,KiCad,Pcbnew,(5.1.5)-2*
G04 #@! TF.CreationDate,2020-02-06T19:09:09-08:00*
G04 #@! TF.ProjectId,USB2RoMeLa_Boosted,55534232-526f-44d6-954c-615f426f6f73,rev?*
G04 #@! TF.SameCoordinates,Original*
G04 #@! TF.FileFunction,Copper,L2,Inr*
G04 #@! TF.FilePolarity,Positive*
%FSLAX46Y46*%
G04 Gerber Fmt 4.6, Leading zero omitted, Abs format (unit mm)*
G04 Created by KiCad (PCBNEW (5.1.5)-2) date 2020-02-06 19:09:09*
%MOMM*%
%LPD*%
G04 APERTURE LIST*
%ADD10C,1.600000*%
%ADD11R,1.600000X1.600000*%
%ADD12C,3.200000*%
%ADD13R,1.200000X1.700000*%
%ADD14R,1.524000X1.524000*%
%ADD15C,0.609600*%
%ADD16C,0.203200*%
G04 APERTURE END LIST*
D10*
X136250000Y-66500000D03*
X138750000Y-66500000D03*
X141250000Y-66500000D03*
D11*
X143750000Y-66500000D03*
D12*
X145700000Y-90000000D03*
X134300000Y-90000000D03*
D13*
X143500000Y-87900000D03*
X141000000Y-87900000D03*
X139000000Y-87900000D03*
X136500000Y-87900000D03*
D14*
X131000000Y-67000000D03*
X131000000Y-69000000D03*
X131000000Y-71000000D03*
X131000000Y-73000000D03*
X131000000Y-75000000D03*
X131000000Y-77000000D03*
X131000000Y-79000000D03*
X131000000Y-81000000D03*
X131000000Y-83000000D03*
X131000000Y-85000000D03*
X149000000Y-67000000D03*
X149000000Y-69000000D03*
X149000000Y-71000000D03*
X149000000Y-73000000D03*
X149000000Y-75000000D03*
X149000000Y-77000000D03*
X149000000Y-79000000D03*
X149000000Y-81000000D03*
X149000000Y-83000000D03*
X149000000Y-85000000D03*
D15*
X137142500Y-76167500D03*
X137142500Y-74861600D03*
X138882400Y-74861600D03*
X138867500Y-76167500D03*
X142476500Y-80411500D03*
X143708400Y-80449600D03*
X144551200Y-61983800D03*
X145186200Y-62618800D03*
X143916200Y-62618800D03*
X146604000Y-63774500D03*
X144000500Y-79141500D03*
X136761500Y-82062500D03*
X138069600Y-84488200D03*
X146073194Y-80773194D03*
X132761000Y-64346000D03*
X134208800Y-67343200D03*
X143683000Y-76157000D03*
X139009400Y-86317000D03*
X144902194Y-84742200D03*
X146350000Y-84767600D03*
X141295400Y-83726200D03*
X139669800Y-81922800D03*
X134183400Y-84132600D03*
X135707400Y-84462800D03*
X146547990Y-77998624D03*
X146451600Y-71813600D03*
X133299200Y-71170800D03*
X142946400Y-85351800D03*
X144343400Y-74810800D03*
X134742200Y-82532408D03*
X137180600Y-84005600D03*
X145740400Y-79382800D03*
X145500000Y-81750000D03*
X146604000Y-76080800D03*
X143556000Y-83167400D03*
X146400000Y-65600000D03*
X145435600Y-69324400D03*
X145465800Y-70535800D03*
X144648200Y-76461800D03*
X138349000Y-79560600D03*
X144254500Y-77236500D03*
X143733800Y-77833400D03*
X142235836Y-81379854D03*
X140762000Y-79586000D03*
X141422400Y-76614200D03*
X133324600Y-79908400D03*
X141422400Y-74277400D03*
X134416800Y-73177400D03*
X132938800Y-75166400D03*
X146324600Y-83192800D03*
X141448771Y-78532971D03*
X146858000Y-68968800D03*
X135128000Y-72847200D03*
X147594596Y-75090200D03*
X147315200Y-73540800D03*
X141193800Y-75623600D03*
X136525000Y-70231000D03*
X135432800Y-78841600D03*
X133116600Y-75928400D03*
X137007600Y-69596000D03*
X135275600Y-68918000D03*
X132608600Y-76538000D03*
X138679200Y-71127800D03*
X135585200Y-77520800D03*
X135936000Y-78252500D03*
X142921000Y-72169200D03*
X140355600Y-77647800D03*
X139670450Y-71077390D03*
X133091200Y-77147600D03*
D16*
G36*
X146503700Y-61456130D02*
G01*
X146988215Y-61602413D01*
X147435089Y-61840020D01*
X147827299Y-62159900D01*
X148149910Y-62549868D01*
X148390628Y-62995069D01*
X148540293Y-63478552D01*
X148595200Y-64000970D01*
X148595200Y-65931726D01*
X148238000Y-65931726D01*
X148178249Y-65937611D01*
X148120794Y-65955040D01*
X148067843Y-65983342D01*
X148021432Y-66021432D01*
X147983342Y-66067843D01*
X147955040Y-66120794D01*
X147937611Y-66178249D01*
X147931726Y-66238000D01*
X147931726Y-67762000D01*
X147937611Y-67821751D01*
X147955040Y-67879206D01*
X147983342Y-67932157D01*
X148021432Y-67978568D01*
X148047546Y-68000000D01*
X148021432Y-68021432D01*
X147983342Y-68067843D01*
X147955040Y-68120794D01*
X147937611Y-68178249D01*
X147931726Y-68238000D01*
X147931726Y-69762000D01*
X147937611Y-69821751D01*
X147955040Y-69879206D01*
X147983342Y-69932157D01*
X148010224Y-69964911D01*
X147985336Y-69985336D01*
X147940898Y-70039483D01*
X147907878Y-70101259D01*
X147887545Y-70168290D01*
X147880679Y-70238000D01*
X147882400Y-70758700D01*
X147971300Y-70847600D01*
X148595200Y-70847600D01*
X148595200Y-71152400D01*
X147971300Y-71152400D01*
X147882400Y-71241300D01*
X147880679Y-71762000D01*
X147887545Y-71831710D01*
X147907878Y-71898741D01*
X147940898Y-71960517D01*
X147973301Y-72000000D01*
X147940898Y-72039483D01*
X147907878Y-72101259D01*
X147887545Y-72168290D01*
X147880679Y-72238000D01*
X147882400Y-72758700D01*
X147971300Y-72847600D01*
X148595200Y-72847600D01*
X148595200Y-73152400D01*
X147971300Y-73152400D01*
X147882400Y-73241300D01*
X147882151Y-73316578D01*
X147855421Y-73252046D01*
X147788708Y-73152202D01*
X147703798Y-73067292D01*
X147603954Y-73000579D01*
X147493014Y-72954626D01*
X147375240Y-72931200D01*
X147255160Y-72931200D01*
X147137386Y-72954626D01*
X147026446Y-73000579D01*
X146926602Y-73067292D01*
X146841692Y-73152202D01*
X146774979Y-73252046D01*
X146729026Y-73362986D01*
X146705600Y-73480760D01*
X146705600Y-73600840D01*
X146729026Y-73718614D01*
X146774979Y-73829554D01*
X146841692Y-73929398D01*
X146926602Y-74014308D01*
X147026446Y-74081021D01*
X147137386Y-74126974D01*
X147255160Y-74150400D01*
X147375240Y-74150400D01*
X147493014Y-74126974D01*
X147603954Y-74081021D01*
X147703798Y-74014308D01*
X147788708Y-73929398D01*
X147855421Y-73829554D01*
X147881202Y-73767313D01*
X147887545Y-73831710D01*
X147907878Y-73898741D01*
X147940898Y-73960517D01*
X147985336Y-74014664D01*
X148010224Y-74035089D01*
X147983342Y-74067843D01*
X147955040Y-74120794D01*
X147937611Y-74178249D01*
X147931726Y-74238000D01*
X147931726Y-74582303D01*
X147883350Y-74549979D01*
X147772410Y-74504026D01*
X147654636Y-74480600D01*
X147534556Y-74480600D01*
X147416782Y-74504026D01*
X147305842Y-74549979D01*
X147205998Y-74616692D01*
X147121088Y-74701602D01*
X147054375Y-74801446D01*
X147008422Y-74912386D01*
X146984996Y-75030160D01*
X146984996Y-75150240D01*
X147008422Y-75268014D01*
X147054375Y-75378954D01*
X147121088Y-75478798D01*
X147205998Y-75563708D01*
X147305842Y-75630421D01*
X147416782Y-75676374D01*
X147534556Y-75699800D01*
X147654636Y-75699800D01*
X147772410Y-75676374D01*
X147883350Y-75630421D01*
X147931726Y-75598097D01*
X147931726Y-75762000D01*
X147937611Y-75821751D01*
X147955040Y-75879206D01*
X147983342Y-75932157D01*
X148021432Y-75978568D01*
X148047546Y-76000000D01*
X148021432Y-76021432D01*
X147983342Y-76067843D01*
X147955040Y-76120794D01*
X147937611Y-76178249D01*
X147931726Y-76238000D01*
X147931726Y-77762000D01*
X147937611Y-77821751D01*
X147955040Y-77879206D01*
X147983342Y-77932157D01*
X148021432Y-77978568D01*
X148047546Y-78000000D01*
X148021432Y-78021432D01*
X147983342Y-78067843D01*
X147955040Y-78120794D01*
X147937611Y-78178249D01*
X147931726Y-78238000D01*
X147931726Y-79762000D01*
X147937611Y-79821751D01*
X147955040Y-79879206D01*
X147983342Y-79932157D01*
X148010224Y-79964911D01*
X147985336Y-79985336D01*
X147940898Y-80039483D01*
X147907878Y-80101259D01*
X147887545Y-80168290D01*
X147880679Y-80238000D01*
X147882400Y-80758700D01*
X147971300Y-80847600D01*
X148595201Y-80847600D01*
X148595201Y-81152400D01*
X147971300Y-81152400D01*
X147882400Y-81241300D01*
X147880679Y-81762000D01*
X147887545Y-81831710D01*
X147907878Y-81898741D01*
X147940898Y-81960517D01*
X147985336Y-82014664D01*
X148010224Y-82035089D01*
X147983342Y-82067843D01*
X147955040Y-82120794D01*
X147937611Y-82178249D01*
X147931726Y-82238000D01*
X147931726Y-83762000D01*
X147937611Y-83821751D01*
X147955040Y-83879206D01*
X147983342Y-83932157D01*
X148021432Y-83978568D01*
X148047546Y-84000000D01*
X148021432Y-84021432D01*
X147983342Y-84067843D01*
X147955040Y-84120794D01*
X147937611Y-84178249D01*
X147931726Y-84238000D01*
X147931726Y-85762000D01*
X147937611Y-85821751D01*
X147955040Y-85879206D01*
X147983342Y-85932157D01*
X148021432Y-85978568D01*
X148067843Y-86016658D01*
X148120794Y-86044960D01*
X148178249Y-86062389D01*
X148238000Y-86068274D01*
X148595201Y-86068274D01*
X148595201Y-89780193D01*
X148543870Y-90303700D01*
X148397587Y-90788215D01*
X148159981Y-91235087D01*
X147840101Y-91627299D01*
X147450132Y-91949910D01*
X147004931Y-92190628D01*
X146521443Y-92340293D01*
X145999039Y-92395200D01*
X134019797Y-92395200D01*
X133496300Y-92343870D01*
X133011785Y-92197587D01*
X132564913Y-91959981D01*
X132172701Y-91640101D01*
X131850090Y-91250132D01*
X131609372Y-90804931D01*
X131459707Y-90321443D01*
X131406204Y-89812394D01*
X132395200Y-89812394D01*
X132395200Y-90187606D01*
X132468400Y-90555610D01*
X132611988Y-90902261D01*
X132820445Y-91214240D01*
X133085760Y-91479555D01*
X133397739Y-91688012D01*
X133744390Y-91831600D01*
X134112394Y-91904800D01*
X134487606Y-91904800D01*
X134855610Y-91831600D01*
X135202261Y-91688012D01*
X135514240Y-91479555D01*
X135779555Y-91214240D01*
X135988012Y-90902261D01*
X136131600Y-90555610D01*
X136204800Y-90187606D01*
X136204800Y-89910885D01*
X136845200Y-89910885D01*
X136845200Y-90089115D01*
X136879971Y-90263920D01*
X136948177Y-90428584D01*
X137047196Y-90576776D01*
X137173224Y-90702804D01*
X137321416Y-90801823D01*
X137486080Y-90870029D01*
X137660885Y-90904800D01*
X137839115Y-90904800D01*
X138013920Y-90870029D01*
X138178584Y-90801823D01*
X138326776Y-90702804D01*
X138452804Y-90576776D01*
X138551823Y-90428584D01*
X138620029Y-90263920D01*
X138654800Y-90089115D01*
X138654800Y-89910885D01*
X141345200Y-89910885D01*
X141345200Y-90089115D01*
X141379971Y-90263920D01*
X141448177Y-90428584D01*
X141547196Y-90576776D01*
X141673224Y-90702804D01*
X141821416Y-90801823D01*
X141986080Y-90870029D01*
X142160885Y-90904800D01*
X142339115Y-90904800D01*
X142513920Y-90870029D01*
X142678584Y-90801823D01*
X142826776Y-90702804D01*
X142952804Y-90576776D01*
X143051823Y-90428584D01*
X143120029Y-90263920D01*
X143154800Y-90089115D01*
X143154800Y-89910885D01*
X143120029Y-89736080D01*
X143051823Y-89571416D01*
X142952804Y-89423224D01*
X142826776Y-89297196D01*
X142678584Y-89198177D01*
X142513920Y-89129971D01*
X142339115Y-89095200D01*
X142160885Y-89095200D01*
X141986080Y-89129971D01*
X141821416Y-89198177D01*
X141673224Y-89297196D01*
X141547196Y-89423224D01*
X141448177Y-89571416D01*
X141379971Y-89736080D01*
X141345200Y-89910885D01*
X138654800Y-89910885D01*
X138620029Y-89736080D01*
X138551823Y-89571416D01*
X138452804Y-89423224D01*
X138326776Y-89297196D01*
X138178584Y-89198177D01*
X138013920Y-89129971D01*
X137839115Y-89095200D01*
X137660885Y-89095200D01*
X137486080Y-89129971D01*
X137321416Y-89198177D01*
X137173224Y-89297196D01*
X137047196Y-89423224D01*
X136948177Y-89571416D01*
X136879971Y-89736080D01*
X136845200Y-89910885D01*
X136204800Y-89910885D01*
X136204800Y-89812394D01*
X136131600Y-89444390D01*
X135991799Y-89106881D01*
X136258700Y-89105600D01*
X136347600Y-89016700D01*
X136347600Y-88052400D01*
X136652400Y-88052400D01*
X136652400Y-89016700D01*
X136741300Y-89105600D01*
X137100000Y-89107321D01*
X137169710Y-89100455D01*
X137236741Y-89080122D01*
X137298517Y-89047102D01*
X137352664Y-89002664D01*
X137397102Y-88948517D01*
X137430122Y-88886741D01*
X137450455Y-88819710D01*
X137457321Y-88750000D01*
X137455600Y-88141300D01*
X137366700Y-88052400D01*
X136652400Y-88052400D01*
X136347600Y-88052400D01*
X135633300Y-88052400D01*
X135544400Y-88141300D01*
X135543246Y-88549451D01*
X135514240Y-88520445D01*
X135202261Y-88311988D01*
X134855610Y-88168400D01*
X134487606Y-88095200D01*
X134112394Y-88095200D01*
X133744390Y-88168400D01*
X133397739Y-88311988D01*
X133085760Y-88520445D01*
X132820445Y-88785760D01*
X132611988Y-89097739D01*
X132468400Y-89444390D01*
X132395200Y-89812394D01*
X131406204Y-89812394D01*
X131404800Y-89799039D01*
X131404800Y-87050000D01*
X135542679Y-87050000D01*
X135544400Y-87658700D01*
X135633300Y-87747600D01*
X136347600Y-87747600D01*
X136347600Y-86783300D01*
X136652400Y-86783300D01*
X136652400Y-87747600D01*
X137366700Y-87747600D01*
X137455600Y-87658700D01*
X137457321Y-87050000D01*
X138093726Y-87050000D01*
X138093726Y-88750000D01*
X138099611Y-88809751D01*
X138117040Y-88867206D01*
X138145342Y-88920157D01*
X138183432Y-88966568D01*
X138229843Y-89004658D01*
X138282794Y-89032960D01*
X138340249Y-89050389D01*
X138400000Y-89056274D01*
X139600000Y-89056274D01*
X139659751Y-89050389D01*
X139717206Y-89032960D01*
X139770157Y-89004658D01*
X139816568Y-88966568D01*
X139854658Y-88920157D01*
X139882960Y-88867206D01*
X139900389Y-88809751D01*
X139906274Y-88750000D01*
X139906274Y-87050000D01*
X140093726Y-87050000D01*
X140093726Y-88750000D01*
X140099611Y-88809751D01*
X140117040Y-88867206D01*
X140145342Y-88920157D01*
X140183432Y-88966568D01*
X140229843Y-89004658D01*
X140282794Y-89032960D01*
X140340249Y-89050389D01*
X140400000Y-89056274D01*
X141600000Y-89056274D01*
X141659751Y-89050389D01*
X141717206Y-89032960D01*
X141770157Y-89004658D01*
X141816568Y-88966568D01*
X141854658Y-88920157D01*
X141882960Y-88867206D01*
X141900389Y-88809751D01*
X141906274Y-88750000D01*
X141906274Y-87050000D01*
X142593726Y-87050000D01*
X142593726Y-88750000D01*
X142599611Y-88809751D01*
X142617040Y-88867206D01*
X142645342Y-88920157D01*
X142683432Y-88966568D01*
X142729843Y-89004658D01*
X142782794Y-89032960D01*
X142840249Y-89050389D01*
X142900000Y-89056274D01*
X144039694Y-89056274D01*
X144011988Y-89097739D01*
X143868400Y-89444390D01*
X143795200Y-89812394D01*
X143795200Y-90187606D01*
X143868400Y-90555610D01*
X144011988Y-90902261D01*
X144220445Y-91214240D01*
X144485760Y-91479555D01*
X144797739Y-91688012D01*
X145144390Y-91831600D01*
X145512394Y-91904800D01*
X145887606Y-91904800D01*
X146255610Y-91831600D01*
X146602261Y-91688012D01*
X146914240Y-91479555D01*
X147179555Y-91214240D01*
X147388012Y-90902261D01*
X147531600Y-90555610D01*
X147604800Y-90187606D01*
X147604800Y-89812394D01*
X147531600Y-89444390D01*
X147388012Y-89097739D01*
X147179555Y-88785760D01*
X146914240Y-88520445D01*
X146602261Y-88311988D01*
X146255610Y-88168400D01*
X145887606Y-88095200D01*
X145512394Y-88095200D01*
X145144390Y-88168400D01*
X144797739Y-88311988D01*
X144485760Y-88520445D01*
X144406274Y-88599931D01*
X144406274Y-87050000D01*
X144400389Y-86990249D01*
X144382960Y-86932794D01*
X144354658Y-86879843D01*
X144316568Y-86833432D01*
X144270157Y-86795342D01*
X144217206Y-86767040D01*
X144159751Y-86749611D01*
X144100000Y-86743726D01*
X142900000Y-86743726D01*
X142840249Y-86749611D01*
X142782794Y-86767040D01*
X142729843Y-86795342D01*
X142683432Y-86833432D01*
X142645342Y-86879843D01*
X142617040Y-86932794D01*
X142599611Y-86990249D01*
X142593726Y-87050000D01*
X141906274Y-87050000D01*
X141900389Y-86990249D01*
X141882960Y-86932794D01*
X141854658Y-86879843D01*
X141816568Y-86833432D01*
X141770157Y-86795342D01*
X141717206Y-86767040D01*
X141659751Y-86749611D01*
X141600000Y-86743726D01*
X140400000Y-86743726D01*
X140340249Y-86749611D01*
X140282794Y-86767040D01*
X140229843Y-86795342D01*
X140183432Y-86833432D01*
X140145342Y-86879843D01*
X140117040Y-86932794D01*
X140099611Y-86990249D01*
X140093726Y-87050000D01*
X139906274Y-87050000D01*
X139900389Y-86990249D01*
X139882960Y-86932794D01*
X139854658Y-86879843D01*
X139816568Y-86833432D01*
X139770157Y-86795342D01*
X139717206Y-86767040D01*
X139659751Y-86749611D01*
X139600000Y-86743726D01*
X138400000Y-86743726D01*
X138340249Y-86749611D01*
X138282794Y-86767040D01*
X138229843Y-86795342D01*
X138183432Y-86833432D01*
X138145342Y-86879843D01*
X138117040Y-86932794D01*
X138099611Y-86990249D01*
X138093726Y-87050000D01*
X137457321Y-87050000D01*
X137450455Y-86980290D01*
X137430122Y-86913259D01*
X137397102Y-86851483D01*
X137352664Y-86797336D01*
X137298517Y-86752898D01*
X137236741Y-86719878D01*
X137169710Y-86699545D01*
X137100000Y-86692679D01*
X136741300Y-86694400D01*
X136652400Y-86783300D01*
X136347600Y-86783300D01*
X136258700Y-86694400D01*
X135900000Y-86692679D01*
X135830290Y-86699545D01*
X135763259Y-86719878D01*
X135701483Y-86752898D01*
X135647336Y-86797336D01*
X135602898Y-86851483D01*
X135569878Y-86913259D01*
X135549545Y-86980290D01*
X135542679Y-87050000D01*
X131404800Y-87050000D01*
X131404800Y-86068274D01*
X131762000Y-86068274D01*
X131821751Y-86062389D01*
X131879206Y-86044960D01*
X131932157Y-86016658D01*
X131978568Y-85978568D01*
X132016658Y-85932157D01*
X132044960Y-85879206D01*
X132062389Y-85821751D01*
X132068274Y-85762000D01*
X132068274Y-85291760D01*
X142336800Y-85291760D01*
X142336800Y-85411840D01*
X142360226Y-85529614D01*
X142406179Y-85640554D01*
X142472892Y-85740398D01*
X142557802Y-85825308D01*
X142657646Y-85892021D01*
X142768586Y-85937974D01*
X142886360Y-85961400D01*
X143006440Y-85961400D01*
X143124214Y-85937974D01*
X143235154Y-85892021D01*
X143334998Y-85825308D01*
X143419908Y-85740398D01*
X143486621Y-85640554D01*
X143532574Y-85529614D01*
X143556000Y-85411840D01*
X143556000Y-85291760D01*
X143532574Y-85173986D01*
X143486621Y-85063046D01*
X143419908Y-84963202D01*
X143334998Y-84878292D01*
X143235154Y-84811579D01*
X143124214Y-84765626D01*
X143006440Y-84742200D01*
X142886360Y-84742200D01*
X142768586Y-84765626D01*
X142657646Y-84811579D01*
X142557802Y-84878292D01*
X142472892Y-84963202D01*
X142406179Y-85063046D01*
X142360226Y-85173986D01*
X142336800Y-85291760D01*
X132068274Y-85291760D01*
X132068274Y-84238000D01*
X132062389Y-84178249D01*
X132044960Y-84120794D01*
X132016658Y-84067843D01*
X131978568Y-84021432D01*
X131952454Y-84000000D01*
X131978568Y-83978568D01*
X132005658Y-83945560D01*
X136571000Y-83945560D01*
X136571000Y-84065640D01*
X136594426Y-84183414D01*
X136640379Y-84294354D01*
X136707092Y-84394198D01*
X136792002Y-84479108D01*
X136891846Y-84545821D01*
X137002786Y-84591774D01*
X137120560Y-84615200D01*
X137240640Y-84615200D01*
X137358414Y-84591774D01*
X137469354Y-84545821D01*
X137569198Y-84479108D01*
X137654108Y-84394198D01*
X137720821Y-84294354D01*
X137766774Y-84183414D01*
X137790200Y-84065640D01*
X137790200Y-83945560D01*
X137766774Y-83827786D01*
X137720821Y-83716846D01*
X137654108Y-83617002D01*
X137569198Y-83532092D01*
X137469354Y-83465379D01*
X137358414Y-83419426D01*
X137240640Y-83396000D01*
X137120560Y-83396000D01*
X137002786Y-83419426D01*
X136891846Y-83465379D01*
X136792002Y-83532092D01*
X136707092Y-83617002D01*
X136640379Y-83716846D01*
X136594426Y-83827786D01*
X136571000Y-83945560D01*
X132005658Y-83945560D01*
X132016658Y-83932157D01*
X132044960Y-83879206D01*
X132062389Y-83821751D01*
X132068274Y-83762000D01*
X132068274Y-82472368D01*
X134132600Y-82472368D01*
X134132600Y-82592448D01*
X134156026Y-82710222D01*
X134201979Y-82821162D01*
X134268692Y-82921006D01*
X134353602Y-83005916D01*
X134453446Y-83072629D01*
X134564386Y-83118582D01*
X134682160Y-83142008D01*
X134802240Y-83142008D01*
X134920014Y-83118582D01*
X134947106Y-83107360D01*
X142946400Y-83107360D01*
X142946400Y-83227440D01*
X142969826Y-83345214D01*
X143015779Y-83456154D01*
X143082492Y-83555998D01*
X143167402Y-83640908D01*
X143267246Y-83707621D01*
X143378186Y-83753574D01*
X143495960Y-83777000D01*
X143616040Y-83777000D01*
X143733814Y-83753574D01*
X143844754Y-83707621D01*
X143944598Y-83640908D01*
X144029508Y-83555998D01*
X144096221Y-83456154D01*
X144142174Y-83345214D01*
X144165600Y-83227440D01*
X144165600Y-83132760D01*
X145715000Y-83132760D01*
X145715000Y-83252840D01*
X145738426Y-83370614D01*
X145784379Y-83481554D01*
X145851092Y-83581398D01*
X145936002Y-83666308D01*
X146035846Y-83733021D01*
X146146786Y-83778974D01*
X146264560Y-83802400D01*
X146384640Y-83802400D01*
X146502414Y-83778974D01*
X146613354Y-83733021D01*
X146713198Y-83666308D01*
X146798108Y-83581398D01*
X146864821Y-83481554D01*
X146910774Y-83370614D01*
X146934200Y-83252840D01*
X146934200Y-83132760D01*
X146910774Y-83014986D01*
X146864821Y-82904046D01*
X146798108Y-82804202D01*
X146713198Y-82719292D01*
X146613354Y-82652579D01*
X146502414Y-82606626D01*
X146384640Y-82583200D01*
X146264560Y-82583200D01*
X146146786Y-82606626D01*
X146035846Y-82652579D01*
X145936002Y-82719292D01*
X145851092Y-82804202D01*
X145784379Y-82904046D01*
X145738426Y-83014986D01*
X145715000Y-83132760D01*
X144165600Y-83132760D01*
X144165600Y-83107360D01*
X144142174Y-82989586D01*
X144096221Y-82878646D01*
X144029508Y-82778802D01*
X143944598Y-82693892D01*
X143844754Y-82627179D01*
X143733814Y-82581226D01*
X143616040Y-82557800D01*
X143495960Y-82557800D01*
X143378186Y-82581226D01*
X143267246Y-82627179D01*
X143167402Y-82693892D01*
X143082492Y-82778802D01*
X143015779Y-82878646D01*
X142969826Y-82989586D01*
X142946400Y-83107360D01*
X134947106Y-83107360D01*
X135030954Y-83072629D01*
X135130798Y-83005916D01*
X135215708Y-82921006D01*
X135282421Y-82821162D01*
X135328374Y-82710222D01*
X135351800Y-82592448D01*
X135351800Y-82472368D01*
X135328374Y-82354594D01*
X135282421Y-82243654D01*
X135215708Y-82143810D01*
X135130798Y-82058900D01*
X135030954Y-81992187D01*
X134920014Y-81946234D01*
X134802240Y-81922808D01*
X134682160Y-81922808D01*
X134564386Y-81946234D01*
X134453446Y-81992187D01*
X134353602Y-82058900D01*
X134268692Y-82143810D01*
X134201979Y-82243654D01*
X134156026Y-82354594D01*
X134132600Y-82472368D01*
X132068274Y-82472368D01*
X132068274Y-82238000D01*
X132062389Y-82178249D01*
X132044960Y-82120794D01*
X132016658Y-82067843D01*
X131978568Y-82021432D01*
X131952454Y-82000000D01*
X131978568Y-81978568D01*
X132016658Y-81932157D01*
X132044960Y-81879206D01*
X132062389Y-81821751D01*
X132068274Y-81762000D01*
X132068274Y-81319814D01*
X141626236Y-81319814D01*
X141626236Y-81439894D01*
X141649662Y-81557668D01*
X141695615Y-81668608D01*
X141762328Y-81768452D01*
X141847238Y-81853362D01*
X141947082Y-81920075D01*
X142058022Y-81966028D01*
X142175796Y-81989454D01*
X142295876Y-81989454D01*
X142413650Y-81966028D01*
X142524590Y-81920075D01*
X142624434Y-81853362D01*
X142709344Y-81768452D01*
X142761790Y-81689960D01*
X144890400Y-81689960D01*
X144890400Y-81810040D01*
X144913826Y-81927814D01*
X144959779Y-82038754D01*
X145026492Y-82138598D01*
X145111402Y-82223508D01*
X145211246Y-82290221D01*
X145322186Y-82336174D01*
X145439960Y-82359600D01*
X145560040Y-82359600D01*
X145677814Y-82336174D01*
X145788754Y-82290221D01*
X145888598Y-82223508D01*
X145973508Y-82138598D01*
X146040221Y-82038754D01*
X146086174Y-81927814D01*
X146109600Y-81810040D01*
X146109600Y-81689960D01*
X146086174Y-81572186D01*
X146040221Y-81461246D01*
X145973508Y-81361402D01*
X145888598Y-81276492D01*
X145788754Y-81209779D01*
X145677814Y-81163826D01*
X145560040Y-81140400D01*
X145439960Y-81140400D01*
X145322186Y-81163826D01*
X145211246Y-81209779D01*
X145111402Y-81276492D01*
X145026492Y-81361402D01*
X144959779Y-81461246D01*
X144913826Y-81572186D01*
X144890400Y-81689960D01*
X142761790Y-81689960D01*
X142776057Y-81668608D01*
X142822010Y-81557668D01*
X142845436Y-81439894D01*
X142845436Y-81319814D01*
X142822010Y-81202040D01*
X142776057Y-81091100D01*
X142709344Y-80991256D01*
X142624434Y-80906346D01*
X142524590Y-80839633D01*
X142413650Y-80793680D01*
X142295876Y-80770254D01*
X142175796Y-80770254D01*
X142058022Y-80793680D01*
X141947082Y-80839633D01*
X141847238Y-80906346D01*
X141762328Y-80991256D01*
X141695615Y-81091100D01*
X141649662Y-81202040D01*
X141626236Y-81319814D01*
X132068274Y-81319814D01*
X132068274Y-80238000D01*
X132062389Y-80178249D01*
X132044960Y-80120794D01*
X132016658Y-80067843D01*
X131978568Y-80021432D01*
X131952454Y-80000000D01*
X131978568Y-79978568D01*
X132016658Y-79932157D01*
X132044960Y-79879206D01*
X132054317Y-79848360D01*
X132715000Y-79848360D01*
X132715000Y-79968440D01*
X132738426Y-80086214D01*
X132784379Y-80197154D01*
X132851092Y-80296998D01*
X132936002Y-80381908D01*
X133035846Y-80448621D01*
X133146786Y-80494574D01*
X133264560Y-80518000D01*
X133384640Y-80518000D01*
X133502414Y-80494574D01*
X133613354Y-80448621D01*
X133713198Y-80381908D01*
X133798108Y-80296998D01*
X133864821Y-80197154D01*
X133910774Y-80086214D01*
X133934200Y-79968440D01*
X133934200Y-79848360D01*
X133910774Y-79730586D01*
X133864821Y-79619646D01*
X133798108Y-79519802D01*
X133778866Y-79500560D01*
X137739400Y-79500560D01*
X137739400Y-79620640D01*
X137762826Y-79738414D01*
X137808779Y-79849354D01*
X137875492Y-79949198D01*
X137960402Y-80034108D01*
X138060246Y-80100821D01*
X138171186Y-80146774D01*
X138288960Y-80170200D01*
X138409040Y-80170200D01*
X138526814Y-80146774D01*
X138637754Y-80100821D01*
X138737598Y-80034108D01*
X138822508Y-79949198D01*
X138889221Y-79849354D01*
X138935174Y-79738414D01*
X138958600Y-79620640D01*
X138958600Y-79525960D01*
X140152400Y-79525960D01*
X140152400Y-79646040D01*
X140175826Y-79763814D01*
X140221779Y-79874754D01*
X140288492Y-79974598D01*
X140373402Y-80059508D01*
X140473246Y-80126221D01*
X140584186Y-80172174D01*
X140701960Y-80195600D01*
X140822040Y-80195600D01*
X140939814Y-80172174D01*
X141050754Y-80126221D01*
X141150598Y-80059508D01*
X141235508Y-79974598D01*
X141302221Y-79874754D01*
X141348174Y-79763814D01*
X141371600Y-79646040D01*
X141371600Y-79525960D01*
X141348174Y-79408186D01*
X141312790Y-79322760D01*
X145130800Y-79322760D01*
X145130800Y-79442840D01*
X145154226Y-79560614D01*
X145200179Y-79671554D01*
X145266892Y-79771398D01*
X145351802Y-79856308D01*
X145451646Y-79923021D01*
X145562586Y-79968974D01*
X145680360Y-79992400D01*
X145800440Y-79992400D01*
X145918214Y-79968974D01*
X146029154Y-79923021D01*
X146128998Y-79856308D01*
X146213908Y-79771398D01*
X146280621Y-79671554D01*
X146326574Y-79560614D01*
X146350000Y-79442840D01*
X146350000Y-79322760D01*
X146326574Y-79204986D01*
X146280621Y-79094046D01*
X146213908Y-78994202D01*
X146128998Y-78909292D01*
X146029154Y-78842579D01*
X145918214Y-78796626D01*
X145800440Y-78773200D01*
X145680360Y-78773200D01*
X145562586Y-78796626D01*
X145451646Y-78842579D01*
X145351802Y-78909292D01*
X145266892Y-78994202D01*
X145200179Y-79094046D01*
X145154226Y-79204986D01*
X145130800Y-79322760D01*
X141312790Y-79322760D01*
X141302221Y-79297246D01*
X141235508Y-79197402D01*
X141150598Y-79112492D01*
X141050754Y-79045779D01*
X140939814Y-78999826D01*
X140822040Y-78976400D01*
X140701960Y-78976400D01*
X140584186Y-78999826D01*
X140473246Y-79045779D01*
X140373402Y-79112492D01*
X140288492Y-79197402D01*
X140221779Y-79297246D01*
X140175826Y-79408186D01*
X140152400Y-79525960D01*
X138958600Y-79525960D01*
X138958600Y-79500560D01*
X138935174Y-79382786D01*
X138889221Y-79271846D01*
X138822508Y-79172002D01*
X138737598Y-79087092D01*
X138637754Y-79020379D01*
X138526814Y-78974426D01*
X138409040Y-78951000D01*
X138288960Y-78951000D01*
X138171186Y-78974426D01*
X138060246Y-79020379D01*
X137960402Y-79087092D01*
X137875492Y-79172002D01*
X137808779Y-79271846D01*
X137762826Y-79382786D01*
X137739400Y-79500560D01*
X133778866Y-79500560D01*
X133713198Y-79434892D01*
X133613354Y-79368179D01*
X133502414Y-79322226D01*
X133384640Y-79298800D01*
X133264560Y-79298800D01*
X133146786Y-79322226D01*
X133035846Y-79368179D01*
X132936002Y-79434892D01*
X132851092Y-79519802D01*
X132784379Y-79619646D01*
X132738426Y-79730586D01*
X132715000Y-79848360D01*
X132054317Y-79848360D01*
X132062389Y-79821751D01*
X132068274Y-79762000D01*
X132068274Y-78781560D01*
X134823200Y-78781560D01*
X134823200Y-78901640D01*
X134846626Y-79019414D01*
X134892579Y-79130354D01*
X134959292Y-79230198D01*
X135044202Y-79315108D01*
X135144046Y-79381821D01*
X135254986Y-79427774D01*
X135372760Y-79451200D01*
X135492840Y-79451200D01*
X135610614Y-79427774D01*
X135721554Y-79381821D01*
X135821398Y-79315108D01*
X135906308Y-79230198D01*
X135973021Y-79130354D01*
X136018974Y-79019414D01*
X136042400Y-78901640D01*
X136042400Y-78852879D01*
X136113814Y-78838674D01*
X136224754Y-78792721D01*
X136324598Y-78726008D01*
X136409508Y-78641098D01*
X136476221Y-78541254D01*
X136504521Y-78472931D01*
X140839171Y-78472931D01*
X140839171Y-78593011D01*
X140862597Y-78710785D01*
X140908550Y-78821725D01*
X140975263Y-78921569D01*
X141060173Y-79006479D01*
X141160017Y-79073192D01*
X141270957Y-79119145D01*
X141388731Y-79142571D01*
X141508811Y-79142571D01*
X141626585Y-79119145D01*
X141737525Y-79073192D01*
X141837369Y-79006479D01*
X141922279Y-78921569D01*
X141988992Y-78821725D01*
X142034945Y-78710785D01*
X142058371Y-78593011D01*
X142058371Y-78472931D01*
X142034945Y-78355157D01*
X141988992Y-78244217D01*
X141922279Y-78144373D01*
X141837369Y-78059463D01*
X141737525Y-77992750D01*
X141626585Y-77946797D01*
X141508811Y-77923371D01*
X141388731Y-77923371D01*
X141270957Y-77946797D01*
X141160017Y-77992750D01*
X141060173Y-78059463D01*
X140975263Y-78144373D01*
X140908550Y-78244217D01*
X140862597Y-78355157D01*
X140839171Y-78472931D01*
X136504521Y-78472931D01*
X136522174Y-78430314D01*
X136545600Y-78312540D01*
X136545600Y-78192460D01*
X136522174Y-78074686D01*
X136476221Y-77963746D01*
X136409508Y-77863902D01*
X136324598Y-77778992D01*
X136224754Y-77712279D01*
X136172926Y-77690811D01*
X136193423Y-77587760D01*
X139746000Y-77587760D01*
X139746000Y-77707840D01*
X139769426Y-77825614D01*
X139815379Y-77936554D01*
X139882092Y-78036398D01*
X139967002Y-78121308D01*
X140066846Y-78188021D01*
X140177786Y-78233974D01*
X140295560Y-78257400D01*
X140415640Y-78257400D01*
X140533414Y-78233974D01*
X140644354Y-78188021D01*
X140744198Y-78121308D01*
X140829108Y-78036398D01*
X140895821Y-77936554D01*
X140941774Y-77825614D01*
X140952167Y-77773360D01*
X143124200Y-77773360D01*
X143124200Y-77893440D01*
X143147626Y-78011214D01*
X143193579Y-78122154D01*
X143260292Y-78221998D01*
X143345202Y-78306908D01*
X143445046Y-78373621D01*
X143555986Y-78419574D01*
X143673760Y-78443000D01*
X143793840Y-78443000D01*
X143911614Y-78419574D01*
X144022554Y-78373621D01*
X144122398Y-78306908D01*
X144207308Y-78221998D01*
X144274021Y-78122154D01*
X144319974Y-78011214D01*
X144343400Y-77893440D01*
X144343400Y-77840360D01*
X144432314Y-77822674D01*
X144543254Y-77776721D01*
X144643098Y-77710008D01*
X144728008Y-77625098D01*
X144794721Y-77525254D01*
X144840674Y-77414314D01*
X144864100Y-77296540D01*
X144864100Y-77176460D01*
X144840674Y-77058686D01*
X144834740Y-77044360D01*
X144936954Y-77002021D01*
X145036798Y-76935308D01*
X145121708Y-76850398D01*
X145188421Y-76750554D01*
X145234374Y-76639614D01*
X145257800Y-76521840D01*
X145257800Y-76401760D01*
X145234374Y-76283986D01*
X145188421Y-76173046D01*
X145121708Y-76073202D01*
X145069266Y-76020760D01*
X145994400Y-76020760D01*
X145994400Y-76140840D01*
X146017826Y-76258614D01*
X146063779Y-76369554D01*
X146130492Y-76469398D01*
X146215402Y-76554308D01*
X146315246Y-76621021D01*
X146426186Y-76666974D01*
X146543960Y-76690400D01*
X146664040Y-76690400D01*
X146781814Y-76666974D01*
X146892754Y-76621021D01*
X146992598Y-76554308D01*
X147077508Y-76469398D01*
X147144221Y-76369554D01*
X147190174Y-76258614D01*
X147213600Y-76140840D01*
X147213600Y-76020760D01*
X147190174Y-75902986D01*
X147144221Y-75792046D01*
X147077508Y-75692202D01*
X146992598Y-75607292D01*
X146892754Y-75540579D01*
X146781814Y-75494626D01*
X146664040Y-75471200D01*
X146543960Y-75471200D01*
X146426186Y-75494626D01*
X146315246Y-75540579D01*
X146215402Y-75607292D01*
X146130492Y-75692202D01*
X146063779Y-75792046D01*
X146017826Y-75902986D01*
X145994400Y-76020760D01*
X145069266Y-76020760D01*
X145036798Y-75988292D01*
X144936954Y-75921579D01*
X144826014Y-75875626D01*
X144708240Y-75852200D01*
X144588160Y-75852200D01*
X144470386Y-75875626D01*
X144359446Y-75921579D01*
X144259602Y-75988292D01*
X144174692Y-76073202D01*
X144107979Y-76173046D01*
X144062026Y-76283986D01*
X144038600Y-76401760D01*
X144038600Y-76521840D01*
X144062026Y-76639614D01*
X144067960Y-76653940D01*
X143965746Y-76696279D01*
X143865902Y-76762992D01*
X143780992Y-76847902D01*
X143714279Y-76947746D01*
X143668326Y-77058686D01*
X143644900Y-77176460D01*
X143644900Y-77229540D01*
X143555986Y-77247226D01*
X143445046Y-77293179D01*
X143345202Y-77359892D01*
X143260292Y-77444802D01*
X143193579Y-77544646D01*
X143147626Y-77655586D01*
X143124200Y-77773360D01*
X140952167Y-77773360D01*
X140965200Y-77707840D01*
X140965200Y-77587760D01*
X140941774Y-77469986D01*
X140895821Y-77359046D01*
X140829108Y-77259202D01*
X140744198Y-77174292D01*
X140644354Y-77107579D01*
X140533414Y-77061626D01*
X140415640Y-77038200D01*
X140295560Y-77038200D01*
X140177786Y-77061626D01*
X140066846Y-77107579D01*
X139967002Y-77174292D01*
X139882092Y-77259202D01*
X139815379Y-77359046D01*
X139769426Y-77469986D01*
X139746000Y-77587760D01*
X136193423Y-77587760D01*
X136194800Y-77580840D01*
X136194800Y-77460760D01*
X136171374Y-77342986D01*
X136125421Y-77232046D01*
X136058708Y-77132202D01*
X135973798Y-77047292D01*
X135873954Y-76980579D01*
X135763014Y-76934626D01*
X135645240Y-76911200D01*
X135525160Y-76911200D01*
X135407386Y-76934626D01*
X135296446Y-76980579D01*
X135196602Y-77047292D01*
X135111692Y-77132202D01*
X135044979Y-77232046D01*
X134999026Y-77342986D01*
X134975600Y-77460760D01*
X134975600Y-77580840D01*
X134999026Y-77698614D01*
X135044979Y-77809554D01*
X135111692Y-77909398D01*
X135196602Y-77994308D01*
X135296446Y-78061021D01*
X135348274Y-78082489D01*
X135326400Y-78192460D01*
X135326400Y-78241221D01*
X135254986Y-78255426D01*
X135144046Y-78301379D01*
X135044202Y-78368092D01*
X134959292Y-78453002D01*
X134892579Y-78552846D01*
X134846626Y-78663786D01*
X134823200Y-78781560D01*
X132068274Y-78781560D01*
X132068274Y-78238000D01*
X132062389Y-78178249D01*
X132044960Y-78120794D01*
X132016658Y-78067843D01*
X131978568Y-78021432D01*
X131952454Y-78000000D01*
X131978568Y-77978568D01*
X132016658Y-77932157D01*
X132044960Y-77879206D01*
X132062389Y-77821751D01*
X132068274Y-77762000D01*
X132068274Y-76826501D01*
X132068379Y-76826754D01*
X132135092Y-76926598D01*
X132220002Y-77011508D01*
X132319846Y-77078221D01*
X132430786Y-77124174D01*
X132481600Y-77134281D01*
X132481600Y-77207640D01*
X132505026Y-77325414D01*
X132550979Y-77436354D01*
X132617692Y-77536198D01*
X132702602Y-77621108D01*
X132802446Y-77687821D01*
X132913386Y-77733774D01*
X133031160Y-77757200D01*
X133151240Y-77757200D01*
X133269014Y-77733774D01*
X133379954Y-77687821D01*
X133479798Y-77621108D01*
X133564708Y-77536198D01*
X133631421Y-77436354D01*
X133677374Y-77325414D01*
X133700800Y-77207640D01*
X133700800Y-77087560D01*
X133677374Y-76969786D01*
X133631421Y-76858846D01*
X133564708Y-76759002D01*
X133479798Y-76674092D01*
X133379954Y-76607379D01*
X133269014Y-76561426D01*
X133218200Y-76551319D01*
X133218200Y-76529733D01*
X133294414Y-76514574D01*
X133405354Y-76468621D01*
X133505198Y-76401908D01*
X133590108Y-76316998D01*
X133656821Y-76217154D01*
X133702774Y-76106214D01*
X133726200Y-75988440D01*
X133726200Y-75868360D01*
X133702774Y-75750586D01*
X133656821Y-75639646D01*
X133605983Y-75563560D01*
X140584200Y-75563560D01*
X140584200Y-75683640D01*
X140607626Y-75801414D01*
X140653579Y-75912354D01*
X140720292Y-76012198D01*
X140805202Y-76097108D01*
X140905046Y-76163821D01*
X140979735Y-76194759D01*
X140948892Y-76225602D01*
X140882179Y-76325446D01*
X140836226Y-76436386D01*
X140812800Y-76554160D01*
X140812800Y-76674240D01*
X140836226Y-76792014D01*
X140882179Y-76902954D01*
X140948892Y-77002798D01*
X141033802Y-77087708D01*
X141133646Y-77154421D01*
X141244586Y-77200374D01*
X141362360Y-77223800D01*
X141482440Y-77223800D01*
X141600214Y-77200374D01*
X141711154Y-77154421D01*
X141810998Y-77087708D01*
X141895908Y-77002798D01*
X141962621Y-76902954D01*
X142008574Y-76792014D01*
X142032000Y-76674240D01*
X142032000Y-76554160D01*
X142008574Y-76436386D01*
X141962621Y-76325446D01*
X141895908Y-76225602D01*
X141810998Y-76140692D01*
X141711154Y-76073979D01*
X141636465Y-76043041D01*
X141667308Y-76012198D01*
X141734021Y-75912354D01*
X141779974Y-75801414D01*
X141803400Y-75683640D01*
X141803400Y-75563560D01*
X141779974Y-75445786D01*
X141734021Y-75334846D01*
X141667308Y-75235002D01*
X141582398Y-75150092D01*
X141482554Y-75083379D01*
X141371614Y-75037426D01*
X141253840Y-75014000D01*
X141133760Y-75014000D01*
X141015986Y-75037426D01*
X140905046Y-75083379D01*
X140805202Y-75150092D01*
X140720292Y-75235002D01*
X140653579Y-75334846D01*
X140607626Y-75445786D01*
X140584200Y-75563560D01*
X133605983Y-75563560D01*
X133590108Y-75539802D01*
X133505198Y-75454892D01*
X133484780Y-75441250D01*
X133524974Y-75344214D01*
X133548400Y-75226440D01*
X133548400Y-75106360D01*
X133524974Y-74988586D01*
X133479021Y-74877646D01*
X133412308Y-74777802D01*
X133327398Y-74692892D01*
X133227554Y-74626179D01*
X133116614Y-74580226D01*
X132998840Y-74556800D01*
X132878760Y-74556800D01*
X132760986Y-74580226D01*
X132650046Y-74626179D01*
X132550202Y-74692892D01*
X132465292Y-74777802D01*
X132398579Y-74877646D01*
X132352626Y-74988586D01*
X132329200Y-75106360D01*
X132329200Y-75226440D01*
X132352626Y-75344214D01*
X132398579Y-75455154D01*
X132465292Y-75554998D01*
X132550202Y-75639908D01*
X132570620Y-75653550D01*
X132530426Y-75750586D01*
X132507000Y-75868360D01*
X132507000Y-75936667D01*
X132430786Y-75951826D01*
X132319846Y-75997779D01*
X132220002Y-76064492D01*
X132135092Y-76149402D01*
X132068379Y-76249246D01*
X132068274Y-76249499D01*
X132068274Y-76238000D01*
X132062389Y-76178249D01*
X132044960Y-76120794D01*
X132016658Y-76067843D01*
X131978568Y-76021432D01*
X131952454Y-76000000D01*
X131978568Y-75978568D01*
X132016658Y-75932157D01*
X132044960Y-75879206D01*
X132062389Y-75821751D01*
X132068274Y-75762000D01*
X132068274Y-74238000D01*
X132066242Y-74217360D01*
X140812800Y-74217360D01*
X140812800Y-74337440D01*
X140836226Y-74455214D01*
X140882179Y-74566154D01*
X140948892Y-74665998D01*
X141033802Y-74750908D01*
X141133646Y-74817621D01*
X141244586Y-74863574D01*
X141362360Y-74887000D01*
X141482440Y-74887000D01*
X141600214Y-74863574D01*
X141711154Y-74817621D01*
X141810998Y-74750908D01*
X141811146Y-74750760D01*
X143733800Y-74750760D01*
X143733800Y-74870840D01*
X143757226Y-74988614D01*
X143803179Y-75099554D01*
X143869892Y-75199398D01*
X143954802Y-75284308D01*
X144054646Y-75351021D01*
X144165586Y-75396974D01*
X144283360Y-75420400D01*
X144403440Y-75420400D01*
X144521214Y-75396974D01*
X144632154Y-75351021D01*
X144731998Y-75284308D01*
X144816908Y-75199398D01*
X144883621Y-75099554D01*
X144929574Y-74988614D01*
X144953000Y-74870840D01*
X144953000Y-74750760D01*
X144929574Y-74632986D01*
X144883621Y-74522046D01*
X144816908Y-74422202D01*
X144731998Y-74337292D01*
X144632154Y-74270579D01*
X144521214Y-74224626D01*
X144403440Y-74201200D01*
X144283360Y-74201200D01*
X144165586Y-74224626D01*
X144054646Y-74270579D01*
X143954802Y-74337292D01*
X143869892Y-74422202D01*
X143803179Y-74522046D01*
X143757226Y-74632986D01*
X143733800Y-74750760D01*
X141811146Y-74750760D01*
X141895908Y-74665998D01*
X141962621Y-74566154D01*
X142008574Y-74455214D01*
X142032000Y-74337440D01*
X142032000Y-74217360D01*
X142008574Y-74099586D01*
X141962621Y-73988646D01*
X141895908Y-73888802D01*
X141810998Y-73803892D01*
X141711154Y-73737179D01*
X141600214Y-73691226D01*
X141482440Y-73667800D01*
X141362360Y-73667800D01*
X141244586Y-73691226D01*
X141133646Y-73737179D01*
X141033802Y-73803892D01*
X140948892Y-73888802D01*
X140882179Y-73988646D01*
X140836226Y-74099586D01*
X140812800Y-74217360D01*
X132066242Y-74217360D01*
X132062389Y-74178249D01*
X132044960Y-74120794D01*
X132016658Y-74067843D01*
X131978568Y-74021432D01*
X131952454Y-74000000D01*
X131978568Y-73978568D01*
X132016658Y-73932157D01*
X132044960Y-73879206D01*
X132062389Y-73821751D01*
X132068274Y-73762000D01*
X132068274Y-73117360D01*
X133807200Y-73117360D01*
X133807200Y-73237440D01*
X133830626Y-73355214D01*
X133876579Y-73466154D01*
X133943292Y-73565998D01*
X134028202Y-73650908D01*
X134128046Y-73717621D01*
X134238986Y-73763574D01*
X134356760Y-73787000D01*
X134476840Y-73787000D01*
X134594614Y-73763574D01*
X134705554Y-73717621D01*
X134805398Y-73650908D01*
X134890308Y-73565998D01*
X134957021Y-73466154D01*
X134969045Y-73437125D01*
X135067960Y-73456800D01*
X135188040Y-73456800D01*
X135305814Y-73433374D01*
X135416754Y-73387421D01*
X135516598Y-73320708D01*
X135601508Y-73235798D01*
X135668221Y-73135954D01*
X135714174Y-73025014D01*
X135737600Y-72907240D01*
X135737600Y-72787160D01*
X135714174Y-72669386D01*
X135668221Y-72558446D01*
X135601508Y-72458602D01*
X135516598Y-72373692D01*
X135416754Y-72306979D01*
X135305814Y-72261026D01*
X135188040Y-72237600D01*
X135067960Y-72237600D01*
X134950186Y-72261026D01*
X134839246Y-72306979D01*
X134739402Y-72373692D01*
X134654492Y-72458602D01*
X134587779Y-72558446D01*
X134575755Y-72587475D01*
X134476840Y-72567800D01*
X134356760Y-72567800D01*
X134238986Y-72591226D01*
X134128046Y-72637179D01*
X134028202Y-72703892D01*
X133943292Y-72788802D01*
X133876579Y-72888646D01*
X133830626Y-72999586D01*
X133807200Y-73117360D01*
X132068274Y-73117360D01*
X132068274Y-72238000D01*
X132062389Y-72178249D01*
X132044960Y-72120794D01*
X132038742Y-72109160D01*
X142311400Y-72109160D01*
X142311400Y-72229240D01*
X142334826Y-72347014D01*
X142380779Y-72457954D01*
X142447492Y-72557798D01*
X142532402Y-72642708D01*
X142632246Y-72709421D01*
X142743186Y-72755374D01*
X142860960Y-72778800D01*
X142981040Y-72778800D01*
X143098814Y-72755374D01*
X143209754Y-72709421D01*
X143309598Y-72642708D01*
X143394508Y-72557798D01*
X143461221Y-72457954D01*
X143507174Y-72347014D01*
X143530600Y-72229240D01*
X143530600Y-72109160D01*
X143507174Y-71991386D01*
X143461221Y-71880446D01*
X143394508Y-71780602D01*
X143309598Y-71695692D01*
X143209754Y-71628979D01*
X143098814Y-71583026D01*
X142981040Y-71559600D01*
X142860960Y-71559600D01*
X142743186Y-71583026D01*
X142632246Y-71628979D01*
X142532402Y-71695692D01*
X142447492Y-71780602D01*
X142380779Y-71880446D01*
X142334826Y-71991386D01*
X142311400Y-72109160D01*
X132038742Y-72109160D01*
X132016658Y-72067843D01*
X131978568Y-72021432D01*
X131952454Y-72000000D01*
X131978568Y-71978568D01*
X132016658Y-71932157D01*
X132044960Y-71879206D01*
X132062389Y-71821751D01*
X132068274Y-71762000D01*
X132068274Y-71067760D01*
X138069600Y-71067760D01*
X138069600Y-71187840D01*
X138093026Y-71305614D01*
X138138979Y-71416554D01*
X138205692Y-71516398D01*
X138290602Y-71601308D01*
X138390446Y-71668021D01*
X138501386Y-71713974D01*
X138619160Y-71737400D01*
X138739240Y-71737400D01*
X138857014Y-71713974D01*
X138967954Y-71668021D01*
X139067798Y-71601308D01*
X139152708Y-71516398D01*
X139191666Y-71458092D01*
X139196942Y-71465988D01*
X139281852Y-71550898D01*
X139381696Y-71617611D01*
X139492636Y-71663564D01*
X139610410Y-71686990D01*
X139730490Y-71686990D01*
X139848264Y-71663564D01*
X139959204Y-71617611D01*
X140059048Y-71550898D01*
X140143958Y-71465988D01*
X140210671Y-71366144D01*
X140256624Y-71255204D01*
X140280050Y-71137430D01*
X140280050Y-71017350D01*
X140256624Y-70899576D01*
X140210671Y-70788636D01*
X140143958Y-70688792D01*
X140059048Y-70603882D01*
X139959204Y-70537169D01*
X139848264Y-70491216D01*
X139730490Y-70467790D01*
X139610410Y-70467790D01*
X139492636Y-70491216D01*
X139381696Y-70537169D01*
X139281852Y-70603882D01*
X139196942Y-70688792D01*
X139157984Y-70747098D01*
X139152708Y-70739202D01*
X139067798Y-70654292D01*
X138967954Y-70587579D01*
X138857014Y-70541626D01*
X138739240Y-70518200D01*
X138619160Y-70518200D01*
X138501386Y-70541626D01*
X138390446Y-70587579D01*
X138290602Y-70654292D01*
X138205692Y-70739202D01*
X138138979Y-70839046D01*
X138093026Y-70949986D01*
X138069600Y-71067760D01*
X132068274Y-71067760D01*
X132068274Y-70238000D01*
X132062389Y-70178249D01*
X132060178Y-70170960D01*
X135915400Y-70170960D01*
X135915400Y-70291040D01*
X135938826Y-70408814D01*
X135984779Y-70519754D01*
X136051492Y-70619598D01*
X136136402Y-70704508D01*
X136236246Y-70771221D01*
X136347186Y-70817174D01*
X136464960Y-70840600D01*
X136585040Y-70840600D01*
X136702814Y-70817174D01*
X136813754Y-70771221D01*
X136913598Y-70704508D01*
X136998508Y-70619598D01*
X137065221Y-70519754D01*
X137111174Y-70408814D01*
X137134600Y-70291040D01*
X137134600Y-70192281D01*
X137185414Y-70182174D01*
X137296354Y-70136221D01*
X137396198Y-70069508D01*
X137481108Y-69984598D01*
X137547821Y-69884754D01*
X137593774Y-69773814D01*
X137617200Y-69656040D01*
X137617200Y-69535960D01*
X137593774Y-69418186D01*
X137547821Y-69307246D01*
X137519166Y-69264360D01*
X144826000Y-69264360D01*
X144826000Y-69384440D01*
X144849426Y-69502214D01*
X144895379Y-69613154D01*
X144962092Y-69712998D01*
X145047002Y-69797908D01*
X145146846Y-69864621D01*
X145257786Y-69910574D01*
X145371053Y-69933103D01*
X145287986Y-69949626D01*
X145177046Y-69995579D01*
X145077202Y-70062292D01*
X144992292Y-70147202D01*
X144925579Y-70247046D01*
X144879626Y-70357986D01*
X144856200Y-70475760D01*
X144856200Y-70595840D01*
X144879626Y-70713614D01*
X144925579Y-70824554D01*
X144992292Y-70924398D01*
X145077202Y-71009308D01*
X145177046Y-71076021D01*
X145287986Y-71121974D01*
X145405760Y-71145400D01*
X145525840Y-71145400D01*
X145643614Y-71121974D01*
X145754554Y-71076021D01*
X145854398Y-71009308D01*
X145939308Y-70924398D01*
X146006021Y-70824554D01*
X146051974Y-70713614D01*
X146075400Y-70595840D01*
X146075400Y-70475760D01*
X146051974Y-70357986D01*
X146006021Y-70247046D01*
X145939308Y-70147202D01*
X145854398Y-70062292D01*
X145754554Y-69995579D01*
X145643614Y-69949626D01*
X145530347Y-69927097D01*
X145613414Y-69910574D01*
X145724354Y-69864621D01*
X145824198Y-69797908D01*
X145909108Y-69712998D01*
X145975821Y-69613154D01*
X146021774Y-69502214D01*
X146045200Y-69384440D01*
X146045200Y-69264360D01*
X146021774Y-69146586D01*
X145975821Y-69035646D01*
X145909108Y-68935802D01*
X145882066Y-68908760D01*
X146248400Y-68908760D01*
X146248400Y-69028840D01*
X146271826Y-69146614D01*
X146317779Y-69257554D01*
X146384492Y-69357398D01*
X146469402Y-69442308D01*
X146569246Y-69509021D01*
X146680186Y-69554974D01*
X146797960Y-69578400D01*
X146918040Y-69578400D01*
X147035814Y-69554974D01*
X147146754Y-69509021D01*
X147246598Y-69442308D01*
X147331508Y-69357398D01*
X147398221Y-69257554D01*
X147444174Y-69146614D01*
X147467600Y-69028840D01*
X147467600Y-68908760D01*
X147444174Y-68790986D01*
X147398221Y-68680046D01*
X147331508Y-68580202D01*
X147246598Y-68495292D01*
X147146754Y-68428579D01*
X147035814Y-68382626D01*
X146918040Y-68359200D01*
X146797960Y-68359200D01*
X146680186Y-68382626D01*
X146569246Y-68428579D01*
X146469402Y-68495292D01*
X146384492Y-68580202D01*
X146317779Y-68680046D01*
X146271826Y-68790986D01*
X146248400Y-68908760D01*
X145882066Y-68908760D01*
X145824198Y-68850892D01*
X145724354Y-68784179D01*
X145613414Y-68738226D01*
X145495640Y-68714800D01*
X145375560Y-68714800D01*
X145257786Y-68738226D01*
X145146846Y-68784179D01*
X145047002Y-68850892D01*
X144962092Y-68935802D01*
X144895379Y-69035646D01*
X144849426Y-69146586D01*
X144826000Y-69264360D01*
X137519166Y-69264360D01*
X137481108Y-69207402D01*
X137396198Y-69122492D01*
X137296354Y-69055779D01*
X137185414Y-69009826D01*
X137067640Y-68986400D01*
X136947560Y-68986400D01*
X136829786Y-69009826D01*
X136718846Y-69055779D01*
X136619002Y-69122492D01*
X136534092Y-69207402D01*
X136467379Y-69307246D01*
X136421426Y-69418186D01*
X136398000Y-69535960D01*
X136398000Y-69634719D01*
X136347186Y-69644826D01*
X136236246Y-69690779D01*
X136136402Y-69757492D01*
X136051492Y-69842402D01*
X135984779Y-69942246D01*
X135938826Y-70053186D01*
X135915400Y-70170960D01*
X132060178Y-70170960D01*
X132044960Y-70120794D01*
X132016658Y-70067843D01*
X131978568Y-70021432D01*
X131952454Y-70000000D01*
X131978568Y-69978568D01*
X132016658Y-69932157D01*
X132044960Y-69879206D01*
X132062389Y-69821751D01*
X132068274Y-69762000D01*
X132068274Y-68857960D01*
X134666000Y-68857960D01*
X134666000Y-68978040D01*
X134689426Y-69095814D01*
X134735379Y-69206754D01*
X134802092Y-69306598D01*
X134887002Y-69391508D01*
X134986846Y-69458221D01*
X135097786Y-69504174D01*
X135215560Y-69527600D01*
X135335640Y-69527600D01*
X135453414Y-69504174D01*
X135564354Y-69458221D01*
X135664198Y-69391508D01*
X135749108Y-69306598D01*
X135815821Y-69206754D01*
X135861774Y-69095814D01*
X135885200Y-68978040D01*
X135885200Y-68857960D01*
X135861774Y-68740186D01*
X135815821Y-68629246D01*
X135749108Y-68529402D01*
X135664198Y-68444492D01*
X135564354Y-68377779D01*
X135453414Y-68331826D01*
X135335640Y-68308400D01*
X135215560Y-68308400D01*
X135097786Y-68331826D01*
X134986846Y-68377779D01*
X134887002Y-68444492D01*
X134802092Y-68529402D01*
X134735379Y-68629246D01*
X134689426Y-68740186D01*
X134666000Y-68857960D01*
X132068274Y-68857960D01*
X132068274Y-68238000D01*
X132062389Y-68178249D01*
X132044960Y-68120794D01*
X132016658Y-68067843D01*
X131978568Y-68021432D01*
X131952454Y-68000000D01*
X131978568Y-67978568D01*
X132016658Y-67932157D01*
X132044960Y-67879206D01*
X132062389Y-67821751D01*
X132068274Y-67762000D01*
X132068274Y-66391187D01*
X135145200Y-66391187D01*
X135145200Y-66608813D01*
X135187657Y-66822258D01*
X135270939Y-67023319D01*
X135391846Y-67204269D01*
X135545731Y-67358154D01*
X135726681Y-67479061D01*
X135927742Y-67562343D01*
X136141187Y-67604800D01*
X136358813Y-67604800D01*
X136572258Y-67562343D01*
X136773319Y-67479061D01*
X136954269Y-67358154D01*
X137108154Y-67204269D01*
X137229061Y-67023319D01*
X137312343Y-66822258D01*
X137354800Y-66608813D01*
X137354800Y-66391187D01*
X137645200Y-66391187D01*
X137645200Y-66608813D01*
X137687657Y-66822258D01*
X137770939Y-67023319D01*
X137891846Y-67204269D01*
X138045731Y-67358154D01*
X138226681Y-67479061D01*
X138427742Y-67562343D01*
X138641187Y-67604800D01*
X138858813Y-67604800D01*
X139072258Y-67562343D01*
X139273319Y-67479061D01*
X139454269Y-67358154D01*
X139608154Y-67204269D01*
X139729061Y-67023319D01*
X139812343Y-66822258D01*
X139854800Y-66608813D01*
X139854800Y-66391187D01*
X140145200Y-66391187D01*
X140145200Y-66608813D01*
X140187657Y-66822258D01*
X140270939Y-67023319D01*
X140391846Y-67204269D01*
X140545731Y-67358154D01*
X140726681Y-67479061D01*
X140927742Y-67562343D01*
X141141187Y-67604800D01*
X141358813Y-67604800D01*
X141572258Y-67562343D01*
X141773319Y-67479061D01*
X141954269Y-67358154D01*
X142108154Y-67204269D01*
X142229061Y-67023319D01*
X142312343Y-66822258D01*
X142354800Y-66608813D01*
X142354800Y-66391187D01*
X142312343Y-66177742D01*
X142229061Y-65976681D01*
X142108154Y-65795731D01*
X142012423Y-65700000D01*
X142643726Y-65700000D01*
X142643726Y-67300000D01*
X142649611Y-67359751D01*
X142667040Y-67417206D01*
X142695342Y-67470157D01*
X142733432Y-67516568D01*
X142779843Y-67554658D01*
X142832794Y-67582960D01*
X142890249Y-67600389D01*
X142950000Y-67606274D01*
X144550000Y-67606274D01*
X144609751Y-67600389D01*
X144667206Y-67582960D01*
X144720157Y-67554658D01*
X144766568Y-67516568D01*
X144804658Y-67470157D01*
X144832960Y-67417206D01*
X144850389Y-67359751D01*
X144856274Y-67300000D01*
X144856274Y-65700000D01*
X144850389Y-65640249D01*
X144832960Y-65582794D01*
X144810066Y-65539960D01*
X145790400Y-65539960D01*
X145790400Y-65660040D01*
X145813826Y-65777814D01*
X145859779Y-65888754D01*
X145926492Y-65988598D01*
X146011402Y-66073508D01*
X146111246Y-66140221D01*
X146222186Y-66186174D01*
X146339960Y-66209600D01*
X146460040Y-66209600D01*
X146577814Y-66186174D01*
X146688754Y-66140221D01*
X146788598Y-66073508D01*
X146873508Y-65988598D01*
X146940221Y-65888754D01*
X146986174Y-65777814D01*
X147009600Y-65660040D01*
X147009600Y-65539960D01*
X146986174Y-65422186D01*
X146940221Y-65311246D01*
X146873508Y-65211402D01*
X146788598Y-65126492D01*
X146688754Y-65059779D01*
X146577814Y-65013826D01*
X146460040Y-64990400D01*
X146339960Y-64990400D01*
X146222186Y-65013826D01*
X146111246Y-65059779D01*
X146011402Y-65126492D01*
X145926492Y-65211402D01*
X145859779Y-65311246D01*
X145813826Y-65422186D01*
X145790400Y-65539960D01*
X144810066Y-65539960D01*
X144804658Y-65529843D01*
X144766568Y-65483432D01*
X144720157Y-65445342D01*
X144667206Y-65417040D01*
X144609751Y-65399611D01*
X144550000Y-65393726D01*
X142950000Y-65393726D01*
X142890249Y-65399611D01*
X142832794Y-65417040D01*
X142779843Y-65445342D01*
X142733432Y-65483432D01*
X142695342Y-65529843D01*
X142667040Y-65582794D01*
X142649611Y-65640249D01*
X142643726Y-65700000D01*
X142012423Y-65700000D01*
X141954269Y-65641846D01*
X141773319Y-65520939D01*
X141572258Y-65437657D01*
X141358813Y-65395200D01*
X141141187Y-65395200D01*
X140927742Y-65437657D01*
X140726681Y-65520939D01*
X140545731Y-65641846D01*
X140391846Y-65795731D01*
X140270939Y-65976681D01*
X140187657Y-66177742D01*
X140145200Y-66391187D01*
X139854800Y-66391187D01*
X139812343Y-66177742D01*
X139729061Y-65976681D01*
X139608154Y-65795731D01*
X139454269Y-65641846D01*
X139273319Y-65520939D01*
X139072258Y-65437657D01*
X138858813Y-65395200D01*
X138641187Y-65395200D01*
X138427742Y-65437657D01*
X138226681Y-65520939D01*
X138045731Y-65641846D01*
X137891846Y-65795731D01*
X137770939Y-65976681D01*
X137687657Y-66177742D01*
X137645200Y-66391187D01*
X137354800Y-66391187D01*
X137312343Y-66177742D01*
X137229061Y-65976681D01*
X137108154Y-65795731D01*
X136954269Y-65641846D01*
X136773319Y-65520939D01*
X136572258Y-65437657D01*
X136358813Y-65395200D01*
X136141187Y-65395200D01*
X135927742Y-65437657D01*
X135726681Y-65520939D01*
X135545731Y-65641846D01*
X135391846Y-65795731D01*
X135270939Y-65976681D01*
X135187657Y-66177742D01*
X135145200Y-66391187D01*
X132068274Y-66391187D01*
X132068274Y-66238000D01*
X132062389Y-66178249D01*
X132044960Y-66120794D01*
X132016658Y-66067843D01*
X131978568Y-66021432D01*
X131932157Y-65983342D01*
X131879206Y-65955040D01*
X131821751Y-65937611D01*
X131762000Y-65931726D01*
X131404800Y-65931726D01*
X131404800Y-64019798D01*
X131456130Y-63496300D01*
X131602413Y-63011785D01*
X131840020Y-62564911D01*
X132159900Y-62172701D01*
X132549868Y-61850090D01*
X132995069Y-61609372D01*
X133478552Y-61459707D01*
X134000970Y-61404800D01*
X145980202Y-61404800D01*
X146503700Y-61456130D01*
G37*
X146503700Y-61456130D02*
X146988215Y-61602413D01*
X147435089Y-61840020D01*
X147827299Y-62159900D01*
X148149910Y-62549868D01*
X148390628Y-62995069D01*
X148540293Y-63478552D01*
X148595200Y-64000970D01*
X148595200Y-65931726D01*
X148238000Y-65931726D01*
X148178249Y-65937611D01*
X148120794Y-65955040D01*
X148067843Y-65983342D01*
X148021432Y-66021432D01*
X147983342Y-66067843D01*
X147955040Y-66120794D01*
X147937611Y-66178249D01*
X147931726Y-66238000D01*
X147931726Y-67762000D01*
X147937611Y-67821751D01*
X147955040Y-67879206D01*
X147983342Y-67932157D01*
X148021432Y-67978568D01*
X148047546Y-68000000D01*
X148021432Y-68021432D01*
X147983342Y-68067843D01*
X147955040Y-68120794D01*
X147937611Y-68178249D01*
X147931726Y-68238000D01*
X147931726Y-69762000D01*
X147937611Y-69821751D01*
X147955040Y-69879206D01*
X147983342Y-69932157D01*
X148010224Y-69964911D01*
X147985336Y-69985336D01*
X147940898Y-70039483D01*
X147907878Y-70101259D01*
X147887545Y-70168290D01*
X147880679Y-70238000D01*
X147882400Y-70758700D01*
X147971300Y-70847600D01*
X148595200Y-70847600D01*
X148595200Y-71152400D01*
X147971300Y-71152400D01*
X147882400Y-71241300D01*
X147880679Y-71762000D01*
X147887545Y-71831710D01*
X147907878Y-71898741D01*
X147940898Y-71960517D01*
X147973301Y-72000000D01*
X147940898Y-72039483D01*
X147907878Y-72101259D01*
X147887545Y-72168290D01*
X147880679Y-72238000D01*
X147882400Y-72758700D01*
X147971300Y-72847600D01*
X148595200Y-72847600D01*
X148595200Y-73152400D01*
X147971300Y-73152400D01*
X147882400Y-73241300D01*
X147882151Y-73316578D01*
X147855421Y-73252046D01*
X147788708Y-73152202D01*
X147703798Y-73067292D01*
X147603954Y-73000579D01*
X147493014Y-72954626D01*
X147375240Y-72931200D01*
X147255160Y-72931200D01*
X147137386Y-72954626D01*
X147026446Y-73000579D01*
X146926602Y-73067292D01*
X146841692Y-73152202D01*
X146774979Y-73252046D01*
X146729026Y-73362986D01*
X146705600Y-73480760D01*
X146705600Y-73600840D01*
X146729026Y-73718614D01*
X146774979Y-73829554D01*
X146841692Y-73929398D01*
X146926602Y-74014308D01*
X147026446Y-74081021D01*
X147137386Y-74126974D01*
X147255160Y-74150400D01*
X147375240Y-74150400D01*
X147493014Y-74126974D01*
X147603954Y-74081021D01*
X147703798Y-74014308D01*
X147788708Y-73929398D01*
X147855421Y-73829554D01*
X147881202Y-73767313D01*
X147887545Y-73831710D01*
X147907878Y-73898741D01*
X147940898Y-73960517D01*
X147985336Y-74014664D01*
X148010224Y-74035089D01*
X147983342Y-74067843D01*
X147955040Y-74120794D01*
X147937611Y-74178249D01*
X147931726Y-74238000D01*
X147931726Y-74582303D01*
X147883350Y-74549979D01*
X147772410Y-74504026D01*
X147654636Y-74480600D01*
X147534556Y-74480600D01*
X147416782Y-74504026D01*
X147305842Y-74549979D01*
X147205998Y-74616692D01*
X147121088Y-74701602D01*
X147054375Y-74801446D01*
X147008422Y-74912386D01*
X146984996Y-75030160D01*
X146984996Y-75150240D01*
X147008422Y-75268014D01*
X147054375Y-75378954D01*
X147121088Y-75478798D01*
X147205998Y-75563708D01*
X147305842Y-75630421D01*
X147416782Y-75676374D01*
X147534556Y-75699800D01*
X147654636Y-75699800D01*
X147772410Y-75676374D01*
X147883350Y-75630421D01*
X147931726Y-75598097D01*
X147931726Y-75762000D01*
X147937611Y-75821751D01*
X147955040Y-75879206D01*
X147983342Y-75932157D01*
X148021432Y-75978568D01*
X148047546Y-76000000D01*
X148021432Y-76021432D01*
X147983342Y-76067843D01*
X147955040Y-76120794D01*
X147937611Y-76178249D01*
X147931726Y-76238000D01*
X147931726Y-77762000D01*
X147937611Y-77821751D01*
X147955040Y-77879206D01*
X147983342Y-77932157D01*
X148021432Y-77978568D01*
X148047546Y-78000000D01*
X148021432Y-78021432D01*
X147983342Y-78067843D01*
X147955040Y-78120794D01*
X147937611Y-78178249D01*
X147931726Y-78238000D01*
X147931726Y-79762000D01*
X147937611Y-79821751D01*
X147955040Y-79879206D01*
X147983342Y-79932157D01*
X148010224Y-79964911D01*
X147985336Y-79985336D01*
X147940898Y-80039483D01*
X147907878Y-80101259D01*
X147887545Y-80168290D01*
X147880679Y-80238000D01*
X147882400Y-80758700D01*
X147971300Y-80847600D01*
X148595201Y-80847600D01*
X148595201Y-81152400D01*
X147971300Y-81152400D01*
X147882400Y-81241300D01*
X147880679Y-81762000D01*
X147887545Y-81831710D01*
X147907878Y-81898741D01*
X147940898Y-81960517D01*
X147985336Y-82014664D01*
X148010224Y-82035089D01*
X147983342Y-82067843D01*
X147955040Y-82120794D01*
X147937611Y-82178249D01*
X147931726Y-82238000D01*
X147931726Y-83762000D01*
X147937611Y-83821751D01*
X147955040Y-83879206D01*
X147983342Y-83932157D01*
X148021432Y-83978568D01*
X148047546Y-84000000D01*
X148021432Y-84021432D01*
X147983342Y-84067843D01*
X147955040Y-84120794D01*
X147937611Y-84178249D01*
X147931726Y-84238000D01*
X147931726Y-85762000D01*
X147937611Y-85821751D01*
X147955040Y-85879206D01*
X147983342Y-85932157D01*
X148021432Y-85978568D01*
X148067843Y-86016658D01*
X148120794Y-86044960D01*
X148178249Y-86062389D01*
X148238000Y-86068274D01*
X148595201Y-86068274D01*
X148595201Y-89780193D01*
X148543870Y-90303700D01*
X148397587Y-90788215D01*
X148159981Y-91235087D01*
X147840101Y-91627299D01*
X147450132Y-91949910D01*
X147004931Y-92190628D01*
X146521443Y-92340293D01*
X145999039Y-92395200D01*
X134019797Y-92395200D01*
X133496300Y-92343870D01*
X133011785Y-92197587D01*
X132564913Y-91959981D01*
X132172701Y-91640101D01*
X131850090Y-91250132D01*
X131609372Y-90804931D01*
X131459707Y-90321443D01*
X131406204Y-89812394D01*
X132395200Y-89812394D01*
X132395200Y-90187606D01*
X132468400Y-90555610D01*
X132611988Y-90902261D01*
X132820445Y-91214240D01*
X133085760Y-91479555D01*
X133397739Y-91688012D01*
X133744390Y-91831600D01*
X134112394Y-91904800D01*
X134487606Y-91904800D01*
X134855610Y-91831600D01*
X135202261Y-91688012D01*
X135514240Y-91479555D01*
X135779555Y-91214240D01*
X135988012Y-90902261D01*
X136131600Y-90555610D01*
X136204800Y-90187606D01*
X136204800Y-89910885D01*
X136845200Y-89910885D01*
X136845200Y-90089115D01*
X136879971Y-90263920D01*
X136948177Y-90428584D01*
X137047196Y-90576776D01*
X137173224Y-90702804D01*
X137321416Y-90801823D01*
X137486080Y-90870029D01*
X137660885Y-90904800D01*
X137839115Y-90904800D01*
X138013920Y-90870029D01*
X138178584Y-90801823D01*
X138326776Y-90702804D01*
X138452804Y-90576776D01*
X138551823Y-90428584D01*
X138620029Y-90263920D01*
X138654800Y-90089115D01*
X138654800Y-89910885D01*
X141345200Y-89910885D01*
X141345200Y-90089115D01*
X141379971Y-90263920D01*
X141448177Y-90428584D01*
X141547196Y-90576776D01*
X141673224Y-90702804D01*
X141821416Y-90801823D01*
X141986080Y-90870029D01*
X142160885Y-90904800D01*
X142339115Y-90904800D01*
X142513920Y-90870029D01*
X142678584Y-90801823D01*
X142826776Y-90702804D01*
X142952804Y-90576776D01*
X143051823Y-90428584D01*
X143120029Y-90263920D01*
X143154800Y-90089115D01*
X143154800Y-89910885D01*
X143120029Y-89736080D01*
X143051823Y-89571416D01*
X142952804Y-89423224D01*
X142826776Y-89297196D01*
X142678584Y-89198177D01*
X142513920Y-89129971D01*
X142339115Y-89095200D01*
X142160885Y-89095200D01*
X141986080Y-89129971D01*
X141821416Y-89198177D01*
X141673224Y-89297196D01*
X141547196Y-89423224D01*
X141448177Y-89571416D01*
X141379971Y-89736080D01*
X141345200Y-89910885D01*
X138654800Y-89910885D01*
X138620029Y-89736080D01*
X138551823Y-89571416D01*
X138452804Y-89423224D01*
X138326776Y-89297196D01*
X138178584Y-89198177D01*
X138013920Y-89129971D01*
X137839115Y-89095200D01*
X137660885Y-89095200D01*
X137486080Y-89129971D01*
X137321416Y-89198177D01*
X137173224Y-89297196D01*
X137047196Y-89423224D01*
X136948177Y-89571416D01*
X136879971Y-89736080D01*
X136845200Y-89910885D01*
X136204800Y-89910885D01*
X136204800Y-89812394D01*
X136131600Y-89444390D01*
X135991799Y-89106881D01*
X136258700Y-89105600D01*
X136347600Y-89016700D01*
X136347600Y-88052400D01*
X136652400Y-88052400D01*
X136652400Y-89016700D01*
X136741300Y-89105600D01*
X137100000Y-89107321D01*
X137169710Y-89100455D01*
X137236741Y-89080122D01*
X137298517Y-89047102D01*
X137352664Y-89002664D01*
X137397102Y-88948517D01*
X137430122Y-88886741D01*
X137450455Y-88819710D01*
X137457321Y-88750000D01*
X137455600Y-88141300D01*
X137366700Y-88052400D01*
X136652400Y-88052400D01*
X136347600Y-88052400D01*
X135633300Y-88052400D01*
X135544400Y-88141300D01*
X135543246Y-88549451D01*
X135514240Y-88520445D01*
X135202261Y-88311988D01*
X134855610Y-88168400D01*
X134487606Y-88095200D01*
X134112394Y-88095200D01*
X133744390Y-88168400D01*
X133397739Y-88311988D01*
X133085760Y-88520445D01*
X132820445Y-88785760D01*
X132611988Y-89097739D01*
X132468400Y-89444390D01*
X132395200Y-89812394D01*
X131406204Y-89812394D01*
X131404800Y-89799039D01*
X131404800Y-87050000D01*
X135542679Y-87050000D01*
X135544400Y-87658700D01*
X135633300Y-87747600D01*
X136347600Y-87747600D01*
X136347600Y-86783300D01*
X136652400Y-86783300D01*
X136652400Y-87747600D01*
X137366700Y-87747600D01*
X137455600Y-87658700D01*
X137457321Y-87050000D01*
X138093726Y-87050000D01*
X138093726Y-88750000D01*
X138099611Y-88809751D01*
X138117040Y-88867206D01*
X138145342Y-88920157D01*
X138183432Y-88966568D01*
X138229843Y-89004658D01*
X138282794Y-89032960D01*
X138340249Y-89050389D01*
X138400000Y-89056274D01*
X139600000Y-89056274D01*
X139659751Y-89050389D01*
X139717206Y-89032960D01*
X139770157Y-89004658D01*
X139816568Y-88966568D01*
X139854658Y-88920157D01*
X139882960Y-88867206D01*
X139900389Y-88809751D01*
X139906274Y-88750000D01*
X139906274Y-87050000D01*
X140093726Y-87050000D01*
X140093726Y-88750000D01*
X140099611Y-88809751D01*
X140117040Y-88867206D01*
X140145342Y-88920157D01*
X140183432Y-88966568D01*
X140229843Y-89004658D01*
X140282794Y-89032960D01*
X140340249Y-89050389D01*
X140400000Y-89056274D01*
X141600000Y-89056274D01*
X141659751Y-89050389D01*
X141717206Y-89032960D01*
X141770157Y-89004658D01*
X141816568Y-88966568D01*
X141854658Y-88920157D01*
X141882960Y-88867206D01*
X141900389Y-88809751D01*
X141906274Y-88750000D01*
X141906274Y-87050000D01*
X142593726Y-87050000D01*
X142593726Y-88750000D01*
X142599611Y-88809751D01*
X142617040Y-88867206D01*
X142645342Y-88920157D01*
X142683432Y-88966568D01*
X142729843Y-89004658D01*
X142782794Y-89032960D01*
X142840249Y-89050389D01*
X142900000Y-89056274D01*
X144039694Y-89056274D01*
X144011988Y-89097739D01*
X143868400Y-89444390D01*
X143795200Y-89812394D01*
X143795200Y-90187606D01*
X143868400Y-90555610D01*
X144011988Y-90902261D01*
X144220445Y-91214240D01*
X144485760Y-91479555D01*
X144797739Y-91688012D01*
X145144390Y-91831600D01*
X145512394Y-91904800D01*
X145887606Y-91904800D01*
X146255610Y-91831600D01*
X146602261Y-91688012D01*
X146914240Y-91479555D01*
X147179555Y-91214240D01*
X147388012Y-90902261D01*
X147531600Y-90555610D01*
X147604800Y-90187606D01*
X147604800Y-89812394D01*
X147531600Y-89444390D01*
X147388012Y-89097739D01*
X147179555Y-88785760D01*
X146914240Y-88520445D01*
X146602261Y-88311988D01*
X146255610Y-88168400D01*
X145887606Y-88095200D01*
X145512394Y-88095200D01*
X145144390Y-88168400D01*
X144797739Y-88311988D01*
X144485760Y-88520445D01*
X144406274Y-88599931D01*
X144406274Y-87050000D01*
X144400389Y-86990249D01*
X144382960Y-86932794D01*
X144354658Y-86879843D01*
X144316568Y-86833432D01*
X144270157Y-86795342D01*
X144217206Y-86767040D01*
X144159751Y-86749611D01*
X144100000Y-86743726D01*
X142900000Y-86743726D01*
X142840249Y-86749611D01*
X142782794Y-86767040D01*
X142729843Y-86795342D01*
X142683432Y-86833432D01*
X142645342Y-86879843D01*
X142617040Y-86932794D01*
X142599611Y-86990249D01*
X142593726Y-87050000D01*
X141906274Y-87050000D01*
X141900389Y-86990249D01*
X141882960Y-86932794D01*
X141854658Y-86879843D01*
X141816568Y-86833432D01*
X141770157Y-86795342D01*
X141717206Y-86767040D01*
X141659751Y-86749611D01*
X141600000Y-86743726D01*
X140400000Y-86743726D01*
X140340249Y-86749611D01*
X140282794Y-86767040D01*
X140229843Y-86795342D01*
X140183432Y-86833432D01*
X140145342Y-86879843D01*
X140117040Y-86932794D01*
X140099611Y-86990249D01*
X140093726Y-87050000D01*
X139906274Y-87050000D01*
X139900389Y-86990249D01*
X139882960Y-86932794D01*
X139854658Y-86879843D01*
X139816568Y-86833432D01*
X139770157Y-86795342D01*
X139717206Y-86767040D01*
X139659751Y-86749611D01*
X139600000Y-86743726D01*
X138400000Y-86743726D01*
X138340249Y-86749611D01*
X138282794Y-86767040D01*
X138229843Y-86795342D01*
X138183432Y-86833432D01*
X138145342Y-86879843D01*
X138117040Y-86932794D01*
X138099611Y-86990249D01*
X138093726Y-87050000D01*
X137457321Y-87050000D01*
X137450455Y-86980290D01*
X137430122Y-86913259D01*
X137397102Y-86851483D01*
X137352664Y-86797336D01*
X137298517Y-86752898D01*
X137236741Y-86719878D01*
X137169710Y-86699545D01*
X137100000Y-86692679D01*
X136741300Y-86694400D01*
X136652400Y-86783300D01*
X136347600Y-86783300D01*
X136258700Y-86694400D01*
X135900000Y-86692679D01*
X135830290Y-86699545D01*
X135763259Y-86719878D01*
X135701483Y-86752898D01*
X135647336Y-86797336D01*
X135602898Y-86851483D01*
X135569878Y-86913259D01*
X135549545Y-86980290D01*
X135542679Y-87050000D01*
X131404800Y-87050000D01*
X131404800Y-86068274D01*
X131762000Y-86068274D01*
X131821751Y-86062389D01*
X131879206Y-86044960D01*
X131932157Y-86016658D01*
X131978568Y-85978568D01*
X132016658Y-85932157D01*
X132044960Y-85879206D01*
X132062389Y-85821751D01*
X132068274Y-85762000D01*
X132068274Y-85291760D01*
X142336800Y-85291760D01*
X142336800Y-85411840D01*
X142360226Y-85529614D01*
X142406179Y-85640554D01*
X142472892Y-85740398D01*
X142557802Y-85825308D01*
X142657646Y-85892021D01*
X142768586Y-85937974D01*
X142886360Y-85961400D01*
X143006440Y-85961400D01*
X143124214Y-85937974D01*
X143235154Y-85892021D01*
X143334998Y-85825308D01*
X143419908Y-85740398D01*
X143486621Y-85640554D01*
X143532574Y-85529614D01*
X143556000Y-85411840D01*
X143556000Y-85291760D01*
X143532574Y-85173986D01*
X143486621Y-85063046D01*
X143419908Y-84963202D01*
X143334998Y-84878292D01*
X143235154Y-84811579D01*
X143124214Y-84765626D01*
X143006440Y-84742200D01*
X142886360Y-84742200D01*
X142768586Y-84765626D01*
X142657646Y-84811579D01*
X142557802Y-84878292D01*
X142472892Y-84963202D01*
X142406179Y-85063046D01*
X142360226Y-85173986D01*
X142336800Y-85291760D01*
X132068274Y-85291760D01*
X132068274Y-84238000D01*
X132062389Y-84178249D01*
X132044960Y-84120794D01*
X132016658Y-84067843D01*
X131978568Y-84021432D01*
X131952454Y-84000000D01*
X131978568Y-83978568D01*
X132005658Y-83945560D01*
X136571000Y-83945560D01*
X136571000Y-84065640D01*
X136594426Y-84183414D01*
X136640379Y-84294354D01*
X136707092Y-84394198D01*
X136792002Y-84479108D01*
X136891846Y-84545821D01*
X137002786Y-84591774D01*
X137120560Y-84615200D01*
X137240640Y-84615200D01*
X137358414Y-84591774D01*
X137469354Y-84545821D01*
X137569198Y-84479108D01*
X137654108Y-84394198D01*
X137720821Y-84294354D01*
X137766774Y-84183414D01*
X137790200Y-84065640D01*
X137790200Y-83945560D01*
X137766774Y-83827786D01*
X137720821Y-83716846D01*
X137654108Y-83617002D01*
X137569198Y-83532092D01*
X137469354Y-83465379D01*
X137358414Y-83419426D01*
X137240640Y-83396000D01*
X137120560Y-83396000D01*
X137002786Y-83419426D01*
X136891846Y-83465379D01*
X136792002Y-83532092D01*
X136707092Y-83617002D01*
X136640379Y-83716846D01*
X136594426Y-83827786D01*
X136571000Y-83945560D01*
X132005658Y-83945560D01*
X132016658Y-83932157D01*
X132044960Y-83879206D01*
X132062389Y-83821751D01*
X132068274Y-83762000D01*
X132068274Y-82472368D01*
X134132600Y-82472368D01*
X134132600Y-82592448D01*
X134156026Y-82710222D01*
X134201979Y-82821162D01*
X134268692Y-82921006D01*
X134353602Y-83005916D01*
X134453446Y-83072629D01*
X134564386Y-83118582D01*
X134682160Y-83142008D01*
X134802240Y-83142008D01*
X134920014Y-83118582D01*
X134947106Y-83107360D01*
X142946400Y-83107360D01*
X142946400Y-83227440D01*
X142969826Y-83345214D01*
X143015779Y-83456154D01*
X143082492Y-83555998D01*
X143167402Y-83640908D01*
X143267246Y-83707621D01*
X143378186Y-83753574D01*
X143495960Y-83777000D01*
X143616040Y-83777000D01*
X143733814Y-83753574D01*
X143844754Y-83707621D01*
X143944598Y-83640908D01*
X144029508Y-83555998D01*
X144096221Y-83456154D01*
X144142174Y-83345214D01*
X144165600Y-83227440D01*
X144165600Y-83132760D01*
X145715000Y-83132760D01*
X145715000Y-83252840D01*
X145738426Y-83370614D01*
X145784379Y-83481554D01*
X145851092Y-83581398D01*
X145936002Y-83666308D01*
X146035846Y-83733021D01*
X146146786Y-83778974D01*
X146264560Y-83802400D01*
X146384640Y-83802400D01*
X146502414Y-83778974D01*
X146613354Y-83733021D01*
X146713198Y-83666308D01*
X146798108Y-83581398D01*
X146864821Y-83481554D01*
X146910774Y-83370614D01*
X146934200Y-83252840D01*
X146934200Y-83132760D01*
X146910774Y-83014986D01*
X146864821Y-82904046D01*
X146798108Y-82804202D01*
X146713198Y-82719292D01*
X146613354Y-82652579D01*
X146502414Y-82606626D01*
X146384640Y-82583200D01*
X146264560Y-82583200D01*
X146146786Y-82606626D01*
X146035846Y-82652579D01*
X145936002Y-82719292D01*
X145851092Y-82804202D01*
X145784379Y-82904046D01*
X145738426Y-83014986D01*
X145715000Y-83132760D01*
X144165600Y-83132760D01*
X144165600Y-83107360D01*
X144142174Y-82989586D01*
X144096221Y-82878646D01*
X144029508Y-82778802D01*
X143944598Y-82693892D01*
X143844754Y-82627179D01*
X143733814Y-82581226D01*
X143616040Y-82557800D01*
X143495960Y-82557800D01*
X143378186Y-82581226D01*
X143267246Y-82627179D01*
X143167402Y-82693892D01*
X143082492Y-82778802D01*
X143015779Y-82878646D01*
X142969826Y-82989586D01*
X142946400Y-83107360D01*
X134947106Y-83107360D01*
X135030954Y-83072629D01*
X135130798Y-83005916D01*
X135215708Y-82921006D01*
X135282421Y-82821162D01*
X135328374Y-82710222D01*
X135351800Y-82592448D01*
X135351800Y-82472368D01*
X135328374Y-82354594D01*
X135282421Y-82243654D01*
X135215708Y-82143810D01*
X135130798Y-82058900D01*
X135030954Y-81992187D01*
X134920014Y-81946234D01*
X134802240Y-81922808D01*
X134682160Y-81922808D01*
X134564386Y-81946234D01*
X134453446Y-81992187D01*
X134353602Y-82058900D01*
X134268692Y-82143810D01*
X134201979Y-82243654D01*
X134156026Y-82354594D01*
X134132600Y-82472368D01*
X132068274Y-82472368D01*
X132068274Y-82238000D01*
X132062389Y-82178249D01*
X132044960Y-82120794D01*
X132016658Y-82067843D01*
X131978568Y-82021432D01*
X131952454Y-82000000D01*
X131978568Y-81978568D01*
X132016658Y-81932157D01*
X132044960Y-81879206D01*
X132062389Y-81821751D01*
X132068274Y-81762000D01*
X132068274Y-81319814D01*
X141626236Y-81319814D01*
X141626236Y-81439894D01*
X141649662Y-81557668D01*
X141695615Y-81668608D01*
X141762328Y-81768452D01*
X141847238Y-81853362D01*
X141947082Y-81920075D01*
X142058022Y-81966028D01*
X142175796Y-81989454D01*
X142295876Y-81989454D01*
X142413650Y-81966028D01*
X142524590Y-81920075D01*
X142624434Y-81853362D01*
X142709344Y-81768452D01*
X142761790Y-81689960D01*
X144890400Y-81689960D01*
X144890400Y-81810040D01*
X144913826Y-81927814D01*
X144959779Y-82038754D01*
X145026492Y-82138598D01*
X145111402Y-82223508D01*
X145211246Y-82290221D01*
X145322186Y-82336174D01*
X145439960Y-82359600D01*
X145560040Y-82359600D01*
X145677814Y-82336174D01*
X145788754Y-82290221D01*
X145888598Y-82223508D01*
X145973508Y-82138598D01*
X146040221Y-82038754D01*
X146086174Y-81927814D01*
X146109600Y-81810040D01*
X146109600Y-81689960D01*
X146086174Y-81572186D01*
X146040221Y-81461246D01*
X145973508Y-81361402D01*
X145888598Y-81276492D01*
X145788754Y-81209779D01*
X145677814Y-81163826D01*
X145560040Y-81140400D01*
X145439960Y-81140400D01*
X145322186Y-81163826D01*
X145211246Y-81209779D01*
X145111402Y-81276492D01*
X145026492Y-81361402D01*
X144959779Y-81461246D01*
X144913826Y-81572186D01*
X144890400Y-81689960D01*
X142761790Y-81689960D01*
X142776057Y-81668608D01*
X142822010Y-81557668D01*
X142845436Y-81439894D01*
X142845436Y-81319814D01*
X142822010Y-81202040D01*
X142776057Y-81091100D01*
X142709344Y-80991256D01*
X142624434Y-80906346D01*
X142524590Y-80839633D01*
X142413650Y-80793680D01*
X142295876Y-80770254D01*
X142175796Y-80770254D01*
X142058022Y-80793680D01*
X141947082Y-80839633D01*
X141847238Y-80906346D01*
X141762328Y-80991256D01*
X141695615Y-81091100D01*
X141649662Y-81202040D01*
X141626236Y-81319814D01*
X132068274Y-81319814D01*
X132068274Y-80238000D01*
X132062389Y-80178249D01*
X132044960Y-80120794D01*
X132016658Y-80067843D01*
X131978568Y-80021432D01*
X131952454Y-80000000D01*
X131978568Y-79978568D01*
X132016658Y-79932157D01*
X132044960Y-79879206D01*
X132054317Y-79848360D01*
X132715000Y-79848360D01*
X132715000Y-79968440D01*
X132738426Y-80086214D01*
X132784379Y-80197154D01*
X132851092Y-80296998D01*
X132936002Y-80381908D01*
X133035846Y-80448621D01*
X133146786Y-80494574D01*
X133264560Y-80518000D01*
X133384640Y-80518000D01*
X133502414Y-80494574D01*
X133613354Y-80448621D01*
X133713198Y-80381908D01*
X133798108Y-80296998D01*
X133864821Y-80197154D01*
X133910774Y-80086214D01*
X133934200Y-79968440D01*
X133934200Y-79848360D01*
X133910774Y-79730586D01*
X133864821Y-79619646D01*
X133798108Y-79519802D01*
X133778866Y-79500560D01*
X137739400Y-79500560D01*
X137739400Y-79620640D01*
X137762826Y-79738414D01*
X137808779Y-79849354D01*
X137875492Y-79949198D01*
X137960402Y-80034108D01*
X138060246Y-80100821D01*
X138171186Y-80146774D01*
X138288960Y-80170200D01*
X138409040Y-80170200D01*
X138526814Y-80146774D01*
X138637754Y-80100821D01*
X138737598Y-80034108D01*
X138822508Y-79949198D01*
X138889221Y-79849354D01*
X138935174Y-79738414D01*
X138958600Y-79620640D01*
X138958600Y-79525960D01*
X140152400Y-79525960D01*
X140152400Y-79646040D01*
X140175826Y-79763814D01*
X140221779Y-79874754D01*
X140288492Y-79974598D01*
X140373402Y-80059508D01*
X140473246Y-80126221D01*
X140584186Y-80172174D01*
X140701960Y-80195600D01*
X140822040Y-80195600D01*
X140939814Y-80172174D01*
X141050754Y-80126221D01*
X141150598Y-80059508D01*
X141235508Y-79974598D01*
X141302221Y-79874754D01*
X141348174Y-79763814D01*
X141371600Y-79646040D01*
X141371600Y-79525960D01*
X141348174Y-79408186D01*
X141312790Y-79322760D01*
X145130800Y-79322760D01*
X145130800Y-79442840D01*
X145154226Y-79560614D01*
X145200179Y-79671554D01*
X145266892Y-79771398D01*
X145351802Y-79856308D01*
X145451646Y-79923021D01*
X145562586Y-79968974D01*
X145680360Y-79992400D01*
X145800440Y-79992400D01*
X145918214Y-79968974D01*
X146029154Y-79923021D01*
X146128998Y-79856308D01*
X146213908Y-79771398D01*
X146280621Y-79671554D01*
X146326574Y-79560614D01*
X146350000Y-79442840D01*
X146350000Y-79322760D01*
X146326574Y-79204986D01*
X146280621Y-79094046D01*
X146213908Y-78994202D01*
X146128998Y-78909292D01*
X146029154Y-78842579D01*
X145918214Y-78796626D01*
X145800440Y-78773200D01*
X145680360Y-78773200D01*
X145562586Y-78796626D01*
X145451646Y-78842579D01*
X145351802Y-78909292D01*
X145266892Y-78994202D01*
X145200179Y-79094046D01*
X145154226Y-79204986D01*
X145130800Y-79322760D01*
X141312790Y-79322760D01*
X141302221Y-79297246D01*
X141235508Y-79197402D01*
X141150598Y-79112492D01*
X141050754Y-79045779D01*
X140939814Y-78999826D01*
X140822040Y-78976400D01*
X140701960Y-78976400D01*
X140584186Y-78999826D01*
X140473246Y-79045779D01*
X140373402Y-79112492D01*
X140288492Y-79197402D01*
X140221779Y-79297246D01*
X140175826Y-79408186D01*
X140152400Y-79525960D01*
X138958600Y-79525960D01*
X138958600Y-79500560D01*
X138935174Y-79382786D01*
X138889221Y-79271846D01*
X138822508Y-79172002D01*
X138737598Y-79087092D01*
X138637754Y-79020379D01*
X138526814Y-78974426D01*
X138409040Y-78951000D01*
X138288960Y-78951000D01*
X138171186Y-78974426D01*
X138060246Y-79020379D01*
X137960402Y-79087092D01*
X137875492Y-79172002D01*
X137808779Y-79271846D01*
X137762826Y-79382786D01*
X137739400Y-79500560D01*
X133778866Y-79500560D01*
X133713198Y-79434892D01*
X133613354Y-79368179D01*
X133502414Y-79322226D01*
X133384640Y-79298800D01*
X133264560Y-79298800D01*
X133146786Y-79322226D01*
X133035846Y-79368179D01*
X132936002Y-79434892D01*
X132851092Y-79519802D01*
X132784379Y-79619646D01*
X132738426Y-79730586D01*
X132715000Y-79848360D01*
X132054317Y-79848360D01*
X132062389Y-79821751D01*
X132068274Y-79762000D01*
X132068274Y-78781560D01*
X134823200Y-78781560D01*
X134823200Y-78901640D01*
X134846626Y-79019414D01*
X134892579Y-79130354D01*
X134959292Y-79230198D01*
X135044202Y-79315108D01*
X135144046Y-79381821D01*
X135254986Y-79427774D01*
X135372760Y-79451200D01*
X135492840Y-79451200D01*
X135610614Y-79427774D01*
X135721554Y-79381821D01*
X135821398Y-79315108D01*
X135906308Y-79230198D01*
X135973021Y-79130354D01*
X136018974Y-79019414D01*
X136042400Y-78901640D01*
X136042400Y-78852879D01*
X136113814Y-78838674D01*
X136224754Y-78792721D01*
X136324598Y-78726008D01*
X136409508Y-78641098D01*
X136476221Y-78541254D01*
X136504521Y-78472931D01*
X140839171Y-78472931D01*
X140839171Y-78593011D01*
X140862597Y-78710785D01*
X140908550Y-78821725D01*
X140975263Y-78921569D01*
X141060173Y-79006479D01*
X141160017Y-79073192D01*
X141270957Y-79119145D01*
X141388731Y-79142571D01*
X141508811Y-79142571D01*
X141626585Y-79119145D01*
X141737525Y-79073192D01*
X141837369Y-79006479D01*
X141922279Y-78921569D01*
X141988992Y-78821725D01*
X142034945Y-78710785D01*
X142058371Y-78593011D01*
X142058371Y-78472931D01*
X142034945Y-78355157D01*
X141988992Y-78244217D01*
X141922279Y-78144373D01*
X141837369Y-78059463D01*
X141737525Y-77992750D01*
X141626585Y-77946797D01*
X141508811Y-77923371D01*
X141388731Y-77923371D01*
X141270957Y-77946797D01*
X141160017Y-77992750D01*
X141060173Y-78059463D01*
X140975263Y-78144373D01*
X140908550Y-78244217D01*
X140862597Y-78355157D01*
X140839171Y-78472931D01*
X136504521Y-78472931D01*
X136522174Y-78430314D01*
X136545600Y-78312540D01*
X136545600Y-78192460D01*
X136522174Y-78074686D01*
X136476221Y-77963746D01*
X136409508Y-77863902D01*
X136324598Y-77778992D01*
X136224754Y-77712279D01*
X136172926Y-77690811D01*
X136193423Y-77587760D01*
X139746000Y-77587760D01*
X139746000Y-77707840D01*
X139769426Y-77825614D01*
X139815379Y-77936554D01*
X139882092Y-78036398D01*
X139967002Y-78121308D01*
X140066846Y-78188021D01*
X140177786Y-78233974D01*
X140295560Y-78257400D01*
X140415640Y-78257400D01*
X140533414Y-78233974D01*
X140644354Y-78188021D01*
X140744198Y-78121308D01*
X140829108Y-78036398D01*
X140895821Y-77936554D01*
X140941774Y-77825614D01*
X140952167Y-77773360D01*
X143124200Y-77773360D01*
X143124200Y-77893440D01*
X143147626Y-78011214D01*
X143193579Y-78122154D01*
X143260292Y-78221998D01*
X143345202Y-78306908D01*
X143445046Y-78373621D01*
X143555986Y-78419574D01*
X143673760Y-78443000D01*
X143793840Y-78443000D01*
X143911614Y-78419574D01*
X144022554Y-78373621D01*
X144122398Y-78306908D01*
X144207308Y-78221998D01*
X144274021Y-78122154D01*
X144319974Y-78011214D01*
X144343400Y-77893440D01*
X144343400Y-77840360D01*
X144432314Y-77822674D01*
X144543254Y-77776721D01*
X144643098Y-77710008D01*
X144728008Y-77625098D01*
X144794721Y-77525254D01*
X144840674Y-77414314D01*
X144864100Y-77296540D01*
X144864100Y-77176460D01*
X144840674Y-77058686D01*
X144834740Y-77044360D01*
X144936954Y-77002021D01*
X145036798Y-76935308D01*
X145121708Y-76850398D01*
X145188421Y-76750554D01*
X145234374Y-76639614D01*
X145257800Y-76521840D01*
X145257800Y-76401760D01*
X145234374Y-76283986D01*
X145188421Y-76173046D01*
X145121708Y-76073202D01*
X145069266Y-76020760D01*
X145994400Y-76020760D01*
X145994400Y-76140840D01*
X146017826Y-76258614D01*
X146063779Y-76369554D01*
X146130492Y-76469398D01*
X146215402Y-76554308D01*
X146315246Y-76621021D01*
X146426186Y-76666974D01*
X146543960Y-76690400D01*
X146664040Y-76690400D01*
X146781814Y-76666974D01*
X146892754Y-76621021D01*
X146992598Y-76554308D01*
X147077508Y-76469398D01*
X147144221Y-76369554D01*
X147190174Y-76258614D01*
X147213600Y-76140840D01*
X147213600Y-76020760D01*
X147190174Y-75902986D01*
X147144221Y-75792046D01*
X147077508Y-75692202D01*
X146992598Y-75607292D01*
X146892754Y-75540579D01*
X146781814Y-75494626D01*
X146664040Y-75471200D01*
X146543960Y-75471200D01*
X146426186Y-75494626D01*
X146315246Y-75540579D01*
X146215402Y-75607292D01*
X146130492Y-75692202D01*
X146063779Y-75792046D01*
X146017826Y-75902986D01*
X145994400Y-76020760D01*
X145069266Y-76020760D01*
X145036798Y-75988292D01*
X144936954Y-75921579D01*
X144826014Y-75875626D01*
X144708240Y-75852200D01*
X144588160Y-75852200D01*
X144470386Y-75875626D01*
X144359446Y-75921579D01*
X144259602Y-75988292D01*
X144174692Y-76073202D01*
X144107979Y-76173046D01*
X144062026Y-76283986D01*
X144038600Y-76401760D01*
X144038600Y-76521840D01*
X144062026Y-76639614D01*
X144067960Y-76653940D01*
X143965746Y-76696279D01*
X143865902Y-76762992D01*
X143780992Y-76847902D01*
X143714279Y-76947746D01*
X143668326Y-77058686D01*
X143644900Y-77176460D01*
X143644900Y-77229540D01*
X143555986Y-77247226D01*
X143445046Y-77293179D01*
X143345202Y-77359892D01*
X143260292Y-77444802D01*
X143193579Y-77544646D01*
X143147626Y-77655586D01*
X143124200Y-77773360D01*
X140952167Y-77773360D01*
X140965200Y-77707840D01*
X140965200Y-77587760D01*
X140941774Y-77469986D01*
X140895821Y-77359046D01*
X140829108Y-77259202D01*
X140744198Y-77174292D01*
X140644354Y-77107579D01*
X140533414Y-77061626D01*
X140415640Y-77038200D01*
X140295560Y-77038200D01*
X140177786Y-77061626D01*
X140066846Y-77107579D01*
X139967002Y-77174292D01*
X139882092Y-77259202D01*
X139815379Y-77359046D01*
X139769426Y-77469986D01*
X139746000Y-77587760D01*
X136193423Y-77587760D01*
X136194800Y-77580840D01*
X136194800Y-77460760D01*
X136171374Y-77342986D01*
X136125421Y-77232046D01*
X136058708Y-77132202D01*
X135973798Y-77047292D01*
X135873954Y-76980579D01*
X135763014Y-76934626D01*
X135645240Y-76911200D01*
X135525160Y-76911200D01*
X135407386Y-76934626D01*
X135296446Y-76980579D01*
X135196602Y-77047292D01*
X135111692Y-77132202D01*
X135044979Y-77232046D01*
X134999026Y-77342986D01*
X134975600Y-77460760D01*
X134975600Y-77580840D01*
X134999026Y-77698614D01*
X135044979Y-77809554D01*
X135111692Y-77909398D01*
X135196602Y-77994308D01*
X135296446Y-78061021D01*
X135348274Y-78082489D01*
X135326400Y-78192460D01*
X135326400Y-78241221D01*
X135254986Y-78255426D01*
X135144046Y-78301379D01*
X135044202Y-78368092D01*
X134959292Y-78453002D01*
X134892579Y-78552846D01*
X134846626Y-78663786D01*
X134823200Y-78781560D01*
X132068274Y-78781560D01*
X132068274Y-78238000D01*
X132062389Y-78178249D01*
X132044960Y-78120794D01*
X132016658Y-78067843D01*
X131978568Y-78021432D01*
X131952454Y-78000000D01*
X131978568Y-77978568D01*
X132016658Y-77932157D01*
X132044960Y-77879206D01*
X132062389Y-77821751D01*
X132068274Y-77762000D01*
X132068274Y-76826501D01*
X132068379Y-76826754D01*
X132135092Y-76926598D01*
X132220002Y-77011508D01*
X132319846Y-77078221D01*
X132430786Y-77124174D01*
X132481600Y-77134281D01*
X132481600Y-77207640D01*
X132505026Y-77325414D01*
X132550979Y-77436354D01*
X132617692Y-77536198D01*
X132702602Y-77621108D01*
X132802446Y-77687821D01*
X132913386Y-77733774D01*
X133031160Y-77757200D01*
X133151240Y-77757200D01*
X133269014Y-77733774D01*
X133379954Y-77687821D01*
X133479798Y-77621108D01*
X133564708Y-77536198D01*
X133631421Y-77436354D01*
X133677374Y-77325414D01*
X133700800Y-77207640D01*
X133700800Y-77087560D01*
X133677374Y-76969786D01*
X133631421Y-76858846D01*
X133564708Y-76759002D01*
X133479798Y-76674092D01*
X133379954Y-76607379D01*
X133269014Y-76561426D01*
X133218200Y-76551319D01*
X133218200Y-76529733D01*
X133294414Y-76514574D01*
X133405354Y-76468621D01*
X133505198Y-76401908D01*
X133590108Y-76316998D01*
X133656821Y-76217154D01*
X133702774Y-76106214D01*
X133726200Y-75988440D01*
X133726200Y-75868360D01*
X133702774Y-75750586D01*
X133656821Y-75639646D01*
X133605983Y-75563560D01*
X140584200Y-75563560D01*
X140584200Y-75683640D01*
X140607626Y-75801414D01*
X140653579Y-75912354D01*
X140720292Y-76012198D01*
X140805202Y-76097108D01*
X140905046Y-76163821D01*
X140979735Y-76194759D01*
X140948892Y-76225602D01*
X140882179Y-76325446D01*
X140836226Y-76436386D01*
X140812800Y-76554160D01*
X140812800Y-76674240D01*
X140836226Y-76792014D01*
X140882179Y-76902954D01*
X140948892Y-77002798D01*
X141033802Y-77087708D01*
X141133646Y-77154421D01*
X141244586Y-77200374D01*
X141362360Y-77223800D01*
X141482440Y-77223800D01*
X141600214Y-77200374D01*
X141711154Y-77154421D01*
X141810998Y-77087708D01*
X141895908Y-77002798D01*
X141962621Y-76902954D01*
X142008574Y-76792014D01*
X142032000Y-76674240D01*
X142032000Y-76554160D01*
X142008574Y-76436386D01*
X141962621Y-76325446D01*
X141895908Y-76225602D01*
X141810998Y-76140692D01*
X141711154Y-76073979D01*
X141636465Y-76043041D01*
X141667308Y-76012198D01*
X141734021Y-75912354D01*
X141779974Y-75801414D01*
X141803400Y-75683640D01*
X141803400Y-75563560D01*
X141779974Y-75445786D01*
X141734021Y-75334846D01*
X141667308Y-75235002D01*
X141582398Y-75150092D01*
X141482554Y-75083379D01*
X141371614Y-75037426D01*
X141253840Y-75014000D01*
X141133760Y-75014000D01*
X141015986Y-75037426D01*
X140905046Y-75083379D01*
X140805202Y-75150092D01*
X140720292Y-75235002D01*
X140653579Y-75334846D01*
X140607626Y-75445786D01*
X140584200Y-75563560D01*
X133605983Y-75563560D01*
X133590108Y-75539802D01*
X133505198Y-75454892D01*
X133484780Y-75441250D01*
X133524974Y-75344214D01*
X133548400Y-75226440D01*
X133548400Y-75106360D01*
X133524974Y-74988586D01*
X133479021Y-74877646D01*
X133412308Y-74777802D01*
X133327398Y-74692892D01*
X133227554Y-74626179D01*
X133116614Y-74580226D01*
X132998840Y-74556800D01*
X132878760Y-74556800D01*
X132760986Y-74580226D01*
X132650046Y-74626179D01*
X132550202Y-74692892D01*
X132465292Y-74777802D01*
X132398579Y-74877646D01*
X132352626Y-74988586D01*
X132329200Y-75106360D01*
X132329200Y-75226440D01*
X132352626Y-75344214D01*
X132398579Y-75455154D01*
X132465292Y-75554998D01*
X132550202Y-75639908D01*
X132570620Y-75653550D01*
X132530426Y-75750586D01*
X132507000Y-75868360D01*
X132507000Y-75936667D01*
X132430786Y-75951826D01*
X132319846Y-75997779D01*
X132220002Y-76064492D01*
X132135092Y-76149402D01*
X132068379Y-76249246D01*
X132068274Y-76249499D01*
X132068274Y-76238000D01*
X132062389Y-76178249D01*
X132044960Y-76120794D01*
X132016658Y-76067843D01*
X131978568Y-76021432D01*
X131952454Y-76000000D01*
X131978568Y-75978568D01*
X132016658Y-75932157D01*
X132044960Y-75879206D01*
X132062389Y-75821751D01*
X132068274Y-75762000D01*
X132068274Y-74238000D01*
X132066242Y-74217360D01*
X140812800Y-74217360D01*
X140812800Y-74337440D01*
X140836226Y-74455214D01*
X140882179Y-74566154D01*
X140948892Y-74665998D01*
X141033802Y-74750908D01*
X141133646Y-74817621D01*
X141244586Y-74863574D01*
X141362360Y-74887000D01*
X141482440Y-74887000D01*
X141600214Y-74863574D01*
X141711154Y-74817621D01*
X141810998Y-74750908D01*
X141811146Y-74750760D01*
X143733800Y-74750760D01*
X143733800Y-74870840D01*
X143757226Y-74988614D01*
X143803179Y-75099554D01*
X143869892Y-75199398D01*
X143954802Y-75284308D01*
X144054646Y-75351021D01*
X144165586Y-75396974D01*
X144283360Y-75420400D01*
X144403440Y-75420400D01*
X144521214Y-75396974D01*
X144632154Y-75351021D01*
X144731998Y-75284308D01*
X144816908Y-75199398D01*
X144883621Y-75099554D01*
X144929574Y-74988614D01*
X144953000Y-74870840D01*
X144953000Y-74750760D01*
X144929574Y-74632986D01*
X144883621Y-74522046D01*
X144816908Y-74422202D01*
X144731998Y-74337292D01*
X144632154Y-74270579D01*
X144521214Y-74224626D01*
X144403440Y-74201200D01*
X144283360Y-74201200D01*
X144165586Y-74224626D01*
X144054646Y-74270579D01*
X143954802Y-74337292D01*
X143869892Y-74422202D01*
X143803179Y-74522046D01*
X143757226Y-74632986D01*
X143733800Y-74750760D01*
X141811146Y-74750760D01*
X141895908Y-74665998D01*
X141962621Y-74566154D01*
X142008574Y-74455214D01*
X142032000Y-74337440D01*
X142032000Y-74217360D01*
X142008574Y-74099586D01*
X141962621Y-73988646D01*
X141895908Y-73888802D01*
X141810998Y-73803892D01*
X141711154Y-73737179D01*
X141600214Y-73691226D01*
X141482440Y-73667800D01*
X141362360Y-73667800D01*
X141244586Y-73691226D01*
X141133646Y-73737179D01*
X141033802Y-73803892D01*
X140948892Y-73888802D01*
X140882179Y-73988646D01*
X140836226Y-74099586D01*
X140812800Y-74217360D01*
X132066242Y-74217360D01*
X132062389Y-74178249D01*
X132044960Y-74120794D01*
X132016658Y-74067843D01*
X131978568Y-74021432D01*
X131952454Y-74000000D01*
X131978568Y-73978568D01*
X132016658Y-73932157D01*
X132044960Y-73879206D01*
X132062389Y-73821751D01*
X132068274Y-73762000D01*
X132068274Y-73117360D01*
X133807200Y-73117360D01*
X133807200Y-73237440D01*
X133830626Y-73355214D01*
X133876579Y-73466154D01*
X133943292Y-73565998D01*
X134028202Y-73650908D01*
X134128046Y-73717621D01*
X134238986Y-73763574D01*
X134356760Y-73787000D01*
X134476840Y-73787000D01*
X134594614Y-73763574D01*
X134705554Y-73717621D01*
X134805398Y-73650908D01*
X134890308Y-73565998D01*
X134957021Y-73466154D01*
X134969045Y-73437125D01*
X135067960Y-73456800D01*
X135188040Y-73456800D01*
X135305814Y-73433374D01*
X135416754Y-73387421D01*
X135516598Y-73320708D01*
X135601508Y-73235798D01*
X135668221Y-73135954D01*
X135714174Y-73025014D01*
X135737600Y-72907240D01*
X135737600Y-72787160D01*
X135714174Y-72669386D01*
X135668221Y-72558446D01*
X135601508Y-72458602D01*
X135516598Y-72373692D01*
X135416754Y-72306979D01*
X135305814Y-72261026D01*
X135188040Y-72237600D01*
X135067960Y-72237600D01*
X134950186Y-72261026D01*
X134839246Y-72306979D01*
X134739402Y-72373692D01*
X134654492Y-72458602D01*
X134587779Y-72558446D01*
X134575755Y-72587475D01*
X134476840Y-72567800D01*
X134356760Y-72567800D01*
X134238986Y-72591226D01*
X134128046Y-72637179D01*
X134028202Y-72703892D01*
X133943292Y-72788802D01*
X133876579Y-72888646D01*
X133830626Y-72999586D01*
X133807200Y-73117360D01*
X132068274Y-73117360D01*
X132068274Y-72238000D01*
X132062389Y-72178249D01*
X132044960Y-72120794D01*
X132038742Y-72109160D01*
X142311400Y-72109160D01*
X142311400Y-72229240D01*
X142334826Y-72347014D01*
X142380779Y-72457954D01*
X142447492Y-72557798D01*
X142532402Y-72642708D01*
X142632246Y-72709421D01*
X142743186Y-72755374D01*
X142860960Y-72778800D01*
X142981040Y-72778800D01*
X143098814Y-72755374D01*
X143209754Y-72709421D01*
X143309598Y-72642708D01*
X143394508Y-72557798D01*
X143461221Y-72457954D01*
X143507174Y-72347014D01*
X143530600Y-72229240D01*
X143530600Y-72109160D01*
X143507174Y-71991386D01*
X143461221Y-71880446D01*
X143394508Y-71780602D01*
X143309598Y-71695692D01*
X143209754Y-71628979D01*
X143098814Y-71583026D01*
X142981040Y-71559600D01*
X142860960Y-71559600D01*
X142743186Y-71583026D01*
X142632246Y-71628979D01*
X142532402Y-71695692D01*
X142447492Y-71780602D01*
X142380779Y-71880446D01*
X142334826Y-71991386D01*
X142311400Y-72109160D01*
X132038742Y-72109160D01*
X132016658Y-72067843D01*
X131978568Y-72021432D01*
X131952454Y-72000000D01*
X131978568Y-71978568D01*
X132016658Y-71932157D01*
X132044960Y-71879206D01*
X132062389Y-71821751D01*
X132068274Y-71762000D01*
X132068274Y-71067760D01*
X138069600Y-71067760D01*
X138069600Y-71187840D01*
X138093026Y-71305614D01*
X138138979Y-71416554D01*
X138205692Y-71516398D01*
X138290602Y-71601308D01*
X138390446Y-71668021D01*
X138501386Y-71713974D01*
X138619160Y-71737400D01*
X138739240Y-71737400D01*
X138857014Y-71713974D01*
X138967954Y-71668021D01*
X139067798Y-71601308D01*
X139152708Y-71516398D01*
X139191666Y-71458092D01*
X139196942Y-71465988D01*
X139281852Y-71550898D01*
X139381696Y-71617611D01*
X139492636Y-71663564D01*
X139610410Y-71686990D01*
X139730490Y-71686990D01*
X139848264Y-71663564D01*
X139959204Y-71617611D01*
X140059048Y-71550898D01*
X140143958Y-71465988D01*
X140210671Y-71366144D01*
X140256624Y-71255204D01*
X140280050Y-71137430D01*
X140280050Y-71017350D01*
X140256624Y-70899576D01*
X140210671Y-70788636D01*
X140143958Y-70688792D01*
X140059048Y-70603882D01*
X139959204Y-70537169D01*
X139848264Y-70491216D01*
X139730490Y-70467790D01*
X139610410Y-70467790D01*
X139492636Y-70491216D01*
X139381696Y-70537169D01*
X139281852Y-70603882D01*
X139196942Y-70688792D01*
X139157984Y-70747098D01*
X139152708Y-70739202D01*
X139067798Y-70654292D01*
X138967954Y-70587579D01*
X138857014Y-70541626D01*
X138739240Y-70518200D01*
X138619160Y-70518200D01*
X138501386Y-70541626D01*
X138390446Y-70587579D01*
X138290602Y-70654292D01*
X138205692Y-70739202D01*
X138138979Y-70839046D01*
X138093026Y-70949986D01*
X138069600Y-71067760D01*
X132068274Y-71067760D01*
X132068274Y-70238000D01*
X132062389Y-70178249D01*
X132060178Y-70170960D01*
X135915400Y-70170960D01*
X135915400Y-70291040D01*
X135938826Y-70408814D01*
X135984779Y-70519754D01*
X136051492Y-70619598D01*
X136136402Y-70704508D01*
X136236246Y-70771221D01*
X136347186Y-70817174D01*
X136464960Y-70840600D01*
X136585040Y-70840600D01*
X136702814Y-70817174D01*
X136813754Y-70771221D01*
X136913598Y-70704508D01*
X136998508Y-70619598D01*
X137065221Y-70519754D01*
X137111174Y-70408814D01*
X137134600Y-70291040D01*
X137134600Y-70192281D01*
X137185414Y-70182174D01*
X137296354Y-70136221D01*
X137396198Y-70069508D01*
X137481108Y-69984598D01*
X137547821Y-69884754D01*
X137593774Y-69773814D01*
X137617200Y-69656040D01*
X137617200Y-69535960D01*
X137593774Y-69418186D01*
X137547821Y-69307246D01*
X137519166Y-69264360D01*
X144826000Y-69264360D01*
X144826000Y-69384440D01*
X144849426Y-69502214D01*
X144895379Y-69613154D01*
X144962092Y-69712998D01*
X145047002Y-69797908D01*
X145146846Y-69864621D01*
X145257786Y-69910574D01*
X145371053Y-69933103D01*
X145287986Y-69949626D01*
X145177046Y-69995579D01*
X145077202Y-70062292D01*
X144992292Y-70147202D01*
X144925579Y-70247046D01*
X144879626Y-70357986D01*
X144856200Y-70475760D01*
X144856200Y-70595840D01*
X144879626Y-70713614D01*
X144925579Y-70824554D01*
X144992292Y-70924398D01*
X145077202Y-71009308D01*
X145177046Y-71076021D01*
X145287986Y-71121974D01*
X145405760Y-71145400D01*
X145525840Y-71145400D01*
X145643614Y-71121974D01*
X145754554Y-71076021D01*
X145854398Y-71009308D01*
X145939308Y-70924398D01*
X146006021Y-70824554D01*
X146051974Y-70713614D01*
X146075400Y-70595840D01*
X146075400Y-70475760D01*
X146051974Y-70357986D01*
X146006021Y-70247046D01*
X145939308Y-70147202D01*
X145854398Y-70062292D01*
X145754554Y-69995579D01*
X145643614Y-69949626D01*
X145530347Y-69927097D01*
X145613414Y-69910574D01*
X145724354Y-69864621D01*
X145824198Y-69797908D01*
X145909108Y-69712998D01*
X145975821Y-69613154D01*
X146021774Y-69502214D01*
X146045200Y-69384440D01*
X146045200Y-69264360D01*
X146021774Y-69146586D01*
X145975821Y-69035646D01*
X145909108Y-68935802D01*
X145882066Y-68908760D01*
X146248400Y-68908760D01*
X146248400Y-69028840D01*
X146271826Y-69146614D01*
X146317779Y-69257554D01*
X146384492Y-69357398D01*
X146469402Y-69442308D01*
X146569246Y-69509021D01*
X146680186Y-69554974D01*
X146797960Y-69578400D01*
X146918040Y-69578400D01*
X147035814Y-69554974D01*
X147146754Y-69509021D01*
X147246598Y-69442308D01*
X147331508Y-69357398D01*
X147398221Y-69257554D01*
X147444174Y-69146614D01*
X147467600Y-69028840D01*
X147467600Y-68908760D01*
X147444174Y-68790986D01*
X147398221Y-68680046D01*
X147331508Y-68580202D01*
X147246598Y-68495292D01*
X147146754Y-68428579D01*
X147035814Y-68382626D01*
X146918040Y-68359200D01*
X146797960Y-68359200D01*
X146680186Y-68382626D01*
X146569246Y-68428579D01*
X146469402Y-68495292D01*
X146384492Y-68580202D01*
X146317779Y-68680046D01*
X146271826Y-68790986D01*
X146248400Y-68908760D01*
X145882066Y-68908760D01*
X145824198Y-68850892D01*
X145724354Y-68784179D01*
X145613414Y-68738226D01*
X145495640Y-68714800D01*
X145375560Y-68714800D01*
X145257786Y-68738226D01*
X145146846Y-68784179D01*
X145047002Y-68850892D01*
X144962092Y-68935802D01*
X144895379Y-69035646D01*
X144849426Y-69146586D01*
X144826000Y-69264360D01*
X137519166Y-69264360D01*
X137481108Y-69207402D01*
X137396198Y-69122492D01*
X137296354Y-69055779D01*
X137185414Y-69009826D01*
X137067640Y-68986400D01*
X136947560Y-68986400D01*
X136829786Y-69009826D01*
X136718846Y-69055779D01*
X136619002Y-69122492D01*
X136534092Y-69207402D01*
X136467379Y-69307246D01*
X136421426Y-69418186D01*
X136398000Y-69535960D01*
X136398000Y-69634719D01*
X136347186Y-69644826D01*
X136236246Y-69690779D01*
X136136402Y-69757492D01*
X136051492Y-69842402D01*
X135984779Y-69942246D01*
X135938826Y-70053186D01*
X135915400Y-70170960D01*
X132060178Y-70170960D01*
X132044960Y-70120794D01*
X132016658Y-70067843D01*
X131978568Y-70021432D01*
X131952454Y-70000000D01*
X131978568Y-69978568D01*
X132016658Y-69932157D01*
X132044960Y-69879206D01*
X132062389Y-69821751D01*
X132068274Y-69762000D01*
X132068274Y-68857960D01*
X134666000Y-68857960D01*
X134666000Y-68978040D01*
X134689426Y-69095814D01*
X134735379Y-69206754D01*
X134802092Y-69306598D01*
X134887002Y-69391508D01*
X134986846Y-69458221D01*
X135097786Y-69504174D01*
X135215560Y-69527600D01*
X135335640Y-69527600D01*
X135453414Y-69504174D01*
X135564354Y-69458221D01*
X135664198Y-69391508D01*
X135749108Y-69306598D01*
X135815821Y-69206754D01*
X135861774Y-69095814D01*
X135885200Y-68978040D01*
X135885200Y-68857960D01*
X135861774Y-68740186D01*
X135815821Y-68629246D01*
X135749108Y-68529402D01*
X135664198Y-68444492D01*
X135564354Y-68377779D01*
X135453414Y-68331826D01*
X135335640Y-68308400D01*
X135215560Y-68308400D01*
X135097786Y-68331826D01*
X134986846Y-68377779D01*
X134887002Y-68444492D01*
X134802092Y-68529402D01*
X134735379Y-68629246D01*
X134689426Y-68740186D01*
X134666000Y-68857960D01*
X132068274Y-68857960D01*
X132068274Y-68238000D01*
X132062389Y-68178249D01*
X132044960Y-68120794D01*
X132016658Y-68067843D01*
X131978568Y-68021432D01*
X131952454Y-68000000D01*
X131978568Y-67978568D01*
X132016658Y-67932157D01*
X132044960Y-67879206D01*
X132062389Y-67821751D01*
X132068274Y-67762000D01*
X132068274Y-66391187D01*
X135145200Y-66391187D01*
X135145200Y-66608813D01*
X135187657Y-66822258D01*
X135270939Y-67023319D01*
X135391846Y-67204269D01*
X135545731Y-67358154D01*
X135726681Y-67479061D01*
X135927742Y-67562343D01*
X136141187Y-67604800D01*
X136358813Y-67604800D01*
X136572258Y-67562343D01*
X136773319Y-67479061D01*
X136954269Y-67358154D01*
X137108154Y-67204269D01*
X137229061Y-67023319D01*
X137312343Y-66822258D01*
X137354800Y-66608813D01*
X137354800Y-66391187D01*
X137645200Y-66391187D01*
X137645200Y-66608813D01*
X137687657Y-66822258D01*
X137770939Y-67023319D01*
X137891846Y-67204269D01*
X138045731Y-67358154D01*
X138226681Y-67479061D01*
X138427742Y-67562343D01*
X138641187Y-67604800D01*
X138858813Y-67604800D01*
X139072258Y-67562343D01*
X139273319Y-67479061D01*
X139454269Y-67358154D01*
X139608154Y-67204269D01*
X139729061Y-67023319D01*
X139812343Y-66822258D01*
X139854800Y-66608813D01*
X139854800Y-66391187D01*
X140145200Y-66391187D01*
X140145200Y-66608813D01*
X140187657Y-66822258D01*
X140270939Y-67023319D01*
X140391846Y-67204269D01*
X140545731Y-67358154D01*
X140726681Y-67479061D01*
X140927742Y-67562343D01*
X141141187Y-67604800D01*
X141358813Y-67604800D01*
X141572258Y-67562343D01*
X141773319Y-67479061D01*
X141954269Y-67358154D01*
X142108154Y-67204269D01*
X142229061Y-67023319D01*
X142312343Y-66822258D01*
X142354800Y-66608813D01*
X142354800Y-66391187D01*
X142312343Y-66177742D01*
X142229061Y-65976681D01*
X142108154Y-65795731D01*
X142012423Y-65700000D01*
X142643726Y-65700000D01*
X142643726Y-67300000D01*
X142649611Y-67359751D01*
X142667040Y-67417206D01*
X142695342Y-67470157D01*
X142733432Y-67516568D01*
X142779843Y-67554658D01*
X142832794Y-67582960D01*
X142890249Y-67600389D01*
X142950000Y-67606274D01*
X144550000Y-67606274D01*
X144609751Y-67600389D01*
X144667206Y-67582960D01*
X144720157Y-67554658D01*
X144766568Y-67516568D01*
X144804658Y-67470157D01*
X144832960Y-67417206D01*
X144850389Y-67359751D01*
X144856274Y-67300000D01*
X144856274Y-65700000D01*
X144850389Y-65640249D01*
X144832960Y-65582794D01*
X144810066Y-65539960D01*
X145790400Y-65539960D01*
X145790400Y-65660040D01*
X145813826Y-65777814D01*
X145859779Y-65888754D01*
X145926492Y-65988598D01*
X146011402Y-66073508D01*
X146111246Y-66140221D01*
X146222186Y-66186174D01*
X146339960Y-66209600D01*
X146460040Y-66209600D01*
X146577814Y-66186174D01*
X146688754Y-66140221D01*
X146788598Y-66073508D01*
X146873508Y-65988598D01*
X146940221Y-65888754D01*
X146986174Y-65777814D01*
X147009600Y-65660040D01*
X147009600Y-65539960D01*
X146986174Y-65422186D01*
X146940221Y-65311246D01*
X146873508Y-65211402D01*
X146788598Y-65126492D01*
X146688754Y-65059779D01*
X146577814Y-65013826D01*
X146460040Y-64990400D01*
X146339960Y-64990400D01*
X146222186Y-65013826D01*
X146111246Y-65059779D01*
X146011402Y-65126492D01*
X145926492Y-65211402D01*
X145859779Y-65311246D01*
X145813826Y-65422186D01*
X145790400Y-65539960D01*
X144810066Y-65539960D01*
X144804658Y-65529843D01*
X144766568Y-65483432D01*
X144720157Y-65445342D01*
X144667206Y-65417040D01*
X144609751Y-65399611D01*
X144550000Y-65393726D01*
X142950000Y-65393726D01*
X142890249Y-65399611D01*
X142832794Y-65417040D01*
X142779843Y-65445342D01*
X142733432Y-65483432D01*
X142695342Y-65529843D01*
X142667040Y-65582794D01*
X142649611Y-65640249D01*
X142643726Y-65700000D01*
X142012423Y-65700000D01*
X141954269Y-65641846D01*
X141773319Y-65520939D01*
X141572258Y-65437657D01*
X141358813Y-65395200D01*
X141141187Y-65395200D01*
X140927742Y-65437657D01*
X140726681Y-65520939D01*
X140545731Y-65641846D01*
X140391846Y-65795731D01*
X140270939Y-65976681D01*
X140187657Y-66177742D01*
X140145200Y-66391187D01*
X139854800Y-66391187D01*
X139812343Y-66177742D01*
X139729061Y-65976681D01*
X139608154Y-65795731D01*
X139454269Y-65641846D01*
X139273319Y-65520939D01*
X139072258Y-65437657D01*
X138858813Y-65395200D01*
X138641187Y-65395200D01*
X138427742Y-65437657D01*
X138226681Y-65520939D01*
X138045731Y-65641846D01*
X137891846Y-65795731D01*
X137770939Y-65976681D01*
X137687657Y-66177742D01*
X137645200Y-66391187D01*
X137354800Y-66391187D01*
X137312343Y-66177742D01*
X137229061Y-65976681D01*
X137108154Y-65795731D01*
X136954269Y-65641846D01*
X136773319Y-65520939D01*
X136572258Y-65437657D01*
X136358813Y-65395200D01*
X136141187Y-65395200D01*
X135927742Y-65437657D01*
X135726681Y-65520939D01*
X135545731Y-65641846D01*
X135391846Y-65795731D01*
X135270939Y-65976681D01*
X135187657Y-66177742D01*
X135145200Y-66391187D01*
X132068274Y-66391187D01*
X132068274Y-66238000D01*
X132062389Y-66178249D01*
X132044960Y-66120794D01*
X132016658Y-66067843D01*
X131978568Y-66021432D01*
X131932157Y-65983342D01*
X131879206Y-65955040D01*
X131821751Y-65937611D01*
X131762000Y-65931726D01*
X131404800Y-65931726D01*
X131404800Y-64019798D01*
X131456130Y-63496300D01*
X131602413Y-63011785D01*
X131840020Y-62564911D01*
X132159900Y-62172701D01*
X132549868Y-61850090D01*
X132995069Y-61609372D01*
X133478552Y-61459707D01*
X134000970Y-61404800D01*
X145980202Y-61404800D01*
X146503700Y-61456130D01*
M02*
