%FSLAX45Y45*%
G04 Gerber Fmt 4.5, Leading zero omitted, Abs format (unit mm)*
G04 Created by KiCad (PCBNEW (5.1.5)-2) date 2020-02-06 19:09:14*
%MOMM*%
%LPD*%
G04 APERTURE LIST*
%TA.AperFunction,Profile*%
%ADD10C,0.200000*%
%TD*%
%ADD11C,0.200000*%
%ADD12C,0.300000*%
G04 APERTURE END LIST*
D10*
X13100000Y-8980000D02*
X13100000Y-6400000D01*
X14600000Y-9280000D02*
G75*
G03X14900000Y-8980000I0J300000D01*
G01*
X13100000Y-8980000D02*
G75*
G03X13400000Y-9280000I300000J0D01*
G01*
X14900000Y-6400000D02*
G75*
G03X14600000Y-6100000I-300000J0D01*
G01*
X13100000Y-6400000D02*
G75*
G02X13400000Y-6100000I300000J0D01*
G01*
X14900000Y-6400000D02*
X14900000Y-8980000D01*
X13400000Y-6100000D02*
X14600000Y-6100000D01*
X14600000Y-9280000D02*
X13400000Y-9280000D01*
D11*
X13715000Y-8940000D02*
X13835000Y-9060000D01*
X13835000Y-8940000D02*
X13715000Y-9060000D01*
X14165000Y-8940000D02*
X14285000Y-9060000D01*
X14285000Y-8940000D02*
X14165000Y-9060000D01*
D12*
X13376428Y-9755714D02*
X13376428Y-9455714D01*
X13447857Y-9455714D01*
X13490714Y-9470000D01*
X13519286Y-9498572D01*
X13533571Y-9527143D01*
X13547857Y-9584286D01*
X13547857Y-9627143D01*
X13533571Y-9684286D01*
X13519286Y-9712857D01*
X13490714Y-9741429D01*
X13447857Y-9755714D01*
X13376428Y-9755714D01*
X13676428Y-9755714D02*
X13676428Y-9555714D01*
X13676428Y-9612857D02*
X13690714Y-9584286D01*
X13705000Y-9570000D01*
X13733571Y-9555714D01*
X13762143Y-9555714D01*
X13862143Y-9755714D02*
X13862143Y-9555714D01*
X13862143Y-9455714D02*
X13847857Y-9470000D01*
X13862143Y-9484286D01*
X13876428Y-9470000D01*
X13862143Y-9455714D01*
X13862143Y-9484286D01*
X14047857Y-9755714D02*
X14019286Y-9741429D01*
X14005000Y-9712857D01*
X14005000Y-9455714D01*
X14205000Y-9755714D02*
X14176428Y-9741429D01*
X14162143Y-9712857D01*
X14162143Y-9455714D01*
X14547857Y-9755714D02*
X14547857Y-9455714D01*
X14647857Y-9670000D01*
X14747857Y-9455714D01*
X14747857Y-9755714D01*
X15019286Y-9755714D02*
X15019286Y-9598572D01*
X15005000Y-9570000D01*
X14976428Y-9555714D01*
X14919286Y-9555714D01*
X14890714Y-9570000D01*
X15019286Y-9741429D02*
X14990714Y-9755714D01*
X14919286Y-9755714D01*
X14890714Y-9741429D01*
X14876428Y-9712857D01*
X14876428Y-9684286D01*
X14890714Y-9655714D01*
X14919286Y-9641429D01*
X14990714Y-9641429D01*
X15019286Y-9627143D01*
X15162143Y-9555714D02*
X15162143Y-9855714D01*
X15162143Y-9570000D02*
X15190714Y-9555714D01*
X15247857Y-9555714D01*
X15276428Y-9570000D01*
X15290714Y-9584286D01*
X15305000Y-9612857D01*
X15305000Y-9698572D01*
X15290714Y-9727143D01*
X15276428Y-9741429D01*
X15247857Y-9755714D01*
X15190714Y-9755714D01*
X15162143Y-9741429D01*
X15433571Y-9727143D02*
X15447857Y-9741429D01*
X15433571Y-9755714D01*
X15419286Y-9741429D01*
X15433571Y-9727143D01*
X15433571Y-9755714D01*
X15433571Y-9570000D02*
X15447857Y-9584286D01*
X15433571Y-9598572D01*
X15419286Y-9584286D01*
X15433571Y-9570000D01*
X15433571Y-9598572D01*
X12970000Y-10190000D02*
X13090000Y-10310000D01*
X13090000Y-10190000D02*
X12970000Y-10310000D01*
X13533571Y-10385714D02*
X13362143Y-10385714D01*
X13447857Y-10385714D02*
X13447857Y-10085714D01*
X13419286Y-10128572D01*
X13390714Y-10157143D01*
X13362143Y-10171429D01*
X13662143Y-10357143D02*
X13676428Y-10371429D01*
X13662143Y-10385714D01*
X13647857Y-10371429D01*
X13662143Y-10357143D01*
X13662143Y-10385714D01*
X13790714Y-10114286D02*
X13805000Y-10100000D01*
X13833571Y-10085714D01*
X13905000Y-10085714D01*
X13933571Y-10100000D01*
X13947857Y-10114286D01*
X13962143Y-10142857D01*
X13962143Y-10171429D01*
X13947857Y-10214286D01*
X13776428Y-10385714D01*
X13962143Y-10385714D01*
X14147857Y-10085714D02*
X14176428Y-10085714D01*
X14205000Y-10100000D01*
X14219286Y-10114286D01*
X14233571Y-10142857D01*
X14247857Y-10200000D01*
X14247857Y-10271429D01*
X14233571Y-10328572D01*
X14219286Y-10357143D01*
X14205000Y-10371429D01*
X14176428Y-10385714D01*
X14147857Y-10385714D01*
X14119286Y-10371429D01*
X14105000Y-10357143D01*
X14090714Y-10328572D01*
X14076428Y-10271429D01*
X14076428Y-10200000D01*
X14090714Y-10142857D01*
X14105000Y-10114286D01*
X14119286Y-10100000D01*
X14147857Y-10085714D01*
X14376428Y-10385714D02*
X14376428Y-10185714D01*
X14376428Y-10214286D02*
X14390714Y-10200000D01*
X14419286Y-10185714D01*
X14462143Y-10185714D01*
X14490714Y-10200000D01*
X14505000Y-10228572D01*
X14505000Y-10385714D01*
X14505000Y-10228572D02*
X14519286Y-10200000D01*
X14547857Y-10185714D01*
X14590714Y-10185714D01*
X14619286Y-10200000D01*
X14633571Y-10228572D01*
X14633571Y-10385714D01*
X14776428Y-10385714D02*
X14776428Y-10185714D01*
X14776428Y-10214286D02*
X14790714Y-10200000D01*
X14819286Y-10185714D01*
X14862143Y-10185714D01*
X14890714Y-10200000D01*
X14905000Y-10228572D01*
X14905000Y-10385714D01*
X14905000Y-10228572D02*
X14919286Y-10200000D01*
X14947857Y-10185714D01*
X14990714Y-10185714D01*
X15019286Y-10200000D01*
X15033571Y-10228572D01*
X15033571Y-10385714D01*
X15619286Y-10071429D02*
X15362143Y-10457143D01*
X16005000Y-10085714D02*
X16033571Y-10085714D01*
X16062143Y-10100000D01*
X16076428Y-10114286D01*
X16090714Y-10142857D01*
X16105000Y-10200000D01*
X16105000Y-10271429D01*
X16090714Y-10328572D01*
X16076428Y-10357143D01*
X16062143Y-10371429D01*
X16033571Y-10385714D01*
X16005000Y-10385714D01*
X15976428Y-10371429D01*
X15962143Y-10357143D01*
X15947857Y-10328572D01*
X15933571Y-10271429D01*
X15933571Y-10200000D01*
X15947857Y-10142857D01*
X15962143Y-10114286D01*
X15976428Y-10100000D01*
X16005000Y-10085714D01*
X16233571Y-10357143D02*
X16247857Y-10371429D01*
X16233571Y-10385714D01*
X16219286Y-10371429D01*
X16233571Y-10357143D01*
X16233571Y-10385714D01*
X16433571Y-10085714D02*
X16462143Y-10085714D01*
X16490714Y-10100000D01*
X16505000Y-10114286D01*
X16519286Y-10142857D01*
X16533571Y-10200000D01*
X16533571Y-10271429D01*
X16519286Y-10328572D01*
X16505000Y-10357143D01*
X16490714Y-10371429D01*
X16462143Y-10385714D01*
X16433571Y-10385714D01*
X16405000Y-10371429D01*
X16390714Y-10357143D01*
X16376428Y-10328572D01*
X16362143Y-10271429D01*
X16362143Y-10200000D01*
X16376428Y-10142857D01*
X16390714Y-10114286D01*
X16405000Y-10100000D01*
X16433571Y-10085714D01*
X16790714Y-10185714D02*
X16790714Y-10385714D01*
X16719286Y-10071429D02*
X16647857Y-10285714D01*
X16833571Y-10285714D01*
X16919286Y-10085714D02*
X17119286Y-10085714D01*
X16990714Y-10385714D01*
X17219286Y-10085714D02*
X17219286Y-10142857D01*
X17333571Y-10085714D02*
X17333571Y-10142857D01*
X17776428Y-10500000D02*
X17762143Y-10485714D01*
X17733571Y-10442857D01*
X17719286Y-10414286D01*
X17705000Y-10371429D01*
X17690714Y-10300000D01*
X17690714Y-10242857D01*
X17705000Y-10171429D01*
X17719286Y-10128572D01*
X17733571Y-10100000D01*
X17762143Y-10057143D01*
X17776428Y-10042857D01*
X17876428Y-10114286D02*
X17890714Y-10100000D01*
X17919286Y-10085714D01*
X17990714Y-10085714D01*
X18019286Y-10100000D01*
X18033571Y-10114286D01*
X18047857Y-10142857D01*
X18047857Y-10171429D01*
X18033571Y-10214286D01*
X17862143Y-10385714D01*
X18047857Y-10385714D01*
X18405000Y-10385714D02*
X18405000Y-10085714D01*
X18533571Y-10385714D02*
X18533571Y-10228572D01*
X18519286Y-10200000D01*
X18490714Y-10185714D01*
X18447857Y-10185714D01*
X18419286Y-10200000D01*
X18405000Y-10214286D01*
X18719286Y-10385714D02*
X18690714Y-10371429D01*
X18676428Y-10357143D01*
X18662143Y-10328572D01*
X18662143Y-10242857D01*
X18676428Y-10214286D01*
X18690714Y-10200000D01*
X18719286Y-10185714D01*
X18762143Y-10185714D01*
X18790714Y-10200000D01*
X18805000Y-10214286D01*
X18819286Y-10242857D01*
X18819286Y-10328572D01*
X18805000Y-10357143D01*
X18790714Y-10371429D01*
X18762143Y-10385714D01*
X18719286Y-10385714D01*
X18990714Y-10385714D02*
X18962143Y-10371429D01*
X18947857Y-10342857D01*
X18947857Y-10085714D01*
X19219286Y-10371429D02*
X19190714Y-10385714D01*
X19133571Y-10385714D01*
X19105000Y-10371429D01*
X19090714Y-10342857D01*
X19090714Y-10228572D01*
X19105000Y-10200000D01*
X19133571Y-10185714D01*
X19190714Y-10185714D01*
X19219286Y-10200000D01*
X19233571Y-10228572D01*
X19233571Y-10257143D01*
X19090714Y-10285714D01*
X19347857Y-10371429D02*
X19376428Y-10385714D01*
X19433571Y-10385714D01*
X19462143Y-10371429D01*
X19476428Y-10342857D01*
X19476428Y-10328572D01*
X19462143Y-10300000D01*
X19433571Y-10285714D01*
X19390714Y-10285714D01*
X19362143Y-10271429D01*
X19347857Y-10242857D01*
X19347857Y-10228572D01*
X19362143Y-10200000D01*
X19390714Y-10185714D01*
X19433571Y-10185714D01*
X19462143Y-10200000D01*
X19576428Y-10500000D02*
X19590714Y-10485714D01*
X19619286Y-10442857D01*
X19633571Y-10414286D01*
X19647857Y-10371429D01*
X19662143Y-10300000D01*
X19662143Y-10242857D01*
X19647857Y-10171429D01*
X19633571Y-10128572D01*
X19619286Y-10100000D01*
X19590714Y-10057143D01*
X19576428Y-10042857D01*
X20119286Y-10500000D02*
X20105000Y-10485714D01*
X20076428Y-10442857D01*
X20062143Y-10414286D01*
X20047857Y-10371429D01*
X20033571Y-10300000D01*
X20033571Y-10242857D01*
X20047857Y-10171429D01*
X20062143Y-10128572D01*
X20076428Y-10100000D01*
X20105000Y-10057143D01*
X20119286Y-10042857D01*
X20233571Y-10185714D02*
X20233571Y-10385714D01*
X20233571Y-10214286D02*
X20247857Y-10200000D01*
X20276428Y-10185714D01*
X20319286Y-10185714D01*
X20347857Y-10200000D01*
X20362143Y-10228572D01*
X20362143Y-10385714D01*
X20547857Y-10385714D02*
X20519286Y-10371429D01*
X20505000Y-10357143D01*
X20490714Y-10328572D01*
X20490714Y-10242857D01*
X20505000Y-10214286D01*
X20519286Y-10200000D01*
X20547857Y-10185714D01*
X20590714Y-10185714D01*
X20619286Y-10200000D01*
X20633571Y-10214286D01*
X20647857Y-10242857D01*
X20647857Y-10328572D01*
X20633571Y-10357143D01*
X20619286Y-10371429D01*
X20590714Y-10385714D01*
X20547857Y-10385714D01*
X20733571Y-10185714D02*
X20847857Y-10185714D01*
X20776428Y-10085714D02*
X20776428Y-10342857D01*
X20790714Y-10371429D01*
X20819286Y-10385714D01*
X20847857Y-10385714D01*
X21176428Y-10185714D02*
X21176428Y-10485714D01*
X21176428Y-10200000D02*
X21205000Y-10185714D01*
X21262143Y-10185714D01*
X21290714Y-10200000D01*
X21305000Y-10214286D01*
X21319286Y-10242857D01*
X21319286Y-10328572D01*
X21305000Y-10357143D01*
X21290714Y-10371429D01*
X21262143Y-10385714D01*
X21205000Y-10385714D01*
X21176428Y-10371429D01*
X21490714Y-10385714D02*
X21462143Y-10371429D01*
X21447857Y-10342857D01*
X21447857Y-10085714D01*
X21733571Y-10385714D02*
X21733571Y-10228572D01*
X21719286Y-10200000D01*
X21690714Y-10185714D01*
X21633571Y-10185714D01*
X21605000Y-10200000D01*
X21733571Y-10371429D02*
X21705000Y-10385714D01*
X21633571Y-10385714D01*
X21605000Y-10371429D01*
X21590714Y-10342857D01*
X21590714Y-10314286D01*
X21605000Y-10285714D01*
X21633571Y-10271429D01*
X21705000Y-10271429D01*
X21733571Y-10257143D01*
X21833571Y-10185714D02*
X21947857Y-10185714D01*
X21876428Y-10085714D02*
X21876428Y-10342857D01*
X21890714Y-10371429D01*
X21919286Y-10385714D01*
X21947857Y-10385714D01*
X22162143Y-10371429D02*
X22133571Y-10385714D01*
X22076428Y-10385714D01*
X22047857Y-10371429D01*
X22033571Y-10342857D01*
X22033571Y-10228572D01*
X22047857Y-10200000D01*
X22076428Y-10185714D01*
X22133571Y-10185714D01*
X22162143Y-10200000D01*
X22176428Y-10228572D01*
X22176428Y-10257143D01*
X22033571Y-10285714D01*
X22433571Y-10385714D02*
X22433571Y-10085714D01*
X22433571Y-10371429D02*
X22405000Y-10385714D01*
X22347857Y-10385714D01*
X22319286Y-10371429D01*
X22305000Y-10357143D01*
X22290714Y-10328572D01*
X22290714Y-10242857D01*
X22305000Y-10214286D01*
X22319286Y-10200000D01*
X22347857Y-10185714D01*
X22405000Y-10185714D01*
X22433571Y-10200000D01*
X22547857Y-10500000D02*
X22562143Y-10485714D01*
X22590714Y-10442857D01*
X22605000Y-10414286D01*
X22619286Y-10371429D01*
X22633571Y-10300000D01*
X22633571Y-10242857D01*
X22619286Y-10171429D01*
X22605000Y-10128572D01*
X22590714Y-10100000D01*
X22562143Y-10057143D01*
X22547857Y-10042857D01*
M02*
