G04 #@! TF.GenerationSoftware,KiCad,Pcbnew,(5.1.5)-2*
G04 #@! TF.CreationDate,2020-02-06T19:09:09-08:00*
G04 #@! TF.ProjectId,USB2RoMeLa_Boosted,55534232-526f-44d6-954c-615f426f6f73,rev?*
G04 #@! TF.SameCoordinates,Original*
G04 #@! TF.FileFunction,Legend,Bot*
G04 #@! TF.FilePolarity,Positive*
%FSLAX46Y46*%
G04 Gerber Fmt 4.6, Leading zero omitted, Abs format (unit mm)*
G04 Created by KiCad (PCBNEW (5.1.5)-2) date 2020-02-06 19:09:09*
%MOMM*%
%LPD*%
G04 APERTURE LIST*
%ADD10C,0.127000*%
%ADD11C,0.120000*%
%ADD12C,0.010000*%
G04 APERTURE END LIST*
D10*
X139298714Y-68344714D02*
X139298714Y-67582714D01*
X138863285Y-68344714D01*
X138863285Y-67582714D01*
X138065000Y-68272142D02*
X138101285Y-68308428D01*
X138210142Y-68344714D01*
X138282714Y-68344714D01*
X138391571Y-68308428D01*
X138464142Y-68235857D01*
X138500428Y-68163285D01*
X138536714Y-68018142D01*
X138536714Y-67909285D01*
X138500428Y-67764142D01*
X138464142Y-67691571D01*
X138391571Y-67619000D01*
X138282714Y-67582714D01*
X138210142Y-67582714D01*
X138101285Y-67619000D01*
X138065000Y-67655285D01*
X136780571Y-67619000D02*
X136853142Y-67582714D01*
X136962000Y-67582714D01*
X137070857Y-67619000D01*
X137143428Y-67691571D01*
X137179714Y-67764142D01*
X137216000Y-67909285D01*
X137216000Y-68018142D01*
X137179714Y-68163285D01*
X137143428Y-68235857D01*
X137070857Y-68308428D01*
X136962000Y-68344714D01*
X136889428Y-68344714D01*
X136780571Y-68308428D01*
X136744285Y-68272142D01*
X136744285Y-68018142D01*
X136889428Y-68018142D01*
X136417714Y-68344714D02*
X136417714Y-67582714D01*
X135982285Y-68344714D01*
X135982285Y-67582714D01*
X135619428Y-68344714D02*
X135619428Y-67582714D01*
X135438000Y-67582714D01*
X135329142Y-67619000D01*
X135256571Y-67691571D01*
X135220285Y-67764142D01*
X135184000Y-67909285D01*
X135184000Y-68018142D01*
X135220285Y-68163285D01*
X135256571Y-68235857D01*
X135329142Y-68308428D01*
X135438000Y-68344714D01*
X135619428Y-68344714D01*
X143990285Y-67954428D02*
X143409714Y-67954428D01*
X141490285Y-67954428D02*
X140909714Y-67954428D01*
X141200000Y-68244714D02*
X141200000Y-67664142D01*
X148444714Y-62911857D02*
X148081857Y-62657857D01*
X148444714Y-62476428D02*
X147682714Y-62476428D01*
X147682714Y-62766714D01*
X147719000Y-62839285D01*
X147755285Y-62875571D01*
X147827857Y-62911857D01*
X147936714Y-62911857D01*
X148009285Y-62875571D01*
X148045571Y-62839285D01*
X148081857Y-62766714D01*
X148081857Y-62476428D01*
X148408428Y-63528714D02*
X148444714Y-63456142D01*
X148444714Y-63311000D01*
X148408428Y-63238428D01*
X148335857Y-63202142D01*
X148045571Y-63202142D01*
X147973000Y-63238428D01*
X147936714Y-63311000D01*
X147936714Y-63456142D01*
X147973000Y-63528714D01*
X148045571Y-63565000D01*
X148118142Y-63565000D01*
X148190714Y-63202142D01*
X147936714Y-63819000D02*
X148444714Y-64000428D01*
X147936714Y-64181857D01*
X147755285Y-64435857D02*
X147719000Y-64472142D01*
X147682714Y-64544714D01*
X147682714Y-64726142D01*
X147719000Y-64798714D01*
X147755285Y-64835000D01*
X147827857Y-64871285D01*
X147900428Y-64871285D01*
X148009285Y-64835000D01*
X148444714Y-64399571D01*
X148444714Y-64871285D01*
X148372142Y-65197857D02*
X148408428Y-65234142D01*
X148444714Y-65197857D01*
X148408428Y-65161571D01*
X148372142Y-65197857D01*
X148444714Y-65197857D01*
X148444714Y-65959857D02*
X148444714Y-65524428D01*
X148444714Y-65742142D02*
X147682714Y-65742142D01*
X147791571Y-65669571D01*
X147864142Y-65597000D01*
X147900428Y-65524428D01*
D11*
X141660000Y-80260000D02*
X141660000Y-81550000D01*
X142110000Y-80260000D02*
X141660000Y-80260000D01*
X142110000Y-79810000D02*
X142110000Y-80260000D01*
X142110000Y-73040000D02*
X141660000Y-73040000D01*
X142110000Y-73490000D02*
X142110000Y-73040000D01*
X134890000Y-80260000D02*
X135340000Y-80260000D01*
X134890000Y-79810000D02*
X134890000Y-80260000D01*
X134890000Y-73040000D02*
X135340000Y-73040000D01*
X134890000Y-73490000D02*
X134890000Y-73040000D01*
X143391200Y-64297020D02*
X143391200Y-62887020D01*
X145711200Y-62887020D02*
X145711200Y-64917020D01*
X145711200Y-62887020D02*
X145051200Y-62887020D01*
X144051200Y-62887020D02*
X143391200Y-62887020D01*
X139360000Y-62880000D02*
X139360000Y-62170000D01*
X133839000Y-62880000D02*
X133839000Y-62170000D01*
X139360000Y-64830000D02*
X139360000Y-64120000D01*
X133839000Y-64830000D02*
X139360000Y-64830000D01*
X133839000Y-64830000D02*
X133839000Y-64180000D01*
X133260000Y-64180000D02*
X133839000Y-64180000D01*
X133839000Y-62170000D02*
X139360000Y-62170000D01*
X140610000Y-83600000D02*
X140610000Y-86050000D01*
X137390000Y-85400000D02*
X137390000Y-83600000D01*
X142110000Y-63341422D02*
X142110000Y-63858578D01*
X140690000Y-63341422D02*
X140690000Y-63858578D01*
X133511500Y-67335078D02*
X133511500Y-66817922D01*
X134931500Y-67335078D02*
X134931500Y-66817922D01*
X143850421Y-70084400D02*
X144175979Y-70084400D01*
X143850421Y-71104400D02*
X144175979Y-71104400D01*
X143850421Y-68585800D02*
X144175979Y-68585800D01*
X143850421Y-69605800D02*
X144175979Y-69605800D01*
X147510000Y-65937221D02*
X147510000Y-66262779D01*
X146490000Y-65937221D02*
X146490000Y-66262779D01*
X145141500Y-84142979D02*
X145141500Y-83817421D01*
X146161500Y-84142979D02*
X146161500Y-83817421D01*
X143681000Y-84142979D02*
X143681000Y-83817421D01*
X144701000Y-84142979D02*
X144701000Y-83817421D01*
D12*
G36*
X147789003Y-80803629D02*
G01*
X147789026Y-81256085D01*
X147789086Y-81669694D01*
X147789201Y-82046201D01*
X147789388Y-82387349D01*
X147789665Y-82694881D01*
X147790050Y-82970541D01*
X147790561Y-83216072D01*
X147791215Y-83433219D01*
X147792031Y-83623724D01*
X147793025Y-83789331D01*
X147794216Y-83931784D01*
X147795622Y-84052826D01*
X147797260Y-84154200D01*
X147799147Y-84237652D01*
X147801302Y-84304922D01*
X147803743Y-84357757D01*
X147806487Y-84397898D01*
X147809552Y-84427089D01*
X147812955Y-84447075D01*
X147816715Y-84459598D01*
X147820849Y-84466402D01*
X147825375Y-84469231D01*
X147830310Y-84469828D01*
X147831333Y-84469834D01*
X147836351Y-84469471D01*
X147840956Y-84467220D01*
X147845166Y-84461337D01*
X147848998Y-84450079D01*
X147852470Y-84431702D01*
X147855600Y-84404463D01*
X147858406Y-84366618D01*
X147860905Y-84316424D01*
X147863115Y-84252136D01*
X147865054Y-84172013D01*
X147866740Y-84074309D01*
X147868190Y-83957281D01*
X147869422Y-83819187D01*
X147870454Y-83658281D01*
X147871303Y-83472822D01*
X147871988Y-83261064D01*
X147872525Y-83021266D01*
X147872934Y-82751682D01*
X147873231Y-82450570D01*
X147873435Y-82116187D01*
X147873562Y-81746787D01*
X147873631Y-81340629D01*
X147873660Y-80895968D01*
X147873666Y-80411061D01*
X147873666Y-80310584D01*
X147873662Y-79817538D01*
X147873640Y-79365082D01*
X147873580Y-78951473D01*
X147873465Y-78574966D01*
X147873278Y-78233818D01*
X147873001Y-77926286D01*
X147872616Y-77650626D01*
X147872105Y-77405095D01*
X147871450Y-77187948D01*
X147870635Y-76997443D01*
X147869640Y-76831836D01*
X147868449Y-76689383D01*
X147867044Y-76568341D01*
X147865406Y-76466967D01*
X147863518Y-76383515D01*
X147861363Y-76316245D01*
X147858922Y-76263410D01*
X147856179Y-76223269D01*
X147853114Y-76194078D01*
X147849710Y-76174092D01*
X147845951Y-76161569D01*
X147841817Y-76154765D01*
X147837291Y-76151936D01*
X147832356Y-76151339D01*
X147831333Y-76151334D01*
X147826315Y-76151696D01*
X147821709Y-76153947D01*
X147817500Y-76159830D01*
X147813668Y-76171088D01*
X147810195Y-76189465D01*
X147807065Y-76216704D01*
X147804259Y-76254549D01*
X147801760Y-76304743D01*
X147799550Y-76369031D01*
X147797611Y-76449154D01*
X147795926Y-76546858D01*
X147794476Y-76663886D01*
X147793244Y-76801980D01*
X147792212Y-76962886D01*
X147791363Y-77148345D01*
X147790678Y-77360103D01*
X147790140Y-77599901D01*
X147789732Y-77869485D01*
X147789435Y-78170597D01*
X147789231Y-78504980D01*
X147789104Y-78874380D01*
X147789034Y-79280538D01*
X147789006Y-79725199D01*
X147789000Y-80210106D01*
X147789000Y-80310584D01*
X147789003Y-80803629D01*
G37*
X147789003Y-80803629D02*
X147789026Y-81256085D01*
X147789086Y-81669694D01*
X147789201Y-82046201D01*
X147789388Y-82387349D01*
X147789665Y-82694881D01*
X147790050Y-82970541D01*
X147790561Y-83216072D01*
X147791215Y-83433219D01*
X147792031Y-83623724D01*
X147793025Y-83789331D01*
X147794216Y-83931784D01*
X147795622Y-84052826D01*
X147797260Y-84154200D01*
X147799147Y-84237652D01*
X147801302Y-84304922D01*
X147803743Y-84357757D01*
X147806487Y-84397898D01*
X147809552Y-84427089D01*
X147812955Y-84447075D01*
X147816715Y-84459598D01*
X147820849Y-84466402D01*
X147825375Y-84469231D01*
X147830310Y-84469828D01*
X147831333Y-84469834D01*
X147836351Y-84469471D01*
X147840956Y-84467220D01*
X147845166Y-84461337D01*
X147848998Y-84450079D01*
X147852470Y-84431702D01*
X147855600Y-84404463D01*
X147858406Y-84366618D01*
X147860905Y-84316424D01*
X147863115Y-84252136D01*
X147865054Y-84172013D01*
X147866740Y-84074309D01*
X147868190Y-83957281D01*
X147869422Y-83819187D01*
X147870454Y-83658281D01*
X147871303Y-83472822D01*
X147871988Y-83261064D01*
X147872525Y-83021266D01*
X147872934Y-82751682D01*
X147873231Y-82450570D01*
X147873435Y-82116187D01*
X147873562Y-81746787D01*
X147873631Y-81340629D01*
X147873660Y-80895968D01*
X147873666Y-80411061D01*
X147873666Y-80310584D01*
X147873662Y-79817538D01*
X147873640Y-79365082D01*
X147873580Y-78951473D01*
X147873465Y-78574966D01*
X147873278Y-78233818D01*
X147873001Y-77926286D01*
X147872616Y-77650626D01*
X147872105Y-77405095D01*
X147871450Y-77187948D01*
X147870635Y-76997443D01*
X147869640Y-76831836D01*
X147868449Y-76689383D01*
X147867044Y-76568341D01*
X147865406Y-76466967D01*
X147863518Y-76383515D01*
X147861363Y-76316245D01*
X147858922Y-76263410D01*
X147856179Y-76223269D01*
X147853114Y-76194078D01*
X147849710Y-76174092D01*
X147845951Y-76161569D01*
X147841817Y-76154765D01*
X147837291Y-76151936D01*
X147832356Y-76151339D01*
X147831333Y-76151334D01*
X147826315Y-76151696D01*
X147821709Y-76153947D01*
X147817500Y-76159830D01*
X147813668Y-76171088D01*
X147810195Y-76189465D01*
X147807065Y-76216704D01*
X147804259Y-76254549D01*
X147801760Y-76304743D01*
X147799550Y-76369031D01*
X147797611Y-76449154D01*
X147795926Y-76546858D01*
X147794476Y-76663886D01*
X147793244Y-76801980D01*
X147792212Y-76962886D01*
X147791363Y-77148345D01*
X147790678Y-77360103D01*
X147790140Y-77599901D01*
X147789732Y-77869485D01*
X147789435Y-78170597D01*
X147789231Y-78504980D01*
X147789104Y-78874380D01*
X147789034Y-79280538D01*
X147789006Y-79725199D01*
X147789000Y-80210106D01*
X147789000Y-80310584D01*
X147789003Y-80803629D01*
G36*
X145402648Y-76622292D02*
G01*
X145407644Y-76800593D01*
X145414302Y-76942734D01*
X145423962Y-77054885D01*
X145437961Y-77143219D01*
X145457635Y-77213907D01*
X145484324Y-77273121D01*
X145519365Y-77327031D01*
X145564096Y-77381811D01*
X145568328Y-77386637D01*
X145675325Y-77484996D01*
X145793785Y-77546172D01*
X145931930Y-77573789D01*
X145998511Y-77576252D01*
X146161442Y-77558830D01*
X146301640Y-77508006D01*
X146416383Y-77424889D01*
X146445303Y-77393978D01*
X146506057Y-77310449D01*
X146551428Y-77215848D01*
X146585615Y-77099361D01*
X146609745Y-76970389D01*
X146635416Y-76805194D01*
X147132833Y-77190141D01*
X147259597Y-77288259D01*
X147376225Y-77378562D01*
X147478309Y-77457634D01*
X147561441Y-77522060D01*
X147621211Y-77568423D01*
X147653211Y-77593309D01*
X147656708Y-77596052D01*
X147671210Y-77598480D01*
X147679490Y-77573162D01*
X147682880Y-77514125D01*
X147683166Y-77477435D01*
X147683166Y-77337853D01*
X147154723Y-76929802D01*
X147007308Y-76815747D01*
X146890094Y-76724271D01*
X146799634Y-76652266D01*
X146732479Y-76596625D01*
X146685182Y-76554239D01*
X146654292Y-76522002D01*
X146636363Y-76496807D01*
X146627946Y-76475545D01*
X146625592Y-76455109D01*
X146625557Y-76452959D01*
X146624833Y-76384167D01*
X147683166Y-76384167D01*
X147683166Y-76151334D01*
X146392000Y-76151334D01*
X146392000Y-76384167D01*
X146391881Y-76685792D01*
X146390309Y-76801839D01*
X146386082Y-76909276D01*
X146379798Y-76997751D01*
X146372056Y-77056914D01*
X146369901Y-77066135D01*
X146318400Y-77178384D01*
X146236924Y-77265229D01*
X146132377Y-77321379D01*
X146011659Y-77341549D01*
X146010382Y-77341551D01*
X145884849Y-77322868D01*
X145778589Y-77268540D01*
X145696902Y-77181517D01*
X145676191Y-77148551D01*
X145661128Y-77116826D01*
X145650641Y-77078884D01*
X145643659Y-77027265D01*
X145639110Y-76954508D01*
X145635921Y-76853156D01*
X145633507Y-76740325D01*
X145626431Y-76384167D01*
X146392000Y-76384167D01*
X146392000Y-76151334D01*
X145391707Y-76151334D01*
X145402648Y-76622292D01*
G37*
X145402648Y-76622292D02*
X145407644Y-76800593D01*
X145414302Y-76942734D01*
X145423962Y-77054885D01*
X145437961Y-77143219D01*
X145457635Y-77213907D01*
X145484324Y-77273121D01*
X145519365Y-77327031D01*
X145564096Y-77381811D01*
X145568328Y-77386637D01*
X145675325Y-77484996D01*
X145793785Y-77546172D01*
X145931930Y-77573789D01*
X145998511Y-77576252D01*
X146161442Y-77558830D01*
X146301640Y-77508006D01*
X146416383Y-77424889D01*
X146445303Y-77393978D01*
X146506057Y-77310449D01*
X146551428Y-77215848D01*
X146585615Y-77099361D01*
X146609745Y-76970389D01*
X146635416Y-76805194D01*
X147132833Y-77190141D01*
X147259597Y-77288259D01*
X147376225Y-77378562D01*
X147478309Y-77457634D01*
X147561441Y-77522060D01*
X147621211Y-77568423D01*
X147653211Y-77593309D01*
X147656708Y-77596052D01*
X147671210Y-77598480D01*
X147679490Y-77573162D01*
X147682880Y-77514125D01*
X147683166Y-77477435D01*
X147683166Y-77337853D01*
X147154723Y-76929802D01*
X147007308Y-76815747D01*
X146890094Y-76724271D01*
X146799634Y-76652266D01*
X146732479Y-76596625D01*
X146685182Y-76554239D01*
X146654292Y-76522002D01*
X146636363Y-76496807D01*
X146627946Y-76475545D01*
X146625592Y-76455109D01*
X146625557Y-76452959D01*
X146624833Y-76384167D01*
X147683166Y-76384167D01*
X147683166Y-76151334D01*
X146392000Y-76151334D01*
X146392000Y-76384167D01*
X146391881Y-76685792D01*
X146390309Y-76801839D01*
X146386082Y-76909276D01*
X146379798Y-76997751D01*
X146372056Y-77056914D01*
X146369901Y-77066135D01*
X146318400Y-77178384D01*
X146236924Y-77265229D01*
X146132377Y-77321379D01*
X146011659Y-77341549D01*
X146010382Y-77341551D01*
X145884849Y-77322868D01*
X145778589Y-77268540D01*
X145696902Y-77181517D01*
X145676191Y-77148551D01*
X145661128Y-77116826D01*
X145650641Y-77078884D01*
X145643659Y-77027265D01*
X145639110Y-76954508D01*
X145635921Y-76853156D01*
X145633507Y-76740325D01*
X145626431Y-76384167D01*
X146392000Y-76384167D01*
X146392000Y-76151334D01*
X145391707Y-76151334D01*
X145402648Y-76622292D01*
G36*
X146798683Y-78067202D02*
G01*
X146800365Y-78092053D01*
X146817967Y-78201653D01*
X146850439Y-78287662D01*
X146855030Y-78295485D01*
X146937991Y-78392731D01*
X147042405Y-78458996D01*
X147160187Y-78493624D01*
X147283253Y-78495961D01*
X147403519Y-78465352D01*
X147512899Y-78401141D01*
X147563995Y-78352928D01*
X147640934Y-78239995D01*
X147676732Y-78118045D01*
X147670998Y-77989002D01*
X147652161Y-77921656D01*
X147592595Y-77813898D01*
X147499661Y-77721387D01*
X147420327Y-77671155D01*
X147356066Y-77645333D01*
X147285703Y-77635231D01*
X147268134Y-77635616D01*
X147268134Y-77740048D01*
X147370699Y-77766609D01*
X147461247Y-77822741D01*
X147529595Y-77905612D01*
X147535779Y-77917135D01*
X147567353Y-78017913D01*
X147567233Y-78123059D01*
X147536153Y-78217841D01*
X147519506Y-78243960D01*
X147432019Y-78331608D01*
X147331661Y-78382056D01*
X147225390Y-78395508D01*
X147120162Y-78372164D01*
X147022936Y-78312229D01*
X146948128Y-78227325D01*
X146906247Y-78130658D01*
X146902974Y-78028886D01*
X146936383Y-77929105D01*
X147004545Y-77838416D01*
X147067675Y-77786962D01*
X147163732Y-77745888D01*
X147268134Y-77740048D01*
X147268134Y-77635616D01*
X147203804Y-77637027D01*
X147067906Y-77664097D01*
X146955470Y-77726351D01*
X146866903Y-77823535D01*
X146841575Y-77865834D01*
X146811735Y-77930492D01*
X146798669Y-77990860D01*
X146798683Y-78067202D01*
G37*
X146798683Y-78067202D02*
X146800365Y-78092053D01*
X146817967Y-78201653D01*
X146850439Y-78287662D01*
X146855030Y-78295485D01*
X146937991Y-78392731D01*
X147042405Y-78458996D01*
X147160187Y-78493624D01*
X147283253Y-78495961D01*
X147403519Y-78465352D01*
X147512899Y-78401141D01*
X147563995Y-78352928D01*
X147640934Y-78239995D01*
X147676732Y-78118045D01*
X147670998Y-77989002D01*
X147652161Y-77921656D01*
X147592595Y-77813898D01*
X147499661Y-77721387D01*
X147420327Y-77671155D01*
X147356066Y-77645333D01*
X147285703Y-77635231D01*
X147268134Y-77635616D01*
X147268134Y-77740048D01*
X147370699Y-77766609D01*
X147461247Y-77822741D01*
X147529595Y-77905612D01*
X147535779Y-77917135D01*
X147567353Y-78017913D01*
X147567233Y-78123059D01*
X147536153Y-78217841D01*
X147519506Y-78243960D01*
X147432019Y-78331608D01*
X147331661Y-78382056D01*
X147225390Y-78395508D01*
X147120162Y-78372164D01*
X147022936Y-78312229D01*
X146948128Y-78227325D01*
X146906247Y-78130658D01*
X146902974Y-78028886D01*
X146936383Y-77929105D01*
X147004545Y-77838416D01*
X147067675Y-77786962D01*
X147163732Y-77745888D01*
X147268134Y-77740048D01*
X147268134Y-77635616D01*
X147203804Y-77637027D01*
X147067906Y-77664097D01*
X146955470Y-77726351D01*
X146866903Y-77823535D01*
X146841575Y-77865834D01*
X146811735Y-77930492D01*
X146798669Y-77990860D01*
X146798683Y-78067202D01*
G36*
X145415581Y-78997006D02*
G01*
X145468407Y-79026197D01*
X145552014Y-79070257D01*
X145662776Y-79127334D01*
X145797062Y-79195574D01*
X145951244Y-79273122D01*
X146121695Y-79358125D01*
X146304784Y-79448730D01*
X146333791Y-79463023D01*
X147270416Y-79924275D01*
X146329922Y-80387668D01*
X146128475Y-80487475D01*
X145946203Y-80578882D01*
X145785872Y-80660441D01*
X145650247Y-80730706D01*
X145542095Y-80788227D01*
X145464182Y-80831560D01*
X145419274Y-80859254D01*
X145409172Y-80869474D01*
X145433403Y-80875935D01*
X145495540Y-80887560D01*
X145591555Y-80903722D01*
X145717418Y-80923793D01*
X145869101Y-80947146D01*
X146042573Y-80973154D01*
X146233807Y-81001189D01*
X146438772Y-81030623D01*
X146497833Y-81038996D01*
X146707431Y-81068694D01*
X146905691Y-81096913D01*
X147088392Y-81123046D01*
X147251314Y-81146481D01*
X147390237Y-81166610D01*
X147500941Y-81182823D01*
X147579206Y-81194510D01*
X147620813Y-81201061D01*
X147624958Y-81201818D01*
X147659120Y-81206606D01*
X147676340Y-81196625D01*
X147682421Y-81162257D01*
X147683166Y-81105351D01*
X147678020Y-81032983D01*
X147663617Y-80993040D01*
X147656708Y-80988007D01*
X147630360Y-80983133D01*
X147566871Y-80973255D01*
X147471049Y-80959064D01*
X147347701Y-80941255D01*
X147201634Y-80920520D01*
X147037655Y-80897555D01*
X146860572Y-80873052D01*
X146847902Y-80871310D01*
X146671137Y-80846887D01*
X146508044Y-80824109D01*
X146363268Y-80803643D01*
X146241449Y-80786156D01*
X146147230Y-80772314D01*
X146085254Y-80762785D01*
X146060161Y-80758236D01*
X146059870Y-80758093D01*
X146077020Y-80747905D01*
X146128364Y-80721094D01*
X146210046Y-80679589D01*
X146318208Y-80625320D01*
X146448994Y-80560218D01*
X146598547Y-80486211D01*
X146763010Y-80405230D01*
X146868676Y-80353394D01*
X147070580Y-80253791D01*
X147247728Y-80164991D01*
X147397863Y-80088182D01*
X147518730Y-80024551D01*
X147608072Y-79975287D01*
X147663634Y-79941578D01*
X147683159Y-79924612D01*
X147683166Y-79924454D01*
X147664386Y-79907837D01*
X147609557Y-79874417D01*
X147520946Y-79825390D01*
X147400822Y-79761954D01*
X147251450Y-79685304D01*
X147075099Y-79596637D01*
X146874036Y-79497149D01*
X146865688Y-79493048D01*
X146693828Y-79408383D01*
X146534604Y-79329437D01*
X146391852Y-79258151D01*
X146269408Y-79196463D01*
X146171106Y-79146312D01*
X146100782Y-79109636D01*
X146062273Y-79088375D01*
X146056063Y-79083776D01*
X146077648Y-79079550D01*
X146135608Y-79070440D01*
X146224364Y-79057223D01*
X146338337Y-79040675D01*
X146471948Y-79021572D01*
X146619620Y-79000690D01*
X146775773Y-78978804D01*
X146934829Y-78956692D01*
X147091208Y-78935128D01*
X147239333Y-78914890D01*
X147373625Y-78896752D01*
X147488504Y-78881492D01*
X147578393Y-78869885D01*
X147637713Y-78862706D01*
X147659932Y-78860667D01*
X147674160Y-78841149D01*
X147682147Y-78788774D01*
X147683166Y-78754834D01*
X147681227Y-78691794D01*
X147672204Y-78660330D01*
X147651285Y-78649745D01*
X147635541Y-78648939D01*
X147606691Y-78651829D01*
X147540839Y-78660062D01*
X147442884Y-78672951D01*
X147317725Y-78689807D01*
X147170260Y-78709943D01*
X147005390Y-78732669D01*
X146828013Y-78757297D01*
X146643028Y-78783141D01*
X146455334Y-78809510D01*
X146269831Y-78835717D01*
X146091417Y-78861075D01*
X145924992Y-78884893D01*
X145775455Y-78906486D01*
X145647705Y-78925163D01*
X145546641Y-78940238D01*
X145477161Y-78951022D01*
X145444791Y-78956683D01*
X145407688Y-78971419D01*
X145397166Y-78984539D01*
X145415581Y-78997006D01*
G37*
X145415581Y-78997006D02*
X145468407Y-79026197D01*
X145552014Y-79070257D01*
X145662776Y-79127334D01*
X145797062Y-79195574D01*
X145951244Y-79273122D01*
X146121695Y-79358125D01*
X146304784Y-79448730D01*
X146333791Y-79463023D01*
X147270416Y-79924275D01*
X146329922Y-80387668D01*
X146128475Y-80487475D01*
X145946203Y-80578882D01*
X145785872Y-80660441D01*
X145650247Y-80730706D01*
X145542095Y-80788227D01*
X145464182Y-80831560D01*
X145419274Y-80859254D01*
X145409172Y-80869474D01*
X145433403Y-80875935D01*
X145495540Y-80887560D01*
X145591555Y-80903722D01*
X145717418Y-80923793D01*
X145869101Y-80947146D01*
X146042573Y-80973154D01*
X146233807Y-81001189D01*
X146438772Y-81030623D01*
X146497833Y-81038996D01*
X146707431Y-81068694D01*
X146905691Y-81096913D01*
X147088392Y-81123046D01*
X147251314Y-81146481D01*
X147390237Y-81166610D01*
X147500941Y-81182823D01*
X147579206Y-81194510D01*
X147620813Y-81201061D01*
X147624958Y-81201818D01*
X147659120Y-81206606D01*
X147676340Y-81196625D01*
X147682421Y-81162257D01*
X147683166Y-81105351D01*
X147678020Y-81032983D01*
X147663617Y-80993040D01*
X147656708Y-80988007D01*
X147630360Y-80983133D01*
X147566871Y-80973255D01*
X147471049Y-80959064D01*
X147347701Y-80941255D01*
X147201634Y-80920520D01*
X147037655Y-80897555D01*
X146860572Y-80873052D01*
X146847902Y-80871310D01*
X146671137Y-80846887D01*
X146508044Y-80824109D01*
X146363268Y-80803643D01*
X146241449Y-80786156D01*
X146147230Y-80772314D01*
X146085254Y-80762785D01*
X146060161Y-80758236D01*
X146059870Y-80758093D01*
X146077020Y-80747905D01*
X146128364Y-80721094D01*
X146210046Y-80679589D01*
X146318208Y-80625320D01*
X146448994Y-80560218D01*
X146598547Y-80486211D01*
X146763010Y-80405230D01*
X146868676Y-80353394D01*
X147070580Y-80253791D01*
X147247728Y-80164991D01*
X147397863Y-80088182D01*
X147518730Y-80024551D01*
X147608072Y-79975287D01*
X147663634Y-79941578D01*
X147683159Y-79924612D01*
X147683166Y-79924454D01*
X147664386Y-79907837D01*
X147609557Y-79874417D01*
X147520946Y-79825390D01*
X147400822Y-79761954D01*
X147251450Y-79685304D01*
X147075099Y-79596637D01*
X146874036Y-79497149D01*
X146865688Y-79493048D01*
X146693828Y-79408383D01*
X146534604Y-79329437D01*
X146391852Y-79258151D01*
X146269408Y-79196463D01*
X146171106Y-79146312D01*
X146100782Y-79109636D01*
X146062273Y-79088375D01*
X146056063Y-79083776D01*
X146077648Y-79079550D01*
X146135608Y-79070440D01*
X146224364Y-79057223D01*
X146338337Y-79040675D01*
X146471948Y-79021572D01*
X146619620Y-79000690D01*
X146775773Y-78978804D01*
X146934829Y-78956692D01*
X147091208Y-78935128D01*
X147239333Y-78914890D01*
X147373625Y-78896752D01*
X147488504Y-78881492D01*
X147578393Y-78869885D01*
X147637713Y-78862706D01*
X147659932Y-78860667D01*
X147674160Y-78841149D01*
X147682147Y-78788774D01*
X147683166Y-78754834D01*
X147681227Y-78691794D01*
X147672204Y-78660330D01*
X147651285Y-78649745D01*
X147635541Y-78648939D01*
X147606691Y-78651829D01*
X147540839Y-78660062D01*
X147442884Y-78672951D01*
X147317725Y-78689807D01*
X147170260Y-78709943D01*
X147005390Y-78732669D01*
X146828013Y-78757297D01*
X146643028Y-78783141D01*
X146455334Y-78809510D01*
X146269831Y-78835717D01*
X146091417Y-78861075D01*
X145924992Y-78884893D01*
X145775455Y-78906486D01*
X145647705Y-78925163D01*
X145546641Y-78940238D01*
X145477161Y-78951022D01*
X145444791Y-78956683D01*
X145407688Y-78971419D01*
X145397166Y-78984539D01*
X145415581Y-78997006D01*
G36*
X146807492Y-81876450D02*
G01*
X146854087Y-81995632D01*
X146934991Y-82093054D01*
X147047200Y-82164159D01*
X147088366Y-82180315D01*
X147140277Y-82198031D01*
X147178627Y-82207182D01*
X147205463Y-82202888D01*
X147222835Y-82180269D01*
X147232793Y-82134444D01*
X147237385Y-82060532D01*
X147238661Y-81953653D01*
X147238666Y-81822318D01*
X147238666Y-81439637D01*
X147307458Y-81454346D01*
X147419328Y-81496676D01*
X147503293Y-81565341D01*
X147557250Y-81653111D01*
X147579091Y-81752756D01*
X147566712Y-81857046D01*
X147518007Y-81958752D01*
X147470799Y-82015201D01*
X147421118Y-82075131D01*
X147400747Y-82123289D01*
X147410762Y-82154147D01*
X147442014Y-82162667D01*
X147484566Y-82145244D01*
X147536276Y-82099990D01*
X147588377Y-82037426D01*
X147632104Y-81968073D01*
X147658641Y-81902652D01*
X147677786Y-81807825D01*
X147679089Y-81731923D01*
X147662090Y-81655268D01*
X147652161Y-81625822D01*
X147590768Y-81511348D01*
X147501997Y-81424177D01*
X147392867Y-81366937D01*
X147270402Y-81342260D01*
X147141623Y-81352775D01*
X147130040Y-81356906D01*
X147130040Y-81464167D01*
X147140494Y-81480632D01*
X147147840Y-81531654D01*
X147152268Y-81619670D01*
X147153968Y-81747121D01*
X147154000Y-81771084D01*
X147153051Y-81898305D01*
X147149940Y-81987871D01*
X147144264Y-82044421D01*
X147135625Y-82072596D01*
X147127541Y-82077921D01*
X147073989Y-82061332D01*
X147013445Y-82019393D01*
X146960044Y-81963435D01*
X146935347Y-81923842D01*
X146904059Y-81816348D01*
X146906983Y-81708075D01*
X146941644Y-81609172D01*
X147005568Y-81529787D01*
X147037043Y-81506834D01*
X147087922Y-81478998D01*
X147125501Y-81464680D01*
X147130040Y-81464167D01*
X147130040Y-81356906D01*
X147029734Y-81392685D01*
X146919802Y-81466039D01*
X146845989Y-81560163D01*
X146805861Y-81678710D01*
X146798211Y-81740069D01*
X146807492Y-81876450D01*
G37*
X146807492Y-81876450D02*
X146854087Y-81995632D01*
X146934991Y-82093054D01*
X147047200Y-82164159D01*
X147088366Y-82180315D01*
X147140277Y-82198031D01*
X147178627Y-82207182D01*
X147205463Y-82202888D01*
X147222835Y-82180269D01*
X147232793Y-82134444D01*
X147237385Y-82060532D01*
X147238661Y-81953653D01*
X147238666Y-81822318D01*
X147238666Y-81439637D01*
X147307458Y-81454346D01*
X147419328Y-81496676D01*
X147503293Y-81565341D01*
X147557250Y-81653111D01*
X147579091Y-81752756D01*
X147566712Y-81857046D01*
X147518007Y-81958752D01*
X147470799Y-82015201D01*
X147421118Y-82075131D01*
X147400747Y-82123289D01*
X147410762Y-82154147D01*
X147442014Y-82162667D01*
X147484566Y-82145244D01*
X147536276Y-82099990D01*
X147588377Y-82037426D01*
X147632104Y-81968073D01*
X147658641Y-81902652D01*
X147677786Y-81807825D01*
X147679089Y-81731923D01*
X147662090Y-81655268D01*
X147652161Y-81625822D01*
X147590768Y-81511348D01*
X147501997Y-81424177D01*
X147392867Y-81366937D01*
X147270402Y-81342260D01*
X147141623Y-81352775D01*
X147130040Y-81356906D01*
X147130040Y-81464167D01*
X147140494Y-81480632D01*
X147147840Y-81531654D01*
X147152268Y-81619670D01*
X147153968Y-81747121D01*
X147154000Y-81771084D01*
X147153051Y-81898305D01*
X147149940Y-81987871D01*
X147144264Y-82044421D01*
X147135625Y-82072596D01*
X147127541Y-82077921D01*
X147073989Y-82061332D01*
X147013445Y-82019393D01*
X146960044Y-81963435D01*
X146935347Y-81923842D01*
X146904059Y-81816348D01*
X146906983Y-81708075D01*
X146941644Y-81609172D01*
X147005568Y-81529787D01*
X147037043Y-81506834D01*
X147087922Y-81478998D01*
X147125501Y-81464680D01*
X147130040Y-81464167D01*
X147130040Y-81356906D01*
X147029734Y-81392685D01*
X146919802Y-81466039D01*
X146845989Y-81560163D01*
X146805861Y-81678710D01*
X146798211Y-81740069D01*
X146807492Y-81876450D01*
G36*
X147450333Y-82607167D02*
G01*
X147450333Y-83475000D01*
X147683166Y-83475000D01*
X147683166Y-82374334D01*
X145397166Y-82374334D01*
X145397166Y-82607167D01*
X147450333Y-82607167D01*
G37*
X147450333Y-82607167D02*
X147450333Y-83475000D01*
X147683166Y-83475000D01*
X147683166Y-82374334D01*
X145397166Y-82374334D01*
X145397166Y-82607167D01*
X147450333Y-82607167D01*
G36*
X146821631Y-84169500D02*
G01*
X146880762Y-84272102D01*
X146902987Y-84296969D01*
X146968523Y-84364000D01*
X146891928Y-84364000D01*
X146840750Y-84367655D01*
X146819340Y-84384297D01*
X146815333Y-84416917D01*
X146815333Y-84469834D01*
X147662000Y-84469834D01*
X147662000Y-84416917D01*
X147656679Y-84381507D01*
X147632489Y-84366733D01*
X147585723Y-84364000D01*
X147509447Y-84364000D01*
X147573985Y-84290495D01*
X147645849Y-84180285D01*
X147676903Y-84061469D01*
X147666499Y-83937241D01*
X147653964Y-83895901D01*
X147590839Y-83771437D01*
X147502624Y-83681068D01*
X147389354Y-83624819D01*
X147251067Y-83602715D01*
X147226692Y-83602348D01*
X147208304Y-83603909D01*
X147208304Y-83712130D01*
X147324393Y-83720660D01*
X147423494Y-83762218D01*
X147501237Y-83830123D01*
X147553254Y-83917698D01*
X147575178Y-84018262D01*
X147562639Y-84125135D01*
X147529360Y-84203047D01*
X147456617Y-84289516D01*
X147358853Y-84344520D01*
X147243312Y-84363999D01*
X147242195Y-84364000D01*
X147120892Y-84346093D01*
X147022393Y-84294805D01*
X146950859Y-84213785D01*
X146910446Y-84106682D01*
X146904809Y-84067942D01*
X146911547Y-83948246D01*
X146954011Y-83848452D01*
X147028611Y-83772771D01*
X147131757Y-83725411D01*
X147208304Y-83712130D01*
X147208304Y-83603909D01*
X147120839Y-83611339D01*
X147035408Y-83640498D01*
X147017297Y-83650153D01*
X146917417Y-83727916D01*
X146846481Y-83826818D01*
X146805919Y-83938773D01*
X146797159Y-84055695D01*
X146821631Y-84169500D01*
G37*
X146821631Y-84169500D02*
X146880762Y-84272102D01*
X146902987Y-84296969D01*
X146968523Y-84364000D01*
X146891928Y-84364000D01*
X146840750Y-84367655D01*
X146819340Y-84384297D01*
X146815333Y-84416917D01*
X146815333Y-84469834D01*
X147662000Y-84469834D01*
X147662000Y-84416917D01*
X147656679Y-84381507D01*
X147632489Y-84366733D01*
X147585723Y-84364000D01*
X147509447Y-84364000D01*
X147573985Y-84290495D01*
X147645849Y-84180285D01*
X147676903Y-84061469D01*
X147666499Y-83937241D01*
X147653964Y-83895901D01*
X147590839Y-83771437D01*
X147502624Y-83681068D01*
X147389354Y-83624819D01*
X147251067Y-83602715D01*
X147226692Y-83602348D01*
X147208304Y-83603909D01*
X147208304Y-83712130D01*
X147324393Y-83720660D01*
X147423494Y-83762218D01*
X147501237Y-83830123D01*
X147553254Y-83917698D01*
X147575178Y-84018262D01*
X147562639Y-84125135D01*
X147529360Y-84203047D01*
X147456617Y-84289516D01*
X147358853Y-84344520D01*
X147243312Y-84363999D01*
X147242195Y-84364000D01*
X147120892Y-84346093D01*
X147022393Y-84294805D01*
X146950859Y-84213785D01*
X146910446Y-84106682D01*
X146904809Y-84067942D01*
X146911547Y-83948246D01*
X146954011Y-83848452D01*
X147028611Y-83772771D01*
X147131757Y-83725411D01*
X147208304Y-83712130D01*
X147208304Y-83603909D01*
X147120839Y-83611339D01*
X147035408Y-83640498D01*
X147017297Y-83650153D01*
X146917417Y-83727916D01*
X146846481Y-83826818D01*
X146805919Y-83938773D01*
X146797159Y-84055695D01*
X146821631Y-84169500D01*
D10*
X141852261Y-80516190D02*
X142366309Y-80516190D01*
X142426785Y-80546428D01*
X142457023Y-80576666D01*
X142487261Y-80637142D01*
X142487261Y-80758095D01*
X142457023Y-80818571D01*
X142426785Y-80848809D01*
X142366309Y-80879047D01*
X141852261Y-80879047D01*
X141852261Y-81120952D02*
X141852261Y-81514047D01*
X142094166Y-81302380D01*
X142094166Y-81393095D01*
X142124404Y-81453571D01*
X142154642Y-81483809D01*
X142215119Y-81514047D01*
X142366309Y-81514047D01*
X142426785Y-81483809D01*
X142457023Y-81453571D01*
X142487261Y-81393095D01*
X142487261Y-81211666D01*
X142457023Y-81151190D01*
X142426785Y-81120952D01*
X146788461Y-63198329D02*
X146153461Y-63198329D01*
X146153461Y-63349520D01*
X146183700Y-63440234D01*
X146244176Y-63500710D01*
X146304652Y-63530948D01*
X146425604Y-63561186D01*
X146516319Y-63561186D01*
X146637271Y-63530948D01*
X146697747Y-63500710D01*
X146758223Y-63440234D01*
X146788461Y-63349520D01*
X146788461Y-63198329D01*
X146153461Y-63772853D02*
X146153461Y-64165948D01*
X146395366Y-63954281D01*
X146395366Y-64044996D01*
X146425604Y-64105472D01*
X146455842Y-64135710D01*
X146516319Y-64165948D01*
X146667509Y-64165948D01*
X146727985Y-64135710D01*
X146758223Y-64105472D01*
X146788461Y-64044996D01*
X146788461Y-63863567D01*
X146758223Y-63803091D01*
X146727985Y-63772853D01*
X135926785Y-84991785D02*
X135957023Y-84961547D01*
X135987261Y-84870833D01*
X135987261Y-84810357D01*
X135957023Y-84719642D01*
X135896547Y-84659166D01*
X135836071Y-84628928D01*
X135715119Y-84598690D01*
X135624404Y-84598690D01*
X135503452Y-84628928D01*
X135442976Y-84659166D01*
X135382500Y-84719642D01*
X135352261Y-84810357D01*
X135352261Y-84870833D01*
X135382500Y-84961547D01*
X135412738Y-84991785D01*
X135987261Y-85596547D02*
X135987261Y-85233690D01*
X135987261Y-85415119D02*
X135352261Y-85415119D01*
X135442976Y-85354642D01*
X135503452Y-85294166D01*
X135533690Y-85233690D01*
X135352261Y-86140833D02*
X135352261Y-86019880D01*
X135382500Y-85959404D01*
X135412738Y-85929166D01*
X135503452Y-85868690D01*
X135624404Y-85838452D01*
X135866309Y-85838452D01*
X135926785Y-85868690D01*
X135957023Y-85898928D01*
X135987261Y-85959404D01*
X135987261Y-86080357D01*
X135957023Y-86140833D01*
X135926785Y-86171071D01*
X135866309Y-86201309D01*
X135715119Y-86201309D01*
X135654642Y-86171071D01*
X135624404Y-86140833D01*
X135594166Y-86080357D01*
X135594166Y-85959404D01*
X135624404Y-85898928D01*
X135654642Y-85868690D01*
X135715119Y-85838452D01*
X137346666Y-63857023D02*
X137255952Y-63887261D01*
X137104761Y-63887261D01*
X137044285Y-63857023D01*
X137014047Y-63826785D01*
X136983809Y-63766309D01*
X136983809Y-63705833D01*
X137014047Y-63645357D01*
X137044285Y-63615119D01*
X137104761Y-63584880D01*
X137225714Y-63554642D01*
X137286190Y-63524404D01*
X137316428Y-63494166D01*
X137346666Y-63433690D01*
X137346666Y-63373214D01*
X137316428Y-63312738D01*
X137286190Y-63282500D01*
X137225714Y-63252261D01*
X137074523Y-63252261D01*
X136983809Y-63282500D01*
X136772142Y-63252261D02*
X136620952Y-63887261D01*
X136500000Y-63433690D01*
X136379047Y-63887261D01*
X136227857Y-63252261D01*
X135653333Y-63887261D02*
X136016190Y-63887261D01*
X135834761Y-63887261D02*
X135834761Y-63252261D01*
X135895238Y-63342976D01*
X135955714Y-63403452D01*
X136016190Y-63433690D01*
X138705833Y-70987261D02*
X138917500Y-70684880D01*
X139068690Y-70987261D02*
X139068690Y-70352261D01*
X138826785Y-70352261D01*
X138766309Y-70382500D01*
X138736071Y-70412738D01*
X138705833Y-70473214D01*
X138705833Y-70563928D01*
X138736071Y-70624404D01*
X138766309Y-70654642D01*
X138826785Y-70684880D01*
X139068690Y-70684880D01*
X138101071Y-70987261D02*
X138463928Y-70987261D01*
X138282500Y-70987261D02*
X138282500Y-70352261D01*
X138342976Y-70442976D01*
X138403452Y-70503452D01*
X138463928Y-70533690D01*
X136654642Y-84870833D02*
X136654642Y-84659166D01*
X136987261Y-84659166D02*
X136352261Y-84659166D01*
X136352261Y-84961547D01*
X136654642Y-85415119D02*
X136684880Y-85505833D01*
X136715119Y-85536071D01*
X136775595Y-85566309D01*
X136866309Y-85566309D01*
X136926785Y-85536071D01*
X136957023Y-85505833D01*
X136987261Y-85445357D01*
X136987261Y-85203452D01*
X136352261Y-85203452D01*
X136352261Y-85415119D01*
X136382500Y-85475595D01*
X136412738Y-85505833D01*
X136473214Y-85536071D01*
X136533690Y-85536071D01*
X136594166Y-85505833D01*
X136624404Y-85475595D01*
X136654642Y-85415119D01*
X136654642Y-85203452D01*
X136352261Y-85777976D02*
X136352261Y-86171071D01*
X136594166Y-85959404D01*
X136594166Y-86050119D01*
X136624404Y-86110595D01*
X136654642Y-86140833D01*
X136715119Y-86171071D01*
X136866309Y-86171071D01*
X136926785Y-86140833D01*
X136957023Y-86110595D01*
X136987261Y-86050119D01*
X136987261Y-85868690D01*
X136957023Y-85808214D01*
X136926785Y-85777976D01*
X142754642Y-84770833D02*
X142754642Y-84559166D01*
X143087261Y-84559166D02*
X142452261Y-84559166D01*
X142452261Y-84861547D01*
X142754642Y-85315119D02*
X142784880Y-85405833D01*
X142815119Y-85436071D01*
X142875595Y-85466309D01*
X142966309Y-85466309D01*
X143026785Y-85436071D01*
X143057023Y-85405833D01*
X143087261Y-85345357D01*
X143087261Y-85103452D01*
X142452261Y-85103452D01*
X142452261Y-85315119D01*
X142482500Y-85375595D01*
X142512738Y-85405833D01*
X142573214Y-85436071D01*
X142633690Y-85436071D01*
X142694166Y-85405833D01*
X142724404Y-85375595D01*
X142754642Y-85315119D01*
X142754642Y-85103452D01*
X142512738Y-85708214D02*
X142482500Y-85738452D01*
X142452261Y-85798928D01*
X142452261Y-85950119D01*
X142482500Y-86010595D01*
X142512738Y-86040833D01*
X142573214Y-86071071D01*
X142633690Y-86071071D01*
X142724404Y-86040833D01*
X143087261Y-85677976D01*
X143087261Y-86071071D01*
X142126785Y-84891785D02*
X142157023Y-84861547D01*
X142187261Y-84770833D01*
X142187261Y-84710357D01*
X142157023Y-84619642D01*
X142096547Y-84559166D01*
X142036071Y-84528928D01*
X141915119Y-84498690D01*
X141824404Y-84498690D01*
X141703452Y-84528928D01*
X141642976Y-84559166D01*
X141582500Y-84619642D01*
X141552261Y-84710357D01*
X141552261Y-84770833D01*
X141582500Y-84861547D01*
X141612738Y-84891785D01*
X142187261Y-85496547D02*
X142187261Y-85133690D01*
X142187261Y-85315119D02*
X141552261Y-85315119D01*
X141642976Y-85254642D01*
X141703452Y-85194166D01*
X141733690Y-85133690D01*
X141552261Y-86071071D02*
X141552261Y-85768690D01*
X141854642Y-85738452D01*
X141824404Y-85768690D01*
X141794166Y-85829166D01*
X141794166Y-85980357D01*
X141824404Y-86040833D01*
X141854642Y-86071071D01*
X141915119Y-86101309D01*
X142066309Y-86101309D01*
X142126785Y-86071071D01*
X142157023Y-86040833D01*
X142187261Y-85980357D01*
X142187261Y-85829166D01*
X142157023Y-85768690D01*
X142126785Y-85738452D01*
X145026785Y-77191785D02*
X145057023Y-77161547D01*
X145087261Y-77070833D01*
X145087261Y-77010357D01*
X145057023Y-76919642D01*
X144996547Y-76859166D01*
X144936071Y-76828928D01*
X144815119Y-76798690D01*
X144724404Y-76798690D01*
X144603452Y-76828928D01*
X144542976Y-76859166D01*
X144482500Y-76919642D01*
X144452261Y-77010357D01*
X144452261Y-77070833D01*
X144482500Y-77161547D01*
X144512738Y-77191785D01*
X145087261Y-77796547D02*
X145087261Y-77433690D01*
X145087261Y-77615119D02*
X144452261Y-77615119D01*
X144542976Y-77554642D01*
X144603452Y-77494166D01*
X144633690Y-77433690D01*
X144663928Y-78340833D02*
X145087261Y-78340833D01*
X144422023Y-78189642D02*
X144875595Y-78038452D01*
X144875595Y-78431547D01*
X134926785Y-84991785D02*
X134957023Y-84961547D01*
X134987261Y-84870833D01*
X134987261Y-84810357D01*
X134957023Y-84719642D01*
X134896547Y-84659166D01*
X134836071Y-84628928D01*
X134715119Y-84598690D01*
X134624404Y-84598690D01*
X134503452Y-84628928D01*
X134442976Y-84659166D01*
X134382500Y-84719642D01*
X134352261Y-84810357D01*
X134352261Y-84870833D01*
X134382500Y-84961547D01*
X134412738Y-84991785D01*
X134987261Y-85596547D02*
X134987261Y-85233690D01*
X134987261Y-85415119D02*
X134352261Y-85415119D01*
X134442976Y-85354642D01*
X134503452Y-85294166D01*
X134533690Y-85233690D01*
X134352261Y-85808214D02*
X134352261Y-86201309D01*
X134594166Y-85989642D01*
X134594166Y-86080357D01*
X134624404Y-86140833D01*
X134654642Y-86171071D01*
X134715119Y-86201309D01*
X134866309Y-86201309D01*
X134926785Y-86171071D01*
X134957023Y-86140833D01*
X134987261Y-86080357D01*
X134987261Y-85898928D01*
X134957023Y-85838452D01*
X134926785Y-85808214D01*
X133426785Y-70859285D02*
X133457023Y-70829047D01*
X133487261Y-70738333D01*
X133487261Y-70677857D01*
X133457023Y-70587142D01*
X133396547Y-70526666D01*
X133336071Y-70496428D01*
X133215119Y-70466190D01*
X133124404Y-70466190D01*
X133003452Y-70496428D01*
X132942976Y-70526666D01*
X132882500Y-70587142D01*
X132852261Y-70677857D01*
X132852261Y-70738333D01*
X132882500Y-70829047D01*
X132912738Y-70859285D01*
X133487261Y-71464047D02*
X133487261Y-71101190D01*
X133487261Y-71282619D02*
X132852261Y-71282619D01*
X132942976Y-71222142D01*
X133003452Y-71161666D01*
X133033690Y-71101190D01*
X132912738Y-71705952D02*
X132882500Y-71736190D01*
X132852261Y-71796666D01*
X132852261Y-71947857D01*
X132882500Y-72008333D01*
X132912738Y-72038571D01*
X132973214Y-72068809D01*
X133033690Y-72068809D01*
X133124404Y-72038571D01*
X133487261Y-71675714D01*
X133487261Y-72068809D01*
X147508214Y-73226785D02*
X147538452Y-73257023D01*
X147629166Y-73287261D01*
X147689642Y-73287261D01*
X147780357Y-73257023D01*
X147840833Y-73196547D01*
X147871071Y-73136071D01*
X147901309Y-73015119D01*
X147901309Y-72924404D01*
X147871071Y-72803452D01*
X147840833Y-72742976D01*
X147780357Y-72682500D01*
X147689642Y-72652261D01*
X147629166Y-72652261D01*
X147538452Y-72682500D01*
X147508214Y-72712738D01*
X146903452Y-73287261D02*
X147266309Y-73287261D01*
X147084880Y-73287261D02*
X147084880Y-72652261D01*
X147145357Y-72742976D01*
X147205833Y-72803452D01*
X147266309Y-72833690D01*
X146298690Y-73287261D02*
X146661547Y-73287261D01*
X146480119Y-73287261D02*
X146480119Y-72652261D01*
X146540595Y-72742976D01*
X146601071Y-72803452D01*
X146661547Y-72833690D01*
X147005833Y-74326785D02*
X147036071Y-74357023D01*
X147126785Y-74387261D01*
X147187261Y-74387261D01*
X147277976Y-74357023D01*
X147338452Y-74296547D01*
X147368690Y-74236071D01*
X147398928Y-74115119D01*
X147398928Y-74024404D01*
X147368690Y-73903452D01*
X147338452Y-73842976D01*
X147277976Y-73782500D01*
X147187261Y-73752261D01*
X147126785Y-73752261D01*
X147036071Y-73782500D01*
X147005833Y-73812738D01*
X146642976Y-74024404D02*
X146703452Y-73994166D01*
X146733690Y-73963928D01*
X146763928Y-73903452D01*
X146763928Y-73873214D01*
X146733690Y-73812738D01*
X146703452Y-73782500D01*
X146642976Y-73752261D01*
X146522023Y-73752261D01*
X146461547Y-73782500D01*
X146431309Y-73812738D01*
X146401071Y-73873214D01*
X146401071Y-73903452D01*
X146431309Y-73963928D01*
X146461547Y-73994166D01*
X146522023Y-74024404D01*
X146642976Y-74024404D01*
X146703452Y-74054642D01*
X146733690Y-74084880D01*
X146763928Y-74145357D01*
X146763928Y-74266309D01*
X146733690Y-74326785D01*
X146703452Y-74357023D01*
X146642976Y-74387261D01*
X146522023Y-74387261D01*
X146461547Y-74357023D01*
X146431309Y-74326785D01*
X146401071Y-74266309D01*
X146401071Y-74145357D01*
X146431309Y-74084880D01*
X146461547Y-74054642D01*
X146522023Y-74024404D01*
X147426785Y-69644166D02*
X147457023Y-69613928D01*
X147487261Y-69523214D01*
X147487261Y-69462738D01*
X147457023Y-69372023D01*
X147396547Y-69311547D01*
X147336071Y-69281309D01*
X147215119Y-69251071D01*
X147124404Y-69251071D01*
X147003452Y-69281309D01*
X146942976Y-69311547D01*
X146882500Y-69372023D01*
X146852261Y-69462738D01*
X146852261Y-69523214D01*
X146882500Y-69613928D01*
X146912738Y-69644166D01*
X146852261Y-70188452D02*
X146852261Y-70067500D01*
X146882500Y-70007023D01*
X146912738Y-69976785D01*
X147003452Y-69916309D01*
X147124404Y-69886071D01*
X147366309Y-69886071D01*
X147426785Y-69916309D01*
X147457023Y-69946547D01*
X147487261Y-70007023D01*
X147487261Y-70127976D01*
X147457023Y-70188452D01*
X147426785Y-70218690D01*
X147366309Y-70248928D01*
X147215119Y-70248928D01*
X147154642Y-70218690D01*
X147124404Y-70188452D01*
X147094166Y-70127976D01*
X147094166Y-70007023D01*
X147124404Y-69946547D01*
X147154642Y-69916309D01*
X147215119Y-69886071D01*
X147005833Y-75726785D02*
X147036071Y-75757023D01*
X147126785Y-75787261D01*
X147187261Y-75787261D01*
X147277976Y-75757023D01*
X147338452Y-75696547D01*
X147368690Y-75636071D01*
X147398928Y-75515119D01*
X147398928Y-75424404D01*
X147368690Y-75303452D01*
X147338452Y-75242976D01*
X147277976Y-75182500D01*
X147187261Y-75152261D01*
X147126785Y-75152261D01*
X147036071Y-75182500D01*
X147005833Y-75212738D01*
X146431309Y-75152261D02*
X146733690Y-75152261D01*
X146763928Y-75454642D01*
X146733690Y-75424404D01*
X146673214Y-75394166D01*
X146522023Y-75394166D01*
X146461547Y-75424404D01*
X146431309Y-75454642D01*
X146401071Y-75515119D01*
X146401071Y-75666309D01*
X146431309Y-75726785D01*
X146461547Y-75757023D01*
X146522023Y-75787261D01*
X146673214Y-75787261D01*
X146733690Y-75757023D01*
X146763928Y-75726785D01*
X140644033Y-70926785D02*
X140674271Y-70957023D01*
X140764985Y-70987261D01*
X140825461Y-70987261D01*
X140916176Y-70957023D01*
X140976652Y-70896547D01*
X141006890Y-70836071D01*
X141037128Y-70715119D01*
X141037128Y-70624404D01*
X141006890Y-70503452D01*
X140976652Y-70442976D01*
X140916176Y-70382500D01*
X140825461Y-70352261D01*
X140764985Y-70352261D01*
X140674271Y-70382500D01*
X140644033Y-70412738D01*
X140099747Y-70563928D02*
X140099747Y-70987261D01*
X140250938Y-70322023D02*
X140402128Y-70775595D01*
X140009033Y-70775595D01*
X140752261Y-85116190D02*
X141266309Y-85116190D01*
X141326785Y-85146428D01*
X141357023Y-85176666D01*
X141387261Y-85237142D01*
X141387261Y-85358095D01*
X141357023Y-85418571D01*
X141326785Y-85448809D01*
X141266309Y-85479047D01*
X140752261Y-85479047D01*
X141387261Y-86114047D02*
X141387261Y-85751190D01*
X141387261Y-85932619D02*
X140752261Y-85932619D01*
X140842976Y-85872142D01*
X140903452Y-85811666D01*
X140933690Y-85751190D01*
X140287261Y-62112738D02*
X139984880Y-61901071D01*
X140287261Y-61749880D02*
X139652261Y-61749880D01*
X139652261Y-61991785D01*
X139682500Y-62052261D01*
X139712738Y-62082500D01*
X139773214Y-62112738D01*
X139863928Y-62112738D01*
X139924404Y-62082500D01*
X139954642Y-62052261D01*
X139984880Y-61991785D01*
X139984880Y-61749880D01*
X139863928Y-62294166D02*
X139863928Y-62536071D01*
X139652261Y-62384880D02*
X140196547Y-62384880D01*
X140257023Y-62415119D01*
X140287261Y-62475595D01*
X140287261Y-62536071D01*
X140287261Y-63080357D02*
X140287261Y-62717500D01*
X140287261Y-62898928D02*
X139652261Y-62898928D01*
X139742976Y-62838452D01*
X139803452Y-62777976D01*
X139833690Y-62717500D01*
X133287261Y-66994166D02*
X132984880Y-66782500D01*
X133287261Y-66631309D02*
X132652261Y-66631309D01*
X132652261Y-66873214D01*
X132682500Y-66933690D01*
X132712738Y-66963928D01*
X132773214Y-66994166D01*
X132863928Y-66994166D01*
X132924404Y-66963928D01*
X132954642Y-66933690D01*
X132984880Y-66873214D01*
X132984880Y-66631309D01*
X133287261Y-67296547D02*
X133287261Y-67417500D01*
X133257023Y-67477976D01*
X133226785Y-67508214D01*
X133136071Y-67568690D01*
X133015119Y-67598928D01*
X132773214Y-67598928D01*
X132712738Y-67568690D01*
X132682500Y-67538452D01*
X132652261Y-67477976D01*
X132652261Y-67357023D01*
X132682500Y-67296547D01*
X132712738Y-67266309D01*
X132773214Y-67236071D01*
X132924404Y-67236071D01*
X132984880Y-67266309D01*
X133015119Y-67296547D01*
X133045357Y-67357023D01*
X133045357Y-67477976D01*
X133015119Y-67538452D01*
X132984880Y-67568690D01*
X132924404Y-67598928D01*
X142205833Y-70887261D02*
X142417500Y-70584880D01*
X142568690Y-70887261D02*
X142568690Y-70252261D01*
X142326785Y-70252261D01*
X142266309Y-70282500D01*
X142236071Y-70312738D01*
X142205833Y-70373214D01*
X142205833Y-70463928D01*
X142236071Y-70524404D01*
X142266309Y-70554642D01*
X142326785Y-70584880D01*
X142568690Y-70584880D01*
X141842976Y-70524404D02*
X141903452Y-70494166D01*
X141933690Y-70463928D01*
X141963928Y-70403452D01*
X141963928Y-70373214D01*
X141933690Y-70312738D01*
X141903452Y-70282500D01*
X141842976Y-70252261D01*
X141722023Y-70252261D01*
X141661547Y-70282500D01*
X141631309Y-70312738D01*
X141601071Y-70373214D01*
X141601071Y-70403452D01*
X141631309Y-70463928D01*
X141661547Y-70494166D01*
X141722023Y-70524404D01*
X141842976Y-70524404D01*
X141903452Y-70554642D01*
X141933690Y-70584880D01*
X141963928Y-70645357D01*
X141963928Y-70766309D01*
X141933690Y-70826785D01*
X141903452Y-70857023D01*
X141842976Y-70887261D01*
X141722023Y-70887261D01*
X141661547Y-70857023D01*
X141631309Y-70826785D01*
X141601071Y-70766309D01*
X141601071Y-70645357D01*
X141631309Y-70584880D01*
X141661547Y-70554642D01*
X141722023Y-70524404D01*
X142205833Y-69387261D02*
X142417500Y-69084880D01*
X142568690Y-69387261D02*
X142568690Y-68752261D01*
X142326785Y-68752261D01*
X142266309Y-68782500D01*
X142236071Y-68812738D01*
X142205833Y-68873214D01*
X142205833Y-68963928D01*
X142236071Y-69024404D01*
X142266309Y-69054642D01*
X142326785Y-69084880D01*
X142568690Y-69084880D01*
X141994166Y-68752261D02*
X141570833Y-68752261D01*
X141842976Y-69387261D01*
X146287261Y-65994166D02*
X145984880Y-65782500D01*
X146287261Y-65631309D02*
X145652261Y-65631309D01*
X145652261Y-65873214D01*
X145682500Y-65933690D01*
X145712738Y-65963928D01*
X145773214Y-65994166D01*
X145863928Y-65994166D01*
X145924404Y-65963928D01*
X145954642Y-65933690D01*
X145984880Y-65873214D01*
X145984880Y-65631309D01*
X145652261Y-66568690D02*
X145652261Y-66266309D01*
X145954642Y-66236071D01*
X145924404Y-66266309D01*
X145894166Y-66326785D01*
X145894166Y-66477976D01*
X145924404Y-66538452D01*
X145954642Y-66568690D01*
X146015119Y-66598928D01*
X146166309Y-66598928D01*
X146226785Y-66568690D01*
X146257023Y-66538452D01*
X146287261Y-66477976D01*
X146287261Y-66326785D01*
X146257023Y-66266309D01*
X146226785Y-66236071D01*
X145926785Y-85791785D02*
X145957023Y-85761547D01*
X145987261Y-85670833D01*
X145987261Y-85610357D01*
X145957023Y-85519642D01*
X145896547Y-85459166D01*
X145836071Y-85428928D01*
X145715119Y-85398690D01*
X145624404Y-85398690D01*
X145503452Y-85428928D01*
X145442976Y-85459166D01*
X145382500Y-85519642D01*
X145352261Y-85610357D01*
X145352261Y-85670833D01*
X145382500Y-85761547D01*
X145412738Y-85791785D01*
X145412738Y-86033690D02*
X145382500Y-86063928D01*
X145352261Y-86124404D01*
X145352261Y-86275595D01*
X145382500Y-86336071D01*
X145412738Y-86366309D01*
X145473214Y-86396547D01*
X145533690Y-86396547D01*
X145624404Y-86366309D01*
X145987261Y-86003452D01*
X145987261Y-86396547D01*
X145352261Y-86971071D02*
X145352261Y-86668690D01*
X145654642Y-86638452D01*
X145624404Y-86668690D01*
X145594166Y-86729166D01*
X145594166Y-86880357D01*
X145624404Y-86940833D01*
X145654642Y-86971071D01*
X145715119Y-87001309D01*
X145866309Y-87001309D01*
X145926785Y-86971071D01*
X145957023Y-86940833D01*
X145987261Y-86880357D01*
X145987261Y-86729166D01*
X145957023Y-86668690D01*
X145926785Y-86638452D01*
X144726785Y-85791785D02*
X144757023Y-85761547D01*
X144787261Y-85670833D01*
X144787261Y-85610357D01*
X144757023Y-85519642D01*
X144696547Y-85459166D01*
X144636071Y-85428928D01*
X144515119Y-85398690D01*
X144424404Y-85398690D01*
X144303452Y-85428928D01*
X144242976Y-85459166D01*
X144182500Y-85519642D01*
X144152261Y-85610357D01*
X144152261Y-85670833D01*
X144182500Y-85761547D01*
X144212738Y-85791785D01*
X144212738Y-86033690D02*
X144182500Y-86063928D01*
X144152261Y-86124404D01*
X144152261Y-86275595D01*
X144182500Y-86336071D01*
X144212738Y-86366309D01*
X144273214Y-86396547D01*
X144333690Y-86396547D01*
X144424404Y-86366309D01*
X144787261Y-86003452D01*
X144787261Y-86396547D01*
X144363928Y-86940833D02*
X144787261Y-86940833D01*
X144122023Y-86789642D02*
X144575595Y-86638452D01*
X144575595Y-87031547D01*
M02*
