M48
; DRILL file {KiCad (5.1.5)-2} date 2/6/2020 7:09:13 PM
; FORMAT={-:-/ absolute / metric / decimal}
; #@! TF.CreationDate,2020-02-06T19:09:13-08:00
; #@! TF.GenerationSoftware,Kicad,Pcbnew,(5.1.5)-2
; #@! TF.FileFunction,Plated,1,4,PTH
FMAT,2
METRIC
T1C0.305
T2C0.900
T3C0.920
T4C1.000
T5C2.500
%
G90
G05
T1
X132.609Y-76.538
X132.761Y-64.346
X132.939Y-75.166
X133.091Y-77.148
X133.117Y-75.928
X133.299Y-71.171
X133.325Y-79.908
X134.183Y-84.133
X134.209Y-67.343
X134.417Y-73.177
X134.742Y-82.532
X135.128Y-72.847
X135.276Y-68.918
X135.433Y-78.842
X135.585Y-77.521
X135.707Y-84.463
X135.936Y-78.252
X136.525Y-70.231
X136.761Y-82.062
X137.008Y-69.596
X137.142Y-74.862
X137.142Y-76.167
X137.181Y-84.006
X138.07Y-84.488
X138.349Y-79.561
X138.679Y-71.128
X138.868Y-76.167
X138.882Y-74.862
X139.009Y-86.317
X139.67Y-81.923
X139.67Y-71.077
X140.356Y-77.648
X140.762Y-79.586
X141.194Y-75.624
X141.295Y-83.726
X141.422Y-74.277
X141.422Y-76.614
X141.449Y-78.533
X142.236Y-81.38
X142.476Y-80.411
X142.921Y-72.169
X142.946Y-85.352
X143.556Y-83.167
X143.683Y-76.157
X143.708Y-80.45
X143.734Y-77.833
X143.916Y-62.619
X144.0Y-79.141
X144.255Y-77.236
X144.343Y-74.811
X144.551Y-61.984
X144.648Y-76.462
X144.902Y-84.742
X145.186Y-62.619
X145.436Y-69.324
X145.466Y-70.536
X145.5Y-81.75
X145.74Y-79.383
X146.073Y-80.773
X146.325Y-83.193
X146.35Y-84.768
X146.4Y-65.6
X146.452Y-71.814
X146.548Y-77.999
X146.604Y-63.774
X146.604Y-76.081
X146.858Y-68.969
X147.315Y-73.541
X147.595Y-75.09
T2
X136.25Y-66.5
X138.75Y-66.5
X141.25Y-66.5
X143.75Y-66.5
T3
X136.5Y-87.9
X139.0Y-87.9
X141.0Y-87.9
X143.5Y-87.9
T4
X131.0Y-67.0
X131.0Y-69.0
X131.0Y-71.0
X131.0Y-73.0
X131.0Y-75.0
X131.0Y-77.0
X131.0Y-79.0
X131.0Y-81.0
X131.0Y-83.0
X131.0Y-85.0
X149.0Y-67.0
X149.0Y-69.0
X149.0Y-71.0
X149.0Y-73.0
X149.0Y-75.0
X149.0Y-77.0
X149.0Y-79.0
X149.0Y-81.0
X149.0Y-83.0
X149.0Y-85.0
T5
X134.3Y-90.0
X145.7Y-90.0
T0
M30
