<svg width="3361" height="1935" xmlns="http://www.w3.org/2000/svg" xmlns:xlink="http://www.w3.org/1999/xlink" xml:space="preserve" overflow="hidden"><g transform="translate(-486 -379)"><rect x="1721" y="910" width="534" height="236" stroke="#000000" stroke-width="13.75" stroke-miterlimit="8" fill="#FFFFFF"/><text font-family="Calibri,Calibri_MSFontService,sans-serif" font-weight="400" font-size="83" transform="matrix(1 0 0 1 1879.86 1006)">E</text><text font-family="Calibri,Calibri_MSFontService,sans-serif" font-weight="400" font-size="83" transform="matrix(1 0 0 1 1919.96 1006)">-</text><text font-family="Calibri,Calibri_MSFontService,sans-serif" font-weight="400" font-size="83" transform="matrix(1 0 0 1 1945.17 1006)">Stop </text><text font-family="Calibri,Calibri_MSFontService,sans-serif" font-weight="400" font-size="83" transform="matrix(1 0 0 1 1845.34 1105)">Receiver</text><rect x="1721" y="386" width="534" height="235" stroke="#000000" stroke-width="13.75" stroke-miterlimit="8" fill="#FFFFFF"/><text font-family="Calibri,Calibri_MSFontService,sans-serif" font-weight="400" font-size="83" transform="matrix(1 0 0 1 1879.87 481)">E</text><text font-family="Calibri,Calibri_MSFontService,sans-serif" font-weight="400" font-size="83" transform="matrix(1 0 0 1 1919.97 481)">-</text><text font-family="Calibri,Calibri_MSFontService,sans-serif" font-weight="400" font-size="83" transform="matrix(1 0 0 1 1945.18 481)">Stop </text><text font-family="Calibri,Calibri_MSFontService,sans-serif" font-weight="400" font-size="83" transform="matrix(1 0 0 1 1795.95 580)">Transmitter</text><rect x="1721" y="1483" width="534" height="235" stroke="#000000" stroke-width="13.75" stroke-miterlimit="8" fill="#FFFFFF"/><text font-family="Calibri,Calibri_MSFontService,sans-serif" font-weight="400" font-size="83" transform="matrix(1 0 0 1 1776.1 1628)">USB Adapter</text><rect x="2885" y="910" width="534" height="236" stroke="#000000" stroke-width="13.75" stroke-miterlimit="8" fill="#FFFFFF"/><text font-family="Calibri,Calibri_MSFontService,sans-serif" font-weight="400" font-size="83" transform="matrix(1 0 0 1 2990.69 1055)">Actuators</text><rect x="2927" y="951" width="534" height="235" stroke="#000000" stroke-width="13.75" stroke-miterlimit="8" fill="#FFFFFF"/><text font-family="Calibri,Calibri_MSFontService,sans-serif" font-weight="400" font-size="83" transform="matrix(1 0 0 1 3033.42 1096)">Actuators</text><rect x="2970" y="991" width="534" height="235" stroke="#000000" stroke-width="13.75" stroke-miterlimit="8" fill="#FFFFFF"/><text font-family="Calibri,Calibri_MSFontService,sans-serif" font-weight="400" font-size="83" transform="matrix(1 0 0 1 3076.15 1136)">Actuators</text><rect x="3013" y="1028" width="534" height="235" stroke="#000000" stroke-width="13.75" stroke-miterlimit="8" fill="#FFFFFF"/><text font-family="Calibri,Calibri_MSFontService,sans-serif" font-weight="400" font-size="83" transform="matrix(1 0 0 1 3118.89 1173)">Actuators</text><rect x="560" y="910" width="534" height="236" stroke="#000000" stroke-width="13.75" stroke-miterlimit="8" fill="#FFFFFF"/><text font-family="Calibri,Calibri_MSFontService,sans-serif" font-weight="400" font-size="83" transform="matrix(1 0 0 1 705.401 1055)">Battery</text><rect x="560" y="1483" width="534" height="235" stroke="#000000" stroke-width="13.75" stroke-miterlimit="8" fill="#FFFFFF"/><text font-family="Calibri,Calibri_MSFontService,sans-serif" font-weight="400" font-size="83" transform="matrix(1 0 0 1 695.936 1628)">Charger</text><rect x="1721" y="1963" width="534" height="235" stroke="#000000" stroke-width="13.75" stroke-miterlimit="8" fill="#FFFFFF"/><text font-family="Calibri,Calibri_MSFontService,sans-serif" font-weight="400" font-size="83" transform="matrix(1 0 0 1 1945.05 2108)">PC</text><path d="M784.875 1178.38 784.875 1481.12 771.125 1481.12 771.125 1178.38ZM757.375 1185.25 778 1144 798.625 1185.25Z" fill="#ED7D31"/><text fill="#ED7D31" font-family="Calibri,Calibri_MSFontService,sans-serif" font-weight="400" font-size="83" transform="matrix(1 0 0 1 536.065 1386)">Power</text><path d="M1687.27 985.878 1102 985.875 1102 972.125 1687.27 972.128ZM1680.39 958.378 1721.64 979.004 1680.39 999.628Z" fill="#ED7D31"/><text fill="#ED7D31" font-family="Calibri,Calibri_MSFontService,sans-serif" font-weight="400" font-size="83" transform="matrix(1 0 0 1 1295.63 940)">Power</text><path d="M2845.27 984.878 2260 984.875 2260 971.125 2845.27 971.128ZM2838.39 957.378 2879.64 978.004 2838.39 998.628Z" fill="#ED7D31"/><text fill="#ED7D31" font-family="Calibri,Calibri_MSFontService,sans-serif" font-weight="400" font-size="83" transform="matrix(1 0 0 1 2454.19 938)">Power</text><path d="M1694.22 1078.94 1120.42 1078.94 1120.42 1072.06 1694.22 1072.07ZM1689.64 1061.75 1717.14 1075.5 1689.64 1089.25ZM1125 1089.25 1097.5 1075.5 1125 1061.75Z" fill="#5B9BD5"/><text fill="#5B9BD5" font-family="Calibri,Calibri_MSFontService,sans-serif" font-weight="400" font-size="83" transform="matrix(1 0 0 1 1292.46 1153)">SMBus</text><path d="M885.937 1170.42 885.938 1461.71 879.063 1461.71 879.062 1170.42ZM868.75 1175 882.5 1147.5 896.25 1175ZM896.25 1457.12 882.5 1484.62 868.75 1457.12Z" fill="#5B9BD5"/><text fill="#5B9BD5" font-family="Calibri,Calibri_MSFontService,sans-serif" font-weight="400" font-size="83" transform="matrix(1 0 0 1 910.741 1386)">SMBus</text><text fill="#70AD47" font-family="Calibri,Calibri_MSFontService,sans-serif" font-weight="400" font-size="83" transform="matrix(1 0 0 1 2059.3 743)">2.4G </text><text fill="#70AD47" font-family="Calibri,Calibri_MSFontService,sans-serif" font-weight="400" font-size="83" transform="matrix(1 0 0 1 2059.3 842)">Wireless</text><path d="M3.43754 22.9166 3.43758 50.4166-3.43742 50.4166-3.43746 22.9166ZM3.43761 71.0416 3.43765 98.5416-3.43735 98.5416-3.43739 71.0416ZM3.43768 119.167 3.43773 146.667-3.43727 146.667-3.43732 119.167ZM3.43776 167.292 3.4378 194.792-3.4372 194.792-3.43724 167.292ZM-13.75 27.5 0 0 13.75 27.5ZM13.7503 205.756 0.000360892 233.256-13.7497 205.756Z" fill="#70AD47" transform="matrix(1 0 0 -1 1988.5 882.756)"/><path d="M2857.22 1078.94 2260.5 1078.94 2260.5 1072.06 2857.22 1072.07ZM2852.64 1061.75 2880.14 1075.5 2852.64 1089.25Z" fill="#FFC000"/><text fill="#FFC000" font-family="Calibri,Calibri_MSFontService,sans-serif" font-weight="400" font-size="83" transform="matrix(1 0 0 1 2455.77 1153)">E</text><text fill="#FFC000" font-family="Calibri,Calibri_MSFontService,sans-serif" font-weight="400" font-size="83" transform="matrix(1 0 0 1 2495.87 1153)">-</text><text fill="#FFC000" font-family="Calibri,Calibri_MSFontService,sans-serif" font-weight="400" font-size="83" transform="matrix(1 0 0 1 2521.08 1153)">Stop</text><path d="M1991.94 1741.42 1991.94 1941.3 1985.06 1941.3 1985.06 1741.42ZM1974.75 1746 1988.5 1718.5 2002.25 1746ZM2002.25 1936.72 1988.5 1964.22 1974.75 1936.72Z" fill="#5B9BD5"/><text fill="#5B9BD5" font-family="Calibri,Calibri_MSFontService,sans-serif" font-weight="400" font-size="83" transform="matrix(1 0 0 1 2018.34 1901)">USB</text><path d="M22.9168-3.4375 523.366-3.4375 523.366 427.284 519.929 423.847 599.097 423.847 599.097 430.722 516.491 430.722 516.491 0 519.929 3.4375 22.9168 3.4375ZM27.5 13.75 0 0 27.5-13.75ZM594.514 413.534 622.014 427.284 594.514 441.034Z" fill="#5B9BD5" transform="matrix(1 0 0 -1 2260.5 1600.78)"/><text fill="#5B9BD5" font-family="Calibri,Calibri_MSFontService,sans-serif" font-weight="400" font-size="83" transform="matrix(1 0 0 1 2442.71 1562)">RS</text><text fill="#5B9BD5" font-family="Calibri,Calibri_MSFontService,sans-serif" font-weight="400" font-size="83" transform="matrix(1 0 0 1 2524.14 1562)">-</text><text fill="#5B9BD5" font-family="Calibri,Calibri_MSFontService,sans-serif" font-weight="400" font-size="83" transform="matrix(1 0 0 1 2549.34 1562)">485</text><text font-family="Consolas,Consolas_MSFontService,sans-serif" font-weight="400" font-size="55" transform="matrix(1 0 0 1 3194.51 1325)">romela</text><text font-family="Consolas,Consolas_MSFontService,sans-serif" font-weight="400" font-size="55" transform="matrix(1 0 0 1 3376.7 1325)">-</text><text font-family="Consolas,Consolas_MSFontService,sans-serif" font-weight="400" font-size="55" transform="matrix(1 0 0 1 3407.07 1325)">motor</text><text font-family="Consolas,Consolas_MSFontService,sans-serif" font-weight="400" font-size="55" transform="matrix(1 0 0 1 3558.89 1325)">-</text><text font-family="Consolas,Consolas_MSFontService,sans-serif" font-weight="400" font-size="55" transform="matrix(1 0 0 1 3589.25 1325)">driver</text><text font-family="Consolas,Consolas_MSFontService,sans-serif" font-weight="400" font-size="55" transform="matrix(1 0 0 1 2059.3 1778)">usb2romela</text><text font-family="Consolas,Consolas_MSFontService,sans-serif" font-weight="400" font-size="55" transform="matrix(1 0 0 1 2111.53 2267)">CBEAR</text><text font-family="Consolas,Consolas_MSFontService,sans-serif" font-weight="400" font-size="55" transform="matrix(1 0 0 1 822.786 1786)">RB</text><text font-family="Consolas,Consolas_MSFontService,sans-serif" font-weight="400" font-size="55" transform="matrix(1 0 0 1 883.515 1786)">-</text><text font-family="Consolas,Consolas_MSFontService,sans-serif" font-weight="400" font-size="55" transform="matrix(1 0 0 1 913.88 1786)">SMBus</text><text font-family="Consolas,Consolas_MSFontService,sans-serif" font-weight="400" font-size="55" transform="matrix(1 0 0 1 1065.7 1786)">-</text><text font-family="Consolas,Consolas_MSFontService,sans-serif" font-weight="400" font-size="55" transform="matrix(1 0 0 1 1096.07 1786)">charger</text><text font-family="Consolas,Consolas_MSFontService,sans-serif" font-weight="400" font-size="55" transform="matrix(1 0 0 1 934.764 1220)">romela</text><text font-family="Consolas,Consolas_MSFontService,sans-serif" font-weight="400" font-size="55" transform="matrix(1 0 0 1 1116.95 1220)">-</text><text font-family="Consolas,Consolas_MSFontService,sans-serif" font-weight="400" font-size="55" transform="matrix(1 0 0 1 1147.32 1220)">bms</text></g></svg>